<?xml version="1.0" encoding="utf-8"?>
<svg xmlns="http://www.w3.org/2000/svg" xmlns:xlink="http://www.w3.org/1999/xlink" width="600" height="400" viewBox="0 0 2400 1600">
<defs>
  <clipPath id="clip800">
    <rect x="0" y="0" width="2400" height="1600"/>
  </clipPath>
</defs>
<path clip-path="url(#clip800)" d="M0 1600 L2400 1600 L2400 0 L0 0  Z" fill="#ffffff" fill-rule="evenodd" fill-opacity="1"/>
<defs>
  <clipPath id="clip801">
    <rect x="480" y="0" width="1681" height="1600"/>
  </clipPath>
</defs>
<path clip-path="url(#clip800)" d="M246.598 1423.18 L2352.76 1423.18 L2352.76 47.2441 L246.598 47.2441  Z" fill="#ffffff" fill-rule="evenodd" fill-opacity="1"/>
<defs>
  <clipPath id="clip802">
    <rect x="246" y="47" width="2107" height="1377"/>
  </clipPath>
</defs>
<polyline clip-path="url(#clip802)" style="stroke:#000000; stroke-linecap:round; stroke-linejoin:round; stroke-width:2; stroke-opacity:0.1; fill:none" points="246.598,1423.18 246.598,47.2441 "/>
<polyline clip-path="url(#clip802)" style="stroke:#000000; stroke-linecap:round; stroke-linejoin:round; stroke-width:2; stroke-opacity:0.1; fill:none" points="667.829,1423.18 667.829,47.2441 "/>
<polyline clip-path="url(#clip802)" style="stroke:#000000; stroke-linecap:round; stroke-linejoin:round; stroke-width:2; stroke-opacity:0.1; fill:none" points="1089.06,1423.18 1089.06,47.2441 "/>
<polyline clip-path="url(#clip802)" style="stroke:#000000; stroke-linecap:round; stroke-linejoin:round; stroke-width:2; stroke-opacity:0.1; fill:none" points="1510.29,1423.18 1510.29,47.2441 "/>
<polyline clip-path="url(#clip802)" style="stroke:#000000; stroke-linecap:round; stroke-linejoin:round; stroke-width:2; stroke-opacity:0.1; fill:none" points="1931.52,1423.18 1931.52,47.2441 "/>
<polyline clip-path="url(#clip802)" style="stroke:#000000; stroke-linecap:round; stroke-linejoin:round; stroke-width:2; stroke-opacity:0.1; fill:none" points="246.598,1384.24 2352.76,1384.24 "/>
<polyline clip-path="url(#clip802)" style="stroke:#000000; stroke-linecap:round; stroke-linejoin:round; stroke-width:2; stroke-opacity:0.1; fill:none" points="246.598,1109.48 2352.76,1109.48 "/>
<polyline clip-path="url(#clip802)" style="stroke:#000000; stroke-linecap:round; stroke-linejoin:round; stroke-width:2; stroke-opacity:0.1; fill:none" points="246.598,834.727 2352.76,834.727 "/>
<polyline clip-path="url(#clip802)" style="stroke:#000000; stroke-linecap:round; stroke-linejoin:round; stroke-width:2; stroke-opacity:0.1; fill:none" points="246.598,559.971 2352.76,559.971 "/>
<polyline clip-path="url(#clip802)" style="stroke:#000000; stroke-linecap:round; stroke-linejoin:round; stroke-width:2; stroke-opacity:0.1; fill:none" points="246.598,285.215 2352.76,285.215 "/>
<polyline clip-path="url(#clip800)" style="stroke:#000000; stroke-linecap:round; stroke-linejoin:round; stroke-width:4; stroke-opacity:1; fill:none" points="246.598,1423.18 2352.76,1423.18 "/>
<polyline clip-path="url(#clip800)" style="stroke:#000000; stroke-linecap:round; stroke-linejoin:round; stroke-width:4; stroke-opacity:1; fill:none" points="246.598,1423.18 246.598,1404.28 "/>
<polyline clip-path="url(#clip800)" style="stroke:#000000; stroke-linecap:round; stroke-linejoin:round; stroke-width:4; stroke-opacity:1; fill:none" points="667.829,1423.18 667.829,1404.28 "/>
<polyline clip-path="url(#clip800)" style="stroke:#000000; stroke-linecap:round; stroke-linejoin:round; stroke-width:4; stroke-opacity:1; fill:none" points="1089.06,1423.18 1089.06,1404.28 "/>
<polyline clip-path="url(#clip800)" style="stroke:#000000; stroke-linecap:round; stroke-linejoin:round; stroke-width:4; stroke-opacity:1; fill:none" points="1510.29,1423.18 1510.29,1404.28 "/>
<polyline clip-path="url(#clip800)" style="stroke:#000000; stroke-linecap:round; stroke-linejoin:round; stroke-width:4; stroke-opacity:1; fill:none" points="1931.52,1423.18 1931.52,1404.28 "/>
<path clip-path="url(#clip800)" d="M208.901 1454.1 Q205.29 1454.1 203.461 1457.66 Q201.656 1461.2 201.656 1468.33 Q201.656 1475.44 203.461 1479.01 Q205.29 1482.55 208.901 1482.55 Q212.535 1482.55 214.341 1479.01 Q216.17 1475.44 216.17 1468.33 Q216.17 1461.2 214.341 1457.66 Q212.535 1454.1 208.901 1454.1 M208.901 1450.39 Q214.711 1450.39 217.767 1455 Q220.846 1459.58 220.846 1468.33 Q220.846 1477.06 217.767 1481.67 Q214.711 1486.25 208.901 1486.25 Q203.091 1486.25 200.012 1481.67 Q196.957 1477.06 196.957 1468.33 Q196.957 1459.58 200.012 1455 Q203.091 1450.39 208.901 1450.39 Z" fill="#000000" fill-rule="nonzero" fill-opacity="1" /><path clip-path="url(#clip800)" d="M229.063 1479.7 L233.947 1479.7 L233.947 1485.58 L229.063 1485.58 L229.063 1479.7 Z" fill="#000000" fill-rule="nonzero" fill-opacity="1" /><path clip-path="url(#clip800)" d="M254.132 1454.1 Q250.521 1454.1 248.693 1457.66 Q246.887 1461.2 246.887 1468.33 Q246.887 1475.44 248.693 1479.01 Q250.521 1482.55 254.132 1482.55 Q257.767 1482.55 259.572 1479.01 Q261.401 1475.44 261.401 1468.33 Q261.401 1461.2 259.572 1457.66 Q257.767 1454.1 254.132 1454.1 M254.132 1450.39 Q259.943 1450.39 262.998 1455 Q266.077 1459.58 266.077 1468.33 Q266.077 1477.06 262.998 1481.67 Q259.943 1486.25 254.132 1486.25 Q248.322 1486.25 245.244 1481.67 Q242.188 1477.06 242.188 1468.33 Q242.188 1459.58 245.244 1455 Q248.322 1450.39 254.132 1450.39 Z" fill="#000000" fill-rule="nonzero" fill-opacity="1" /><path clip-path="url(#clip800)" d="M284.294 1454.1 Q280.683 1454.1 278.855 1457.66 Q277.049 1461.2 277.049 1468.33 Q277.049 1475.44 278.855 1479.01 Q280.683 1482.55 284.294 1482.55 Q287.929 1482.55 289.734 1479.01 Q291.563 1475.44 291.563 1468.33 Q291.563 1461.2 289.734 1457.66 Q287.929 1454.1 284.294 1454.1 M284.294 1450.39 Q290.104 1450.39 293.16 1455 Q296.239 1459.58 296.239 1468.33 Q296.239 1477.06 293.16 1481.67 Q290.104 1486.25 284.294 1486.25 Q278.484 1486.25 275.405 1481.67 Q272.35 1477.06 272.35 1468.33 Q272.35 1459.58 275.405 1455 Q278.484 1450.39 284.294 1450.39 Z" fill="#000000" fill-rule="nonzero" fill-opacity="1" /><path clip-path="url(#clip800)" d="M630.931 1454.1 Q627.32 1454.1 625.492 1457.66 Q623.686 1461.2 623.686 1468.33 Q623.686 1475.44 625.492 1479.01 Q627.32 1482.55 630.931 1482.55 Q634.566 1482.55 636.371 1479.01 Q638.2 1475.44 638.2 1468.33 Q638.2 1461.2 636.371 1457.66 Q634.566 1454.1 630.931 1454.1 M630.931 1450.39 Q636.742 1450.39 639.797 1455 Q642.876 1459.58 642.876 1468.33 Q642.876 1477.06 639.797 1481.67 Q636.742 1486.25 630.931 1486.25 Q625.121 1486.25 622.043 1481.67 Q618.987 1477.06 618.987 1468.33 Q618.987 1459.58 622.043 1455 Q625.121 1450.39 630.931 1450.39 Z" fill="#000000" fill-rule="nonzero" fill-opacity="1" /><path clip-path="url(#clip800)" d="M651.093 1479.7 L655.978 1479.7 L655.978 1485.58 L651.093 1485.58 L651.093 1479.7 Z" fill="#000000" fill-rule="nonzero" fill-opacity="1" /><path clip-path="url(#clip800)" d="M676.163 1454.1 Q672.552 1454.1 670.723 1457.66 Q668.917 1461.2 668.917 1468.33 Q668.917 1475.44 670.723 1479.01 Q672.552 1482.55 676.163 1482.55 Q679.797 1482.55 681.602 1479.01 Q683.431 1475.44 683.431 1468.33 Q683.431 1461.2 681.602 1457.66 Q679.797 1454.1 676.163 1454.1 M676.163 1450.39 Q681.973 1450.39 685.028 1455 Q688.107 1459.58 688.107 1468.33 Q688.107 1477.06 685.028 1481.67 Q681.973 1486.25 676.163 1486.25 Q670.353 1486.25 667.274 1481.67 Q664.218 1477.06 664.218 1468.33 Q664.218 1459.58 667.274 1455 Q670.353 1450.39 676.163 1450.39 Z" fill="#000000" fill-rule="nonzero" fill-opacity="1" /><path clip-path="url(#clip800)" d="M700.352 1481.64 L716.672 1481.64 L716.672 1485.58 L694.727 1485.58 L694.727 1481.64 Q697.389 1478.89 701.973 1474.26 Q706.579 1469.61 707.76 1468.27 Q710.005 1465.74 710.885 1464.01 Q711.787 1462.25 711.787 1460.56 Q711.787 1457.8 709.843 1456.07 Q707.922 1454.33 704.82 1454.33 Q702.621 1454.33 700.167 1455.09 Q697.737 1455.86 694.959 1457.41 L694.959 1452.69 Q697.783 1451.55 700.237 1450.97 Q702.69 1450.39 704.727 1450.39 Q710.098 1450.39 713.292 1453.08 Q716.487 1455.77 716.487 1460.26 Q716.487 1462.39 715.676 1464.31 Q714.889 1466.2 712.783 1468.8 Q712.204 1469.47 709.102 1472.69 Q706 1475.88 700.352 1481.64 Z" fill="#000000" fill-rule="nonzero" fill-opacity="1" /><path clip-path="url(#clip800)" d="M1051.12 1454.1 Q1047.51 1454.1 1045.68 1457.66 Q1043.88 1461.2 1043.88 1468.33 Q1043.88 1475.44 1045.68 1479.01 Q1047.51 1482.55 1051.12 1482.55 Q1054.76 1482.55 1056.56 1479.01 Q1058.39 1475.44 1058.39 1468.33 Q1058.39 1461.2 1056.56 1457.66 Q1054.76 1454.1 1051.12 1454.1 M1051.12 1450.39 Q1056.93 1450.39 1059.99 1455 Q1063.07 1459.58 1063.07 1468.33 Q1063.07 1477.06 1059.99 1481.67 Q1056.93 1486.25 1051.12 1486.25 Q1045.31 1486.25 1042.23 1481.67 Q1039.18 1477.06 1039.18 1468.33 Q1039.18 1459.58 1042.23 1455 Q1045.31 1450.39 1051.12 1450.39 Z" fill="#000000" fill-rule="nonzero" fill-opacity="1" /><path clip-path="url(#clip800)" d="M1071.28 1479.7 L1076.17 1479.7 L1076.17 1485.58 L1071.28 1485.58 L1071.28 1479.7 Z" fill="#000000" fill-rule="nonzero" fill-opacity="1" /><path clip-path="url(#clip800)" d="M1096.35 1454.1 Q1092.74 1454.1 1090.91 1457.66 Q1089.11 1461.2 1089.11 1468.33 Q1089.11 1475.44 1090.91 1479.01 Q1092.74 1482.55 1096.35 1482.55 Q1099.99 1482.55 1101.79 1479.01 Q1103.62 1475.44 1103.62 1468.33 Q1103.62 1461.2 1101.79 1457.66 Q1099.99 1454.1 1096.35 1454.1 M1096.35 1450.39 Q1102.16 1450.39 1105.22 1455 Q1108.3 1459.58 1108.3 1468.33 Q1108.3 1477.06 1105.22 1481.67 Q1102.16 1486.25 1096.35 1486.25 Q1090.54 1486.25 1087.46 1481.67 Q1084.41 1477.06 1084.41 1468.33 Q1084.41 1459.58 1087.46 1455 Q1090.54 1450.39 1096.35 1450.39 Z" fill="#000000" fill-rule="nonzero" fill-opacity="1" /><path clip-path="url(#clip800)" d="M1129.36 1455.09 L1117.56 1473.54 L1129.36 1473.54 L1129.36 1455.09 M1128.13 1451.02 L1134.01 1451.02 L1134.01 1473.54 L1138.95 1473.54 L1138.95 1477.43 L1134.01 1477.43 L1134.01 1485.58 L1129.36 1485.58 L1129.36 1477.43 L1113.76 1477.43 L1113.76 1472.92 L1128.13 1451.02 Z" fill="#000000" fill-rule="nonzero" fill-opacity="1" /><path clip-path="url(#clip800)" d="M1472.52 1454.1 Q1468.9 1454.1 1467.08 1457.66 Q1465.27 1461.2 1465.27 1468.33 Q1465.27 1475.44 1467.08 1479.01 Q1468.9 1482.55 1472.52 1482.55 Q1476.15 1482.55 1477.95 1479.01 Q1479.78 1475.44 1479.78 1468.33 Q1479.78 1461.2 1477.95 1457.66 Q1476.15 1454.1 1472.52 1454.1 M1472.52 1450.39 Q1478.33 1450.39 1481.38 1455 Q1484.46 1459.58 1484.46 1468.33 Q1484.46 1477.06 1481.38 1481.67 Q1478.33 1486.25 1472.52 1486.25 Q1466.7 1486.25 1463.63 1481.67 Q1460.57 1477.06 1460.57 1468.33 Q1460.57 1459.58 1463.63 1455 Q1466.7 1450.39 1472.52 1450.39 Z" fill="#000000" fill-rule="nonzero" fill-opacity="1" /><path clip-path="url(#clip800)" d="M1492.68 1479.7 L1497.56 1479.7 L1497.56 1485.58 L1492.68 1485.58 L1492.68 1479.7 Z" fill="#000000" fill-rule="nonzero" fill-opacity="1" /><path clip-path="url(#clip800)" d="M1517.75 1454.1 Q1514.14 1454.1 1512.31 1457.66 Q1510.5 1461.2 1510.5 1468.33 Q1510.5 1475.44 1512.31 1479.01 Q1514.14 1482.55 1517.75 1482.55 Q1521.38 1482.55 1523.19 1479.01 Q1525.01 1475.44 1525.01 1468.33 Q1525.01 1461.2 1523.19 1457.66 Q1521.38 1454.1 1517.75 1454.1 M1517.75 1450.39 Q1523.56 1450.39 1526.61 1455 Q1529.69 1459.58 1529.69 1468.33 Q1529.69 1477.06 1526.61 1481.67 Q1523.56 1486.25 1517.75 1486.25 Q1511.94 1486.25 1508.86 1481.67 Q1505.8 1477.06 1505.8 1468.33 Q1505.8 1459.58 1508.86 1455 Q1511.94 1450.39 1517.75 1450.39 Z" fill="#000000" fill-rule="nonzero" fill-opacity="1" /><path clip-path="url(#clip800)" d="M1548.49 1466.44 Q1545.34 1466.44 1543.49 1468.59 Q1541.66 1470.74 1541.66 1474.49 Q1541.66 1478.22 1543.49 1480.39 Q1545.34 1482.55 1548.49 1482.55 Q1551.64 1482.55 1553.46 1480.39 Q1555.32 1478.22 1555.32 1474.49 Q1555.32 1470.74 1553.46 1468.59 Q1551.64 1466.44 1548.49 1466.44 M1557.77 1451.78 L1557.77 1456.04 Q1556.01 1455.21 1554.2 1454.77 Q1552.42 1454.33 1550.66 1454.33 Q1546.03 1454.33 1543.58 1457.45 Q1541.15 1460.58 1540.8 1466.9 Q1542.17 1464.89 1544.23 1463.82 Q1546.29 1462.73 1548.76 1462.73 Q1553.97 1462.73 1556.98 1465.9 Q1560.01 1469.05 1560.01 1474.49 Q1560.01 1479.82 1556.87 1483.03 Q1553.72 1486.25 1548.49 1486.25 Q1542.49 1486.25 1539.32 1481.67 Q1536.15 1477.06 1536.15 1468.33 Q1536.15 1460.14 1540.04 1455.28 Q1543.93 1450.39 1550.48 1450.39 Q1552.24 1450.39 1554.02 1450.74 Q1555.82 1451.09 1557.77 1451.78 Z" fill="#000000" fill-rule="nonzero" fill-opacity="1" /><path clip-path="url(#clip800)" d="M1893.87 1454.1 Q1890.26 1454.1 1888.43 1457.66 Q1886.63 1461.2 1886.63 1468.33 Q1886.63 1475.44 1888.43 1479.01 Q1890.26 1482.55 1893.87 1482.55 Q1897.51 1482.55 1899.31 1479.01 Q1901.14 1475.44 1901.14 1468.33 Q1901.14 1461.2 1899.31 1457.66 Q1897.51 1454.1 1893.87 1454.1 M1893.87 1450.39 Q1899.68 1450.39 1902.74 1455 Q1905.82 1459.58 1905.82 1468.33 Q1905.82 1477.06 1902.74 1481.67 Q1899.68 1486.25 1893.87 1486.25 Q1888.06 1486.25 1884.99 1481.67 Q1881.93 1477.06 1881.93 1468.33 Q1881.93 1459.58 1884.99 1455 Q1888.06 1450.39 1893.87 1450.39 Z" fill="#000000" fill-rule="nonzero" fill-opacity="1" /><path clip-path="url(#clip800)" d="M1914.04 1479.7 L1918.92 1479.7 L1918.92 1485.58 L1914.04 1485.58 L1914.04 1479.7 Z" fill="#000000" fill-rule="nonzero" fill-opacity="1" /><path clip-path="url(#clip800)" d="M1939.11 1454.1 Q1935.49 1454.1 1933.67 1457.66 Q1931.86 1461.2 1931.86 1468.33 Q1931.86 1475.44 1933.67 1479.01 Q1935.49 1482.55 1939.11 1482.55 Q1942.74 1482.55 1944.55 1479.01 Q1946.37 1475.44 1946.37 1468.33 Q1946.37 1461.2 1944.55 1457.66 Q1942.74 1454.1 1939.11 1454.1 M1939.11 1450.39 Q1944.92 1450.39 1947.97 1455 Q1951.05 1459.58 1951.05 1468.33 Q1951.05 1477.06 1947.97 1481.67 Q1944.92 1486.25 1939.11 1486.25 Q1933.3 1486.25 1930.22 1481.67 Q1927.16 1477.06 1927.16 1468.33 Q1927.16 1459.58 1930.22 1455 Q1933.3 1450.39 1939.11 1450.39 Z" fill="#000000" fill-rule="nonzero" fill-opacity="1" /><path clip-path="url(#clip800)" d="M1969.27 1469.17 Q1965.93 1469.17 1964.01 1470.95 Q1962.11 1472.73 1962.11 1475.86 Q1962.11 1478.98 1964.01 1480.77 Q1965.93 1482.55 1969.27 1482.55 Q1972.6 1482.55 1974.52 1480.77 Q1976.44 1478.96 1976.44 1475.86 Q1976.44 1472.73 1974.52 1470.95 Q1972.62 1469.17 1969.27 1469.17 M1964.59 1467.18 Q1961.58 1466.44 1959.89 1464.38 Q1958.23 1462.32 1958.23 1459.35 Q1958.23 1455.21 1961.17 1452.8 Q1964.13 1450.39 1969.27 1450.39 Q1974.43 1450.39 1977.37 1452.8 Q1980.31 1455.21 1980.31 1459.35 Q1980.31 1462.32 1978.62 1464.38 Q1976.95 1466.44 1973.97 1467.18 Q1977.35 1467.96 1979.22 1470.26 Q1981.12 1472.55 1981.12 1475.86 Q1981.12 1480.88 1978.04 1483.57 Q1974.98 1486.25 1969.27 1486.25 Q1963.55 1486.25 1960.47 1483.57 Q1957.42 1480.88 1957.42 1475.86 Q1957.42 1472.55 1959.31 1470.26 Q1961.21 1467.96 1964.59 1467.18 M1962.88 1459.79 Q1962.88 1462.48 1964.54 1463.98 Q1966.23 1465.49 1969.27 1465.49 Q1972.28 1465.49 1973.97 1463.98 Q1975.68 1462.48 1975.68 1459.79 Q1975.68 1457.11 1973.97 1455.6 Q1972.28 1454.1 1969.27 1454.1 Q1966.23 1454.1 1964.54 1455.6 Q1962.88 1457.11 1962.88 1459.79 Z" fill="#000000" fill-rule="nonzero" fill-opacity="1" /><path clip-path="url(#clip800)" d="M1298.74 1522.27 L1298.74 1532.4 L1310.8 1532.4 L1310.8 1536.95 L1298.74 1536.95 L1298.74 1556.3 Q1298.74 1560.66 1299.92 1561.9 Q1301.13 1563.14 1304.79 1563.14 L1310.8 1563.14 L1310.8 1568.04 L1304.79 1568.04 Q1298.01 1568.04 1295.43 1565.53 Q1292.85 1562.98 1292.85 1556.3 L1292.85 1536.95 L1288.55 1536.95 L1288.55 1532.4 L1292.85 1532.4 L1292.85 1522.27 L1298.74 1522.27 Z" fill="#000000" fill-rule="nonzero" fill-opacity="1" /><polyline clip-path="url(#clip800)" style="stroke:#000000; stroke-linecap:round; stroke-linejoin:round; stroke-width:4; stroke-opacity:1; fill:none" points="246.598,1423.18 246.598,47.2441 "/>
<polyline clip-path="url(#clip800)" style="stroke:#000000; stroke-linecap:round; stroke-linejoin:round; stroke-width:4; stroke-opacity:1; fill:none" points="246.598,1384.24 265.495,1384.24 "/>
<polyline clip-path="url(#clip800)" style="stroke:#000000; stroke-linecap:round; stroke-linejoin:round; stroke-width:4; stroke-opacity:1; fill:none" points="246.598,1109.48 265.495,1109.48 "/>
<polyline clip-path="url(#clip800)" style="stroke:#000000; stroke-linecap:round; stroke-linejoin:round; stroke-width:4; stroke-opacity:1; fill:none" points="246.598,834.727 265.495,834.727 "/>
<polyline clip-path="url(#clip800)" style="stroke:#000000; stroke-linecap:round; stroke-linejoin:round; stroke-width:4; stroke-opacity:1; fill:none" points="246.598,559.971 265.495,559.971 "/>
<polyline clip-path="url(#clip800)" style="stroke:#000000; stroke-linecap:round; stroke-linejoin:round; stroke-width:4; stroke-opacity:1; fill:none" points="246.598,285.215 265.495,285.215 "/>
<path clip-path="url(#clip800)" d="M62.9365 1370.04 Q59.3254 1370.04 57.4967 1373.6 Q55.6912 1377.14 55.6912 1384.27 Q55.6912 1391.38 57.4967 1394.94 Q59.3254 1398.49 62.9365 1398.49 Q66.5707 1398.49 68.3763 1394.94 Q70.205 1391.38 70.205 1384.27 Q70.205 1377.14 68.3763 1373.6 Q66.5707 1370.04 62.9365 1370.04 M62.9365 1366.33 Q68.7467 1366.33 71.8022 1370.94 Q74.8809 1375.52 74.8809 1384.27 Q74.8809 1393 71.8022 1397.61 Q68.7467 1402.19 62.9365 1402.19 Q57.1264 1402.19 54.0477 1397.61 Q50.9921 1393 50.9921 1384.27 Q50.9921 1375.52 54.0477 1370.94 Q57.1264 1366.33 62.9365 1366.33 Z" fill="#000000" fill-rule="nonzero" fill-opacity="1" /><path clip-path="url(#clip800)" d="M83.0984 1395.64 L87.9827 1395.64 L87.9827 1401.52 L83.0984 1401.52 L83.0984 1395.64 Z" fill="#000000" fill-rule="nonzero" fill-opacity="1" /><path clip-path="url(#clip800)" d="M108.168 1370.04 Q104.557 1370.04 102.728 1373.6 Q100.922 1377.14 100.922 1384.27 Q100.922 1391.38 102.728 1394.94 Q104.557 1398.49 108.168 1398.49 Q111.802 1398.49 113.608 1394.94 Q115.436 1391.38 115.436 1384.27 Q115.436 1377.14 113.608 1373.6 Q111.802 1370.04 108.168 1370.04 M108.168 1366.33 Q113.978 1366.33 117.033 1370.94 Q120.112 1375.52 120.112 1384.27 Q120.112 1393 117.033 1397.61 Q113.978 1402.19 108.168 1402.19 Q102.358 1402.19 99.2789 1397.61 Q96.2234 1393 96.2234 1384.27 Q96.2234 1375.52 99.2789 1370.94 Q102.358 1366.33 108.168 1366.33 Z" fill="#000000" fill-rule="nonzero" fill-opacity="1" /><path clip-path="url(#clip800)" d="M138.33 1370.04 Q134.719 1370.04 132.89 1373.6 Q131.084 1377.14 131.084 1384.27 Q131.084 1391.38 132.89 1394.94 Q134.719 1398.49 138.33 1398.49 Q141.964 1398.49 143.769 1394.94 Q145.598 1391.38 145.598 1384.27 Q145.598 1377.14 143.769 1373.6 Q141.964 1370.04 138.33 1370.04 M138.33 1366.33 Q144.14 1366.33 147.195 1370.94 Q150.274 1375.52 150.274 1384.27 Q150.274 1393 147.195 1397.61 Q144.14 1402.19 138.33 1402.19 Q132.519 1402.19 129.441 1397.61 Q126.385 1393 126.385 1384.27 Q126.385 1375.52 129.441 1370.94 Q132.519 1366.33 138.33 1366.33 Z" fill="#000000" fill-rule="nonzero" fill-opacity="1" /><path clip-path="url(#clip800)" d="M168.491 1370.04 Q164.88 1370.04 163.052 1373.6 Q161.246 1377.14 161.246 1384.27 Q161.246 1391.38 163.052 1394.94 Q164.88 1398.49 168.491 1398.49 Q172.126 1398.49 173.931 1394.94 Q175.76 1391.38 175.76 1384.27 Q175.76 1377.14 173.931 1373.6 Q172.126 1370.04 168.491 1370.04 M168.491 1366.33 Q174.302 1366.33 177.357 1370.94 Q180.436 1375.52 180.436 1384.27 Q180.436 1393 177.357 1397.61 Q174.302 1402.19 168.491 1402.19 Q162.681 1402.19 159.603 1397.61 Q156.547 1393 156.547 1384.27 Q156.547 1375.52 159.603 1370.94 Q162.681 1366.33 168.491 1366.33 Z" fill="#000000" fill-rule="nonzero" fill-opacity="1" /><path clip-path="url(#clip800)" d="M198.653 1370.04 Q195.042 1370.04 193.214 1373.6 Q191.408 1377.14 191.408 1384.27 Q191.408 1391.38 193.214 1394.94 Q195.042 1398.49 198.653 1398.49 Q202.288 1398.49 204.093 1394.94 Q205.922 1391.38 205.922 1384.27 Q205.922 1377.14 204.093 1373.6 Q202.288 1370.04 198.653 1370.04 M198.653 1366.33 Q204.464 1366.33 207.519 1370.94 Q210.598 1375.52 210.598 1384.27 Q210.598 1393 207.519 1397.61 Q204.464 1402.19 198.653 1402.19 Q192.843 1402.19 189.765 1397.61 Q186.709 1393 186.709 1384.27 Q186.709 1375.52 189.765 1370.94 Q192.843 1366.33 198.653 1366.33 Z" fill="#000000" fill-rule="nonzero" fill-opacity="1" /><path clip-path="url(#clip800)" d="M63.9319 1095.28 Q60.3208 1095.28 58.4921 1098.85 Q56.6865 1102.39 56.6865 1109.52 Q56.6865 1116.62 58.4921 1120.19 Q60.3208 1123.73 63.9319 1123.73 Q67.5661 1123.73 69.3717 1120.19 Q71.2004 1116.62 71.2004 1109.52 Q71.2004 1102.39 69.3717 1098.85 Q67.5661 1095.28 63.9319 1095.28 M63.9319 1091.58 Q69.742 1091.58 72.7976 1096.18 Q75.8763 1100.77 75.8763 1109.52 Q75.8763 1118.24 72.7976 1122.85 Q69.742 1127.43 63.9319 1127.43 Q58.1217 1127.43 55.043 1122.85 Q51.9875 1118.24 51.9875 1109.52 Q51.9875 1100.77 55.043 1096.18 Q58.1217 1091.58 63.9319 1091.58 Z" fill="#000000" fill-rule="nonzero" fill-opacity="1" /><path clip-path="url(#clip800)" d="M84.0938 1120.88 L88.978 1120.88 L88.978 1126.76 L84.0938 1126.76 L84.0938 1120.88 Z" fill="#000000" fill-rule="nonzero" fill-opacity="1" /><path clip-path="url(#clip800)" d="M109.163 1095.28 Q105.552 1095.28 103.723 1098.85 Q101.918 1102.39 101.918 1109.52 Q101.918 1116.62 103.723 1120.19 Q105.552 1123.73 109.163 1123.73 Q112.797 1123.73 114.603 1120.19 Q116.432 1116.62 116.432 1109.52 Q116.432 1102.39 114.603 1098.85 Q112.797 1095.28 109.163 1095.28 M109.163 1091.58 Q114.973 1091.58 118.029 1096.18 Q121.107 1100.77 121.107 1109.52 Q121.107 1118.24 118.029 1122.85 Q114.973 1127.43 109.163 1127.43 Q103.353 1127.43 100.274 1122.85 Q97.2187 1118.24 97.2187 1109.52 Q97.2187 1100.77 100.274 1096.18 Q103.353 1091.58 109.163 1091.58 Z" fill="#000000" fill-rule="nonzero" fill-opacity="1" /><path clip-path="url(#clip800)" d="M139.325 1095.28 Q135.714 1095.28 133.885 1098.85 Q132.08 1102.39 132.08 1109.52 Q132.08 1116.62 133.885 1120.19 Q135.714 1123.73 139.325 1123.73 Q142.959 1123.73 144.765 1120.19 Q146.593 1116.62 146.593 1109.52 Q146.593 1102.39 144.765 1098.85 Q142.959 1095.28 139.325 1095.28 M139.325 1091.58 Q145.135 1091.58 148.191 1096.18 Q151.269 1100.77 151.269 1109.52 Q151.269 1118.24 148.191 1122.85 Q145.135 1127.43 139.325 1127.43 Q133.515 1127.43 130.436 1122.85 Q127.381 1118.24 127.381 1109.52 Q127.381 1100.77 130.436 1096.18 Q133.515 1091.58 139.325 1091.58 Z" fill="#000000" fill-rule="nonzero" fill-opacity="1" /><path clip-path="url(#clip800)" d="M163.515 1122.83 L179.834 1122.83 L179.834 1126.76 L157.89 1126.76 L157.89 1122.83 Q160.552 1120.07 165.135 1115.44 Q169.741 1110.79 170.922 1109.45 Q173.167 1106.92 174.047 1105.19 Q174.95 1103.43 174.95 1101.74 Q174.95 1098.98 173.005 1097.25 Q171.084 1095.51 167.982 1095.51 Q165.783 1095.51 163.329 1096.28 Q160.899 1097.04 158.121 1098.59 L158.121 1093.87 Q160.945 1092.73 163.399 1092.16 Q165.853 1091.58 167.89 1091.58 Q173.26 1091.58 176.454 1094.26 Q179.649 1096.95 179.649 1101.44 Q179.649 1103.57 178.839 1105.49 Q178.052 1107.39 175.945 1109.98 Q175.366 1110.65 172.265 1113.87 Q169.163 1117.06 163.515 1122.83 Z" fill="#000000" fill-rule="nonzero" fill-opacity="1" /><path clip-path="url(#clip800)" d="M189.695 1092.2 L208.051 1092.2 L208.051 1096.14 L193.977 1096.14 L193.977 1104.61 Q194.996 1104.26 196.014 1104.1 Q197.033 1103.92 198.052 1103.92 Q203.839 1103.92 207.218 1107.09 Q210.598 1110.26 210.598 1115.67 Q210.598 1121.25 207.126 1124.36 Q203.653 1127.43 197.334 1127.43 Q195.158 1127.43 192.89 1127.06 Q190.644 1126.69 188.237 1125.95 L188.237 1121.25 Q190.32 1122.39 192.542 1122.94 Q194.765 1123.5 197.241 1123.5 Q201.246 1123.5 203.584 1121.39 Q205.922 1119.29 205.922 1115.67 Q205.922 1112.06 203.584 1109.96 Q201.246 1107.85 197.241 1107.85 Q195.366 1107.85 193.491 1108.27 Q191.64 1108.68 189.695 1109.56 L189.695 1092.2 Z" fill="#000000" fill-rule="nonzero" fill-opacity="1" /><path clip-path="url(#clip800)" d="M62.9365 820.525 Q59.3254 820.525 57.4967 824.09 Q55.6912 827.632 55.6912 834.761 Q55.6912 841.868 57.4967 845.433 Q59.3254 848.974 62.9365 848.974 Q66.5707 848.974 68.3763 845.433 Q70.205 841.868 70.205 834.761 Q70.205 827.632 68.3763 824.09 Q66.5707 820.525 62.9365 820.525 M62.9365 816.822 Q68.7467 816.822 71.8022 821.428 Q74.8809 826.011 74.8809 834.761 Q74.8809 843.488 71.8022 848.095 Q68.7467 852.678 62.9365 852.678 Q57.1264 852.678 54.0477 848.095 Q50.9921 843.488 50.9921 834.761 Q50.9921 826.011 54.0477 821.428 Q57.1264 816.822 62.9365 816.822 Z" fill="#000000" fill-rule="nonzero" fill-opacity="1" /><path clip-path="url(#clip800)" d="M83.0984 846.127 L87.9827 846.127 L87.9827 852.007 L83.0984 852.007 L83.0984 846.127 Z" fill="#000000" fill-rule="nonzero" fill-opacity="1" /><path clip-path="url(#clip800)" d="M108.168 820.525 Q104.557 820.525 102.728 824.09 Q100.922 827.632 100.922 834.761 Q100.922 841.868 102.728 845.433 Q104.557 848.974 108.168 848.974 Q111.802 848.974 113.608 845.433 Q115.436 841.868 115.436 834.761 Q115.436 827.632 113.608 824.09 Q111.802 820.525 108.168 820.525 M108.168 816.822 Q113.978 816.822 117.033 821.428 Q120.112 826.011 120.112 834.761 Q120.112 843.488 117.033 848.095 Q113.978 852.678 108.168 852.678 Q102.358 852.678 99.2789 848.095 Q96.2234 843.488 96.2234 834.761 Q96.2234 826.011 99.2789 821.428 Q102.358 816.822 108.168 816.822 Z" fill="#000000" fill-rule="nonzero" fill-opacity="1" /><path clip-path="url(#clip800)" d="M138.33 820.525 Q134.719 820.525 132.89 824.09 Q131.084 827.632 131.084 834.761 Q131.084 841.868 132.89 845.433 Q134.719 848.974 138.33 848.974 Q141.964 848.974 143.769 845.433 Q145.598 841.868 145.598 834.761 Q145.598 827.632 143.769 824.09 Q141.964 820.525 138.33 820.525 M138.33 816.822 Q144.14 816.822 147.195 821.428 Q150.274 826.011 150.274 834.761 Q150.274 843.488 147.195 848.095 Q144.14 852.678 138.33 852.678 Q132.519 852.678 129.441 848.095 Q126.385 843.488 126.385 834.761 Q126.385 826.011 129.441 821.428 Q132.519 816.822 138.33 816.822 Z" fill="#000000" fill-rule="nonzero" fill-opacity="1" /><path clip-path="url(#clip800)" d="M158.538 817.447 L176.894 817.447 L176.894 821.382 L162.82 821.382 L162.82 829.854 Q163.839 829.507 164.857 829.345 Q165.876 829.159 166.894 829.159 Q172.681 829.159 176.061 832.331 Q179.441 835.502 179.441 840.919 Q179.441 846.497 175.968 849.599 Q172.496 852.678 166.177 852.678 Q164.001 852.678 161.732 852.307 Q159.487 851.937 157.08 851.196 L157.08 846.497 Q159.163 847.632 161.385 848.187 Q163.607 848.743 166.084 848.743 Q170.089 848.743 172.427 846.636 Q174.765 844.53 174.765 840.919 Q174.765 837.308 172.427 835.201 Q170.089 833.095 166.084 833.095 Q164.209 833.095 162.334 833.511 Q160.482 833.928 158.538 834.808 L158.538 817.447 Z" fill="#000000" fill-rule="nonzero" fill-opacity="1" /><path clip-path="url(#clip800)" d="M198.653 820.525 Q195.042 820.525 193.214 824.09 Q191.408 827.632 191.408 834.761 Q191.408 841.868 193.214 845.433 Q195.042 848.974 198.653 848.974 Q202.288 848.974 204.093 845.433 Q205.922 841.868 205.922 834.761 Q205.922 827.632 204.093 824.09 Q202.288 820.525 198.653 820.525 M198.653 816.822 Q204.464 816.822 207.519 821.428 Q210.598 826.011 210.598 834.761 Q210.598 843.488 207.519 848.095 Q204.464 852.678 198.653 852.678 Q192.843 852.678 189.765 848.095 Q186.709 843.488 186.709 834.761 Q186.709 826.011 189.765 821.428 Q192.843 816.822 198.653 816.822 Z" fill="#000000" fill-rule="nonzero" fill-opacity="1" /><path clip-path="url(#clip800)" d="M63.9319 545.769 Q60.3208 545.769 58.4921 549.334 Q56.6865 552.876 56.6865 560.005 Q56.6865 567.112 58.4921 570.677 Q60.3208 574.218 63.9319 574.218 Q67.5661 574.218 69.3717 570.677 Q71.2004 567.112 71.2004 560.005 Q71.2004 552.876 69.3717 549.334 Q67.5661 545.769 63.9319 545.769 M63.9319 542.066 Q69.742 542.066 72.7976 546.672 Q75.8763 551.255 75.8763 560.005 Q75.8763 568.732 72.7976 573.339 Q69.742 577.922 63.9319 577.922 Q58.1217 577.922 55.043 573.339 Q51.9875 568.732 51.9875 560.005 Q51.9875 551.255 55.043 546.672 Q58.1217 542.066 63.9319 542.066 Z" fill="#000000" fill-rule="nonzero" fill-opacity="1" /><path clip-path="url(#clip800)" d="M84.0938 571.371 L88.978 571.371 L88.978 577.251 L84.0938 577.251 L84.0938 571.371 Z" fill="#000000" fill-rule="nonzero" fill-opacity="1" /><path clip-path="url(#clip800)" d="M109.163 545.769 Q105.552 545.769 103.723 549.334 Q101.918 552.876 101.918 560.005 Q101.918 567.112 103.723 570.677 Q105.552 574.218 109.163 574.218 Q112.797 574.218 114.603 570.677 Q116.432 567.112 116.432 560.005 Q116.432 552.876 114.603 549.334 Q112.797 545.769 109.163 545.769 M109.163 542.066 Q114.973 542.066 118.029 546.672 Q121.107 551.255 121.107 560.005 Q121.107 568.732 118.029 573.339 Q114.973 577.922 109.163 577.922 Q103.353 577.922 100.274 573.339 Q97.2187 568.732 97.2187 560.005 Q97.2187 551.255 100.274 546.672 Q103.353 542.066 109.163 542.066 Z" fill="#000000" fill-rule="nonzero" fill-opacity="1" /><path clip-path="url(#clip800)" d="M139.325 545.769 Q135.714 545.769 133.885 549.334 Q132.08 552.876 132.08 560.005 Q132.08 567.112 133.885 570.677 Q135.714 574.218 139.325 574.218 Q142.959 574.218 144.765 570.677 Q146.593 567.112 146.593 560.005 Q146.593 552.876 144.765 549.334 Q142.959 545.769 139.325 545.769 M139.325 542.066 Q145.135 542.066 148.191 546.672 Q151.269 551.255 151.269 560.005 Q151.269 568.732 148.191 573.339 Q145.135 577.922 139.325 577.922 Q133.515 577.922 130.436 573.339 Q127.381 568.732 127.381 560.005 Q127.381 551.255 130.436 546.672 Q133.515 542.066 139.325 542.066 Z" fill="#000000" fill-rule="nonzero" fill-opacity="1" /><path clip-path="url(#clip800)" d="M158.306 542.691 L180.528 542.691 L180.528 544.681 L167.982 577.251 L163.098 577.251 L174.903 546.626 L158.306 546.626 L158.306 542.691 Z" fill="#000000" fill-rule="nonzero" fill-opacity="1" /><path clip-path="url(#clip800)" d="M189.695 542.691 L208.051 542.691 L208.051 546.626 L193.977 546.626 L193.977 555.098 Q194.996 554.751 196.014 554.589 Q197.033 554.404 198.052 554.404 Q203.839 554.404 207.218 557.575 Q210.598 560.746 210.598 566.163 Q210.598 571.741 207.126 574.843 Q203.653 577.922 197.334 577.922 Q195.158 577.922 192.89 577.552 Q190.644 577.181 188.237 576.441 L188.237 571.741 Q190.32 572.876 192.542 573.431 Q194.765 573.987 197.241 573.987 Q201.246 573.987 203.584 571.88 Q205.922 569.774 205.922 566.163 Q205.922 562.552 203.584 560.445 Q201.246 558.339 197.241 558.339 Q195.366 558.339 193.491 558.755 Q191.64 559.172 189.695 560.052 L189.695 542.691 Z" fill="#000000" fill-rule="nonzero" fill-opacity="1" /><path clip-path="url(#clip800)" d="M62.9365 271.014 Q59.3254 271.014 57.4967 274.578 Q55.6912 278.12 55.6912 285.25 Q55.6912 292.356 57.4967 295.921 Q59.3254 299.462 62.9365 299.462 Q66.5707 299.462 68.3763 295.921 Q70.205 292.356 70.205 285.25 Q70.205 278.12 68.3763 274.578 Q66.5707 271.014 62.9365 271.014 M62.9365 267.31 Q68.7467 267.31 71.8022 271.916 Q74.8809 276.5 74.8809 285.25 Q74.8809 293.976 71.8022 298.583 Q68.7467 303.166 62.9365 303.166 Q57.1264 303.166 54.0477 298.583 Q50.9921 293.976 50.9921 285.25 Q50.9921 276.5 54.0477 271.916 Q57.1264 267.31 62.9365 267.31 Z" fill="#000000" fill-rule="nonzero" fill-opacity="1" /><path clip-path="url(#clip800)" d="M83.0984 296.615 L87.9827 296.615 L87.9827 302.495 L83.0984 302.495 L83.0984 296.615 Z" fill="#000000" fill-rule="nonzero" fill-opacity="1" /><path clip-path="url(#clip800)" d="M108.168 271.014 Q104.557 271.014 102.728 274.578 Q100.922 278.12 100.922 285.25 Q100.922 292.356 102.728 295.921 Q104.557 299.462 108.168 299.462 Q111.802 299.462 113.608 295.921 Q115.436 292.356 115.436 285.25 Q115.436 278.12 113.608 274.578 Q111.802 271.014 108.168 271.014 M108.168 267.31 Q113.978 267.31 117.033 271.916 Q120.112 276.5 120.112 285.25 Q120.112 293.976 117.033 298.583 Q113.978 303.166 108.168 303.166 Q102.358 303.166 99.2789 298.583 Q96.2234 293.976 96.2234 285.25 Q96.2234 276.5 99.2789 271.916 Q102.358 267.31 108.168 267.31 Z" fill="#000000" fill-rule="nonzero" fill-opacity="1" /><path clip-path="url(#clip800)" d="M129.14 298.56 L136.779 298.56 L136.779 272.194 L128.469 273.861 L128.469 269.602 L136.732 267.935 L141.408 267.935 L141.408 298.56 L149.047 298.56 L149.047 302.495 L129.14 302.495 L129.14 298.56 Z" fill="#000000" fill-rule="nonzero" fill-opacity="1" /><path clip-path="url(#clip800)" d="M168.491 271.014 Q164.88 271.014 163.052 274.578 Q161.246 278.12 161.246 285.25 Q161.246 292.356 163.052 295.921 Q164.88 299.462 168.491 299.462 Q172.126 299.462 173.931 295.921 Q175.76 292.356 175.76 285.25 Q175.76 278.12 173.931 274.578 Q172.126 271.014 168.491 271.014 M168.491 267.31 Q174.302 267.31 177.357 271.916 Q180.436 276.5 180.436 285.25 Q180.436 293.976 177.357 298.583 Q174.302 303.166 168.491 303.166 Q162.681 303.166 159.603 298.583 Q156.547 293.976 156.547 285.25 Q156.547 276.5 159.603 271.916 Q162.681 267.31 168.491 267.31 Z" fill="#000000" fill-rule="nonzero" fill-opacity="1" /><path clip-path="url(#clip800)" d="M198.653 271.014 Q195.042 271.014 193.214 274.578 Q191.408 278.12 191.408 285.25 Q191.408 292.356 193.214 295.921 Q195.042 299.462 198.653 299.462 Q202.288 299.462 204.093 295.921 Q205.922 292.356 205.922 285.25 Q205.922 278.12 204.093 274.578 Q202.288 271.014 198.653 271.014 M198.653 267.31 Q204.464 267.31 207.519 271.916 Q210.598 276.5 210.598 285.25 Q210.598 293.976 207.519 298.583 Q204.464 303.166 198.653 303.166 Q192.843 303.166 189.765 298.583 Q186.709 293.976 186.709 285.25 Q186.709 276.5 189.765 271.916 Q192.843 267.31 198.653 267.31 Z" fill="#000000" fill-rule="nonzero" fill-opacity="1" /><polyline clip-path="url(#clip802)" style="stroke:#009af9; stroke-linecap:round; stroke-linejoin:round; stroke-width:4; stroke-opacity:1; fill:none" points="246.598,1384.24 248.706,1383.14 250.814,1382.04 252.923,1380.94 255.031,1379.84 257.139,1378.74 259.247,1377.64 261.356,1376.54 263.464,1375.44 265.572,1374.34 267.68,1373.24 269.789,1372.14 271.897,1371.04 274.005,1369.94 276.113,1368.83 278.222,1367.73 280.33,1366.63 282.438,1365.53 284.547,1364.43 286.655,1363.33 288.763,1362.23 290.871,1361.13 292.98,1360.03 295.088,1358.93 297.196,1357.83 299.304,1356.73 301.413,1355.63 303.521,1354.53 305.629,1353.43 307.737,1352.33 309.846,1351.22 311.954,1350.12 314.062,1349.02 316.171,1347.92 318.279,1346.82 320.387,1345.72 322.495,1344.62 324.604,1343.52 326.712,1342.42 328.82,1341.31 330.928,1340.21 333.037,1339.11 335.145,1338.01 337.253,1336.91 339.361,1335.81 341.47,1334.7 343.578,1333.6 345.686,1332.5 347.795,1331.4 349.903,1330.3 352.011,1329.2 354.119,1328.09 356.228,1326.99 358.336,1325.89 360.444,1324.79 362.552,1323.68 364.661,1322.58 366.769,1321.48 368.877,1320.38 370.985,1319.27 373.094,1318.17 375.202,1317.07 377.31,1315.97 379.419,1314.86 381.527,1313.76 383.635,1312.66 385.743,1311.55 387.852,1310.45 389.96,1309.35 392.068,1308.24 394.176,1307.14 396.285,1306.04 398.393,1304.93 400.501,1303.83 402.609,1302.72 404.718,1301.62 406.826,1300.52 408.934,1299.41 411.043,1298.31 413.151,1297.2 415.259,1296.1 417.367,1294.99 419.476,1293.89 421.584,1292.78 423.692,1291.68 425.8,1290.58 427.909,1289.47 430.017,1288.36 432.125,1287.26 434.233,1286.15 436.342,1285.05 438.45,1283.94 440.558,1282.84 442.667,1281.73 444.775,1280.63 446.883,1279.52 448.991,1278.41 451.1,1277.31 453.208,1276.2 455.316,1275.09 457.424,1273.99 459.533,1272.88 461.641,1271.77 463.749,1270.67 465.857,1269.56 467.966,1268.45 470.074,1267.34 472.182,1266.24 474.291,1265.13 476.399,1264.02 478.507,1262.91 480.615,1261.81 482.724,1260.7 484.832,1259.59 486.94,1258.48 489.048,1257.37 491.157,1256.26 493.265,1255.15 495.373,1254.04 497.481,1252.94 499.59,1251.83 501.698,1250.72 503.806,1249.61 505.915,1248.5 508.023,1247.39 510.131,1246.28 512.239,1245.17 514.348,1244.06 516.456,1242.95 518.564,1241.84 520.672,1240.72 522.781,1239.61 524.889,1238.5 526.997,1237.39 529.105,1236.28 531.214,1235.17 533.322,1234.06 535.43,1232.94 537.539,1231.83 539.647,1230.72 541.755,1229.61 543.863,1228.5 545.972,1227.38 548.08,1226.27 550.188,1225.16 552.296,1224.04 554.405,1222.93 556.513,1221.82 558.621,1220.7 560.729,1219.59 562.838,1218.47 564.946,1217.36 567.054,1216.25 569.163,1215.13 571.271,1214.02 573.379,1212.9 575.487,1211.79 577.596,1210.67 579.704,1209.56 581.812,1208.44 583.92,1207.32 586.029,1206.21 588.137,1205.09 590.245,1203.97 592.353,1202.86 594.462,1201.74 596.57,1200.62 598.678,1199.51 600.787,1198.39 602.895,1197.27 605.003,1196.15 607.111,1195.04 609.22,1193.92 611.328,1192.8 613.436,1191.68 615.544,1190.56 617.653,1189.44 619.761,1188.32 621.869,1187.2 623.977,1186.08 626.086,1184.96 628.194,1183.84 630.302,1182.72 632.411,1181.6 634.519,1180.48 636.627,1179.36 638.735,1178.24 640.844,1177.12 642.952,1176 645.06,1174.87 647.168,1173.75 649.277,1172.63 651.385,1171.51 653.493,1170.38 655.601,1169.26 657.71,1168.14 659.818,1167.01 661.926,1165.89 664.035,1164.77 666.143,1163.64 668.251,1162.52 670.359,1161.39 672.468,1160.27 674.576,1159.14 676.684,1158.02 678.792,1156.89 680.901,1155.77 683.009,1154.64 685.117,1153.52 687.225,1152.39 689.334,1151.26 691.442,1150.14 693.55,1149.01 695.658,1147.88 697.767,1146.75 699.875,1145.62 701.983,1144.5 704.092,1143.37 706.2,1142.24 708.308,1141.11 710.416,1139.98 712.525,1138.85 714.633,1137.72 716.741,1136.59 718.849,1135.46 720.958,1134.33 723.066,1133.2 725.174,1132.07 727.282,1130.94 729.391,1129.81 731.499,1128.67 733.607,1127.54 735.716,1126.41 737.824,1125.28 739.932,1124.14 742.04,1123.01 744.149,1121.88 746.257,1120.74 748.365,1119.61 750.473,1118.48 752.582,1117.34 754.69,1116.21 756.798,1115.07 758.906,1113.94 761.015,1112.8 763.123,1111.66 765.231,1110.53 767.34,1109.39 769.448,1108.25 771.556,1107.12 773.664,1105.98 775.773,1104.84 777.881,1103.7 779.989,1102.57 782.097,1101.43 784.206,1100.29 786.314,1099.15 788.422,1098.01 790.53,1096.87 792.639,1095.73 794.747,1094.59 796.855,1093.45 798.964,1092.31 801.072,1091.17 803.18,1090.02 805.288,1088.88 807.397,1087.74 809.505,1086.6 811.613,1085.46 813.721,1084.31 815.83,1083.17 817.938,1082.03 820.046,1080.88 822.154,1079.74 824.263,1078.59 826.371,1077.45 828.479,1076.3 830.588,1075.16 832.696,1074.01 834.804,1072.86 836.912,1071.72 839.021,1070.57 841.129,1069.42 843.237,1068.28 845.345,1067.13 847.454,1065.98 849.562,1064.83 851.67,1063.68 853.778,1062.53 855.887,1061.38 857.995,1060.23 860.103,1059.08 862.212,1057.93 864.32,1056.78 866.428,1055.63 868.536,1054.48 870.645,1053.33 872.753,1052.17 874.861,1051.02 876.969,1049.87 879.078,1048.71 881.186,1047.56 883.294,1046.41 885.402,1045.25 887.511,1044.1 889.619,1042.94 891.727,1041.79 893.836,1040.63 895.944,1039.48 898.052,1038.32 900.16,1037.16 902.269,1036 904.377,1034.85 906.485,1033.69 908.593,1032.53 910.702,1031.37 912.81,1030.21 914.918,1029.05 917.026,1027.89 919.135,1026.73 921.243,1025.57 923.351,1024.41 925.46,1023.25 927.568,1022.09 929.676,1020.93 931.784,1019.77 933.893,1018.6 936.001,1017.44 938.109,1016.28 940.217,1015.11 942.326,1013.95 944.434,1012.78 946.542,1011.62 948.65,1010.45 950.759,1009.29 952.867,1008.12 954.975,1006.95 957.084,1005.79 959.192,1004.62 961.3,1003.45 963.408,1002.28 965.517,1001.12 967.625,999.946 969.733,998.777 971.841,997.607 973.95,996.437 976.058,995.266 978.166,994.095 980.274,992.924 982.383,991.752 984.491,990.58 986.599,989.408 988.708,988.235 990.816,987.061 992.924,985.887 995.032,984.713 997.141,983.539 999.249,982.364 1001.36,981.188 1003.47,980.012 1005.57,978.836 1007.68,977.659 1009.79,976.482 1011.9,975.305 1014.01,974.127 1016.11,972.948 1018.22,971.77 1020.33,970.59 1022.44,969.411 1024.55,968.231 1026.66,967.05 1028.76,965.869 1030.87,964.688 1032.98,963.506 1035.09,962.324 1037.2,961.141 1039.31,959.958 1041.41,958.775 1043.52,957.591 1045.63,956.406 1047.74,955.221 1049.85,954.036 1051.96,952.85 1054.06,951.664 1056.17,950.478 1058.28,949.29 1060.39,948.103 1062.5,946.915 1064.61,945.727 1066.71,944.538 1068.82,943.348 1070.93,942.159 1073.04,940.968 1075.15,939.778 1077.25,938.586 1079.36,937.395 1081.47,936.203 1083.58,935.01 1085.69,933.817 1087.8,932.624 1089.9,931.43 1092.01,930.236 1094.12,929.041 1096.23,927.845 1098.34,926.65 1100.45,925.453 1102.55,924.257 1104.66,923.059 1106.77,921.862 1108.88,920.664 1110.99,919.465 1113.1,918.266 1115.2,917.066 1117.31,915.866 1119.42,914.666 1121.53,913.465 1123.64,912.263 1125.74,911.061 1127.85,909.859 1129.96,908.656 1132.07,907.452 1134.18,906.248 1136.29,905.044 1138.39,903.839 1140.5,902.634 1142.61,901.428 1144.72,900.221 1146.83,899.014 1148.94,897.807 1151.04,896.599 1153.15,895.391 1155.26,894.182 1157.37,892.972 1159.48,891.762 1161.59,890.552 1163.69,889.341 1165.8,888.13 1167.91,886.918 1170.02,885.705 1172.13,884.492 1174.23,883.279 1176.34,882.065 1178.45,880.85 1180.56,879.635 1182.67,878.42 1184.78,877.204 1186.88,875.987 1188.99,874.77 1191.1,873.552 1193.21,872.334 1195.32,871.116 1197.43,869.896 1199.53,868.677 1201.64,867.456 1203.75,866.236 1205.86,865.014 1207.97,863.792 1210.08,862.57 1212.18,861.347 1214.29,860.124 1216.4,858.9 1218.51,857.675 1220.62,856.45 1222.73,855.224 1224.83,853.998 1226.94,852.772 1229.05,851.544 1231.16,850.317 1233.27,849.088 1235.37,847.859 1237.48,846.63 1239.59,845.4 1241.7,844.169 1243.81,842.938 1245.92,841.707 1248.02,840.474 1250.13,839.242 1252.24,838.008 1254.35,836.774 1256.46,835.54 1258.57,834.305 1260.67,833.069 1262.78,831.833 1264.89,830.597 1267,829.359 1269.11,828.122 1271.22,826.883 1273.32,825.644 1275.43,824.405 1277.54,823.164 1279.65,821.924 1281.76,820.683 1283.86,819.441 1285.97,818.198 1288.08,816.955 1290.19,815.712 1292.3,814.467 1294.41,813.223 1296.51,811.977 1298.62,810.731 1300.73,809.485 1302.84,808.238 1304.95,806.99 1307.06,805.742 1309.16,804.493 1311.27,803.244 1313.38,801.994 1315.49,800.743 1317.6,799.492 1319.71,798.24 1321.81,796.987 1323.92,795.734 1326.03,794.481 1328.14,793.226 1330.25,791.971 1332.35,790.716 1334.46,789.46 1336.57,788.203 1338.68,786.946 1340.79,785.688 1342.9,784.43 1345,783.17 1347.11,781.911 1349.22,780.65 1351.33,779.389 1353.44,778.128 1355.55,776.866 1357.65,775.603 1359.76,774.339 1361.87,773.075 1363.98,771.81 1366.09,770.545 1368.2,769.279 1370.3,768.013 1372.41,766.745 1374.52,765.477 1376.63,764.209 1378.74,762.94 1380.85,761.67 1382.95,760.4 1385.06,759.129 1387.17,757.857 1389.28,756.585 1391.39,755.312 1393.49,754.038 1395.6,752.764 1397.71,751.489 1399.82,750.213 1401.93,748.937 1404.04,747.66 1406.14,746.383 1408.25,745.105 1410.36,743.826 1412.47,742.547 1414.58,741.266 1416.69,739.986 1418.79,738.704 1420.9,737.422 1423.01,736.14 1425.12,734.856 1427.23,733.572 1429.34,732.287 1431.44,731.002 1433.55,729.716 1435.66,728.429 1437.77,727.142 1439.88,725.854 1441.98,724.565 1444.09,723.276 1446.2,721.985 1448.31,720.695 1450.42,719.403 1452.53,718.111 1454.63,716.818 1456.74,715.525 1458.85,714.231 1460.96,712.936 1463.07,711.64 1465.18,710.344 1467.28,709.047 1469.39,707.75 1471.5,706.451 1473.61,705.152 1475.72,703.853 1477.83,702.552 1479.93,701.251 1482.04,699.949 1484.15,698.647 1486.26,697.344 1488.37,696.04 1490.47,694.735 1492.58,693.43 1494.69,692.124 1496.8,690.817 1498.91,689.51 1501.02,688.202 1503.12,686.893 1505.23,685.584 1507.34,684.273 1509.45,682.962 1511.56,681.651 1513.67,680.338 1515.77,679.025 1517.88,677.711 1519.99,676.397 1522.1,675.082 1524.21,673.766 1526.32,672.449 1528.42,671.131 1530.53,669.813 1532.64,668.494 1534.75,667.175 1536.86,665.854 1538.97,664.533 1541.07,663.211 1543.18,661.889 1545.29,660.565 1547.4,659.241 1549.51,657.917 1551.61,656.591 1553.72,655.265 1555.83,653.938 1557.94,652.61 1560.05,651.282 1562.16,649.952 1564.26,648.622 1566.37,647.292 1568.48,645.96 1570.59,644.628 1572.7,643.295 1574.81,641.961 1576.91,640.626 1579.02,639.291 1581.13,637.955 1583.24,636.618 1585.35,635.281 1587.46,633.942 1589.56,632.603 1591.67,631.263 1593.78,629.923 1595.89,628.581 1598,627.239 1600.1,625.896 1602.21,624.553 1604.32,623.208 1606.43,621.863 1608.54,620.517 1610.65,619.17 1612.75,617.822 1614.86,616.474 1616.97,615.125 1619.08,613.775 1621.19,612.424 1623.3,611.073 1625.4,609.72 1627.51,608.367 1629.62,607.013 1631.73,605.659 1633.84,604.303 1635.95,602.947 1638.05,601.59 1640.16,600.232 1642.27,598.873 1644.38,597.514 1646.49,596.154 1648.59,594.793 1650.7,593.431 1652.81,592.068 1654.92,590.705 1657.03,589.34 1659.14,587.975 1661.24,586.609 1663.35,585.242 1665.46,583.875 1667.57,582.507 1669.68,581.137 1671.79,579.767 1673.89,578.397 1676,577.025 1678.11,575.653 1680.22,574.279 1682.33,572.905 1684.44,571.53 1686.54,570.154 1688.65,568.778 1690.76,567.4 1692.87,566.022 1694.98,564.643 1697.09,563.263 1699.19,561.882 1701.3,560.501 1703.41,559.118 1705.52,557.735 1707.63,556.351 1709.73,554.966 1711.84,553.58 1713.95,552.194 1716.06,550.806 1718.17,549.418 1720.28,548.029 1722.38,546.639 1724.49,545.248 1726.6,543.856 1728.71,542.463 1730.82,541.07 1732.93,539.676 1735.03,538.28 1737.14,536.884 1739.25,535.487 1741.36,534.09 1743.47,532.691 1745.58,531.291 1747.68,529.891 1749.79,528.49 1751.9,527.088 1754.01,525.685 1756.12,524.281 1758.22,522.876 1760.33,521.471 1762.44,520.064 1764.55,518.657 1766.66,517.248 1768.77,515.839 1770.87,514.429 1772.98,513.018 1775.09,511.607 1777.2,510.194 1779.31,508.78 1781.42,507.366 1783.52,505.951 1785.63,504.534 1787.74,503.117 1789.85,501.699 1791.96,500.28 1794.07,498.86 1796.17,497.44 1798.28,496.018 1800.39,494.595 1802.5,493.172 1804.61,491.748 1806.71,490.322 1808.82,488.896 1810.93,487.469 1813.04,486.041 1815.15,484.612 1817.26,483.182 1819.36,481.752 1821.47,480.32 1823.58,478.887 1825.69,477.454 1827.8,476.019 1829.91,474.584 1832.01,473.148 1834.12,471.711 1836.23,470.272 1838.34,468.833 1840.45,467.393 1842.56,465.952 1844.66,464.511 1846.77,463.068 1848.88,461.624 1850.99,460.179 1853.1,458.734 1855.21,457.287 1857.31,455.84 1859.42,454.391 1861.53,452.942 1863.64,451.491 1865.75,450.04 1867.85,448.588 1869.96,447.135 1872.07,445.681 1874.18,444.225 1876.29,442.769 1878.4,441.312 1880.5,439.854 1882.61,438.395 1884.72,436.936 1886.83,435.475 1888.94,434.013 1891.05,432.55 1893.15,431.086 1895.26,429.622 1897.37,428.156 1899.48,426.689 1901.59,425.222 1903.7,423.753 1905.8,422.283 1907.91,420.813 1910.02,419.341 1912.13,417.869 1914.24,416.395 1916.34,414.921 1918.45,413.445 1920.56,411.969 1922.67,410.491 1924.78,409.013 1926.89,407.533 1928.99,406.053 1931.1,404.571 1933.21,403.089 1935.32,401.605 1937.43,400.121 1939.54,398.636 1941.64,397.149 1943.75,395.662 1945.86,394.173 1947.97,392.684 1950.08,391.193 1952.19,389.702 1954.29,388.209 1956.4,386.716 1958.51,385.221 1960.62,383.726 1962.73,382.229 1964.83,380.732 1966.94,379.233 1969.05,377.733 1971.16,376.233 1973.27,374.731 1975.38,373.228 1977.48,371.725 1979.59,370.22 1981.7,368.714 1983.81,367.207 1985.92,365.699 1988.03,364.191 1990.13,362.681 1992.24,361.17 1994.35,359.658 1996.46,358.145 1998.57,356.631 2000.68,355.115 2002.78,353.599 2004.89,352.082 2007,350.564 2009.11,349.044 2011.22,347.524 2013.33,346.003 2015.43,344.48 2017.54,342.957 2019.65,341.432 2021.76,339.906 2023.87,338.38 2025.97,336.852 2028.08,335.323 2030.19,333.793 2032.3,332.262 2034.41,330.73 2036.52,329.197 2038.62,327.663 2040.73,326.127 2042.84,324.591 2044.95,323.053 2047.06,321.515 2049.17,319.975 2051.27,318.435 2053.38,316.893 2055.49,315.35 2057.6,313.806 2059.71,312.261 2061.82,310.715 2063.92,309.168 2066.03,307.62 2068.14,306.07 2070.25,304.52 2072.36,302.968 2074.46,301.415 2076.57,299.862 2078.68,298.307 2080.79,296.751 2082.9,295.194 2085.01,293.635 2087.11,292.076 2089.22,290.516 2091.33,288.954 2093.44,287.392 2095.55,285.828 2097.66,284.263 2099.76,282.697 2101.87,281.13 2103.98,279.562 2106.09,277.992 2108.2,276.422 2110.31,274.85 2112.41,273.277 2114.52,271.704 2116.63,270.129 2118.74,268.552 2120.85,266.975 2122.95,265.397 2125.06,263.817 2127.17,262.237 2129.28,260.655 2131.39,259.072 2133.5,257.488 2135.6,255.902 2137.71,254.316 2139.82,252.729 2141.93,251.14 2144.04,249.55 2146.15,247.959 2148.25,246.367 2150.36,244.774 2152.47,243.179 2154.58,241.583 2156.69,239.987 2158.8,238.389 2160.9,236.79 2163.01,235.189 2165.12,233.588 2167.23,231.985 2169.34,230.382 2171.44,228.777 2173.55,227.171 2175.66,225.563 2177.77,223.955 2179.88,222.345 2181.99,220.734 2184.09,219.122 2186.2,217.509 2188.31,215.895 2190.42,214.279 2192.53,212.662 2194.64,211.044 2196.74,209.425 2198.85,207.805 2200.96,206.183 2203.07,204.561 2205.18,202.937 2207.29,201.312 2209.39,199.685 2211.5,198.058 2213.61,196.429 2215.72,194.799 2217.83,193.168 2219.94,191.536 2222.04,189.902 2224.15,188.267 2226.26,186.631 2228.37,184.994 2230.48,183.356 2232.58,181.716 2234.69,180.075 2236.8,178.433 2238.91,176.79 2241.02,175.145 2243.13,173.499 2245.23,171.852 2247.34,170.204 2249.45,168.555 2251.56,166.904 2253.67,165.252 2255.78,163.599 2257.88,161.945 2259.99,160.289 2262.1,158.632 2264.21,156.974 2266.32,155.314 2268.43,153.654 2270.53,151.992 2272.64,150.329 2274.75,148.664 2276.86,146.999 2278.97,145.332 2281.07,143.664 2283.18,141.994 2285.29,140.324 2287.4,138.652 2289.51,136.978 2291.62,135.304 2293.72,133.628 2295.83,131.951 2297.94,130.273 2300.05,128.593 2302.16,126.913 2304.27,125.23 2306.37,123.547 2308.48,121.862 2310.59,120.176 2312.7,118.489 2314.81,116.801 2316.92,115.111 2319.02,113.42 2321.13,111.727 2323.24,110.034 2325.35,108.339 2327.46,106.643 2329.56,104.945 2331.67,103.246 2333.78,101.546 2335.89,99.8445 2338,98.1417 2340.11,96.4376 2342.21,94.7322 2344.32,93.0256 2346.43,91.3176 2348.54,89.6082 2350.65,87.8976 2352.76,86.1857 "/>
<polyline clip-path="url(#clip802)" style="stroke:#e26f46; stroke-linecap:round; stroke-linejoin:round; stroke-width:4; stroke-opacity:1; fill:none" points="246.598,1384.24 248.706,1384.24 250.814,1384.24 252.923,1384.24 255.031,1384.24 257.139,1384.24 259.247,1384.24 261.356,1384.24 263.464,1384.23 265.572,1384.23 267.68,1384.23 269.789,1384.23 271.897,1384.23 274.005,1384.23 276.113,1384.23 278.222,1384.23 280.33,1384.22 282.438,1384.22 284.547,1384.22 286.655,1384.22 288.763,1384.22 290.871,1384.21 292.98,1384.21 295.088,1384.21 297.196,1384.21 299.304,1384.2 301.413,1384.2 303.521,1384.2 305.629,1384.2 307.737,1384.19 309.846,1384.19 311.954,1384.19 314.062,1384.18 316.171,1384.18 318.279,1384.17 320.387,1384.17 322.495,1384.17 324.604,1384.16 326.712,1384.16 328.82,1384.15 330.928,1384.15 333.037,1384.15 335.145,1384.14 337.253,1384.14 339.361,1384.13 341.47,1384.13 343.578,1384.12 345.686,1384.12 347.795,1384.11 349.903,1384.11 352.011,1384.1 354.119,1384.09 356.228,1384.09 358.336,1384.08 360.444,1384.08 362.552,1384.07 364.661,1384.07 366.769,1384.06 368.877,1384.05 370.985,1384.05 373.094,1384.04 375.202,1384.03 377.31,1384.03 379.419,1384.02 381.527,1384.01 383.635,1384.01 385.743,1384 387.852,1383.99 389.96,1383.98 392.068,1383.98 394.176,1383.97 396.285,1383.96 398.393,1383.95 400.501,1383.94 402.609,1383.94 404.718,1383.93 406.826,1383.92 408.934,1383.91 411.043,1383.9 413.151,1383.89 415.259,1383.89 417.367,1383.88 419.476,1383.87 421.584,1383.86 423.692,1383.85 425.8,1383.84 427.909,1383.83 430.017,1383.82 432.125,1383.81 434.233,1383.8 436.342,1383.79 438.45,1383.78 440.558,1383.77 442.667,1383.76 444.775,1383.75 446.883,1383.74 448.991,1383.73 451.1,1383.72 453.208,1383.71 455.316,1383.7 457.424,1383.69 459.533,1383.68 461.641,1383.66 463.749,1383.65 465.857,1383.64 467.966,1383.63 470.074,1383.62 472.182,1383.61 474.291,1383.6 476.399,1383.58 478.507,1383.57 480.615,1383.56 482.724,1383.55 484.832,1383.53 486.94,1383.52 489.048,1383.51 491.157,1383.5 493.265,1383.48 495.373,1383.47 497.481,1383.46 499.59,1383.44 501.698,1383.43 503.806,1383.42 505.915,1383.4 508.023,1383.39 510.131,1383.38 512.239,1383.36 514.348,1383.35 516.456,1383.33 518.564,1383.32 520.672,1383.31 522.781,1383.29 524.889,1383.28 526.997,1383.26 529.105,1383.25 531.214,1383.23 533.322,1383.22 535.43,1383.2 537.539,1383.19 539.647,1383.17 541.755,1383.16 543.863,1383.14 545.972,1383.13 548.08,1383.11 550.188,1383.09 552.296,1383.08 554.405,1383.06 556.513,1383.05 558.621,1383.03 560.729,1383.01 562.838,1383 564.946,1382.98 567.054,1382.96 569.163,1382.95 571.271,1382.93 573.379,1382.91 575.487,1382.89 577.596,1382.88 579.704,1382.86 581.812,1382.84 583.92,1382.82 586.029,1382.81 588.137,1382.79 590.245,1382.77 592.353,1382.75 594.462,1382.73 596.57,1382.72 598.678,1382.7 600.787,1382.68 602.895,1382.66 605.003,1382.64 607.111,1382.62 609.22,1382.6 611.328,1382.59 613.436,1382.57 615.544,1382.55 617.653,1382.53 619.761,1382.51 621.869,1382.49 623.977,1382.47 626.086,1382.45 628.194,1382.43 630.302,1382.41 632.411,1382.39 634.519,1382.37 636.627,1382.35 638.735,1382.33 640.844,1382.31 642.952,1382.29 645.06,1382.26 647.168,1382.24 649.277,1382.22 651.385,1382.2 653.493,1382.18 655.601,1382.16 657.71,1382.14 659.818,1382.11 661.926,1382.09 664.035,1382.07 666.143,1382.05 668.251,1382.03 670.359,1382 672.468,1381.98 674.576,1381.96 676.684,1381.94 678.792,1381.91 680.901,1381.89 683.009,1381.87 685.117,1381.85 687.225,1381.82 689.334,1381.8 691.442,1381.78 693.55,1381.75 695.658,1381.73 697.767,1381.71 699.875,1381.68 701.983,1381.66 704.092,1381.63 706.2,1381.61 708.308,1381.58 710.416,1381.56 712.525,1381.54 714.633,1381.51 716.741,1381.49 718.849,1381.46 720.958,1381.44 723.066,1381.41 725.174,1381.39 727.282,1381.36 729.391,1381.34 731.499,1381.31 733.607,1381.28 735.716,1381.26 737.824,1381.23 739.932,1381.21 742.04,1381.18 744.149,1381.15 746.257,1381.13 748.365,1381.1 750.473,1381.08 752.582,1381.05 754.69,1381.02 756.798,1381 758.906,1380.97 761.015,1380.94 763.123,1380.91 765.231,1380.89 767.34,1380.86 769.448,1380.83 771.556,1380.8 773.664,1380.78 775.773,1380.75 777.881,1380.72 779.989,1380.69 782.097,1380.66 784.206,1380.64 786.314,1380.61 788.422,1380.58 790.53,1380.55 792.639,1380.52 794.747,1380.49 796.855,1380.46 798.964,1380.43 801.072,1380.4 803.18,1380.37 805.288,1380.35 807.397,1380.32 809.505,1380.29 811.613,1380.26 813.721,1380.23 815.83,1380.2 817.938,1380.17 820.046,1380.14 822.154,1380.11 824.263,1380.07 826.371,1380.04 828.479,1380.01 830.588,1379.98 832.696,1379.95 834.804,1379.92 836.912,1379.89 839.021,1379.86 841.129,1379.83 843.237,1379.79 845.345,1379.76 847.454,1379.73 849.562,1379.7 851.67,1379.67 853.778,1379.64 855.887,1379.6 857.995,1379.57 860.103,1379.54 862.212,1379.51 864.32,1379.47 866.428,1379.44 868.536,1379.41 870.645,1379.37 872.753,1379.34 874.861,1379.31 876.969,1379.27 879.078,1379.24 881.186,1379.21 883.294,1379.17 885.402,1379.14 887.511,1379.11 889.619,1379.07 891.727,1379.04 893.836,1379 895.944,1378.97 898.052,1378.93 900.16,1378.9 902.269,1378.86 904.377,1378.83 906.485,1378.79 908.593,1378.76 910.702,1378.72 912.81,1378.69 914.918,1378.65 917.026,1378.62 919.135,1378.58 921.243,1378.55 923.351,1378.51 925.46,1378.47 927.568,1378.44 929.676,1378.4 931.784,1378.36 933.893,1378.33 936.001,1378.29 938.109,1378.25 940.217,1378.22 942.326,1378.18 944.434,1378.14 946.542,1378.11 948.65,1378.07 950.759,1378.03 952.867,1377.99 954.975,1377.96 957.084,1377.92 959.192,1377.88 961.3,1377.84 963.408,1377.8 965.517,1377.77 967.625,1377.73 969.733,1377.69 971.841,1377.65 973.95,1377.61 976.058,1377.57 978.166,1377.53 980.274,1377.49 982.383,1377.46 984.491,1377.42 986.599,1377.38 988.708,1377.34 990.816,1377.3 992.924,1377.26 995.032,1377.22 997.141,1377.18 999.249,1377.14 1001.36,1377.1 1003.47,1377.06 1005.57,1377.02 1007.68,1376.98 1009.79,1376.93 1011.9,1376.89 1014.01,1376.85 1016.11,1376.81 1018.22,1376.77 1020.33,1376.73 1022.44,1376.69 1024.55,1376.65 1026.66,1376.6 1028.76,1376.56 1030.87,1376.52 1032.98,1376.48 1035.09,1376.44 1037.2,1376.39 1039.31,1376.35 1041.41,1376.31 1043.52,1376.27 1045.63,1376.22 1047.74,1376.18 1049.85,1376.14 1051.96,1376.09 1054.06,1376.05 1056.17,1376.01 1058.28,1375.96 1060.39,1375.92 1062.5,1375.88 1064.61,1375.83 1066.71,1375.79 1068.82,1375.75 1070.93,1375.7 1073.04,1375.66 1075.15,1375.61 1077.25,1375.57 1079.36,1375.52 1081.47,1375.48 1083.58,1375.43 1085.69,1375.39 1087.8,1375.34 1089.9,1375.3 1092.01,1375.25 1094.12,1375.21 1096.23,1375.16 1098.34,1375.12 1100.45,1375.07 1102.55,1375.02 1104.66,1374.98 1106.77,1374.93 1108.88,1374.89 1110.99,1374.84 1113.1,1374.79 1115.2,1374.75 1117.31,1374.7 1119.42,1374.65 1121.53,1374.6 1123.64,1374.56 1125.74,1374.51 1127.85,1374.46 1129.96,1374.42 1132.07,1374.37 1134.18,1374.32 1136.29,1374.27 1138.39,1374.22 1140.5,1374.18 1142.61,1374.13 1144.72,1374.08 1146.83,1374.03 1148.94,1373.98 1151.04,1373.93 1153.15,1373.88 1155.26,1373.84 1157.37,1373.79 1159.48,1373.74 1161.59,1373.69 1163.69,1373.64 1165.8,1373.59 1167.91,1373.54 1170.02,1373.49 1172.13,1373.44 1174.23,1373.39 1176.34,1373.34 1178.45,1373.29 1180.56,1373.24 1182.67,1373.19 1184.78,1373.14 1186.88,1373.09 1188.99,1373.04 1191.1,1372.98 1193.21,1372.93 1195.32,1372.88 1197.43,1372.83 1199.53,1372.78 1201.64,1372.73 1203.75,1372.68 1205.86,1372.62 1207.97,1372.57 1210.08,1372.52 1212.18,1372.47 1214.29,1372.41 1216.4,1372.36 1218.51,1372.31 1220.62,1372.26 1222.73,1372.2 1224.83,1372.15 1226.94,1372.1 1229.05,1372.04 1231.16,1371.99 1233.27,1371.94 1235.37,1371.88 1237.48,1371.83 1239.59,1371.78 1241.7,1371.72 1243.81,1371.67 1245.92,1371.61 1248.02,1371.56 1250.13,1371.5 1252.24,1371.45 1254.35,1371.4 1256.46,1371.34 1258.57,1371.29 1260.67,1371.23 1262.78,1371.18 1264.89,1371.12 1267,1371.06 1269.11,1371.01 1271.22,1370.95 1273.32,1370.9 1275.43,1370.84 1277.54,1370.78 1279.65,1370.73 1281.76,1370.67 1283.86,1370.62 1285.97,1370.56 1288.08,1370.5 1290.19,1370.45 1292.3,1370.39 1294.41,1370.33 1296.51,1370.27 1298.62,1370.22 1300.73,1370.16 1302.84,1370.1 1304.95,1370.04 1307.06,1369.99 1309.16,1369.93 1311.27,1369.87 1313.38,1369.81 1315.49,1369.75 1317.6,1369.7 1319.71,1369.64 1321.81,1369.58 1323.92,1369.52 1326.03,1369.46 1328.14,1369.4 1330.25,1369.34 1332.35,1369.28 1334.46,1369.22 1336.57,1369.16 1338.68,1369.1 1340.79,1369.04 1342.9,1368.98 1345,1368.92 1347.11,1368.86 1349.22,1368.8 1351.33,1368.74 1353.44,1368.68 1355.55,1368.62 1357.65,1368.56 1359.76,1368.5 1361.87,1368.44 1363.98,1368.38 1366.09,1368.32 1368.2,1368.25 1370.3,1368.19 1372.41,1368.13 1374.52,1368.07 1376.63,1368.01 1378.74,1367.94 1380.85,1367.88 1382.95,1367.82 1385.06,1367.76 1387.17,1367.7 1389.28,1367.63 1391.39,1367.57 1393.49,1367.51 1395.6,1367.44 1397.71,1367.38 1399.82,1367.32 1401.93,1367.25 1404.04,1367.19 1406.14,1367.13 1408.25,1367.06 1410.36,1367 1412.47,1366.93 1414.58,1366.87 1416.69,1366.8 1418.79,1366.74 1420.9,1366.68 1423.01,1366.61 1425.12,1366.55 1427.23,1366.48 1429.34,1366.42 1431.44,1366.35 1433.55,1366.28 1435.66,1366.22 1437.77,1366.15 1439.88,1366.09 1441.98,1366.02 1444.09,1365.96 1446.2,1365.89 1448.31,1365.82 1450.42,1365.76 1452.53,1365.69 1454.63,1365.62 1456.74,1365.56 1458.85,1365.49 1460.96,1365.42 1463.07,1365.35 1465.18,1365.29 1467.28,1365.22 1469.39,1365.15 1471.5,1365.08 1473.61,1365.02 1475.72,1364.95 1477.83,1364.88 1479.93,1364.81 1482.04,1364.74 1484.15,1364.68 1486.26,1364.61 1488.37,1364.54 1490.47,1364.47 1492.58,1364.4 1494.69,1364.33 1496.8,1364.26 1498.91,1364.19 1501.02,1364.12 1503.12,1364.05 1505.23,1363.98 1507.34,1363.91 1509.45,1363.84 1511.56,1363.77 1513.67,1363.7 1515.77,1363.63 1517.88,1363.56 1519.99,1363.49 1522.1,1363.42 1524.21,1363.35 1526.32,1363.28 1528.42,1363.21 1530.53,1363.13 1532.64,1363.06 1534.75,1362.99 1536.86,1362.92 1538.97,1362.85 1541.07,1362.77 1543.18,1362.7 1545.29,1362.63 1547.4,1362.56 1549.51,1362.48 1551.61,1362.41 1553.72,1362.34 1555.83,1362.27 1557.94,1362.19 1560.05,1362.12 1562.16,1362.05 1564.26,1361.97 1566.37,1361.9 1568.48,1361.82 1570.59,1361.75 1572.7,1361.68 1574.81,1361.6 1576.91,1361.53 1579.02,1361.45 1581.13,1361.38 1583.24,1361.3 1585.35,1361.23 1587.46,1361.15 1589.56,1361.08 1591.67,1361 1593.78,1360.93 1595.89,1360.85 1598,1360.78 1600.1,1360.7 1602.21,1360.63 1604.32,1360.55 1606.43,1360.47 1608.54,1360.4 1610.65,1360.32 1612.75,1360.24 1614.86,1360.17 1616.97,1360.09 1619.08,1360.01 1621.19,1359.94 1623.3,1359.86 1625.4,1359.78 1627.51,1359.7 1629.62,1359.63 1631.73,1359.55 1633.84,1359.47 1635.95,1359.39 1638.05,1359.31 1640.16,1359.23 1642.27,1359.16 1644.38,1359.08 1646.49,1359 1648.59,1358.92 1650.7,1358.84 1652.81,1358.76 1654.92,1358.68 1657.03,1358.6 1659.14,1358.52 1661.24,1358.44 1663.35,1358.36 1665.46,1358.28 1667.57,1358.2 1669.68,1358.12 1671.79,1358.04 1673.89,1357.96 1676,1357.88 1678.11,1357.8 1680.22,1357.72 1682.33,1357.64 1684.44,1357.56 1686.54,1357.48 1688.65,1357.39 1690.76,1357.31 1692.87,1357.23 1694.98,1357.15 1697.09,1357.07 1699.19,1356.98 1701.3,1356.9 1703.41,1356.82 1705.52,1356.74 1707.63,1356.65 1709.73,1356.57 1711.84,1356.49 1713.95,1356.4 1716.06,1356.32 1718.17,1356.24 1720.28,1356.15 1722.38,1356.07 1724.49,1355.99 1726.6,1355.9 1728.71,1355.82 1730.82,1355.73 1732.93,1355.65 1735.03,1355.56 1737.14,1355.48 1739.25,1355.39 1741.36,1355.31 1743.47,1355.22 1745.58,1355.14 1747.68,1355.05 1749.79,1354.97 1751.9,1354.88 1754.01,1354.8 1756.12,1354.71 1758.22,1354.62 1760.33,1354.54 1762.44,1354.45 1764.55,1354.37 1766.66,1354.28 1768.77,1354.19 1770.87,1354.1 1772.98,1354.02 1775.09,1353.93 1777.2,1353.84 1779.31,1353.76 1781.42,1353.67 1783.52,1353.58 1785.63,1353.49 1787.74,1353.4 1789.85,1353.32 1791.96,1353.23 1794.07,1353.14 1796.17,1353.05 1798.28,1352.96 1800.39,1352.87 1802.5,1352.78 1804.61,1352.69 1806.71,1352.6 1808.82,1352.51 1810.93,1352.42 1813.04,1352.33 1815.15,1352.24 1817.26,1352.15 1819.36,1352.06 1821.47,1351.97 1823.58,1351.88 1825.69,1351.79 1827.8,1351.7 1829.91,1351.61 1832.01,1351.52 1834.12,1351.43 1836.23,1351.34 1838.34,1351.25 1840.45,1351.15 1842.56,1351.06 1844.66,1350.97 1846.77,1350.88 1848.88,1350.79 1850.99,1350.69 1853.1,1350.6 1855.21,1350.51 1857.31,1350.42 1859.42,1350.32 1861.53,1350.23 1863.64,1350.14 1865.75,1350.04 1867.85,1349.95 1869.96,1349.85 1872.07,1349.76 1874.18,1349.67 1876.29,1349.57 1878.4,1349.48 1880.5,1349.38 1882.61,1349.29 1884.72,1349.19 1886.83,1349.1 1888.94,1349 1891.05,1348.91 1893.15,1348.81 1895.26,1348.72 1897.37,1348.62 1899.48,1348.53 1901.59,1348.43 1903.7,1348.34 1905.8,1348.24 1907.91,1348.14 1910.02,1348.05 1912.13,1347.95 1914.24,1347.85 1916.34,1347.76 1918.45,1347.66 1920.56,1347.56 1922.67,1347.46 1924.78,1347.37 1926.89,1347.27 1928.99,1347.17 1931.1,1347.07 1933.21,1346.97 1935.32,1346.88 1937.43,1346.78 1939.54,1346.68 1941.64,1346.58 1943.75,1346.48 1945.86,1346.38 1947.97,1346.28 1950.08,1346.18 1952.19,1346.08 1954.29,1345.99 1956.4,1345.89 1958.51,1345.79 1960.62,1345.69 1962.73,1345.59 1964.83,1345.48 1966.94,1345.38 1969.05,1345.28 1971.16,1345.18 1973.27,1345.08 1975.38,1344.98 1977.48,1344.88 1979.59,1344.78 1981.7,1344.68 1983.81,1344.57 1985.92,1344.47 1988.03,1344.37 1990.13,1344.27 1992.24,1344.17 1994.35,1344.06 1996.46,1343.96 1998.57,1343.86 2000.68,1343.76 2002.78,1343.65 2004.89,1343.55 2007,1343.45 2009.11,1343.34 2011.22,1343.24 2013.33,1343.13 2015.43,1343.03 2017.54,1342.93 2019.65,1342.82 2021.76,1342.72 2023.87,1342.61 2025.97,1342.51 2028.08,1342.4 2030.19,1342.3 2032.3,1342.19 2034.41,1342.09 2036.52,1341.98 2038.62,1341.88 2040.73,1341.77 2042.84,1341.66 2044.95,1341.56 2047.06,1341.45 2049.17,1341.35 2051.27,1341.24 2053.38,1341.13 2055.49,1341.03 2057.6,1340.92 2059.71,1340.81 2061.82,1340.7 2063.92,1340.6 2066.03,1340.49 2068.14,1340.38 2070.25,1340.27 2072.36,1340.16 2074.46,1340.06 2076.57,1339.95 2078.68,1339.84 2080.79,1339.73 2082.9,1339.62 2085.01,1339.51 2087.11,1339.4 2089.22,1339.29 2091.33,1339.18 2093.44,1339.07 2095.55,1338.96 2097.66,1338.85 2099.76,1338.74 2101.87,1338.63 2103.98,1338.52 2106.09,1338.41 2108.2,1338.3 2110.31,1338.19 2112.41,1338.08 2114.52,1337.97 2116.63,1337.86 2118.74,1337.75 2120.85,1337.63 2122.95,1337.52 2125.06,1337.41 2127.17,1337.3 2129.28,1337.19 2131.39,1337.07 2133.5,1336.96 2135.6,1336.85 2137.71,1336.73 2139.82,1336.62 2141.93,1336.51 2144.04,1336.39 2146.15,1336.28 2148.25,1336.17 2150.36,1336.05 2152.47,1335.94 2154.58,1335.82 2156.69,1335.71 2158.8,1335.59 2160.9,1335.48 2163.01,1335.37 2165.12,1335.25 2167.23,1335.13 2169.34,1335.02 2171.44,1334.9 2173.55,1334.79 2175.66,1334.67 2177.77,1334.56 2179.88,1334.44 2181.99,1334.32 2184.09,1334.21 2186.2,1334.09 2188.31,1333.97 2190.42,1333.86 2192.53,1333.74 2194.64,1333.62 2196.74,1333.5 2198.85,1333.39 2200.96,1333.27 2203.07,1333.15 2205.18,1333.03 2207.29,1332.91 2209.39,1332.8 2211.5,1332.68 2213.61,1332.56 2215.72,1332.44 2217.83,1332.32 2219.94,1332.2 2222.04,1332.08 2224.15,1331.96 2226.26,1331.84 2228.37,1331.72 2230.48,1331.6 2232.58,1331.48 2234.69,1331.36 2236.8,1331.24 2238.91,1331.12 2241.02,1331 2243.13,1330.88 2245.23,1330.76 2247.34,1330.63 2249.45,1330.51 2251.56,1330.39 2253.67,1330.27 2255.78,1330.15 2257.88,1330.03 2259.99,1329.9 2262.1,1329.78 2264.21,1329.66 2266.32,1329.53 2268.43,1329.41 2270.53,1329.29 2272.64,1329.16 2274.75,1329.04 2276.86,1328.92 2278.97,1328.79 2281.07,1328.67 2283.18,1328.55 2285.29,1328.42 2287.4,1328.3 2289.51,1328.17 2291.62,1328.05 2293.72,1327.92 2295.83,1327.8 2297.94,1327.67 2300.05,1327.54 2302.16,1327.42 2304.27,1327.29 2306.37,1327.17 2308.48,1327.04 2310.59,1326.91 2312.7,1326.79 2314.81,1326.66 2316.92,1326.53 2319.02,1326.41 2321.13,1326.28 2323.24,1326.15 2325.35,1326.02 2327.46,1325.9 2329.56,1325.77 2331.67,1325.64 2333.78,1325.51 2335.89,1325.38 2338,1325.26 2340.11,1325.13 2342.21,1325 2344.32,1324.87 2346.43,1324.74 2348.54,1324.61 2350.65,1324.48 2352.76,1324.35 "/>
<path clip-path="url(#clip800)" d="M316.803 248.629 L752.348 248.629 L752.348 93.1086 L316.803 93.1086  Z" fill="#ffffff" fill-rule="evenodd" fill-opacity="1"/>
<polyline clip-path="url(#clip800)" style="stroke:#000000; stroke-linecap:round; stroke-linejoin:round; stroke-width:4; stroke-opacity:1; fill:none" points="316.803,248.629 752.348,248.629 752.348,93.1086 316.803,93.1086 316.803,248.629 "/>
<polyline clip-path="url(#clip800)" style="stroke:#009af9; stroke-linecap:round; stroke-linejoin:round; stroke-width:4; stroke-opacity:1; fill:none" points="340.205,144.949 480.615,144.949 "/>
<path clip-path="url(#clip800)" d="M524.364 141.28 Q525.961 138.409 528.184 137.044 Q530.406 135.678 533.415 135.678 Q537.466 135.678 539.665 138.525 Q541.864 141.349 541.864 146.581 L541.864 162.229 L537.582 162.229 L537.582 146.719 Q537.582 142.993 536.262 141.187 Q534.943 139.382 532.235 139.382 Q528.924 139.382 527.003 141.581 Q525.082 143.78 525.082 147.576 L525.082 162.229 L520.799 162.229 L520.799 146.719 Q520.799 142.969 519.48 141.187 Q518.161 139.382 515.406 139.382 Q512.142 139.382 510.221 141.604 Q508.299 143.803 508.299 147.576 L508.299 162.229 L504.017 162.229 L504.017 136.303 L508.299 136.303 L508.299 140.331 Q509.758 137.946 511.795 136.812 Q513.832 135.678 516.633 135.678 Q519.457 135.678 521.424 137.113 Q523.415 138.548 524.364 141.28 Z" fill="#000000" fill-rule="nonzero" fill-opacity="1" /><path clip-path="url(#clip800)" d="M560.406 139.289 Q556.98 139.289 554.989 141.974 Q552.998 144.636 552.998 149.289 Q552.998 153.942 554.966 156.627 Q556.957 159.289 560.406 159.289 Q563.808 159.289 565.799 156.604 Q567.79 153.918 567.79 149.289 Q567.79 144.682 565.799 141.997 Q563.808 139.289 560.406 139.289 M560.406 135.678 Q565.961 135.678 569.132 139.289 Q572.304 142.9 572.304 149.289 Q572.304 155.655 569.132 159.289 Q565.961 162.9 560.406 162.9 Q554.827 162.9 551.656 159.289 Q548.508 155.655 548.508 149.289 Q548.508 142.9 551.656 139.289 Q554.827 135.678 560.406 135.678 Z" fill="#000000" fill-rule="nonzero" fill-opacity="1" /><path clip-path="url(#clip800)" d="M596.424 140.238 L596.424 126.21 L600.683 126.21 L600.683 162.229 L596.424 162.229 L596.424 158.34 Q595.081 160.655 593.021 161.789 Q590.984 162.9 588.114 162.9 Q583.415 162.9 580.452 159.15 Q577.512 155.4 577.512 149.289 Q577.512 143.178 580.452 139.428 Q583.415 135.678 588.114 135.678 Q590.984 135.678 593.021 136.812 Q595.081 137.923 596.424 140.238 M581.91 149.289 Q581.91 153.988 583.831 156.673 Q585.776 159.335 589.156 159.335 Q592.535 159.335 594.48 156.673 Q596.424 153.988 596.424 149.289 Q596.424 144.59 594.48 141.928 Q592.535 139.243 589.156 139.243 Q585.776 139.243 583.831 141.928 Q581.91 144.59 581.91 149.289 Z" fill="#000000" fill-rule="nonzero" fill-opacity="1" /><path clip-path="url(#clip800)" d="M631.632 148.201 L631.632 150.284 L612.049 150.284 Q612.327 154.682 614.688 156.997 Q617.072 159.289 621.308 159.289 Q623.762 159.289 626.053 158.687 Q628.368 158.085 630.637 156.881 L630.637 160.909 Q628.345 161.881 625.938 162.391 Q623.53 162.9 621.053 162.9 Q614.85 162.9 611.216 159.289 Q607.604 155.678 607.604 149.52 Q607.604 143.155 611.03 139.428 Q614.479 135.678 620.313 135.678 Q625.544 135.678 628.577 139.057 Q631.632 142.414 631.632 148.201 M627.373 146.951 Q627.327 143.456 625.405 141.372 Q623.507 139.289 620.359 139.289 Q616.794 139.289 614.641 141.303 Q612.512 143.317 612.188 146.974 L627.373 146.951 Z" fill="#000000" fill-rule="nonzero" fill-opacity="1" /><path clip-path="url(#clip800)" d="M638.623 126.21 L642.882 126.21 L642.882 162.229 L638.623 162.229 L638.623 126.21 Z" fill="#000000" fill-rule="nonzero" fill-opacity="1" /><path clip-path="url(#clip800)" d="M661.053 145.585 L661.053 152.807 L669.178 152.807 L669.178 155.006 L661.053 155.006 L661.053 162.229 L658.623 162.229 L658.623 155.006 L650.498 155.006 L650.498 152.807 L658.623 152.807 L658.623 145.585 L661.053 145.585 Z" fill="#000000" fill-rule="nonzero" fill-opacity="1" /><path clip-path="url(#clip800)" d="M693.877 140.238 L693.877 126.21 L698.136 126.21 L698.136 162.229 L693.877 162.229 L693.877 158.34 Q692.535 160.655 690.474 161.789 Q688.437 162.9 685.567 162.9 Q680.868 162.9 677.905 159.15 Q674.965 155.4 674.965 149.289 Q674.965 143.178 677.905 139.428 Q680.868 135.678 685.567 135.678 Q688.437 135.678 690.474 136.812 Q692.535 137.923 693.877 140.238 M679.363 149.289 Q679.363 153.988 681.285 156.673 Q683.229 159.335 686.609 159.335 Q689.988 159.335 691.933 156.673 Q693.877 153.988 693.877 149.289 Q693.877 144.59 691.933 141.928 Q689.988 139.243 686.609 139.243 Q683.229 139.243 681.285 141.928 Q679.363 144.59 679.363 149.289 Z" fill="#000000" fill-rule="nonzero" fill-opacity="1" /><path clip-path="url(#clip800)" d="M728.46 136.303 L719.085 148.919 L728.946 162.229 L723.923 162.229 L716.377 152.043 L708.831 162.229 L703.808 162.229 L713.877 148.664 L704.664 136.303 L709.687 136.303 L716.562 145.539 L723.437 136.303 L728.46 136.303 Z" fill="#000000" fill-rule="nonzero" fill-opacity="1" /><polyline clip-path="url(#clip800)" style="stroke:#e26f46; stroke-linecap:round; stroke-linejoin:round; stroke-width:4; stroke-opacity:1; fill:none" points="340.205,196.789 480.615,196.789 "/>
<path clip-path="url(#clip800)" d="M524.364 193.12 Q525.961 190.249 528.184 188.884 Q530.406 187.518 533.415 187.518 Q537.466 187.518 539.665 190.365 Q541.864 193.189 541.864 198.421 L541.864 214.069 L537.582 214.069 L537.582 198.559 Q537.582 194.833 536.262 193.027 Q534.943 191.222 532.235 191.222 Q528.924 191.222 527.003 193.421 Q525.082 195.62 525.082 199.416 L525.082 214.069 L520.799 214.069 L520.799 198.559 Q520.799 194.809 519.48 193.027 Q518.161 191.222 515.406 191.222 Q512.142 191.222 510.221 193.444 Q508.299 195.643 508.299 199.416 L508.299 214.069 L504.017 214.069 L504.017 188.143 L508.299 188.143 L508.299 192.171 Q509.758 189.786 511.795 188.652 Q513.832 187.518 516.633 187.518 Q519.457 187.518 521.424 188.953 Q523.415 190.388 524.364 193.12 Z" fill="#000000" fill-rule="nonzero" fill-opacity="1" /><path clip-path="url(#clip800)" d="M560.406 191.129 Q556.98 191.129 554.989 193.814 Q552.998 196.476 552.998 201.129 Q552.998 205.782 554.966 208.467 Q556.957 211.129 560.406 211.129 Q563.808 211.129 565.799 208.444 Q567.79 205.758 567.79 201.129 Q567.79 196.522 565.799 193.837 Q563.808 191.129 560.406 191.129 M560.406 187.518 Q565.961 187.518 569.132 191.129 Q572.304 194.74 572.304 201.129 Q572.304 207.495 569.132 211.129 Q565.961 214.74 560.406 214.74 Q554.827 214.74 551.656 211.129 Q548.508 207.495 548.508 201.129 Q548.508 194.74 551.656 191.129 Q554.827 187.518 560.406 187.518 Z" fill="#000000" fill-rule="nonzero" fill-opacity="1" /><path clip-path="url(#clip800)" d="M596.424 192.078 L596.424 178.05 L600.683 178.05 L600.683 214.069 L596.424 214.069 L596.424 210.18 Q595.081 212.495 593.021 213.629 Q590.984 214.74 588.114 214.74 Q583.415 214.74 580.452 210.99 Q577.512 207.24 577.512 201.129 Q577.512 195.018 580.452 191.268 Q583.415 187.518 588.114 187.518 Q590.984 187.518 593.021 188.652 Q595.081 189.763 596.424 192.078 M581.91 201.129 Q581.91 205.828 583.831 208.513 Q585.776 211.175 589.156 211.175 Q592.535 211.175 594.48 208.513 Q596.424 205.828 596.424 201.129 Q596.424 196.43 594.48 193.768 Q592.535 191.083 589.156 191.083 Q585.776 191.083 583.831 193.768 Q581.91 196.43 581.91 201.129 Z" fill="#000000" fill-rule="nonzero" fill-opacity="1" /><path clip-path="url(#clip800)" d="M631.632 200.041 L631.632 202.124 L612.049 202.124 Q612.327 206.522 614.688 208.837 Q617.072 211.129 621.308 211.129 Q623.762 211.129 626.053 210.527 Q628.368 209.925 630.637 208.721 L630.637 212.749 Q628.345 213.721 625.938 214.231 Q623.53 214.74 621.053 214.74 Q614.85 214.74 611.216 211.129 Q607.604 207.518 607.604 201.36 Q607.604 194.995 611.03 191.268 Q614.479 187.518 620.313 187.518 Q625.544 187.518 628.577 190.897 Q631.632 194.254 631.632 200.041 M627.373 198.791 Q627.327 195.296 625.405 193.212 Q623.507 191.129 620.359 191.129 Q616.794 191.129 614.641 193.143 Q612.512 195.157 612.188 198.814 L627.373 198.791 Z" fill="#000000" fill-rule="nonzero" fill-opacity="1" /><path clip-path="url(#clip800)" d="M638.623 178.05 L642.882 178.05 L642.882 214.069 L638.623 214.069 L638.623 178.05 Z" fill="#000000" fill-rule="nonzero" fill-opacity="1" /><path clip-path="url(#clip800)" d="M661.053 197.425 L661.053 204.647 L669.178 204.647 L669.178 206.846 L661.053 206.846 L661.053 214.069 L658.623 214.069 L658.623 206.846 L650.498 206.846 L650.498 204.647 L658.623 204.647 L658.623 197.425 L661.053 197.425 Z" fill="#000000" fill-rule="nonzero" fill-opacity="1" /><path clip-path="url(#clip800)" d="M698.368 188.143 L688.993 200.759 L698.854 214.069 L693.831 214.069 L686.285 203.883 L678.738 214.069 L673.715 214.069 L683.785 200.504 L674.572 188.143 L679.595 188.143 L686.47 197.379 L693.345 188.143 L698.368 188.143 Z" fill="#000000" fill-rule="nonzero" fill-opacity="1" /></svg>
