<?xml version="1.0" encoding="utf-8"?>
<svg xmlns="http://www.w3.org/2000/svg" xmlns:xlink="http://www.w3.org/1999/xlink" width="600" height="400" viewBox="0 0 2400 1600">
<defs>
  <clipPath id="clip430">
    <rect x="0" y="0" width="2400" height="1600"/>
  </clipPath>
</defs>
<path clip-path="url(#clip430)" d="M0 1600 L2400 1600 L2400 0 L0 0  Z" fill="#ffffff" fill-rule="evenodd" fill-opacity="1"/>
<defs>
  <clipPath id="clip431">
    <rect x="246" y="47" width="2107" height="1377"/>
  </clipPath>
</defs>
<path clip-path="url(#clip430)" d="M246.598 1423.18 L2352.76 1423.18 L2352.76 47.2441 L246.598 47.2441  Z" fill="#ffffff" fill-rule="evenodd" fill-opacity="1"/>
<polyline clip-path="url(#clip431)" style="stroke:#000000; stroke-linecap:round; stroke-linejoin:round; stroke-width:2; stroke-opacity:0.1; fill:none" points="246.598,1423.18 246.598,47.2441 "/>
<polyline clip-path="url(#clip431)" style="stroke:#000000; stroke-linecap:round; stroke-linejoin:round; stroke-width:2; stroke-opacity:0.1; fill:none" points="667.829,1423.18 667.829,47.2441 "/>
<polyline clip-path="url(#clip431)" style="stroke:#000000; stroke-linecap:round; stroke-linejoin:round; stroke-width:2; stroke-opacity:0.1; fill:none" points="1089.06,1423.18 1089.06,47.2441 "/>
<polyline clip-path="url(#clip431)" style="stroke:#000000; stroke-linecap:round; stroke-linejoin:round; stroke-width:2; stroke-opacity:0.1; fill:none" points="1510.29,1423.18 1510.29,47.2441 "/>
<polyline clip-path="url(#clip431)" style="stroke:#000000; stroke-linecap:round; stroke-linejoin:round; stroke-width:2; stroke-opacity:0.1; fill:none" points="1931.52,1423.18 1931.52,47.2441 "/>
<polyline clip-path="url(#clip431)" style="stroke:#000000; stroke-linecap:round; stroke-linejoin:round; stroke-width:2; stroke-opacity:0.1; fill:none" points="246.598,1361.93 2352.76,1361.93 "/>
<polyline clip-path="url(#clip431)" style="stroke:#000000; stroke-linecap:round; stroke-linejoin:round; stroke-width:2; stroke-opacity:0.1; fill:none" points="246.598,1030.41 2352.76,1030.41 "/>
<polyline clip-path="url(#clip431)" style="stroke:#000000; stroke-linecap:round; stroke-linejoin:round; stroke-width:2; stroke-opacity:0.1; fill:none" points="246.598,698.883 2352.76,698.883 "/>
<polyline clip-path="url(#clip431)" style="stroke:#000000; stroke-linecap:round; stroke-linejoin:round; stroke-width:2; stroke-opacity:0.1; fill:none" points="246.598,367.357 2352.76,367.357 "/>
<polyline clip-path="url(#clip430)" style="stroke:#000000; stroke-linecap:round; stroke-linejoin:round; stroke-width:4; stroke-opacity:1; fill:none" points="246.598,1423.18 2352.76,1423.18 "/>
<polyline clip-path="url(#clip430)" style="stroke:#000000; stroke-linecap:round; stroke-linejoin:round; stroke-width:4; stroke-opacity:1; fill:none" points="246.598,1423.18 246.598,1404.28 "/>
<polyline clip-path="url(#clip430)" style="stroke:#000000; stroke-linecap:round; stroke-linejoin:round; stroke-width:4; stroke-opacity:1; fill:none" points="667.829,1423.18 667.829,1404.28 "/>
<polyline clip-path="url(#clip430)" style="stroke:#000000; stroke-linecap:round; stroke-linejoin:round; stroke-width:4; stroke-opacity:1; fill:none" points="1089.06,1423.18 1089.06,1404.28 "/>
<polyline clip-path="url(#clip430)" style="stroke:#000000; stroke-linecap:round; stroke-linejoin:round; stroke-width:4; stroke-opacity:1; fill:none" points="1510.29,1423.18 1510.29,1404.28 "/>
<polyline clip-path="url(#clip430)" style="stroke:#000000; stroke-linecap:round; stroke-linejoin:round; stroke-width:4; stroke-opacity:1; fill:none" points="1931.52,1423.18 1931.52,1404.28 "/>
<path clip-path="url(#clip430)" d="M208.901 1454.1 Q205.29 1454.1 203.461 1457.66 Q201.656 1461.2 201.656 1468.33 Q201.656 1475.44 203.461 1479.01 Q205.29 1482.55 208.901 1482.55 Q212.535 1482.55 214.341 1479.01 Q216.17 1475.44 216.17 1468.33 Q216.17 1461.2 214.341 1457.66 Q212.535 1454.1 208.901 1454.1 M208.901 1450.39 Q214.711 1450.39 217.767 1455 Q220.846 1459.58 220.846 1468.33 Q220.846 1477.06 217.767 1481.67 Q214.711 1486.25 208.901 1486.25 Q203.091 1486.25 200.012 1481.67 Q196.957 1477.06 196.957 1468.33 Q196.957 1459.58 200.012 1455 Q203.091 1450.39 208.901 1450.39 Z" fill="#000000" fill-rule="nonzero" fill-opacity="1" /><path clip-path="url(#clip430)" d="M229.063 1479.7 L233.947 1479.7 L233.947 1485.58 L229.063 1485.58 L229.063 1479.7 Z" fill="#000000" fill-rule="nonzero" fill-opacity="1" /><path clip-path="url(#clip430)" d="M254.132 1454.1 Q250.521 1454.1 248.693 1457.66 Q246.887 1461.2 246.887 1468.33 Q246.887 1475.44 248.693 1479.01 Q250.521 1482.55 254.132 1482.55 Q257.767 1482.55 259.572 1479.01 Q261.401 1475.44 261.401 1468.33 Q261.401 1461.2 259.572 1457.66 Q257.767 1454.1 254.132 1454.1 M254.132 1450.39 Q259.943 1450.39 262.998 1455 Q266.077 1459.58 266.077 1468.33 Q266.077 1477.06 262.998 1481.67 Q259.943 1486.25 254.132 1486.25 Q248.322 1486.25 245.244 1481.67 Q242.188 1477.06 242.188 1468.33 Q242.188 1459.58 245.244 1455 Q248.322 1450.39 254.132 1450.39 Z" fill="#000000" fill-rule="nonzero" fill-opacity="1" /><path clip-path="url(#clip430)" d="M284.294 1454.1 Q280.683 1454.1 278.855 1457.66 Q277.049 1461.2 277.049 1468.33 Q277.049 1475.44 278.855 1479.01 Q280.683 1482.55 284.294 1482.55 Q287.929 1482.55 289.734 1479.01 Q291.563 1475.44 291.563 1468.33 Q291.563 1461.2 289.734 1457.66 Q287.929 1454.1 284.294 1454.1 M284.294 1450.39 Q290.104 1450.39 293.16 1455 Q296.239 1459.58 296.239 1468.33 Q296.239 1477.06 293.16 1481.67 Q290.104 1486.25 284.294 1486.25 Q278.484 1486.25 275.405 1481.67 Q272.35 1477.06 272.35 1468.33 Q272.35 1459.58 275.405 1455 Q278.484 1450.39 284.294 1450.39 Z" fill="#000000" fill-rule="nonzero" fill-opacity="1" /><path clip-path="url(#clip430)" d="M630.931 1454.1 Q627.32 1454.1 625.492 1457.66 Q623.686 1461.2 623.686 1468.33 Q623.686 1475.44 625.492 1479.01 Q627.32 1482.55 630.931 1482.55 Q634.566 1482.55 636.371 1479.01 Q638.2 1475.44 638.2 1468.33 Q638.2 1461.2 636.371 1457.66 Q634.566 1454.1 630.931 1454.1 M630.931 1450.39 Q636.742 1450.39 639.797 1455 Q642.876 1459.58 642.876 1468.33 Q642.876 1477.06 639.797 1481.67 Q636.742 1486.25 630.931 1486.25 Q625.121 1486.25 622.043 1481.67 Q618.987 1477.06 618.987 1468.33 Q618.987 1459.58 622.043 1455 Q625.121 1450.39 630.931 1450.39 Z" fill="#000000" fill-rule="nonzero" fill-opacity="1" /><path clip-path="url(#clip430)" d="M651.093 1479.7 L655.978 1479.7 L655.978 1485.58 L651.093 1485.58 L651.093 1479.7 Z" fill="#000000" fill-rule="nonzero" fill-opacity="1" /><path clip-path="url(#clip430)" d="M676.163 1454.1 Q672.552 1454.1 670.723 1457.66 Q668.917 1461.2 668.917 1468.33 Q668.917 1475.44 670.723 1479.01 Q672.552 1482.55 676.163 1482.55 Q679.797 1482.55 681.602 1479.01 Q683.431 1475.44 683.431 1468.33 Q683.431 1461.2 681.602 1457.66 Q679.797 1454.1 676.163 1454.1 M676.163 1450.39 Q681.973 1450.39 685.028 1455 Q688.107 1459.58 688.107 1468.33 Q688.107 1477.06 685.028 1481.67 Q681.973 1486.25 676.163 1486.25 Q670.353 1486.25 667.274 1481.67 Q664.218 1477.06 664.218 1468.33 Q664.218 1459.58 667.274 1455 Q670.353 1450.39 676.163 1450.39 Z" fill="#000000" fill-rule="nonzero" fill-opacity="1" /><path clip-path="url(#clip430)" d="M700.352 1481.64 L716.672 1481.64 L716.672 1485.58 L694.727 1485.58 L694.727 1481.64 Q697.389 1478.89 701.973 1474.26 Q706.579 1469.61 707.76 1468.27 Q710.005 1465.74 710.885 1464.01 Q711.787 1462.25 711.787 1460.56 Q711.787 1457.8 709.843 1456.07 Q707.922 1454.33 704.82 1454.33 Q702.621 1454.33 700.167 1455.09 Q697.737 1455.86 694.959 1457.41 L694.959 1452.69 Q697.783 1451.55 700.237 1450.97 Q702.69 1450.39 704.727 1450.39 Q710.098 1450.39 713.292 1453.08 Q716.487 1455.77 716.487 1460.26 Q716.487 1462.39 715.676 1464.31 Q714.889 1466.2 712.783 1468.8 Q712.204 1469.47 709.102 1472.69 Q706 1475.88 700.352 1481.64 Z" fill="#000000" fill-rule="nonzero" fill-opacity="1" /><path clip-path="url(#clip430)" d="M1051.12 1454.1 Q1047.51 1454.1 1045.68 1457.66 Q1043.88 1461.2 1043.88 1468.33 Q1043.88 1475.44 1045.68 1479.01 Q1047.51 1482.55 1051.12 1482.55 Q1054.76 1482.55 1056.56 1479.01 Q1058.39 1475.44 1058.39 1468.33 Q1058.39 1461.2 1056.56 1457.66 Q1054.76 1454.1 1051.12 1454.1 M1051.12 1450.39 Q1056.93 1450.39 1059.99 1455 Q1063.07 1459.58 1063.07 1468.33 Q1063.07 1477.06 1059.99 1481.67 Q1056.93 1486.25 1051.12 1486.25 Q1045.31 1486.25 1042.23 1481.67 Q1039.18 1477.06 1039.18 1468.33 Q1039.18 1459.58 1042.23 1455 Q1045.31 1450.39 1051.12 1450.39 Z" fill="#000000" fill-rule="nonzero" fill-opacity="1" /><path clip-path="url(#clip430)" d="M1071.28 1479.7 L1076.17 1479.7 L1076.17 1485.58 L1071.28 1485.58 L1071.28 1479.7 Z" fill="#000000" fill-rule="nonzero" fill-opacity="1" /><path clip-path="url(#clip430)" d="M1096.35 1454.1 Q1092.74 1454.1 1090.91 1457.66 Q1089.11 1461.2 1089.11 1468.33 Q1089.11 1475.44 1090.91 1479.01 Q1092.74 1482.55 1096.35 1482.55 Q1099.99 1482.55 1101.79 1479.01 Q1103.62 1475.44 1103.62 1468.33 Q1103.62 1461.2 1101.79 1457.66 Q1099.99 1454.1 1096.35 1454.1 M1096.35 1450.39 Q1102.16 1450.39 1105.22 1455 Q1108.3 1459.58 1108.3 1468.33 Q1108.3 1477.06 1105.22 1481.67 Q1102.16 1486.25 1096.35 1486.25 Q1090.54 1486.25 1087.46 1481.67 Q1084.41 1477.06 1084.41 1468.33 Q1084.41 1459.58 1087.46 1455 Q1090.54 1450.39 1096.35 1450.39 Z" fill="#000000" fill-rule="nonzero" fill-opacity="1" /><path clip-path="url(#clip430)" d="M1129.36 1455.09 L1117.56 1473.54 L1129.36 1473.54 L1129.36 1455.09 M1128.13 1451.02 L1134.01 1451.02 L1134.01 1473.54 L1138.95 1473.54 L1138.95 1477.43 L1134.01 1477.43 L1134.01 1485.58 L1129.36 1485.58 L1129.36 1477.43 L1113.76 1477.43 L1113.76 1472.92 L1128.13 1451.02 Z" fill="#000000" fill-rule="nonzero" fill-opacity="1" /><path clip-path="url(#clip430)" d="M1472.52 1454.1 Q1468.9 1454.1 1467.08 1457.66 Q1465.27 1461.2 1465.27 1468.33 Q1465.27 1475.44 1467.08 1479.01 Q1468.9 1482.55 1472.52 1482.55 Q1476.15 1482.55 1477.95 1479.01 Q1479.78 1475.44 1479.78 1468.33 Q1479.78 1461.2 1477.95 1457.66 Q1476.15 1454.1 1472.52 1454.1 M1472.52 1450.39 Q1478.33 1450.39 1481.38 1455 Q1484.46 1459.58 1484.46 1468.33 Q1484.46 1477.06 1481.38 1481.67 Q1478.33 1486.25 1472.52 1486.25 Q1466.7 1486.25 1463.63 1481.67 Q1460.57 1477.06 1460.57 1468.33 Q1460.57 1459.58 1463.63 1455 Q1466.7 1450.39 1472.52 1450.39 Z" fill="#000000" fill-rule="nonzero" fill-opacity="1" /><path clip-path="url(#clip430)" d="M1492.68 1479.7 L1497.56 1479.7 L1497.56 1485.58 L1492.68 1485.58 L1492.68 1479.7 Z" fill="#000000" fill-rule="nonzero" fill-opacity="1" /><path clip-path="url(#clip430)" d="M1517.75 1454.1 Q1514.14 1454.1 1512.31 1457.66 Q1510.5 1461.2 1510.5 1468.33 Q1510.5 1475.44 1512.31 1479.01 Q1514.14 1482.55 1517.75 1482.55 Q1521.38 1482.55 1523.19 1479.01 Q1525.01 1475.44 1525.01 1468.33 Q1525.01 1461.2 1523.19 1457.66 Q1521.38 1454.1 1517.75 1454.1 M1517.75 1450.39 Q1523.56 1450.39 1526.61 1455 Q1529.69 1459.58 1529.69 1468.33 Q1529.69 1477.06 1526.61 1481.67 Q1523.56 1486.25 1517.75 1486.25 Q1511.94 1486.25 1508.86 1481.67 Q1505.8 1477.06 1505.8 1468.33 Q1505.8 1459.58 1508.86 1455 Q1511.94 1450.39 1517.75 1450.39 Z" fill="#000000" fill-rule="nonzero" fill-opacity="1" /><path clip-path="url(#clip430)" d="M1548.49 1466.44 Q1545.34 1466.44 1543.49 1468.59 Q1541.66 1470.74 1541.66 1474.49 Q1541.66 1478.22 1543.49 1480.39 Q1545.34 1482.55 1548.49 1482.55 Q1551.64 1482.55 1553.46 1480.39 Q1555.32 1478.22 1555.32 1474.49 Q1555.32 1470.74 1553.46 1468.59 Q1551.64 1466.44 1548.49 1466.44 M1557.77 1451.78 L1557.77 1456.04 Q1556.01 1455.21 1554.2 1454.77 Q1552.42 1454.33 1550.66 1454.33 Q1546.03 1454.33 1543.58 1457.45 Q1541.15 1460.58 1540.8 1466.9 Q1542.17 1464.89 1544.23 1463.82 Q1546.29 1462.73 1548.76 1462.73 Q1553.97 1462.73 1556.98 1465.9 Q1560.01 1469.05 1560.01 1474.49 Q1560.01 1479.82 1556.87 1483.03 Q1553.72 1486.25 1548.49 1486.25 Q1542.49 1486.25 1539.32 1481.67 Q1536.15 1477.06 1536.15 1468.33 Q1536.15 1460.14 1540.04 1455.28 Q1543.93 1450.39 1550.48 1450.39 Q1552.24 1450.39 1554.02 1450.74 Q1555.82 1451.09 1557.77 1451.78 Z" fill="#000000" fill-rule="nonzero" fill-opacity="1" /><path clip-path="url(#clip430)" d="M1893.87 1454.1 Q1890.26 1454.1 1888.43 1457.66 Q1886.63 1461.2 1886.63 1468.33 Q1886.63 1475.44 1888.43 1479.01 Q1890.26 1482.55 1893.87 1482.55 Q1897.51 1482.55 1899.31 1479.01 Q1901.14 1475.44 1901.14 1468.33 Q1901.14 1461.2 1899.31 1457.66 Q1897.51 1454.1 1893.87 1454.1 M1893.87 1450.39 Q1899.68 1450.39 1902.74 1455 Q1905.82 1459.58 1905.82 1468.33 Q1905.82 1477.06 1902.74 1481.67 Q1899.68 1486.25 1893.87 1486.25 Q1888.06 1486.25 1884.99 1481.67 Q1881.93 1477.06 1881.93 1468.33 Q1881.93 1459.58 1884.99 1455 Q1888.06 1450.39 1893.87 1450.39 Z" fill="#000000" fill-rule="nonzero" fill-opacity="1" /><path clip-path="url(#clip430)" d="M1914.04 1479.7 L1918.92 1479.7 L1918.92 1485.58 L1914.04 1485.58 L1914.04 1479.7 Z" fill="#000000" fill-rule="nonzero" fill-opacity="1" /><path clip-path="url(#clip430)" d="M1939.11 1454.1 Q1935.49 1454.1 1933.67 1457.66 Q1931.86 1461.2 1931.86 1468.33 Q1931.86 1475.44 1933.67 1479.01 Q1935.49 1482.55 1939.11 1482.55 Q1942.74 1482.55 1944.55 1479.01 Q1946.37 1475.44 1946.37 1468.33 Q1946.37 1461.2 1944.55 1457.66 Q1942.74 1454.1 1939.11 1454.1 M1939.11 1450.39 Q1944.92 1450.39 1947.97 1455 Q1951.05 1459.58 1951.05 1468.33 Q1951.05 1477.06 1947.97 1481.67 Q1944.92 1486.25 1939.11 1486.25 Q1933.3 1486.25 1930.22 1481.67 Q1927.16 1477.06 1927.16 1468.33 Q1927.16 1459.58 1930.22 1455 Q1933.3 1450.39 1939.11 1450.39 Z" fill="#000000" fill-rule="nonzero" fill-opacity="1" /><path clip-path="url(#clip430)" d="M1969.27 1469.17 Q1965.93 1469.17 1964.01 1470.95 Q1962.11 1472.73 1962.11 1475.86 Q1962.11 1478.98 1964.01 1480.77 Q1965.93 1482.55 1969.27 1482.55 Q1972.6 1482.55 1974.52 1480.77 Q1976.44 1478.96 1976.44 1475.86 Q1976.44 1472.73 1974.52 1470.95 Q1972.62 1469.17 1969.27 1469.17 M1964.59 1467.18 Q1961.58 1466.44 1959.89 1464.38 Q1958.23 1462.32 1958.23 1459.35 Q1958.23 1455.21 1961.17 1452.8 Q1964.13 1450.39 1969.27 1450.39 Q1974.43 1450.39 1977.37 1452.8 Q1980.31 1455.21 1980.31 1459.35 Q1980.31 1462.32 1978.62 1464.38 Q1976.95 1466.44 1973.97 1467.18 Q1977.35 1467.96 1979.22 1470.26 Q1981.12 1472.55 1981.12 1475.86 Q1981.12 1480.88 1978.04 1483.57 Q1974.98 1486.25 1969.27 1486.25 Q1963.55 1486.25 1960.47 1483.57 Q1957.42 1480.88 1957.42 1475.86 Q1957.42 1472.55 1959.31 1470.26 Q1961.21 1467.96 1964.59 1467.18 M1962.88 1459.79 Q1962.88 1462.48 1964.54 1463.98 Q1966.23 1465.49 1969.27 1465.49 Q1972.28 1465.49 1973.97 1463.98 Q1975.68 1462.48 1975.68 1459.79 Q1975.68 1457.11 1973.97 1455.6 Q1972.28 1454.1 1969.27 1454.1 Q1966.23 1454.1 1964.54 1455.6 Q1962.88 1457.11 1962.88 1459.79 Z" fill="#000000" fill-rule="nonzero" fill-opacity="1" /><path clip-path="url(#clip430)" d="M1298.74 1522.27 L1298.74 1532.4 L1310.8 1532.4 L1310.8 1536.95 L1298.74 1536.95 L1298.74 1556.3 Q1298.74 1560.66 1299.92 1561.9 Q1301.13 1563.14 1304.79 1563.14 L1310.8 1563.14 L1310.8 1568.04 L1304.79 1568.04 Q1298.01 1568.04 1295.43 1565.53 Q1292.85 1562.98 1292.85 1556.3 L1292.85 1536.95 L1288.55 1536.95 L1288.55 1532.4 L1292.85 1532.4 L1292.85 1522.27 L1298.74 1522.27 Z" fill="#000000" fill-rule="nonzero" fill-opacity="1" /><polyline clip-path="url(#clip430)" style="stroke:#000000; stroke-linecap:round; stroke-linejoin:round; stroke-width:4; stroke-opacity:1; fill:none" points="246.598,1423.18 246.598,47.2441 "/>
<polyline clip-path="url(#clip430)" style="stroke:#000000; stroke-linecap:round; stroke-linejoin:round; stroke-width:4; stroke-opacity:1; fill:none" points="246.598,1361.93 265.495,1361.93 "/>
<polyline clip-path="url(#clip430)" style="stroke:#000000; stroke-linecap:round; stroke-linejoin:round; stroke-width:4; stroke-opacity:1; fill:none" points="246.598,1030.41 265.495,1030.41 "/>
<polyline clip-path="url(#clip430)" style="stroke:#000000; stroke-linecap:round; stroke-linejoin:round; stroke-width:4; stroke-opacity:1; fill:none" points="246.598,698.883 265.495,698.883 "/>
<polyline clip-path="url(#clip430)" style="stroke:#000000; stroke-linecap:round; stroke-linejoin:round; stroke-width:4; stroke-opacity:1; fill:none" points="246.598,367.357 265.495,367.357 "/>
<path clip-path="url(#clip430)" d="M62.9365 1347.73 Q59.3254 1347.73 57.4967 1351.3 Q55.6912 1354.84 55.6912 1361.97 Q55.6912 1369.08 57.4967 1372.64 Q59.3254 1376.18 62.9365 1376.18 Q66.5707 1376.18 68.3763 1372.64 Q70.205 1369.08 70.205 1361.97 Q70.205 1354.84 68.3763 1351.3 Q66.5707 1347.73 62.9365 1347.73 M62.9365 1344.03 Q68.7467 1344.03 71.8022 1348.64 Q74.8809 1353.22 74.8809 1361.97 Q74.8809 1370.7 71.8022 1375.3 Q68.7467 1379.89 62.9365 1379.89 Q57.1264 1379.89 54.0477 1375.3 Q50.9921 1370.7 50.9921 1361.97 Q50.9921 1353.22 54.0477 1348.64 Q57.1264 1344.03 62.9365 1344.03 Z" fill="#000000" fill-rule="nonzero" fill-opacity="1" /><path clip-path="url(#clip430)" d="M83.0984 1373.34 L87.9827 1373.34 L87.9827 1379.21 L83.0984 1379.21 L83.0984 1373.34 Z" fill="#000000" fill-rule="nonzero" fill-opacity="1" /><path clip-path="url(#clip430)" d="M108.168 1347.73 Q104.557 1347.73 102.728 1351.3 Q100.922 1354.84 100.922 1361.97 Q100.922 1369.08 102.728 1372.64 Q104.557 1376.18 108.168 1376.18 Q111.802 1376.18 113.608 1372.64 Q115.436 1369.08 115.436 1361.97 Q115.436 1354.84 113.608 1351.3 Q111.802 1347.73 108.168 1347.73 M108.168 1344.03 Q113.978 1344.03 117.033 1348.64 Q120.112 1353.22 120.112 1361.97 Q120.112 1370.7 117.033 1375.3 Q113.978 1379.89 108.168 1379.89 Q102.358 1379.89 99.2789 1375.3 Q96.2234 1370.7 96.2234 1361.97 Q96.2234 1353.22 99.2789 1348.64 Q102.358 1344.03 108.168 1344.03 Z" fill="#000000" fill-rule="nonzero" fill-opacity="1" /><path clip-path="url(#clip430)" d="M138.33 1347.73 Q134.719 1347.73 132.89 1351.3 Q131.084 1354.84 131.084 1361.97 Q131.084 1369.08 132.89 1372.64 Q134.719 1376.18 138.33 1376.18 Q141.964 1376.18 143.769 1372.64 Q145.598 1369.08 145.598 1361.97 Q145.598 1354.84 143.769 1351.3 Q141.964 1347.73 138.33 1347.73 M138.33 1344.03 Q144.14 1344.03 147.195 1348.64 Q150.274 1353.22 150.274 1361.97 Q150.274 1370.7 147.195 1375.3 Q144.14 1379.89 138.33 1379.89 Q132.519 1379.89 129.441 1375.3 Q126.385 1370.7 126.385 1361.97 Q126.385 1353.22 129.441 1348.64 Q132.519 1344.03 138.33 1344.03 Z" fill="#000000" fill-rule="nonzero" fill-opacity="1" /><path clip-path="url(#clip430)" d="M168.491 1347.73 Q164.88 1347.73 163.052 1351.3 Q161.246 1354.84 161.246 1361.97 Q161.246 1369.08 163.052 1372.64 Q164.88 1376.18 168.491 1376.18 Q172.126 1376.18 173.931 1372.64 Q175.76 1369.08 175.76 1361.97 Q175.76 1354.84 173.931 1351.3 Q172.126 1347.73 168.491 1347.73 M168.491 1344.03 Q174.302 1344.03 177.357 1348.64 Q180.436 1353.22 180.436 1361.97 Q180.436 1370.7 177.357 1375.3 Q174.302 1379.89 168.491 1379.89 Q162.681 1379.89 159.603 1375.3 Q156.547 1370.7 156.547 1361.97 Q156.547 1353.22 159.603 1348.64 Q162.681 1344.03 168.491 1344.03 Z" fill="#000000" fill-rule="nonzero" fill-opacity="1" /><path clip-path="url(#clip430)" d="M198.653 1347.73 Q195.042 1347.73 193.214 1351.3 Q191.408 1354.84 191.408 1361.97 Q191.408 1369.08 193.214 1372.64 Q195.042 1376.18 198.653 1376.18 Q202.288 1376.18 204.093 1372.64 Q205.922 1369.08 205.922 1361.97 Q205.922 1354.84 204.093 1351.3 Q202.288 1347.73 198.653 1347.73 M198.653 1344.03 Q204.464 1344.03 207.519 1348.64 Q210.598 1353.22 210.598 1361.97 Q210.598 1370.7 207.519 1375.3 Q204.464 1379.89 198.653 1379.89 Q192.843 1379.89 189.765 1375.3 Q186.709 1370.7 186.709 1361.97 Q186.709 1353.22 189.765 1348.64 Q192.843 1344.03 198.653 1344.03 Z" fill="#000000" fill-rule="nonzero" fill-opacity="1" /><path clip-path="url(#clip430)" d="M64.1634 1016.21 Q60.5523 1016.21 58.7236 1019.77 Q56.918 1023.31 56.918 1030.44 Q56.918 1037.55 58.7236 1041.11 Q60.5523 1044.66 64.1634 1044.66 Q67.7976 1044.66 69.6031 1041.11 Q71.4318 1037.55 71.4318 1030.44 Q71.4318 1023.31 69.6031 1019.77 Q67.7976 1016.21 64.1634 1016.21 M64.1634 1012.5 Q69.9735 1012.5 73.029 1017.11 Q76.1077 1021.69 76.1077 1030.44 Q76.1077 1039.17 73.029 1043.78 Q69.9735 1048.36 64.1634 1048.36 Q58.3532 1048.36 55.2745 1043.78 Q52.219 1039.17 52.219 1030.44 Q52.219 1021.69 55.2745 1017.11 Q58.3532 1012.5 64.1634 1012.5 Z" fill="#000000" fill-rule="nonzero" fill-opacity="1" /><path clip-path="url(#clip430)" d="M84.3253 1041.81 L89.2095 1041.81 L89.2095 1047.69 L84.3253 1047.69 L84.3253 1041.81 Z" fill="#000000" fill-rule="nonzero" fill-opacity="1" /><path clip-path="url(#clip430)" d="M109.395 1016.21 Q105.783 1016.21 103.955 1019.77 Q102.149 1023.31 102.149 1030.44 Q102.149 1037.55 103.955 1041.11 Q105.783 1044.66 109.395 1044.66 Q113.029 1044.66 114.834 1041.11 Q116.663 1037.55 116.663 1030.44 Q116.663 1023.31 114.834 1019.77 Q113.029 1016.21 109.395 1016.21 M109.395 1012.5 Q115.205 1012.5 118.26 1017.11 Q121.339 1021.69 121.339 1030.44 Q121.339 1039.17 118.26 1043.78 Q115.205 1048.36 109.395 1048.36 Q103.584 1048.36 100.506 1043.78 Q97.4502 1039.17 97.4502 1030.44 Q97.4502 1021.69 100.506 1017.11 Q103.584 1012.5 109.395 1012.5 Z" fill="#000000" fill-rule="nonzero" fill-opacity="1" /><path clip-path="url(#clip430)" d="M139.556 1016.21 Q135.945 1016.21 134.117 1019.77 Q132.311 1023.31 132.311 1030.44 Q132.311 1037.55 134.117 1041.11 Q135.945 1044.66 139.556 1044.66 Q143.191 1044.66 144.996 1041.11 Q146.825 1037.55 146.825 1030.44 Q146.825 1023.31 144.996 1019.77 Q143.191 1016.21 139.556 1016.21 M139.556 1012.5 Q145.367 1012.5 148.422 1017.11 Q151.501 1021.69 151.501 1030.44 Q151.501 1039.17 148.422 1043.78 Q145.367 1048.36 139.556 1048.36 Q133.746 1048.36 130.668 1043.78 Q127.612 1039.17 127.612 1030.44 Q127.612 1021.69 130.668 1017.11 Q133.746 1012.5 139.556 1012.5 Z" fill="#000000" fill-rule="nonzero" fill-opacity="1" /><path clip-path="url(#clip430)" d="M169.718 1016.21 Q166.107 1016.21 164.279 1019.77 Q162.473 1023.31 162.473 1030.44 Q162.473 1037.55 164.279 1041.11 Q166.107 1044.66 169.718 1044.66 Q173.353 1044.66 175.158 1041.11 Q176.987 1037.55 176.987 1030.44 Q176.987 1023.31 175.158 1019.77 Q173.353 1016.21 169.718 1016.21 M169.718 1012.5 Q175.528 1012.5 178.584 1017.11 Q181.663 1021.69 181.663 1030.44 Q181.663 1039.17 178.584 1043.78 Q175.528 1048.36 169.718 1048.36 Q163.908 1048.36 160.83 1043.78 Q157.774 1039.17 157.774 1030.44 Q157.774 1021.69 160.83 1017.11 Q163.908 1012.5 169.718 1012.5 Z" fill="#000000" fill-rule="nonzero" fill-opacity="1" /><path clip-path="url(#clip430)" d="M190.69 1043.75 L198.329 1043.75 L198.329 1017.39 L190.019 1019.05 L190.019 1014.8 L198.283 1013.13 L202.959 1013.13 L202.959 1043.75 L210.598 1043.75 L210.598 1047.69 L190.69 1047.69 L190.69 1043.75 Z" fill="#000000" fill-rule="nonzero" fill-opacity="1" /><path clip-path="url(#clip430)" d="M64.5337 684.682 Q60.9226 684.682 59.0939 688.247 Q57.2884 691.788 57.2884 698.918 Q57.2884 706.024 59.0939 709.589 Q60.9226 713.131 64.5337 713.131 Q68.168 713.131 69.9735 709.589 Q71.8022 706.024 71.8022 698.918 Q71.8022 691.788 69.9735 688.247 Q68.168 684.682 64.5337 684.682 M64.5337 680.978 Q70.3439 680.978 73.3994 685.585 Q76.4781 690.168 76.4781 698.918 Q76.4781 707.645 73.3994 712.251 Q70.3439 716.835 64.5337 716.835 Q58.7236 716.835 55.6449 712.251 Q52.5893 707.645 52.5893 698.918 Q52.5893 690.168 55.6449 685.585 Q58.7236 680.978 64.5337 680.978 Z" fill="#000000" fill-rule="nonzero" fill-opacity="1" /><path clip-path="url(#clip430)" d="M84.6956 710.284 L89.5799 710.284 L89.5799 716.163 L84.6956 716.163 L84.6956 710.284 Z" fill="#000000" fill-rule="nonzero" fill-opacity="1" /><path clip-path="url(#clip430)" d="M109.765 684.682 Q106.154 684.682 104.325 688.247 Q102.52 691.788 102.52 698.918 Q102.52 706.024 104.325 709.589 Q106.154 713.131 109.765 713.131 Q113.399 713.131 115.205 709.589 Q117.033 706.024 117.033 698.918 Q117.033 691.788 115.205 688.247 Q113.399 684.682 109.765 684.682 M109.765 680.978 Q115.575 680.978 118.631 685.585 Q121.709 690.168 121.709 698.918 Q121.709 707.645 118.631 712.251 Q115.575 716.835 109.765 716.835 Q103.955 716.835 100.876 712.251 Q97.8206 707.645 97.8206 698.918 Q97.8206 690.168 100.876 685.585 Q103.955 680.978 109.765 680.978 Z" fill="#000000" fill-rule="nonzero" fill-opacity="1" /><path clip-path="url(#clip430)" d="M139.927 684.682 Q136.316 684.682 134.487 688.247 Q132.682 691.788 132.682 698.918 Q132.682 706.024 134.487 709.589 Q136.316 713.131 139.927 713.131 Q143.561 713.131 145.367 709.589 Q147.195 706.024 147.195 698.918 Q147.195 691.788 145.367 688.247 Q143.561 684.682 139.927 684.682 M139.927 680.978 Q145.737 680.978 148.793 685.585 Q151.871 690.168 151.871 698.918 Q151.871 707.645 148.793 712.251 Q145.737 716.835 139.927 716.835 Q134.117 716.835 131.038 712.251 Q127.982 707.645 127.982 698.918 Q127.982 690.168 131.038 685.585 Q134.117 680.978 139.927 680.978 Z" fill="#000000" fill-rule="nonzero" fill-opacity="1" /><path clip-path="url(#clip430)" d="M170.089 684.682 Q166.478 684.682 164.649 688.247 Q162.843 691.788 162.843 698.918 Q162.843 706.024 164.649 709.589 Q166.478 713.131 170.089 713.131 Q173.723 713.131 175.528 709.589 Q177.357 706.024 177.357 698.918 Q177.357 691.788 175.528 688.247 Q173.723 684.682 170.089 684.682 M170.089 680.978 Q175.899 680.978 178.954 685.585 Q182.033 690.168 182.033 698.918 Q182.033 707.645 178.954 712.251 Q175.899 716.835 170.089 716.835 Q164.279 716.835 161.2 712.251 Q158.144 707.645 158.144 698.918 Q158.144 690.168 161.2 685.585 Q164.279 680.978 170.089 680.978 Z" fill="#000000" fill-rule="nonzero" fill-opacity="1" /><path clip-path="url(#clip430)" d="M194.278 712.228 L210.598 712.228 L210.598 716.163 L188.653 716.163 L188.653 712.228 Q191.315 709.473 195.899 704.844 Q200.505 700.191 201.686 698.848 Q203.931 696.325 204.811 694.589 Q205.714 692.83 205.714 691.14 Q205.714 688.386 203.769 686.649 Q201.848 684.913 198.746 684.913 Q196.547 684.913 194.093 685.677 Q191.663 686.441 188.885 687.992 L188.885 683.27 Q191.709 682.136 194.163 681.557 Q196.616 680.978 198.653 680.978 Q204.024 680.978 207.218 683.663 Q210.413 686.349 210.413 690.839 Q210.413 692.969 209.602 694.89 Q208.815 696.788 206.709 699.381 Q206.13 700.052 203.028 703.27 Q199.927 706.464 194.278 712.228 Z" fill="#000000" fill-rule="nonzero" fill-opacity="1" /><path clip-path="url(#clip430)" d="M63.5847 353.156 Q59.9736 353.156 58.1449 356.721 Q56.3393 360.263 56.3393 367.392 Q56.3393 374.499 58.1449 378.063 Q59.9736 381.605 63.5847 381.605 Q67.2189 381.605 69.0244 378.063 Q70.8531 374.499 70.8531 367.392 Q70.8531 360.263 69.0244 356.721 Q67.2189 353.156 63.5847 353.156 M63.5847 349.452 Q69.3948 349.452 72.4503 354.059 Q75.529 358.642 75.529 367.392 Q75.529 376.119 72.4503 380.725 Q69.3948 385.309 63.5847 385.309 Q57.7745 385.309 54.6958 380.725 Q51.6403 376.119 51.6403 367.392 Q51.6403 358.642 54.6958 354.059 Q57.7745 349.452 63.5847 349.452 Z" fill="#000000" fill-rule="nonzero" fill-opacity="1" /><path clip-path="url(#clip430)" d="M83.7466 378.758 L88.6308 378.758 L88.6308 384.637 L83.7466 384.637 L83.7466 378.758 Z" fill="#000000" fill-rule="nonzero" fill-opacity="1" /><path clip-path="url(#clip430)" d="M108.816 353.156 Q105.205 353.156 103.376 356.721 Q101.571 360.263 101.571 367.392 Q101.571 374.499 103.376 378.063 Q105.205 381.605 108.816 381.605 Q112.45 381.605 114.256 378.063 Q116.084 374.499 116.084 367.392 Q116.084 360.263 114.256 356.721 Q112.45 353.156 108.816 353.156 M108.816 349.452 Q114.626 349.452 117.682 354.059 Q120.76 358.642 120.76 367.392 Q120.76 376.119 117.682 380.725 Q114.626 385.309 108.816 385.309 Q103.006 385.309 99.927 380.725 Q96.8715 376.119 96.8715 367.392 Q96.8715 358.642 99.927 354.059 Q103.006 349.452 108.816 349.452 Z" fill="#000000" fill-rule="nonzero" fill-opacity="1" /><path clip-path="url(#clip430)" d="M138.978 353.156 Q135.367 353.156 133.538 356.721 Q131.732 360.263 131.732 367.392 Q131.732 374.499 133.538 378.063 Q135.367 381.605 138.978 381.605 Q142.612 381.605 144.418 378.063 Q146.246 374.499 146.246 367.392 Q146.246 360.263 144.418 356.721 Q142.612 353.156 138.978 353.156 M138.978 349.452 Q144.788 349.452 147.843 354.059 Q150.922 358.642 150.922 367.392 Q150.922 376.119 147.843 380.725 Q144.788 385.309 138.978 385.309 Q133.168 385.309 130.089 380.725 Q127.033 376.119 127.033 367.392 Q127.033 358.642 130.089 354.059 Q133.168 349.452 138.978 349.452 Z" fill="#000000" fill-rule="nonzero" fill-opacity="1" /><path clip-path="url(#clip430)" d="M169.14 353.156 Q165.529 353.156 163.7 356.721 Q161.894 360.263 161.894 367.392 Q161.894 374.499 163.7 378.063 Q165.529 381.605 169.14 381.605 Q172.774 381.605 174.579 378.063 Q176.408 374.499 176.408 367.392 Q176.408 360.263 174.579 356.721 Q172.774 353.156 169.14 353.156 M169.14 349.452 Q174.95 349.452 178.005 354.059 Q181.084 358.642 181.084 367.392 Q181.084 376.119 178.005 380.725 Q174.95 385.309 169.14 385.309 Q163.329 385.309 160.251 380.725 Q157.195 376.119 157.195 367.392 Q157.195 358.642 160.251 354.059 Q163.329 349.452 169.14 349.452 Z" fill="#000000" fill-rule="nonzero" fill-opacity="1" /><path clip-path="url(#clip430)" d="M203.468 366.003 Q206.825 366.721 208.7 368.989 Q210.598 371.258 210.598 374.591 Q210.598 379.707 207.079 382.508 Q203.561 385.309 197.079 385.309 Q194.903 385.309 192.589 384.869 Q190.297 384.452 187.843 383.596 L187.843 379.082 Q189.788 380.216 192.102 380.795 Q194.417 381.374 196.94 381.374 Q201.339 381.374 203.63 379.637 Q205.945 377.901 205.945 374.591 Q205.945 371.536 203.792 369.823 Q201.663 368.087 197.843 368.087 L193.815 368.087 L193.815 364.244 L198.028 364.244 Q201.477 364.244 203.306 362.878 Q205.135 361.489 205.135 358.897 Q205.135 356.235 203.237 354.823 Q201.362 353.388 197.843 353.388 Q195.922 353.388 193.723 353.804 Q191.524 354.221 188.885 355.101 L188.885 350.934 Q191.547 350.193 193.862 349.823 Q196.2 349.452 198.26 349.452 Q203.584 349.452 206.686 351.883 Q209.788 354.29 209.788 358.411 Q209.788 361.281 208.144 363.272 Q206.501 365.239 203.468 366.003 Z" fill="#000000" fill-rule="nonzero" fill-opacity="1" /><polyline clip-path="url(#clip431)" style="stroke:#009af9; stroke-linecap:round; stroke-linejoin:round; stroke-width:4; stroke-opacity:1; fill:none" points="246.598,1361.93 248.706,1361.93 250.814,1361.93 252.923,1361.93 255.031,1361.93 257.139,1361.93 259.247,1361.93 261.356,1361.92 263.464,1361.92 265.572,1361.91 267.68,1361.9 269.789,1361.89 271.897,1361.88 274.005,1361.86 276.113,1361.84 278.222,1361.82 280.33,1361.8 282.438,1361.77 284.547,1361.74 286.655,1361.71 288.763,1361.67 290.871,1361.64 292.98,1361.59 295.088,1361.55 297.196,1361.5 299.304,1361.45 301.413,1361.4 303.521,1361.34 305.629,1361.28 307.737,1361.21 309.846,1361.15 311.954,1361.08 314.062,1361 316.171,1360.93 318.279,1360.85 320.387,1360.77 322.495,1360.69 324.604,1360.6 326.712,1360.51 328.82,1360.42 330.928,1360.33 333.037,1360.23 335.145,1360.14 337.253,1360.04 339.361,1359.94 341.47,1359.84 343.578,1359.74 345.686,1359.64 347.795,1359.53 349.903,1359.43 352.011,1359.33 354.119,1359.22 356.228,1359.12 358.336,1359.01 360.444,1358.91 362.552,1358.81 364.661,1358.71 366.769,1358.61 368.877,1358.51 370.985,1358.42 373.094,1358.32 375.202,1358.23 377.31,1358.14 379.419,1358.05 381.527,1357.97 383.635,1357.88 385.743,1357.8 387.852,1357.73 389.96,1357.65 392.068,1357.58 394.176,1357.51 396.285,1357.44 398.393,1357.38 400.501,1357.32 402.609,1357.27 404.718,1357.21 406.826,1357.16 408.934,1357.12 411.043,1357.08 413.151,1357.04 415.259,1357 417.367,1356.97 419.476,1356.94 421.584,1356.91 423.692,1356.89 425.8,1356.87 427.909,1356.85 430.017,1356.84 432.125,1356.82 434.233,1356.81 436.342,1356.8 438.45,1356.8 440.558,1356.79 442.667,1356.79 444.775,1356.79 446.883,1356.79 448.991,1356.79 451.1,1356.79 453.208,1356.79 455.316,1356.79 457.424,1356.79 459.533,1356.79 461.641,1356.8 463.749,1356.8 465.857,1356.8 467.966,1356.8 470.074,1356.8 472.182,1356.8 474.291,1356.79 476.399,1356.79 478.507,1356.78 480.615,1356.77 482.724,1356.76 484.832,1356.75 486.94,1356.73 489.048,1356.71 491.157,1356.69 493.265,1356.67 495.373,1356.64 497.481,1356.61 499.59,1356.58 501.698,1356.54 503.806,1356.5 505.915,1356.46 508.023,1356.41 510.131,1356.36 512.239,1356.31 514.348,1356.26 516.456,1356.2 518.564,1356.13 520.672,1356.07 522.781,1356 524.889,1355.93 526.997,1355.85 529.105,1355.77 531.214,1355.69 533.322,1355.61 535.43,1355.52 537.539,1355.43 539.647,1355.34 541.755,1355.25 543.863,1355.15 545.972,1355.06 548.08,1354.96 550.188,1354.86 552.296,1354.76 554.405,1354.66 556.513,1354.55 558.621,1354.45 560.729,1354.35 562.838,1354.24 564.946,1354.14 567.054,1354.04 569.163,1353.93 571.271,1353.83 573.379,1353.73 575.487,1353.63 577.596,1353.53 579.704,1353.43 581.812,1353.34 583.92,1353.24 586.029,1353.15 588.137,1353.06 590.245,1352.97 592.353,1352.89 594.462,1352.8 596.57,1352.72 598.678,1352.65 600.787,1352.57 602.895,1352.5 605.003,1352.43 607.111,1352.37 609.22,1352.3 611.328,1352.24 613.436,1352.19 615.544,1352.14 617.653,1352.09 619.761,1352.04 621.869,1352 623.977,1351.96 626.086,1351.92 628.194,1351.89 630.302,1351.86 632.411,1351.83 634.519,1351.8 636.627,1351.78 638.735,1351.76 640.844,1351.74 642.952,1351.73 645.06,1351.72 647.168,1351.71 649.277,1351.7 651.385,1351.69 653.493,1351.69 655.601,1351.68 657.71,1351.68 659.818,1351.68 661.926,1351.68 664.035,1351.68 666.143,1351.68 668.251,1351.68 670.359,1351.68 672.468,1351.68 674.576,1351.68 676.684,1351.68 678.792,1351.67 680.901,1351.67 683.009,1351.66 685.117,1351.66 687.225,1351.65 689.334,1351.64 691.442,1351.63 693.55,1351.61 695.658,1351.6 697.767,1351.58 699.875,1351.56 701.983,1351.54 704.092,1351.51 706.2,1351.48 708.308,1351.45 710.416,1351.41 712.525,1351.38 714.633,1351.34 716.741,1351.29 718.849,1351.25 720.958,1351.19 723.066,1351.14 725.174,1351.08 727.282,1351.02 729.391,1350.96 731.499,1350.89 733.607,1350.82 735.716,1350.75 737.824,1350.67 739.932,1350.59 742.04,1350.51 744.149,1350.43 746.257,1350.34 748.365,1350.25 750.473,1350.16 752.582,1350.07 754.69,1349.97 756.798,1349.87 758.906,1349.78 761.015,1349.68 763.123,1349.57 765.231,1349.47 767.34,1349.37 769.448,1349.27 771.556,1349.16 773.664,1349.06 775.773,1348.95 777.881,1348.85 779.989,1348.74 782.097,1348.64 784.206,1348.54 786.314,1348.44 788.422,1348.34 790.53,1348.24 792.639,1348.15 794.747,1348.05 796.855,1347.96 798.964,1347.87 801.072,1347.78 803.18,1347.7 805.288,1347.61 807.397,1347.53 809.505,1347.46 811.613,1347.38 813.721,1347.31 815.83,1347.24 817.938,1347.18 820.046,1347.11 822.154,1347.05 824.263,1347 826.371,1346.95 828.479,1346.9 830.588,1346.85 832.696,1346.81 834.804,1346.77 836.912,1346.73 839.021,1346.7 841.129,1346.67 843.237,1346.64 845.345,1346.61 847.454,1346.59 849.562,1346.57 851.67,1346.55 853.778,1346.54 855.887,1346.53 857.995,1346.52 860.103,1346.51 862.212,1346.51 864.32,1346.5 866.428,1346.5 868.536,1346.5 870.645,1346.5 872.753,1346.5 874.861,1346.5 876.969,1346.5 879.078,1346.5 881.186,1346.5 883.294,1346.51 885.402,1346.51 887.511,1346.51 889.619,1346.5 891.727,1346.5 893.836,1346.5 895.944,1346.49 898.052,1346.48 900.16,1346.48 902.269,1346.46 904.377,1346.45 906.485,1346.44 908.593,1346.42 910.702,1346.4 912.81,1346.38 914.918,1346.35 917.026,1346.32 919.135,1346.29 921.243,1346.26 923.351,1346.22 925.46,1346.18 927.568,1346.14 929.676,1346.09 931.784,1346.04 933.893,1345.99 936.001,1345.93 938.109,1345.87 940.217,1345.81 942.326,1345.74 944.434,1345.67 946.542,1345.6 948.65,1345.53 950.759,1345.45 952.867,1345.37 954.975,1345.28 957.084,1345.2 959.192,1345.11 961.3,1345.02 963.408,1344.93 965.517,1344.83 967.625,1344.74 969.733,1344.64 971.841,1344.54 973.95,1344.44 976.058,1344.34 978.166,1344.23 980.274,1344.13 982.383,1344.03 984.491,1343.92 986.599,1343.82 988.708,1343.72 990.816,1343.62 992.924,1343.52 995.032,1343.41 997.141,1343.32 999.249,1343.22 1001.36,1343.12 1003.47,1343.03 1005.57,1342.94 1007.68,1342.85 1009.79,1342.76 1011.9,1342.67 1014.01,1342.59 1016.11,1342.51 1018.22,1342.43 1020.33,1342.35 1022.44,1342.28 1024.55,1342.21 1026.66,1342.14 1028.76,1342.08 1030.87,1342.02 1032.98,1341.96 1035.09,1341.9 1037.2,1341.85 1039.31,1341.8 1041.41,1341.76 1043.52,1341.72 1045.63,1341.68 1047.74,1341.64 1049.85,1341.61 1051.96,1341.58 1054.06,1341.55 1056.17,1341.52 1058.28,1341.5 1060.39,1341.48 1062.5,1341.46 1064.61,1341.45 1066.71,1341.44 1068.82,1341.43 1070.93,1341.42 1073.04,1341.41 1075.15,1341.41 1077.25,1341.4 1079.36,1341.4 1081.47,1341.4 1083.58,1341.4 1085.69,1341.4 1087.8,1341.4 1089.9,1341.4 1092.01,1341.4 1094.12,1341.41 1096.23,1341.41 1098.34,1341.4 1100.45,1341.4 1102.55,1341.4 1104.66,1341.4 1106.77,1341.39 1108.88,1341.38 1110.99,1341.37 1113.1,1341.36 1115.2,1341.35 1117.31,1341.33 1119.42,1341.31 1121.53,1341.29 1123.64,1341.27 1125.74,1341.25 1127.85,1341.22 1129.96,1341.18 1132.07,1341.15 1134.18,1341.11 1136.29,1341.07 1138.39,1341.02 1140.5,1340.98 1142.61,1340.92 1144.72,1340.87 1146.83,1340.81 1148.94,1340.75 1151.04,1340.68 1153.15,1340.61 1155.26,1340.54 1157.37,1340.46 1159.48,1340.38 1161.59,1340.3 1163.69,1340.22 1165.8,1340.13 1167.91,1340.04 1170.02,1339.95 1172.13,1339.86 1174.23,1339.76 1176.34,1339.66 1178.45,1339.56 1180.56,1339.46 1182.67,1339.36 1184.78,1339.26 1186.88,1339.15 1188.99,1339.05 1191.1,1338.94 1193.21,1338.84 1195.32,1338.73 1197.43,1338.62 1199.53,1338.52 1201.64,1338.41 1203.75,1338.31 1205.86,1338.2 1207.97,1338.1 1210.08,1338 1212.18,1337.9 1214.29,1337.8 1216.4,1337.7 1218.51,1337.61 1220.62,1337.52 1222.73,1337.43 1224.83,1337.34 1226.94,1337.26 1229.05,1337.18 1231.16,1337.1 1233.27,1337.02 1235.37,1336.95 1237.48,1336.88 1239.59,1336.81 1241.7,1336.75 1243.81,1336.69 1245.92,1336.63 1248.02,1336.58 1250.13,1336.52 1252.24,1336.48 1254.35,1336.43 1256.46,1336.39 1258.57,1336.35 1260.67,1336.32 1262.78,1336.28 1264.89,1336.25 1267,1336.23 1269.11,1336.2 1271.22,1336.18 1273.32,1336.16 1275.43,1336.14 1277.54,1336.13 1279.65,1336.12 1281.76,1336.11 1283.86,1336.1 1285.97,1336.09 1288.08,1336.08 1290.19,1336.08 1292.3,1336.07 1294.41,1336.07 1296.51,1336.07 1298.62,1336.06 1300.73,1336.06 1302.84,1336.06 1304.95,1336.05 1307.06,1336.05 1309.16,1336.05 1311.27,1336.04 1313.38,1336.03 1315.49,1336.02 1317.6,1336.01 1319.71,1336 1321.81,1335.99 1323.92,1335.97 1326.03,1335.96 1328.14,1335.94 1330.25,1335.91 1332.35,1335.89 1334.46,1335.86 1336.57,1335.83 1338.68,1335.8 1340.79,1335.76 1342.9,1335.72 1345,1335.68 1347.11,1335.63 1349.22,1335.58 1351.33,1335.53 1353.44,1335.48 1355.55,1335.42 1357.65,1335.36 1359.76,1335.29 1361.87,1335.22 1363.98,1335.15 1366.09,1335.07 1368.2,1335 1370.3,1334.91 1372.41,1334.83 1374.52,1334.74 1376.63,1334.65 1378.74,1334.56 1380.85,1334.46 1382.95,1334.36 1385.06,1334.26 1387.17,1334.16 1389.28,1334.06 1391.39,1333.95 1393.49,1333.84 1395.6,1333.74 1397.71,1333.63 1399.82,1333.52 1401.93,1333.41 1404.04,1333.3 1406.14,1333.19 1408.25,1333.08 1410.36,1332.97 1412.47,1332.86 1414.58,1332.75 1416.69,1332.64 1418.79,1332.54 1420.9,1332.43 1423.01,1332.33 1425.12,1332.23 1427.23,1332.12 1429.34,1332.03 1431.44,1331.93 1433.55,1331.83 1435.66,1331.74 1437.77,1331.65 1439.88,1331.57 1441.98,1331.49 1444.09,1331.41 1446.2,1331.33 1448.31,1331.26 1450.42,1331.19 1452.53,1331.12 1454.63,1331.06 1456.74,1331 1458.85,1330.94 1460.96,1330.89 1463.07,1330.84 1465.18,1330.79 1467.28,1330.74 1469.39,1330.7 1471.5,1330.66 1473.61,1330.63 1475.72,1330.6 1477.83,1330.57 1479.93,1330.54 1482.04,1330.51 1484.15,1330.49 1486.26,1330.47 1488.37,1330.45 1490.47,1330.44 1492.58,1330.42 1494.69,1330.41 1496.8,1330.4 1498.91,1330.39 1501.02,1330.38 1503.12,1330.38 1505.23,1330.37 1507.34,1330.37 1509.45,1330.36 1511.56,1330.35 1513.67,1330.35 1515.77,1330.34 1517.88,1330.33 1519.99,1330.33 1522.1,1330.32 1524.21,1330.31 1526.32,1330.3 1528.42,1330.28 1530.53,1330.27 1532.64,1330.25 1534.75,1330.23 1536.86,1330.21 1538.97,1330.19 1541.07,1330.16 1543.18,1330.13 1545.29,1330.1 1547.4,1330.07 1549.51,1330.03 1551.61,1329.99 1553.72,1329.95 1555.83,1329.9 1557.94,1329.85 1560.05,1329.8 1562.16,1329.75 1564.26,1329.69 1566.37,1329.63 1568.48,1329.56 1570.59,1329.49 1572.7,1329.42 1574.81,1329.34 1576.91,1329.26 1579.02,1329.18 1581.13,1329.1 1583.24,1329.01 1585.35,1328.92 1587.46,1328.82 1589.56,1328.73 1591.67,1328.63 1593.78,1328.52 1595.89,1328.42 1598,1328.32 1600.1,1328.21 1602.21,1328.1 1604.32,1327.99 1606.43,1327.88 1608.54,1327.77 1610.65,1327.66 1612.75,1327.54 1614.86,1327.43 1616.97,1327.32 1619.08,1327.2 1621.19,1327.09 1623.3,1326.98 1625.4,1326.87 1627.51,1326.76 1629.62,1326.65 1631.73,1326.54 1633.84,1326.43 1635.95,1326.33 1638.05,1326.22 1640.16,1326.12 1642.27,1326.02 1644.38,1325.92 1646.49,1325.83 1648.59,1325.74 1650.7,1325.65 1652.81,1325.56 1654.92,1325.48 1657.03,1325.4 1659.14,1325.32 1661.24,1325.25 1663.35,1325.18 1665.46,1325.12 1667.57,1325.05 1669.68,1324.99 1671.79,1324.94 1673.89,1324.88 1676,1324.83 1678.11,1324.78 1680.22,1324.74 1682.33,1324.7 1684.44,1324.66 1686.54,1324.62 1688.65,1324.59 1690.76,1324.56 1692.87,1324.53 1694.98,1324.5 1697.09,1324.48 1699.19,1324.45 1701.3,1324.43 1703.41,1324.41 1705.52,1324.4 1707.63,1324.38 1709.73,1324.36 1711.84,1324.35 1713.95,1324.34 1716.06,1324.33 1718.17,1324.32 1720.28,1324.3 1722.38,1324.29 1724.49,1324.28 1726.6,1324.27 1728.71,1324.26 1730.82,1324.25 1732.93,1324.24 1735.03,1324.22 1737.14,1324.21 1739.25,1324.19 1741.36,1324.18 1743.47,1324.16 1745.58,1324.13 1747.68,1324.11 1749.79,1324.08 1751.9,1324.05 1754.01,1324.02 1756.12,1323.98 1758.22,1323.94 1760.33,1323.89 1762.44,1323.85 1764.55,1323.8 1766.66,1323.75 1768.77,1323.69 1770.87,1323.63 1772.98,1323.57 1775.09,1323.5 1777.2,1323.43 1779.31,1323.36 1781.42,1323.28 1783.52,1323.2 1785.63,1323.12 1787.74,1323.04 1789.85,1322.95 1791.96,1322.86 1794.07,1322.76 1796.17,1322.67 1798.28,1322.57 1800.39,1322.47 1802.5,1322.36 1804.61,1322.25 1806.71,1322.15 1808.82,1322.04 1810.93,1321.92 1813.04,1321.81 1815.15,1321.7 1817.26,1321.58 1819.36,1321.46 1821.47,1321.34 1823.58,1321.23 1825.69,1321.11 1827.8,1320.99 1829.91,1320.87 1832.01,1320.75 1834.12,1320.63 1836.23,1320.52 1838.34,1320.4 1840.45,1320.29 1842.56,1320.17 1844.66,1320.06 1846.77,1319.95 1848.88,1319.84 1850.99,1319.74 1853.1,1319.63 1855.21,1319.53 1857.31,1319.43 1859.42,1319.34 1861.53,1319.24 1863.64,1319.15 1865.75,1319.06 1867.85,1318.98 1869.96,1318.9 1872.07,1318.82 1874.18,1318.74 1876.29,1318.67 1878.4,1318.6 1880.5,1318.53 1882.61,1318.47 1884.72,1318.41 1886.83,1318.35 1888.94,1318.3 1891.05,1318.25 1893.15,1318.2 1895.26,1318.15 1897.37,1318.11 1899.48,1318.07 1901.59,1318.03 1903.7,1318 1905.8,1317.97 1907.91,1317.94 1910.02,1317.91 1912.13,1317.88 1914.24,1317.86 1916.34,1317.84 1918.45,1317.82 1920.56,1317.8 1922.67,1317.78 1924.78,1317.76 1926.89,1317.74 1928.99,1317.73 1931.1,1317.71 1933.21,1317.69 1935.32,1317.67 1937.43,1317.66 1939.54,1317.64 1941.64,1317.62 1943.75,1317.59 1945.86,1317.57 1947.97,1317.55 1950.08,1317.52 1952.19,1317.5 1954.29,1317.47 1956.4,1317.43 1958.51,1317.4 1960.62,1317.36 1962.73,1317.33 1964.83,1317.29 1966.94,1317.24 1969.05,1317.2 1971.16,1317.15 1973.27,1317.1 1975.38,1317.04 1977.48,1316.98 1979.59,1316.92 1981.7,1316.86 1983.81,1316.79 1985.92,1316.72 1988.03,1316.65 1990.13,1316.57 1992.24,1316.49 1994.35,1316.41 1996.46,1316.33 1998.57,1316.24 2000.68,1316.15 2002.78,1316.05 2004.89,1315.95 2007,1315.85 2009.11,1315.75 2011.22,1315.64 2013.33,1315.53 2015.43,1315.42 2017.54,1315.3 2019.65,1315.19 2021.76,1315.07 2023.87,1314.95 2025.97,1314.83 2028.08,1314.7 2030.19,1314.58 2032.3,1314.46 2034.41,1314.33 2036.52,1314.21 2038.62,1314.08 2040.73,1313.96 2042.84,1313.84 2044.95,1313.71 2047.06,1313.59 2049.17,1313.47 2051.27,1313.35 2053.38,1313.23 2055.49,1313.11 2057.6,1312.99 2059.71,1312.88 2061.82,1312.76 2063.92,1312.65 2066.03,1312.55 2068.14,1312.44 2070.25,1312.34 2072.36,1312.24 2074.46,1312.14 2076.57,1312.04 2078.68,1311.95 2080.79,1311.86 2082.9,1311.78 2085.01,1311.69 2087.11,1311.62 2089.22,1311.54 2091.33,1311.47 2093.44,1311.4 2095.55,1311.34 2097.66,1311.28 2099.76,1311.22 2101.87,1311.16 2103.98,1311.11 2106.09,1311.06 2108.2,1311.02 2110.31,1310.97 2112.41,1310.93 2114.52,1310.89 2116.63,1310.86 2118.74,1310.82 2120.85,1310.79 2122.95,1310.76 2125.06,1310.73 2127.17,1310.71 2129.28,1310.68 2131.39,1310.66 2133.5,1310.63 2135.6,1310.61 2137.71,1310.59 2139.82,1310.57 2141.93,1310.54 2144.04,1310.52 2146.15,1310.5 2148.25,1310.48 2150.36,1310.46 2152.47,1310.43 2154.58,1310.41 2156.69,1310.39 2158.8,1310.36 2160.9,1310.33 2163.01,1310.3 2165.12,1310.27 2167.23,1310.23 2169.34,1310.19 2171.44,1310.15 2173.55,1310.11 2175.66,1310.06 2177.77,1310.02 2179.88,1309.96 2181.99,1309.91 2184.09,1309.85 2186.2,1309.79 2188.31,1309.72 2190.42,1309.66 2192.53,1309.58 2194.64,1309.51 2196.74,1309.43 2198.85,1309.35 2200.96,1309.27 2203.07,1309.18 2205.18,1309.09 2207.29,1309 2209.39,1308.9 2211.5,1308.8 2213.61,1308.7 2215.72,1308.6 2217.83,1308.49 2219.94,1308.38 2222.04,1308.27 2224.15,1308.16 2226.26,1308.04 2228.37,1307.92 2230.48,1307.8 2232.58,1307.68 2234.69,1307.56 2236.8,1307.43 2238.91,1307.31 2241.02,1307.18 2243.13,1307.05 2245.23,1306.92 2247.34,1306.8 2249.45,1306.67 2251.56,1306.54 2253.67,1306.41 2255.78,1306.28 2257.88,1306.15 2259.99,1306.03 2262.1,1305.9 2264.21,1305.78 2266.32,1305.66 2268.43,1305.54 2270.53,1305.42 2272.64,1305.31 2274.75,1305.19 2276.86,1305.08 2278.97,1304.98 2281.07,1304.87 2283.18,1304.77 2285.29,1304.67 2287.4,1304.58 2289.51,1304.48 2291.62,1304.39 2293.72,1304.3 2295.83,1304.22 2297.94,1304.14 2300.05,1304.06 2302.16,1303.99 2304.27,1303.92 2306.37,1303.85 2308.48,1303.78 2310.59,1303.72 2312.7,1303.66 2314.81,1303.6 2316.92,1303.55 2319.02,1303.5 2321.13,1303.45 2323.24,1303.41 2325.35,1303.36 2327.46,1303.32 2329.56,1303.28 2331.67,1303.25 2333.78,1303.21 2335.89,1303.18 2338,1303.15 2340.11,1303.12 2342.21,1303.09 2344.32,1303.07 2346.43,1303.04 2348.54,1303.01 2350.65,1302.99 2352.76,1302.96 "/>
<polyline clip-path="url(#clip431)" style="stroke:#e26f46; stroke-linecap:round; stroke-linejoin:round; stroke-width:4; stroke-opacity:1; fill:none" points="246.598,1361.93 248.706,1360.9 250.814,1357.61 252.923,1351.95 255.031,1344.02 257.139,1333.92 259.247,1321.77 261.356,1307.66 263.464,1291.7 265.572,1274.01 267.68,1254.67 269.789,1233.8 271.897,1211.51 274.005,1187.88 276.113,1163.04 278.222,1137.08 280.33,1110.11 282.438,1082.22 284.547,1053.53 286.655,1024.14 288.763,994.147 290.871,963.654 292.98,932.765 295.088,901.583 297.196,870.209 299.304,838.746 301.413,807.295 303.521,775.958 305.629,744.836 307.737,714.029 309.846,683.64 311.954,653.769 314.062,624.516 316.171,595.981 318.279,568.266 320.387,541.469 322.495,515.691 324.604,491.033 326.712,467.711 328.82,445.892 330.928,425.671 333.037,407.134 335.145,390.36 337.253,375.417 339.361,362.366 341.47,351.259 343.578,342.14 345.686,335.044 347.795,329.997 349.903,327.016 352.011,326.111 354.119,327.282 356.228,330.521 358.336,335.811 360.444,343.128 362.552,352.436 364.661,363.662 366.769,376.691 368.877,391.496 370.985,408.047 373.094,426.309 375.202,446.235 377.31,467.772 379.419,490.861 381.527,515.432 383.635,541.408 385.743,568.707 387.852,597.235 389.96,626.892 392.068,657.571 394.176,689.156 396.285,721.523 398.393,754.541 400.501,788.071 402.609,821.966 404.718,856.07 406.826,890.222 408.934,924.249 411.043,957.975 413.151,991.212 415.259,1023.77 417.367,1055.44 419.476,1086.01 421.584,1115.31 423.692,1143.49 425.8,1170.52 427.909,1196.31 430.017,1220.75 432.125,1243.77 434.233,1265.28 436.342,1285.21 438.45,1303.49 440.558,1320.04 442.667,1334.81 444.775,1347.74 446.883,1358.79 448.991,1367.9 451.1,1375.03 453.208,1380.15 455.316,1383.23 457.424,1384.24 459.533,1383.16 461.641,1379.97 463.749,1374.67 465.857,1367.25 467.966,1357.83 470.074,1346.58 472.182,1333.52 474.291,1318.68 476.399,1302.06 478.507,1283.71 480.615,1263.68 482.724,1242 484.832,1218.75 486.94,1193.99 489.048,1167.81 491.157,1140.28 493.265,1111.51 495.373,1081.6 497.481,1050.66 499.59,1018.82 501.698,986.202 503.806,952.956 505.915,919.228 508.023,885.176 510.131,850.966 512.239,816.775 514.348,782.786 516.456,749.193 518.564,716.199 520.672,684.014 522.781,652.853 524.889,622.604 526.997,593.23 529.105,564.862 531.214,537.623 533.322,511.63 535.43,486.991 537.539,463.806 539.647,442.169 541.755,422.164 543.863,403.867 545.972,387.35 548.08,372.672 550.188,359.888 552.296,349.045 554.405,340.179 556.513,333.322 558.621,328.496 560.729,325.717 562.838,324.99 564.946,326.317 567.054,329.688 569.163,335.087 571.271,342.503 573.379,352.069 575.487,363.753 577.596,377.454 579.704,393.074 581.812,410.511 583.92,429.664 586.029,450.432 588.137,472.71 590.245,496.397 592.353,521.386 594.462,547.574 596.57,574.853 598.678,603.119 600.787,632.262 602.895,662.176 605.003,692.751 607.111,723.878 609.22,755.446 611.328,787.344 613.436,819.461 615.544,851.683 617.653,883.898 619.761,915.992 621.869,947.848 623.977,979.353 626.086,1010.39 628.194,1040.84 630.302,1070.59 632.411,1099.51 634.519,1127.5 636.627,1154.42 638.735,1180.16 640.844,1204.6 642.952,1227.61 645.06,1249.07 647.168,1268.86 649.277,1286.8 651.385,1302.81 653.493,1316.88 655.601,1328.97 657.71,1339.08 659.818,1347.2 661.926,1353.33 664.035,1357.45 666.143,1359.59 668.251,1359.74 670.359,1357.93 672.468,1354.16 674.576,1348.47 676.684,1340.88 678.792,1331.42 680.901,1320.13 683.009,1307.05 685.117,1292.23 687.225,1275.71 689.334,1257.56 691.442,1237.84 693.55,1216.6 695.658,1193.91 697.767,1169.86 699.875,1144.52 701.983,1117.97 704.092,1090.3 706.2,1061.6 708.308,1031.97 710.416,1001.51 712.525,970.324 714.633,938.528 716.741,906.235 718.849,873.564 720.958,840.641 723.066,807.594 725.174,774.578 727.282,741.764 729.391,709.316 731.499,677.389 733.607,646.133 735.716,615.689 737.824,586.189 739.932,557.76 742.04,530.52 744.149,504.58 746.257,480.042 748.365,457.001 750.473,435.546 752.582,415.757 754.69,397.705 756.798,381.457 758.906,367.069 761.015,354.59 763.123,344.064 765.231,335.525 767.34,328.999 769.448,324.505 771.556,322.056 773.664,321.655 775.773,323.298 777.881,326.976 779.989,332.667 782.097,340.348 784.206,349.982 786.314,361.549 788.422,375.036 790.53,390.372 792.639,407.48 794.747,426.282 796.855,446.696 798.964,468.638 801.072,492.022 803.18,516.758 805.288,542.755 807.397,569.919 809.505,598.152 811.613,627.356 813.721,657.429 815.83,688.265 817.938,719.758 820.046,751.798 822.154,784.273 824.263,817.068 826.371,850.065 828.479,883.146 830.588,916.186 832.696,949.062 834.804,981.645 836.912,1013.8 839.021,1045.41 841.129,1076.32 843.237,1106.41 845.345,1135.52 847.454,1163.53 849.562,1190.27 851.67,1215.61 853.778,1239.39 855.887,1261.46 857.995,1281.66 860.103,1299.84 862.212,1315.9 864.32,1329.88 866.428,1341.79 868.536,1351.65 870.645,1359.46 872.753,1365.25 874.861,1369.03 876.969,1370.82 879.078,1370.64 881.186,1368.52 883.294,1364.48 885.402,1358.57 887.511,1350.8 889.619,1341.21 891.727,1329.85 893.836,1316.74 895.944,1301.94 898.052,1285.49 900.16,1267.43 902.269,1247.81 904.377,1226.69 906.485,1204.12 908.593,1180.15 910.702,1154.86 912.81,1128.29 914.918,1100.51 917.026,1071.59 919.135,1041.6 921.243,1010.6 923.351,978.693 925.46,946.148 927.568,913.198 929.676,880.003 931.784,846.717 933.893,813.488 936.001,780.46 938.109,747.772 940.217,715.558 942.326,683.945 944.434,653.057 946.542,623.012 948.65,593.923 950.759,565.898 952.867,539.04 954.975,513.446 957.084,489.209 959.192,466.417 961.3,445.151 963.408,425.489 965.517,407.502 967.625,391.259 969.733,376.821 971.841,364.243 973.95,353.579 976.058,344.874 978.166,338.17 980.274,333.502 982.383,330.903 984.491,330.415 986.599,332.226 988.708,336.319 990.816,342.614 992.924,351.029 995.032,361.48 997.141,373.882 999.249,388.151 1001.36,404.199 1003.47,421.938 1005.57,441.28 1007.68,462.135 1009.79,484.41 1011.9,508.014 1014.01,532.852 1016.11,558.831 1018.22,585.854 1020.33,613.823 1022.44,642.642 1024.55,672.21 1026.66,702.427 1028.76,733.191 1030.87,764.4 1032.98,795.948 1035.09,827.733 1037.2,859.646 1039.31,891.58 1041.41,923.428 1043.52,955.078 1045.63,986.422 1047.74,1017.34 1049.85,1047.74 1051.96,1077.48 1054.06,1106.46 1056.17,1134.56 1058.28,1161.66 1060.39,1187.65 1062.5,1212.4 1064.61,1235.8 1066.71,1257.71 1068.82,1278.02 1070.93,1296.61 1073.04,1313.34 1075.15,1328.09 1077.25,1340.72 1079.36,1351.13 1081.47,1359.42 1083.58,1365.84 1085.69,1370.34 1087.8,1372.85 1089.9,1373.35 1092.01,1371.8 1094.12,1368.19 1096.23,1362.51 1098.34,1354.76 1100.45,1344.94 1102.55,1333.09 1104.66,1319.22 1106.77,1303.38 1108.88,1285.62 1110.99,1266 1113.1,1244.58 1115.2,1221.44 1117.31,1196.67 1119.42,1170.38 1121.53,1142.65 1123.64,1113.62 1125.74,1083.4 1127.85,1052.15 1129.96,1019.99 1132.07,987.082 1134.18,953.599 1136.29,919.712 1138.39,885.606 1140.5,851.474 1142.61,817.52 1144.72,783.959 1146.83,750.942 1148.94,718.248 1151.04,685.962 1153.15,654.23 1155.26,623.191 1157.37,592.978 1159.48,563.716 1161.59,535.526 1163.69,508.519 1165.8,482.8 1167.91,458.469 1170.02,435.617 1172.13,414.328 1174.23,394.682 1176.34,376.75 1178.45,360.596 1180.56,346.278 1182.67,333.847 1184.78,323.348 1186.88,314.818 1188.99,308.287 1191.1,303.78 1193.21,301.312 1195.32,300.896 1197.43,302.533 1199.53,306.221 1201.64,311.949 1203.75,319.701 1205.86,329.452 1207.97,341.172 1210.08,354.824 1212.18,370.419 1214.29,388.048 1216.4,407.585 1218.51,428.888 1220.62,451.817 1222.73,476.235 1224.83,502.004 1226.94,528.991 1229.05,557.063 1231.16,586.09 1233.27,615.942 1235.37,646.492 1237.48,677.617 1239.59,709.191 1241.7,741.095 1243.81,773.208 1245.92,805.414 1248.02,837.595 1250.13,869.638 1252.24,901.432 1254.35,932.865 1256.46,963.83 1258.57,994.219 1260.67,1023.93 1262.78,1052.86 1264.89,1080.9 1267,1107.96 1269.11,1133.94 1271.22,1158.75 1273.32,1182.29 1275.43,1204.46 1277.54,1225.19 1279.65,1244.38 1281.76,1261.95 1283.86,1277.8 1285.97,1291.87 1288.08,1304.06 1290.19,1314.3 1292.3,1322.52 1294.41,1328.64 1296.51,1332.58 1298.62,1334.41 1300.73,1334.23 1302.84,1332.03 1304.95,1327.82 1307.06,1321.62 1309.16,1313.45 1311.27,1303.33 1313.38,1291.3 1315.49,1277.39 1317.6,1261.66 1319.71,1244.13 1321.81,1224.89 1323.92,1203.98 1326.03,1181.47 1328.14,1157.43 1330.25,1131.95 1332.35,1105.12 1334.46,1077.01 1336.57,1047.73 1338.68,1017.38 1340.79,986.07 1342.9,953.914 1345,921.033 1347.11,887.551 1349.22,853.603 1351.33,819.325 1353.44,784.862 1355.55,750.363 1357.65,715.985 1359.76,681.888 1361.87,648.241 1363.98,615.217 1366.09,582.994 1368.2,551.759 1370.3,521.702 1372.41,493.02 1374.52,465.904 1376.63,440.081 1378.74,415.473 1380.85,392.224 1382.95,370.463 1385.06,350.311 1387.17,331.877 1389.28,315.259 1391.39,300.544 1393.49,287.808 1395.6,277.116 1397.71,268.523 1399.82,262.072 1401.93,257.795 1404.04,255.714 1406.14,255.839 1408.25,258.17 1410.36,262.695 1412.47,269.392 1414.58,278.228 1416.69,289.158 1418.79,302.127 1420.9,317.069 1423.01,333.907 1425.12,352.552 1427.23,372.906 1429.34,394.859 1431.44,418.289 1433.55,443.065 1435.66,469.045 1437.77,496.073 1439.88,523.985 1441.98,552.688 1444.09,582.352 1446.2,612.864 1448.31,644.076 1450.42,675.845 1452.53,708.029 1454.63,740.49 1456.74,773.095 1458.85,805.711 1460.96,838.209 1463.07,870.465 1465.18,902.357 1467.28,933.764 1469.39,964.573 1471.5,994.668 1473.61,1023.94 1475.72,1052.29 1477.83,1079.6 1479.93,1105.78 1482.04,1130.74 1484.15,1154.37 1486.26,1176.58 1488.37,1197.3 1490.47,1216.43 1492.58,1233.89 1494.69,1249.61 1496.8,1263.5 1498.91,1275.51 1501.02,1285.55 1503.12,1293.56 1505.23,1299.49 1507.34,1303.27 1509.45,1304.85 1511.56,1304.34 1513.67,1301.8 1515.77,1297.24 1517.88,1290.68 1519.99,1282.13 1522.1,1271.65 1524.21,1259.25 1526.32,1244.99 1528.42,1228.9 1530.53,1211.05 1532.64,1191.49 1534.75,1170.29 1536.86,1147.51 1538.97,1123.24 1541.07,1097.55 1543.18,1070.52 1545.29,1042.26 1547.4,1012.86 1549.51,982.421 1551.61,951.052 1553.72,918.87 1555.83,885.992 1557.94,852.547 1560.05,818.663 1562.16,784.479 1564.26,750.137 1566.37,715.784 1568.48,681.574 1570.59,647.665 1572.7,614.224 1574.81,581.419 1576.91,549.426 1579.02,518.428 1581.13,488.61 1583.24,460.165 1585.35,433.237 1587.46,407.644 1589.56,383.435 1591.67,360.706 1593.78,339.55 1595.89,320.049 1598,302.277 1600.1,286.304 1602.21,272.189 1604.32,259.984 1606.43,249.734 1608.54,241.476 1610.65,235.239 1612.75,231.046 1614.86,228.91 1616.97,228.839 1619.08,230.83 1621.19,234.876 1623.3,240.959 1625.4,249.055 1627.51,259.134 1629.62,271.155 1631.73,285.072 1633.84,300.83 1635.95,318.366 1638.05,337.611 1640.16,358.487 1642.27,380.908 1644.38,404.783 1646.49,430.011 1648.59,456.482 1650.7,484.208 1652.81,513.382 1654.92,543.814 1657.03,575.297 1659.14,607.631 1661.24,640.62 1663.35,674.079 1665.46,707.827 1667.57,741.69 1669.68,775.501 1671.79,809.1 1673.89,842.334 1676,875.056 1678.11,907.127 1680.22,938.413 1682.33,968.788 1684.44,998.133 1686.54,1026.34 1688.65,1053.29 1690.76,1078.89 1692.87,1103.06 1694.98,1125.7 1697.09,1146.73 1699.19,1166.09 1701.3,1183.7 1703.41,1199.51 1705.52,1213.47 1707.63,1225.53 1709.73,1235.66 1711.84,1243.82 1713.95,1249.99 1716.06,1254.14 1718.17,1256.28 1720.28,1256.39 1722.38,1254.48 1724.49,1250.55 1726.6,1244.62 1728.71,1236.72 1730.82,1226.87 1732.93,1215.12 1735.03,1201.49 1737.14,1186.05 1739.25,1168.85 1741.36,1149.95 1743.47,1129.42 1745.58,1107.35 1747.68,1083.81 1749.79,1058.89 1751.9,1032.69 1754.01,1005.29 1756.12,976.627 1758.22,946.816 1760.33,916.02 1762.44,884.397 1764.55,852.101 1766.66,819.283 1768.77,786.09 1770.87,752.663 1772.98,719.142 1775.09,685.662 1777.2,652.352 1779.31,619.341 1781.42,586.751 1783.52,554.701 1785.63,523.306 1787.74,492.678 1789.85,462.924 1791.96,434.147 1794.07,406.447 1796.17,379.919 1798.28,354.655 1800.39,330.743 1802.5,308.266 1804.61,287.304 1806.71,267.934 1808.82,250.227 1810.93,234.251 1813.04,220.071 1815.15,207.747 1817.26,197.336 1819.36,188.889 1821.47,182.455 1823.58,178.079 1825.69,175.801 1827.8,175.659 1829.91,177.685 1832.01,181.918 1834.12,188.445 1836.23,197.199 1838.34,208.079 1840.45,220.983 1842.56,235.81 1844.66,252.459 1846.77,270.826 1848.88,290.808 1850.99,312.303 1853.1,335.207 1855.21,359.416 1857.31,384.825 1859.42,411.329 1861.53,438.824 1863.64,467.203 1865.75,496.36 1867.85,526.19 1869.96,556.585 1872.07,587.437 1874.18,618.64 1876.29,650.086 1878.4,681.665 1880.5,713.269 1882.61,744.788 1884.72,776.114 1886.83,807.135 1888.94,837.742 1891.05,867.824 1893.15,897.269 1895.26,925.966 1897.37,953.802 1899.48,980.666 1901.59,1006.44 1903.7,1031.02 1905.8,1054.29 1907.91,1076.13 1910.02,1096.43 1912.13,1115.07 1914.24,1131.94 1916.34,1146.93 1918.45,1159.89 1920.56,1170.78 1922.67,1179.6 1924.78,1186.35 1926.89,1191.04 1928.99,1193.68 1931.1,1194.27 1933.21,1192.84 1935.32,1189.41 1937.43,1184.01 1939.54,1176.66 1941.64,1167.41 1943.75,1156.29 1945.86,1143.34 1947.97,1128.62 1950.08,1112.16 1952.19,1094.04 1954.29,1074.31 1956.4,1053.03 1958.51,1030.27 1960.62,1006.11 1962.73,980.623 1964.83,953.886 1966.94,925.988 1969.05,897.017 1971.16,867.068 1973.27,836.237 1975.38,804.628 1977.48,772.347 1979.59,739.503 1981.7,706.211 1983.81,672.591 1985.92,638.764 1988.03,604.86 1990.13,571.008 1992.24,537.344 1994.35,504.009 1996.46,471.146 1998.57,438.903 2000.68,407.434 2002.78,376.893 2004.89,347.443 2007,319.247 2009.11,292.476 2011.22,267.303 2013.33,243.904 2015.43,222.463 2017.54,203.018 2019.65,185.207 2021.76,169.085 2023.87,154.741 2025.97,142.255 2028.08,131.697 2030.19,123.129 2032.3,116.6 2034.41,112.153 2036.52,109.82 2038.62,109.623 2040.73,111.574 2042.84,115.678 2044.95,121.926 2047.06,130.303 2049.17,140.785 2051.27,153.334 2053.38,167.907 2055.49,184.448 2057.6,202.895 2059.71,223.173 2061.82,245.199 2063.92,268.88 2066.03,294.114 2068.14,320.789 2070.25,348.783 2072.36,377.965 2074.46,408.194 2076.57,439.319 2078.68,471.182 2080.79,503.612 2082.9,536.429 2085.01,569.446 2087.11,602.464 2089.22,635.274 2091.33,667.807 2093.44,700.288 2095.55,732.577 2097.66,764.518 2099.76,795.959 2101.87,826.759 2103.98,856.781 2106.09,885.896 2108.2,913.981 2110.31,940.921 2112.41,966.607 2114.52,990.939 2116.63,1013.82 2118.74,1035.17 2120.85,1054.89 2122.95,1072.93 2125.06,1089.21 2127.17,1103.67 2129.28,1116.26 2131.39,1126.94 2133.5,1135.65 2135.6,1142.39 2137.71,1147.1 2139.82,1149.79 2141.93,1150.44 2144.04,1149.04 2146.15,1145.6 2148.25,1140.12 2150.36,1132.63 2152.47,1123.15 2154.58,1111.7 2156.69,1098.33 2158.8,1083.07 2160.9,1065.99 2163.01,1047.14 2165.12,1026.41 2167.23,1003.6 2169.34,978.876 2171.44,952.445 2173.55,924.491 2175.66,895.198 2177.77,864.747 2179.88,833.311 2181.99,801.059 2184.09,768.154 2186.2,734.757 2188.31,701.02 2190.42,667.094 2192.53,633.121 2194.64,599.241 2196.74,565.588 2198.85,532.29 2200.96,499.472 2203.07,467.253 2205.18,435.745 2207.29,405.059 2209.39,375.298 2211.5,346.561 2213.61,318.942 2215.72,292.53 2217.83,267.407 2219.94,243.654 2222.04,221.344 2224.15,200.545 2226.26,181.322 2228.37,163.734 2230.48,147.833 2232.58,133.668 2234.69,121.285 2236.8,110.72 2238.91,102.008 2241.02,95.1774 2243.13,90.2519 2245.23,87.2501 2247.34,86.1857 2249.45,87.0672 2251.56,89.8983 2253.67,94.6776 2255.78,101.399 2257.88,110.05 2259.99,120.615 2262.1,133.073 2264.21,147.396 2266.32,163.554 2268.43,181.515 2270.53,201.321 2272.64,222.88 2274.75,246.05 2276.86,270.689 2278.97,296.658 2281.07,323.819 2283.18,352.039 2285.29,381.182 2287.4,411.12 2289.51,441.721 2291.62,472.86 2293.72,504.411 2295.83,536.251 2297.94,568.259 2300.05,600.317 2302.16,632.307 2304.27,664.115 2306.37,695.627 2308.48,726.733 2310.59,757.323 2312.7,787.292 2314.81,816.535 2316.92,844.948 2319.02,872.431 2321.13,898.885 2323.24,924.214 2325.35,948.323 2327.46,971.12 2329.56,992.513 2331.67,1012.42 2333.78,1030.74 2335.89,1047.4 2338,1062.32 2340.11,1075.41 2342.21,1086.59 2344.32,1095.8 2346.43,1102.95 2348.54,1107.98 2350.65,1110.8 2352.76,1111.37 "/>
<path clip-path="url(#clip430)" d="M316.803 248.629 L752.348 248.629 L752.348 93.1086 L316.803 93.1086  Z" fill="#ffffff" fill-rule="evenodd" fill-opacity="1"/>
<polyline clip-path="url(#clip430)" style="stroke:#000000; stroke-linecap:round; stroke-linejoin:round; stroke-width:4; stroke-opacity:1; fill:none" points="316.803,248.629 752.348,248.629 752.348,93.1086 316.803,93.1086 316.803,248.629 "/>
<polyline clip-path="url(#clip430)" style="stroke:#009af9; stroke-linecap:round; stroke-linejoin:round; stroke-width:4; stroke-opacity:1; fill:none" points="340.205,144.949 480.615,144.949 "/>
<path clip-path="url(#clip430)" d="M524.364 141.28 Q525.961 138.409 528.184 137.044 Q530.406 135.678 533.415 135.678 Q537.466 135.678 539.665 138.525 Q541.864 141.349 541.864 146.581 L541.864 162.229 L537.582 162.229 L537.582 146.719 Q537.582 142.993 536.262 141.187 Q534.943 139.382 532.235 139.382 Q528.924 139.382 527.003 141.581 Q525.082 143.78 525.082 147.576 L525.082 162.229 L520.799 162.229 L520.799 146.719 Q520.799 142.969 519.48 141.187 Q518.161 139.382 515.406 139.382 Q512.142 139.382 510.221 141.604 Q508.299 143.803 508.299 147.576 L508.299 162.229 L504.017 162.229 L504.017 136.303 L508.299 136.303 L508.299 140.331 Q509.758 137.946 511.795 136.812 Q513.832 135.678 516.633 135.678 Q519.457 135.678 521.424 137.113 Q523.415 138.548 524.364 141.28 Z" fill="#000000" fill-rule="nonzero" fill-opacity="1" /><path clip-path="url(#clip430)" d="M560.406 139.289 Q556.98 139.289 554.989 141.974 Q552.998 144.636 552.998 149.289 Q552.998 153.942 554.966 156.627 Q556.957 159.289 560.406 159.289 Q563.808 159.289 565.799 156.604 Q567.79 153.918 567.79 149.289 Q567.79 144.682 565.799 141.997 Q563.808 139.289 560.406 139.289 M560.406 135.678 Q565.961 135.678 569.132 139.289 Q572.304 142.9 572.304 149.289 Q572.304 155.655 569.132 159.289 Q565.961 162.9 560.406 162.9 Q554.827 162.9 551.656 159.289 Q548.508 155.655 548.508 149.289 Q548.508 142.9 551.656 139.289 Q554.827 135.678 560.406 135.678 Z" fill="#000000" fill-rule="nonzero" fill-opacity="1" /><path clip-path="url(#clip430)" d="M596.424 140.238 L596.424 126.21 L600.683 126.21 L600.683 162.229 L596.424 162.229 L596.424 158.34 Q595.081 160.655 593.021 161.789 Q590.984 162.9 588.114 162.9 Q583.415 162.9 580.452 159.15 Q577.512 155.4 577.512 149.289 Q577.512 143.178 580.452 139.428 Q583.415 135.678 588.114 135.678 Q590.984 135.678 593.021 136.812 Q595.081 137.923 596.424 140.238 M581.91 149.289 Q581.91 153.988 583.831 156.673 Q585.776 159.335 589.156 159.335 Q592.535 159.335 594.48 156.673 Q596.424 153.988 596.424 149.289 Q596.424 144.59 594.48 141.928 Q592.535 139.243 589.156 139.243 Q585.776 139.243 583.831 141.928 Q581.91 144.59 581.91 149.289 Z" fill="#000000" fill-rule="nonzero" fill-opacity="1" /><path clip-path="url(#clip430)" d="M631.632 148.201 L631.632 150.284 L612.049 150.284 Q612.327 154.682 614.688 156.997 Q617.072 159.289 621.308 159.289 Q623.762 159.289 626.053 158.687 Q628.368 158.085 630.637 156.881 L630.637 160.909 Q628.345 161.881 625.938 162.391 Q623.53 162.9 621.053 162.9 Q614.85 162.9 611.216 159.289 Q607.604 155.678 607.604 149.52 Q607.604 143.155 611.03 139.428 Q614.479 135.678 620.313 135.678 Q625.544 135.678 628.577 139.057 Q631.632 142.414 631.632 148.201 M627.373 146.951 Q627.327 143.456 625.405 141.372 Q623.507 139.289 620.359 139.289 Q616.794 139.289 614.641 141.303 Q612.512 143.317 612.188 146.974 L627.373 146.951 Z" fill="#000000" fill-rule="nonzero" fill-opacity="1" /><path clip-path="url(#clip430)" d="M638.623 126.21 L642.882 126.21 L642.882 162.229 L638.623 162.229 L638.623 126.21 Z" fill="#000000" fill-rule="nonzero" fill-opacity="1" /><path clip-path="url(#clip430)" d="M661.053 145.585 L661.053 152.807 L669.178 152.807 L669.178 155.006 L661.053 155.006 L661.053 162.229 L658.623 162.229 L658.623 155.006 L650.498 155.006 L650.498 152.807 L658.623 152.807 L658.623 145.585 L661.053 145.585 Z" fill="#000000" fill-rule="nonzero" fill-opacity="1" /><path clip-path="url(#clip430)" d="M698.368 136.303 L688.993 148.919 L698.854 162.229 L693.831 162.229 L686.285 152.043 L678.738 162.229 L673.715 162.229 L683.785 148.664 L674.572 136.303 L679.595 136.303 L686.47 145.539 L693.345 136.303 L698.368 136.303 Z" fill="#000000" fill-rule="nonzero" fill-opacity="1" /><polyline clip-path="url(#clip430)" style="stroke:#e26f46; stroke-linecap:round; stroke-linejoin:round; stroke-width:4; stroke-opacity:1; fill:none" points="340.205,196.789 480.615,196.789 "/>
<path clip-path="url(#clip430)" d="M524.364 193.12 Q525.961 190.249 528.184 188.884 Q530.406 187.518 533.415 187.518 Q537.466 187.518 539.665 190.365 Q541.864 193.189 541.864 198.421 L541.864 214.069 L537.582 214.069 L537.582 198.559 Q537.582 194.833 536.262 193.027 Q534.943 191.222 532.235 191.222 Q528.924 191.222 527.003 193.421 Q525.082 195.62 525.082 199.416 L525.082 214.069 L520.799 214.069 L520.799 198.559 Q520.799 194.809 519.48 193.027 Q518.161 191.222 515.406 191.222 Q512.142 191.222 510.221 193.444 Q508.299 195.643 508.299 199.416 L508.299 214.069 L504.017 214.069 L504.017 188.143 L508.299 188.143 L508.299 192.171 Q509.758 189.786 511.795 188.652 Q513.832 187.518 516.633 187.518 Q519.457 187.518 521.424 188.953 Q523.415 190.388 524.364 193.12 Z" fill="#000000" fill-rule="nonzero" fill-opacity="1" /><path clip-path="url(#clip430)" d="M560.406 191.129 Q556.98 191.129 554.989 193.814 Q552.998 196.476 552.998 201.129 Q552.998 205.782 554.966 208.467 Q556.957 211.129 560.406 211.129 Q563.808 211.129 565.799 208.444 Q567.79 205.758 567.79 201.129 Q567.79 196.522 565.799 193.837 Q563.808 191.129 560.406 191.129 M560.406 187.518 Q565.961 187.518 569.132 191.129 Q572.304 194.74 572.304 201.129 Q572.304 207.495 569.132 211.129 Q565.961 214.74 560.406 214.74 Q554.827 214.74 551.656 211.129 Q548.508 207.495 548.508 201.129 Q548.508 194.74 551.656 191.129 Q554.827 187.518 560.406 187.518 Z" fill="#000000" fill-rule="nonzero" fill-opacity="1" /><path clip-path="url(#clip430)" d="M596.424 192.078 L596.424 178.05 L600.683 178.05 L600.683 214.069 L596.424 214.069 L596.424 210.18 Q595.081 212.495 593.021 213.629 Q590.984 214.74 588.114 214.74 Q583.415 214.74 580.452 210.99 Q577.512 207.24 577.512 201.129 Q577.512 195.018 580.452 191.268 Q583.415 187.518 588.114 187.518 Q590.984 187.518 593.021 188.652 Q595.081 189.763 596.424 192.078 M581.91 201.129 Q581.91 205.828 583.831 208.513 Q585.776 211.175 589.156 211.175 Q592.535 211.175 594.48 208.513 Q596.424 205.828 596.424 201.129 Q596.424 196.43 594.48 193.768 Q592.535 191.083 589.156 191.083 Q585.776 191.083 583.831 193.768 Q581.91 196.43 581.91 201.129 Z" fill="#000000" fill-rule="nonzero" fill-opacity="1" /><path clip-path="url(#clip430)" d="M631.632 200.041 L631.632 202.124 L612.049 202.124 Q612.327 206.522 614.688 208.837 Q617.072 211.129 621.308 211.129 Q623.762 211.129 626.053 210.527 Q628.368 209.925 630.637 208.721 L630.637 212.749 Q628.345 213.721 625.938 214.231 Q623.53 214.74 621.053 214.74 Q614.85 214.74 611.216 211.129 Q607.604 207.518 607.604 201.36 Q607.604 194.995 611.03 191.268 Q614.479 187.518 620.313 187.518 Q625.544 187.518 628.577 190.897 Q631.632 194.254 631.632 200.041 M627.373 198.791 Q627.327 195.296 625.405 193.212 Q623.507 191.129 620.359 191.129 Q616.794 191.129 614.641 193.143 Q612.512 195.157 612.188 198.814 L627.373 198.791 Z" fill="#000000" fill-rule="nonzero" fill-opacity="1" /><path clip-path="url(#clip430)" d="M638.623 178.05 L642.882 178.05 L642.882 214.069 L638.623 214.069 L638.623 178.05 Z" fill="#000000" fill-rule="nonzero" fill-opacity="1" /><path clip-path="url(#clip430)" d="M661.053 197.425 L661.053 204.647 L669.178 204.647 L669.178 206.846 L661.053 206.846 L661.053 214.069 L658.623 214.069 L658.623 206.846 L650.498 206.846 L650.498 204.647 L658.623 204.647 L658.623 197.425 L661.053 197.425 Z" fill="#000000" fill-rule="nonzero" fill-opacity="1" /><path clip-path="url(#clip430)" d="M693.877 192.078 L693.877 178.05 L698.136 178.05 L698.136 214.069 L693.877 214.069 L693.877 210.18 Q692.535 212.495 690.474 213.629 Q688.437 214.74 685.567 214.74 Q680.868 214.74 677.905 210.99 Q674.965 207.24 674.965 201.129 Q674.965 195.018 677.905 191.268 Q680.868 187.518 685.567 187.518 Q688.437 187.518 690.474 188.652 Q692.535 189.763 693.877 192.078 M679.363 201.129 Q679.363 205.828 681.285 208.513 Q683.229 211.175 686.609 211.175 Q689.988 211.175 691.933 208.513 Q693.877 205.828 693.877 201.129 Q693.877 196.43 691.933 193.768 Q689.988 191.083 686.609 191.083 Q683.229 191.083 681.285 193.768 Q679.363 196.43 679.363 201.129 Z" fill="#000000" fill-rule="nonzero" fill-opacity="1" /><path clip-path="url(#clip430)" d="M728.46 188.143 L719.085 200.759 L728.946 214.069 L723.923 214.069 L716.377 203.883 L708.831 214.069 L703.808 214.069 L713.877 200.504 L704.664 188.143 L709.687 188.143 L716.562 197.379 L723.437 188.143 L728.46 188.143 Z" fill="#000000" fill-rule="nonzero" fill-opacity="1" /></svg>
