<?xml version="1.0" encoding="utf-8"?>
<svg xmlns="http://www.w3.org/2000/svg" xmlns:xlink="http://www.w3.org/1999/xlink" width="600" height="400" viewBox="0 0 2400 1600">
<defs>
  <clipPath id="clip500">
    <rect x="0" y="0" width="2400" height="1600"/>
  </clipPath>
</defs>
<path clip-path="url(#clip500)" d="M0 1600 L2400 1600 L2400 0 L0 0  Z" fill="#ffffff" fill-rule="evenodd" fill-opacity="1"/>
<defs>
  <clipPath id="clip501">
    <rect x="480" y="0" width="1681" height="1600"/>
  </clipPath>
</defs>
<path clip-path="url(#clip500)" d="M170.857 1423.18 L2352.76 1423.18 L2352.76 123.472 L170.857 123.472  Z" fill="#ffffff" fill-rule="evenodd" fill-opacity="1"/>
<defs>
  <clipPath id="clip502">
    <rect x="170" y="123" width="2183" height="1301"/>
  </clipPath>
</defs>
<polyline clip-path="url(#clip502)" style="stroke:#000000; stroke-linecap:round; stroke-linejoin:round; stroke-width:2; stroke-opacity:0.1; fill:none" points="170.857,1423.18 170.857,123.472 "/>
<polyline clip-path="url(#clip502)" style="stroke:#000000; stroke-linecap:round; stroke-linejoin:round; stroke-width:2; stroke-opacity:0.1; fill:none" points="607.237,1423.18 607.237,123.472 "/>
<polyline clip-path="url(#clip502)" style="stroke:#000000; stroke-linecap:round; stroke-linejoin:round; stroke-width:2; stroke-opacity:0.1; fill:none" points="1043.62,1423.18 1043.62,123.472 "/>
<polyline clip-path="url(#clip502)" style="stroke:#000000; stroke-linecap:round; stroke-linejoin:round; stroke-width:2; stroke-opacity:0.1; fill:none" points="1480,1423.18 1480,123.472 "/>
<polyline clip-path="url(#clip502)" style="stroke:#000000; stroke-linecap:round; stroke-linejoin:round; stroke-width:2; stroke-opacity:0.1; fill:none" points="1916.38,1423.18 1916.38,123.472 "/>
<polyline clip-path="url(#clip502)" style="stroke:#000000; stroke-linecap:round; stroke-linejoin:round; stroke-width:2; stroke-opacity:0.1; fill:none" points="2352.76,1423.18 2352.76,123.472 "/>
<polyline clip-path="url(#clip502)" style="stroke:#000000; stroke-linecap:round; stroke-linejoin:round; stroke-width:2; stroke-opacity:0.1; fill:none" points="170.857,1302.41 2352.76,1302.41 "/>
<polyline clip-path="url(#clip502)" style="stroke:#000000; stroke-linecap:round; stroke-linejoin:round; stroke-width:2; stroke-opacity:0.1; fill:none" points="170.857,1057.18 2352.76,1057.18 "/>
<polyline clip-path="url(#clip502)" style="stroke:#000000; stroke-linecap:round; stroke-linejoin:round; stroke-width:2; stroke-opacity:0.1; fill:none" points="170.857,811.949 2352.76,811.949 "/>
<polyline clip-path="url(#clip502)" style="stroke:#000000; stroke-linecap:round; stroke-linejoin:round; stroke-width:2; stroke-opacity:0.1; fill:none" points="170.857,566.722 2352.76,566.722 "/>
<polyline clip-path="url(#clip502)" style="stroke:#000000; stroke-linecap:round; stroke-linejoin:round; stroke-width:2; stroke-opacity:0.1; fill:none" points="170.857,321.494 2352.76,321.494 "/>
<polyline clip-path="url(#clip500)" style="stroke:#000000; stroke-linecap:round; stroke-linejoin:round; stroke-width:4; stroke-opacity:1; fill:none" points="170.857,1423.18 2352.76,1423.18 "/>
<polyline clip-path="url(#clip500)" style="stroke:#000000; stroke-linecap:round; stroke-linejoin:round; stroke-width:4; stroke-opacity:1; fill:none" points="170.857,1423.18 170.857,1404.28 "/>
<polyline clip-path="url(#clip500)" style="stroke:#000000; stroke-linecap:round; stroke-linejoin:round; stroke-width:4; stroke-opacity:1; fill:none" points="607.237,1423.18 607.237,1404.28 "/>
<polyline clip-path="url(#clip500)" style="stroke:#000000; stroke-linecap:round; stroke-linejoin:round; stroke-width:4; stroke-opacity:1; fill:none" points="1043.62,1423.18 1043.62,1404.28 "/>
<polyline clip-path="url(#clip500)" style="stroke:#000000; stroke-linecap:round; stroke-linejoin:round; stroke-width:4; stroke-opacity:1; fill:none" points="1480,1423.18 1480,1404.28 "/>
<polyline clip-path="url(#clip500)" style="stroke:#000000; stroke-linecap:round; stroke-linejoin:round; stroke-width:4; stroke-opacity:1; fill:none" points="1916.38,1423.18 1916.38,1404.28 "/>
<polyline clip-path="url(#clip500)" style="stroke:#000000; stroke-linecap:round; stroke-linejoin:round; stroke-width:4; stroke-opacity:1; fill:none" points="2352.76,1423.18 2352.76,1404.28 "/>
<path clip-path="url(#clip500)" d="M148.242 1454.1 Q144.631 1454.1 142.802 1457.66 Q140.996 1461.2 140.996 1468.33 Q140.996 1475.44 142.802 1479.01 Q144.631 1482.55 148.242 1482.55 Q151.876 1482.55 153.682 1479.01 Q155.51 1475.44 155.51 1468.33 Q155.51 1461.2 153.682 1457.66 Q151.876 1454.1 148.242 1454.1 M148.242 1450.39 Q154.052 1450.39 157.107 1455 Q160.186 1459.58 160.186 1468.33 Q160.186 1477.06 157.107 1481.67 Q154.052 1486.25 148.242 1486.25 Q142.432 1486.25 139.353 1481.67 Q136.297 1477.06 136.297 1468.33 Q136.297 1459.58 139.353 1455 Q142.432 1450.39 148.242 1450.39 Z" fill="#000000" fill-rule="nonzero" fill-opacity="1" /><path clip-path="url(#clip500)" d="M168.404 1479.7 L173.288 1479.7 L173.288 1485.58 L168.404 1485.58 L168.404 1479.7 Z" fill="#000000" fill-rule="nonzero" fill-opacity="1" /><path clip-path="url(#clip500)" d="M193.473 1454.1 Q189.862 1454.1 188.033 1457.66 Q186.228 1461.2 186.228 1468.33 Q186.228 1475.44 188.033 1479.01 Q189.862 1482.55 193.473 1482.55 Q197.107 1482.55 198.913 1479.01 Q200.742 1475.44 200.742 1468.33 Q200.742 1461.2 198.913 1457.66 Q197.107 1454.1 193.473 1454.1 M193.473 1450.39 Q199.283 1450.39 202.339 1455 Q205.417 1459.58 205.417 1468.33 Q205.417 1477.06 202.339 1481.67 Q199.283 1486.25 193.473 1486.25 Q187.663 1486.25 184.584 1481.67 Q181.529 1477.06 181.529 1468.33 Q181.529 1459.58 184.584 1455 Q187.663 1450.39 193.473 1450.39 Z" fill="#000000" fill-rule="nonzero" fill-opacity="1" /><path clip-path="url(#clip500)" d="M585.42 1454.1 Q581.809 1454.1 579.98 1457.66 Q578.175 1461.2 578.175 1468.33 Q578.175 1475.44 579.98 1479.01 Q581.809 1482.55 585.42 1482.55 Q589.054 1482.55 590.86 1479.01 Q592.689 1475.44 592.689 1468.33 Q592.689 1461.2 590.86 1457.66 Q589.054 1454.1 585.42 1454.1 M585.42 1450.39 Q591.23 1450.39 594.286 1455 Q597.364 1459.58 597.364 1468.33 Q597.364 1477.06 594.286 1481.67 Q591.23 1486.25 585.42 1486.25 Q579.61 1486.25 576.531 1481.67 Q573.476 1477.06 573.476 1468.33 Q573.476 1459.58 576.531 1455 Q579.61 1450.39 585.42 1450.39 Z" fill="#000000" fill-rule="nonzero" fill-opacity="1" /><path clip-path="url(#clip500)" d="M605.582 1479.7 L610.466 1479.7 L610.466 1485.58 L605.582 1485.58 L605.582 1479.7 Z" fill="#000000" fill-rule="nonzero" fill-opacity="1" /><path clip-path="url(#clip500)" d="M624.679 1481.64 L640.999 1481.64 L640.999 1485.58 L619.054 1485.58 L619.054 1481.64 Q621.716 1478.89 626.3 1474.26 Q630.906 1469.61 632.087 1468.27 Q634.332 1465.74 635.212 1464.01 Q636.114 1462.25 636.114 1460.56 Q636.114 1457.8 634.17 1456.07 Q632.249 1454.33 629.147 1454.33 Q626.948 1454.33 624.494 1455.09 Q622.063 1455.86 619.286 1457.41 L619.286 1452.69 Q622.11 1451.55 624.563 1450.97 Q627.017 1450.39 629.054 1450.39 Q634.424 1450.39 637.619 1453.08 Q640.813 1455.77 640.813 1460.26 Q640.813 1462.39 640.003 1464.31 Q639.216 1466.2 637.11 1468.8 Q636.531 1469.47 633.429 1472.69 Q630.327 1475.88 624.679 1481.64 Z" fill="#000000" fill-rule="nonzero" fill-opacity="1" /><path clip-path="url(#clip500)" d="M1020.76 1454.1 Q1017.15 1454.1 1015.32 1457.66 Q1013.51 1461.2 1013.51 1468.33 Q1013.51 1475.44 1015.32 1479.01 Q1017.15 1482.55 1020.76 1482.55 Q1024.39 1482.55 1026.2 1479.01 Q1028.03 1475.44 1028.03 1468.33 Q1028.03 1461.2 1026.2 1457.66 Q1024.39 1454.1 1020.76 1454.1 M1020.76 1450.39 Q1026.57 1450.39 1029.62 1455 Q1032.7 1459.58 1032.7 1468.33 Q1032.7 1477.06 1029.62 1481.67 Q1026.57 1486.25 1020.76 1486.25 Q1014.95 1486.25 1011.87 1481.67 Q1008.81 1477.06 1008.81 1468.33 Q1008.81 1459.58 1011.87 1455 Q1014.95 1450.39 1020.76 1450.39 Z" fill="#000000" fill-rule="nonzero" fill-opacity="1" /><path clip-path="url(#clip500)" d="M1040.92 1479.7 L1045.8 1479.7 L1045.8 1485.58 L1040.92 1485.58 L1040.92 1479.7 Z" fill="#000000" fill-rule="nonzero" fill-opacity="1" /><path clip-path="url(#clip500)" d="M1068.84 1455.09 L1057.03 1473.54 L1068.84 1473.54 L1068.84 1455.09 M1067.61 1451.02 L1073.49 1451.02 L1073.49 1473.54 L1078.42 1473.54 L1078.42 1477.43 L1073.49 1477.43 L1073.49 1485.58 L1068.84 1485.58 L1068.84 1477.43 L1053.23 1477.43 L1053.23 1472.92 L1067.61 1451.02 Z" fill="#000000" fill-rule="nonzero" fill-opacity="1" /><path clip-path="url(#clip500)" d="M1457.3 1454.1 Q1453.69 1454.1 1451.86 1457.66 Q1450.05 1461.2 1450.05 1468.33 Q1450.05 1475.44 1451.86 1479.01 Q1453.69 1482.55 1457.3 1482.55 Q1460.93 1482.55 1462.74 1479.01 Q1464.57 1475.44 1464.57 1468.33 Q1464.57 1461.2 1462.74 1457.66 Q1460.93 1454.1 1457.3 1454.1 M1457.3 1450.39 Q1463.11 1450.39 1466.17 1455 Q1469.24 1459.58 1469.24 1468.33 Q1469.24 1477.06 1466.17 1481.67 Q1463.11 1486.25 1457.3 1486.25 Q1451.49 1486.25 1448.41 1481.67 Q1445.36 1477.06 1445.36 1468.33 Q1445.36 1459.58 1448.41 1455 Q1451.49 1450.39 1457.3 1450.39 Z" fill="#000000" fill-rule="nonzero" fill-opacity="1" /><path clip-path="url(#clip500)" d="M1477.46 1479.7 L1482.35 1479.7 L1482.35 1485.58 L1477.46 1485.58 L1477.46 1479.7 Z" fill="#000000" fill-rule="nonzero" fill-opacity="1" /><path clip-path="url(#clip500)" d="M1503.11 1466.44 Q1499.96 1466.44 1498.11 1468.59 Q1496.28 1470.74 1496.28 1474.49 Q1496.28 1478.22 1498.11 1480.39 Q1499.96 1482.55 1503.11 1482.55 Q1506.26 1482.55 1508.09 1480.39 Q1509.94 1478.22 1509.94 1474.49 Q1509.94 1470.74 1508.09 1468.59 Q1506.26 1466.44 1503.11 1466.44 M1512.39 1451.78 L1512.39 1456.04 Q1510.63 1455.21 1508.83 1454.77 Q1507.04 1454.33 1505.29 1454.33 Q1500.66 1454.33 1498.2 1457.45 Q1495.77 1460.58 1495.42 1466.9 Q1496.79 1464.89 1498.85 1463.82 Q1500.91 1462.73 1503.39 1462.73 Q1508.6 1462.73 1511.61 1465.9 Q1514.64 1469.05 1514.64 1474.49 Q1514.64 1479.82 1511.49 1483.03 Q1508.34 1486.25 1503.11 1486.25 Q1497.11 1486.25 1493.94 1481.67 Q1490.77 1477.06 1490.77 1468.33 Q1490.77 1460.14 1494.66 1455.28 Q1498.55 1450.39 1505.1 1450.39 Q1506.86 1450.39 1508.64 1450.74 Q1510.45 1451.09 1512.39 1451.78 Z" fill="#000000" fill-rule="nonzero" fill-opacity="1" /><path clip-path="url(#clip500)" d="M1893.81 1454.1 Q1890.2 1454.1 1888.37 1457.66 Q1886.56 1461.2 1886.56 1468.33 Q1886.56 1475.44 1888.37 1479.01 Q1890.2 1482.55 1893.81 1482.55 Q1897.44 1482.55 1899.25 1479.01 Q1901.08 1475.44 1901.08 1468.33 Q1901.08 1461.2 1899.25 1457.66 Q1897.44 1454.1 1893.81 1454.1 M1893.81 1450.39 Q1899.62 1450.39 1902.67 1455 Q1905.75 1459.58 1905.75 1468.33 Q1905.75 1477.06 1902.67 1481.67 Q1899.62 1486.25 1893.81 1486.25 Q1888 1486.25 1884.92 1481.67 Q1881.86 1477.06 1881.86 1468.33 Q1881.86 1459.58 1884.92 1455 Q1888 1450.39 1893.81 1450.39 Z" fill="#000000" fill-rule="nonzero" fill-opacity="1" /><path clip-path="url(#clip500)" d="M1913.97 1479.7 L1918.85 1479.7 L1918.85 1485.58 L1913.97 1485.58 L1913.97 1479.7 Z" fill="#000000" fill-rule="nonzero" fill-opacity="1" /><path clip-path="url(#clip500)" d="M1939.04 1469.17 Q1935.7 1469.17 1933.78 1470.95 Q1931.89 1472.73 1931.89 1475.86 Q1931.89 1478.98 1933.78 1480.77 Q1935.7 1482.55 1939.04 1482.55 Q1942.37 1482.55 1944.29 1480.77 Q1946.21 1478.96 1946.21 1475.86 Q1946.21 1472.73 1944.29 1470.95 Q1942.39 1469.17 1939.04 1469.17 M1934.36 1467.18 Q1931.35 1466.44 1929.66 1464.38 Q1928 1462.32 1928 1459.35 Q1928 1455.21 1930.94 1452.8 Q1933.9 1450.39 1939.04 1450.39 Q1944.2 1450.39 1947.14 1452.8 Q1950.08 1455.21 1950.08 1459.35 Q1950.08 1462.32 1948.39 1464.38 Q1946.72 1466.44 1943.74 1467.18 Q1947.12 1467.96 1948.99 1470.26 Q1950.89 1472.55 1950.89 1475.86 Q1950.89 1480.88 1947.81 1483.57 Q1944.76 1486.25 1939.04 1486.25 Q1933.32 1486.25 1930.24 1483.57 Q1927.19 1480.88 1927.19 1475.86 Q1927.19 1472.55 1929.08 1470.26 Q1930.98 1467.96 1934.36 1467.18 M1932.65 1459.79 Q1932.65 1462.48 1934.32 1463.98 Q1936.01 1465.49 1939.04 1465.49 Q1942.05 1465.49 1943.74 1463.98 Q1945.45 1462.48 1945.45 1459.79 Q1945.45 1457.11 1943.74 1455.6 Q1942.05 1454.1 1939.04 1454.1 Q1936.01 1454.1 1934.32 1455.6 Q1932.65 1457.11 1932.65 1459.79 Z" fill="#000000" fill-rule="nonzero" fill-opacity="1" /><path clip-path="url(#clip500)" d="M2319.91 1481.64 L2327.55 1481.64 L2327.55 1455.28 L2319.24 1456.95 L2319.24 1452.69 L2327.5 1451.02 L2332.18 1451.02 L2332.18 1481.64 L2339.82 1481.64 L2339.82 1485.58 L2319.91 1485.58 L2319.91 1481.64 Z" fill="#000000" fill-rule="nonzero" fill-opacity="1" /><path clip-path="url(#clip500)" d="M2349.26 1479.7 L2354.14 1479.7 L2354.14 1485.58 L2349.26 1485.58 L2349.26 1479.7 Z" fill="#000000" fill-rule="nonzero" fill-opacity="1" /><path clip-path="url(#clip500)" d="M2374.33 1454.1 Q2370.72 1454.1 2368.89 1457.66 Q2367.08 1461.2 2367.08 1468.33 Q2367.08 1475.44 2368.89 1479.01 Q2370.72 1482.55 2374.33 1482.55 Q2377.96 1482.55 2379.77 1479.01 Q2381.6 1475.44 2381.6 1468.33 Q2381.6 1461.2 2379.77 1457.66 Q2377.96 1454.1 2374.33 1454.1 M2374.33 1450.39 Q2380.14 1450.39 2383.2 1455 Q2386.27 1459.58 2386.27 1468.33 Q2386.27 1477.06 2383.2 1481.67 Q2380.14 1486.25 2374.33 1486.25 Q2368.52 1486.25 2365.44 1481.67 Q2362.39 1477.06 2362.39 1468.33 Q2362.39 1459.58 2365.44 1455 Q2368.52 1450.39 2374.33 1450.39 Z" fill="#000000" fill-rule="nonzero" fill-opacity="1" /><path clip-path="url(#clip500)" d="M1260.87 1522.27 L1260.87 1532.4 L1272.93 1532.4 L1272.93 1536.95 L1260.87 1536.95 L1260.87 1556.3 Q1260.87 1560.66 1262.05 1561.9 Q1263.25 1563.14 1266.92 1563.14 L1272.93 1563.14 L1272.93 1568.04 L1266.92 1568.04 Q1260.14 1568.04 1257.56 1565.53 Q1254.98 1562.98 1254.98 1556.3 L1254.98 1536.95 L1250.68 1536.95 L1250.68 1532.4 L1254.98 1532.4 L1254.98 1522.27 L1260.87 1522.27 Z" fill="#000000" fill-rule="nonzero" fill-opacity="1" /><polyline clip-path="url(#clip500)" style="stroke:#000000; stroke-linecap:round; stroke-linejoin:round; stroke-width:4; stroke-opacity:1; fill:none" points="170.857,1423.18 170.857,123.472 "/>
<polyline clip-path="url(#clip500)" style="stroke:#000000; stroke-linecap:round; stroke-linejoin:round; stroke-width:4; stroke-opacity:1; fill:none" points="170.857,1302.41 189.755,1302.41 "/>
<polyline clip-path="url(#clip500)" style="stroke:#000000; stroke-linecap:round; stroke-linejoin:round; stroke-width:4; stroke-opacity:1; fill:none" points="170.857,1057.18 189.755,1057.18 "/>
<polyline clip-path="url(#clip500)" style="stroke:#000000; stroke-linecap:round; stroke-linejoin:round; stroke-width:4; stroke-opacity:1; fill:none" points="170.857,811.949 189.755,811.949 "/>
<polyline clip-path="url(#clip500)" style="stroke:#000000; stroke-linecap:round; stroke-linejoin:round; stroke-width:4; stroke-opacity:1; fill:none" points="170.857,566.722 189.755,566.722 "/>
<polyline clip-path="url(#clip500)" style="stroke:#000000; stroke-linecap:round; stroke-linejoin:round; stroke-width:4; stroke-opacity:1; fill:none" points="170.857,321.494 189.755,321.494 "/>
<path clip-path="url(#clip500)" d="M56.6171 1315.75 L72.9365 1315.75 L72.9365 1319.69 L50.9921 1319.69 L50.9921 1315.75 Q53.6541 1313 58.2375 1308.37 Q62.8439 1303.71 64.0245 1302.37 Q66.2698 1299.85 67.1494 1298.11 Q68.0522 1296.35 68.0522 1294.66 Q68.0522 1291.91 66.1078 1290.17 Q64.1865 1288.44 61.0847 1288.44 Q58.8856 1288.44 56.4319 1289.2 Q54.0014 1289.96 51.2236 1291.51 L51.2236 1286.79 Q54.0477 1285.66 56.5014 1285.08 Q58.955 1284.5 60.9921 1284.5 Q66.3624 1284.5 69.5568 1287.19 Q72.7513 1289.87 72.7513 1294.36 Q72.7513 1296.49 71.9411 1298.41 Q71.1541 1300.31 69.0476 1302.9 Q68.4689 1303.57 65.367 1306.79 Q62.2652 1309.99 56.6171 1315.75 Z" fill="#000000" fill-rule="nonzero" fill-opacity="1" /><path clip-path="url(#clip500)" d="M92.7512 1303.27 Q89.4178 1303.27 87.4966 1305.06 Q85.5984 1306.84 85.5984 1309.96 Q85.5984 1313.09 87.4966 1314.87 Q89.4178 1316.65 92.7512 1316.65 Q96.0845 1316.65 98.0058 1314.87 Q99.927 1313.06 99.927 1309.96 Q99.927 1306.84 98.0058 1305.06 Q96.1076 1303.27 92.7512 1303.27 M88.0753 1301.28 Q85.066 1300.54 83.3762 1298.48 Q81.7096 1296.42 81.7096 1293.46 Q81.7096 1289.31 84.6494 1286.91 Q87.6123 1284.5 92.7512 1284.5 Q97.9132 1284.5 100.853 1286.91 Q103.793 1289.31 103.793 1293.46 Q103.793 1296.42 102.103 1298.48 Q100.436 1300.54 97.4502 1301.28 Q100.83 1302.07 102.705 1304.36 Q104.603 1306.65 104.603 1309.96 Q104.603 1314.99 101.524 1317.67 Q98.4687 1320.36 92.7512 1320.36 Q87.0336 1320.36 83.9549 1317.67 Q80.8994 1314.99 80.8994 1309.96 Q80.8994 1306.65 82.7975 1304.36 Q84.6956 1302.07 88.0753 1301.28 M86.3623 1293.9 Q86.3623 1296.58 88.029 1298.09 Q89.7188 1299.59 92.7512 1299.59 Q95.7604 1299.59 97.4502 1298.09 Q99.1632 1296.58 99.1632 1293.9 Q99.1632 1291.21 97.4502 1289.71 Q95.7604 1288.2 92.7512 1288.2 Q89.7188 1288.2 88.029 1289.71 Q86.3623 1291.21 86.3623 1293.9 Z" fill="#000000" fill-rule="nonzero" fill-opacity="1" /><path clip-path="url(#clip500)" d="M122.913 1288.2 Q119.302 1288.2 117.473 1291.77 Q115.668 1295.31 115.668 1302.44 Q115.668 1309.55 117.473 1313.11 Q119.302 1316.65 122.913 1316.65 Q126.547 1316.65 128.353 1313.11 Q130.182 1309.55 130.182 1302.44 Q130.182 1295.31 128.353 1291.77 Q126.547 1288.2 122.913 1288.2 M122.913 1284.5 Q128.723 1284.5 131.779 1289.11 Q134.857 1293.69 134.857 1302.44 Q134.857 1311.17 131.779 1315.77 Q128.723 1320.36 122.913 1320.36 Q117.103 1320.36 114.024 1315.77 Q110.969 1311.17 110.969 1302.44 Q110.969 1293.69 114.024 1289.11 Q117.103 1284.5 122.913 1284.5 Z" fill="#000000" fill-rule="nonzero" fill-opacity="1" /><path clip-path="url(#clip500)" d="M66.7559 1055.82 Q70.1124 1056.54 71.9874 1058.81 Q73.8855 1061.08 73.8855 1064.41 Q73.8855 1069.53 70.367 1072.33 Q66.8485 1075.13 60.3671 1075.13 Q58.1912 1075.13 55.8764 1074.69 Q53.5847 1074.27 51.131 1073.42 L51.131 1068.9 Q53.0754 1070.04 55.3903 1070.61 Q57.7051 1071.19 60.2282 1071.19 Q64.6263 1071.19 66.918 1069.46 Q69.2328 1067.72 69.2328 1064.41 Q69.2328 1061.36 67.08 1059.64 Q64.9504 1057.91 61.131 1057.91 L57.1032 1057.91 L57.1032 1054.06 L61.3161 1054.06 Q64.7652 1054.06 66.5939 1052.7 Q68.4226 1051.31 68.4226 1048.72 Q68.4226 1046.05 66.5245 1044.64 Q64.6495 1043.21 61.131 1043.21 Q59.2097 1043.21 57.0106 1043.62 Q54.8115 1044.04 52.1727 1044.92 L52.1727 1040.75 Q54.8347 1040.01 57.1495 1039.64 Q59.4875 1039.27 61.5476 1039.27 Q66.8717 1039.27 69.9735 1041.7 Q73.0753 1044.11 73.0753 1048.23 Q73.0753 1051.1 71.4318 1053.09 Q69.7883 1055.06 66.7559 1055.82 Z" fill="#000000" fill-rule="nonzero" fill-opacity="1" /><path clip-path="url(#clip500)" d="M92.7512 1042.98 Q89.1401 1042.98 87.3114 1046.54 Q85.5058 1050.08 85.5058 1057.21 Q85.5058 1064.32 87.3114 1067.88 Q89.1401 1071.42 92.7512 1071.42 Q96.3854 1071.42 98.1909 1067.88 Q100.02 1064.32 100.02 1057.21 Q100.02 1050.08 98.1909 1046.54 Q96.3854 1042.98 92.7512 1042.98 M92.7512 1039.27 Q98.5613 1039.27 101.617 1043.88 Q104.696 1048.46 104.696 1057.21 Q104.696 1065.94 101.617 1070.55 Q98.5613 1075.13 92.7512 1075.13 Q86.941 1075.13 83.8623 1070.55 Q80.8068 1065.94 80.8068 1057.21 Q80.8068 1048.46 83.8623 1043.88 Q86.941 1039.27 92.7512 1039.27 Z" fill="#000000" fill-rule="nonzero" fill-opacity="1" /><path clip-path="url(#clip500)" d="M122.913 1042.98 Q119.302 1042.98 117.473 1046.54 Q115.668 1050.08 115.668 1057.21 Q115.668 1064.32 117.473 1067.88 Q119.302 1071.42 122.913 1071.42 Q126.547 1071.42 128.353 1067.88 Q130.182 1064.32 130.182 1057.21 Q130.182 1050.08 128.353 1046.54 Q126.547 1042.98 122.913 1042.98 M122.913 1039.27 Q128.723 1039.27 131.779 1043.88 Q134.857 1048.46 134.857 1057.21 Q134.857 1065.94 131.779 1070.55 Q128.723 1075.13 122.913 1075.13 Q117.103 1075.13 114.024 1070.55 Q110.969 1065.94 110.969 1057.21 Q110.969 1048.46 114.024 1043.88 Q117.103 1039.27 122.913 1039.27 Z" fill="#000000" fill-rule="nonzero" fill-opacity="1" /><path clip-path="url(#clip500)" d="M66.7559 810.595 Q70.1124 811.313 71.9874 813.581 Q73.8855 815.85 73.8855 819.183 Q73.8855 824.299 70.367 827.1 Q66.8485 829.901 60.3671 829.901 Q58.1912 829.901 55.8764 829.461 Q53.5847 829.044 51.131 828.188 L51.131 823.674 Q53.0754 824.808 55.3903 825.387 Q57.7051 825.966 60.2282 825.966 Q64.6263 825.966 66.918 824.229 Q69.2328 822.493 69.2328 819.183 Q69.2328 816.128 67.08 814.415 Q64.9504 812.679 61.131 812.679 L57.1032 812.679 L57.1032 808.836 L61.3161 808.836 Q64.7652 808.836 66.5939 807.47 Q68.4226 806.081 68.4226 803.489 Q68.4226 800.827 66.5245 799.415 Q64.6495 797.98 61.131 797.98 Q59.2097 797.98 57.0106 798.396 Q54.8115 798.813 52.1727 799.692 L52.1727 795.526 Q54.8347 794.785 57.1495 794.415 Q59.4875 794.044 61.5476 794.044 Q66.8717 794.044 69.9735 796.475 Q73.0753 798.882 73.0753 803.003 Q73.0753 805.873 71.4318 807.864 Q69.7883 809.831 66.7559 810.595 Z" fill="#000000" fill-rule="nonzero" fill-opacity="1" /><path clip-path="url(#clip500)" d="M86.779 825.294 L103.098 825.294 L103.098 829.229 L81.154 829.229 L81.154 825.294 Q83.816 822.54 88.3993 817.91 Q93.0058 813.257 94.1863 811.915 Q96.4317 809.392 97.3113 807.655 Q98.2141 805.896 98.2141 804.206 Q98.2141 801.452 96.2697 799.716 Q94.3484 797.98 91.2465 797.98 Q89.0475 797.98 86.5938 798.743 Q84.1632 799.507 81.3855 801.058 L81.3855 796.336 Q84.2095 795.202 86.6632 794.623 Q89.1169 794.044 91.1539 794.044 Q96.5243 794.044 99.7187 796.73 Q102.913 799.415 102.913 803.905 Q102.913 806.035 102.103 807.956 Q101.316 809.854 99.2095 812.447 Q98.6308 813.118 95.5289 816.336 Q92.4271 819.53 86.779 825.294 Z" fill="#000000" fill-rule="nonzero" fill-opacity="1" /><path clip-path="url(#clip500)" d="M122.913 797.748 Q119.302 797.748 117.473 801.313 Q115.668 804.855 115.668 811.984 Q115.668 819.091 117.473 822.655 Q119.302 826.197 122.913 826.197 Q126.547 826.197 128.353 822.655 Q130.182 819.091 130.182 811.984 Q130.182 804.855 128.353 801.313 Q126.547 797.748 122.913 797.748 M122.913 794.044 Q128.723 794.044 131.779 798.651 Q134.857 803.234 134.857 811.984 Q134.857 820.711 131.779 825.317 Q128.723 829.901 122.913 829.901 Q117.103 829.901 114.024 825.317 Q110.969 820.711 110.969 811.984 Q110.969 803.234 114.024 798.651 Q117.103 794.044 122.913 794.044 Z" fill="#000000" fill-rule="nonzero" fill-opacity="1" /><path clip-path="url(#clip500)" d="M66.7559 565.367 Q70.1124 566.085 71.9874 568.353 Q73.8855 570.622 73.8855 573.955 Q73.8855 579.071 70.367 581.872 Q66.8485 584.673 60.3671 584.673 Q58.1912 584.673 55.8764 584.233 Q53.5847 583.816 51.131 582.96 L51.131 578.446 Q53.0754 579.58 55.3903 580.159 Q57.7051 580.738 60.2282 580.738 Q64.6263 580.738 66.918 579.002 Q69.2328 577.265 69.2328 573.955 Q69.2328 570.9 67.08 569.187 Q64.9504 567.451 61.131 567.451 L57.1032 567.451 L57.1032 563.608 L61.3161 563.608 Q64.7652 563.608 66.5939 562.242 Q68.4226 560.853 68.4226 558.261 Q68.4226 555.599 66.5245 554.187 Q64.6495 552.752 61.131 552.752 Q59.2097 552.752 57.0106 553.168 Q54.8115 553.585 52.1727 554.465 L52.1727 550.298 Q54.8347 549.557 57.1495 549.187 Q59.4875 548.817 61.5476 548.817 Q66.8717 548.817 69.9735 551.247 Q73.0753 553.654 73.0753 557.775 Q73.0753 560.645 71.4318 562.636 Q69.7883 564.603 66.7559 565.367 Z" fill="#000000" fill-rule="nonzero" fill-opacity="1" /><path clip-path="url(#clip500)" d="M95.5984 553.516 L83.7929 571.965 L95.5984 571.965 L95.5984 553.516 M94.3715 549.442 L100.251 549.442 L100.251 571.965 L105.182 571.965 L105.182 575.853 L100.251 575.853 L100.251 584.002 L95.5984 584.002 L95.5984 575.853 L79.9966 575.853 L79.9966 571.34 L94.3715 549.442 Z" fill="#000000" fill-rule="nonzero" fill-opacity="1" /><path clip-path="url(#clip500)" d="M122.913 552.52 Q119.302 552.52 117.473 556.085 Q115.668 559.627 115.668 566.756 Q115.668 573.863 117.473 577.427 Q119.302 580.969 122.913 580.969 Q126.547 580.969 128.353 577.427 Q130.182 573.863 130.182 566.756 Q130.182 559.627 128.353 556.085 Q126.547 552.52 122.913 552.52 M122.913 548.817 Q128.723 548.817 131.779 553.423 Q134.857 558.006 134.857 566.756 Q134.857 575.483 131.779 580.089 Q128.723 584.673 122.913 584.673 Q117.103 584.673 114.024 580.089 Q110.969 575.483 110.969 566.756 Q110.969 558.006 114.024 553.423 Q117.103 548.817 122.913 548.817 Z" fill="#000000" fill-rule="nonzero" fill-opacity="1" /><path clip-path="url(#clip500)" d="M66.7559 320.139 Q70.1124 320.857 71.9874 323.126 Q73.8855 325.394 73.8855 328.727 Q73.8855 333.843 70.367 336.644 Q66.8485 339.445 60.3671 339.445 Q58.1912 339.445 55.8764 339.005 Q53.5847 338.588 51.131 337.732 L51.131 333.218 Q53.0754 334.352 55.3903 334.931 Q57.7051 335.51 60.2282 335.51 Q64.6263 335.51 66.918 333.774 Q69.2328 332.038 69.2328 328.727 Q69.2328 325.672 67.08 323.959 Q64.9504 322.223 61.131 322.223 L57.1032 322.223 L57.1032 318.38 L61.3161 318.38 Q64.7652 318.38 66.5939 317.014 Q68.4226 315.626 68.4226 313.033 Q68.4226 310.371 66.5245 308.959 Q64.6495 307.524 61.131 307.524 Q59.2097 307.524 57.0106 307.94 Q54.8115 308.357 52.1727 309.237 L52.1727 305.07 Q54.8347 304.329 57.1495 303.959 Q59.4875 303.589 61.5476 303.589 Q66.8717 303.589 69.9735 306.019 Q73.0753 308.427 73.0753 312.547 Q73.0753 315.417 71.4318 317.408 Q69.7883 319.376 66.7559 320.139 Z" fill="#000000" fill-rule="nonzero" fill-opacity="1" /><path clip-path="url(#clip500)" d="M93.3299 319.63 Q90.1817 319.63 88.3299 321.783 Q86.5012 323.936 86.5012 327.686 Q86.5012 331.413 88.3299 333.588 Q90.1817 335.741 93.3299 335.741 Q96.478 335.741 98.3067 333.588 Q100.159 331.413 100.159 327.686 Q100.159 323.936 98.3067 321.783 Q96.478 319.63 93.3299 319.63 M102.612 304.978 L102.612 309.237 Q100.853 308.403 99.0474 307.964 Q97.265 307.524 95.5058 307.524 Q90.8762 307.524 88.4225 310.649 Q85.9919 313.774 85.6447 320.093 Q87.0105 318.079 89.0706 317.014 Q91.1308 315.927 93.6076 315.927 Q98.8159 315.927 101.825 319.098 Q104.858 322.246 104.858 327.686 Q104.858 333.01 101.709 336.227 Q98.5613 339.445 93.3299 339.445 Q87.3345 339.445 84.1632 334.862 Q80.992 330.255 80.992 321.528 Q80.992 313.334 84.8808 308.473 Q88.7697 303.589 95.3206 303.589 Q97.0798 303.589 98.8622 303.936 Q100.668 304.283 102.612 304.978 Z" fill="#000000" fill-rule="nonzero" fill-opacity="1" /><path clip-path="url(#clip500)" d="M122.913 307.292 Q119.302 307.292 117.473 310.857 Q115.668 314.399 115.668 321.528 Q115.668 328.635 117.473 332.2 Q119.302 335.741 122.913 335.741 Q126.547 335.741 128.353 332.2 Q130.182 328.635 130.182 321.528 Q130.182 314.399 128.353 310.857 Q126.547 307.292 122.913 307.292 M122.913 303.589 Q128.723 303.589 131.779 308.195 Q134.857 312.778 134.857 321.528 Q134.857 330.255 131.779 334.862 Q128.723 339.445 122.913 339.445 Q117.103 339.445 114.024 334.862 Q110.969 330.255 110.969 321.528 Q110.969 312.778 114.024 308.195 Q117.103 303.589 122.913 303.589 Z" fill="#000000" fill-rule="nonzero" fill-opacity="1" /><path clip-path="url(#clip500)" d="M523.145 12.096 L574.307 12.096 L574.307 18.9825 L552.838 18.9825 L552.838 72.576 L544.614 72.576 L544.614 18.9825 L523.145 18.9825 L523.145 12.096 Z" fill="#000000" fill-rule="nonzero" fill-opacity="1" /><path clip-path="url(#clip500)" d="M619.597 45.1919 L619.597 72.576 L612.143 72.576 L612.143 45.4349 Q612.143 38.994 609.631 35.7938 Q607.12 32.5936 602.097 32.5936 Q596.061 32.5936 592.577 36.4419 Q589.093 40.2903 589.093 46.9338 L589.093 72.576 L581.599 72.576 L581.599 9.54393 L589.093 9.54393 L589.093 34.2544 Q591.767 30.163 595.372 28.1376 Q599.018 26.1121 603.758 26.1121 Q611.576 26.1121 615.586 30.9732 Q619.597 35.7938 619.597 45.1919 Z" fill="#000000" fill-rule="nonzero" fill-opacity="1" /><path clip-path="url(#clip500)" d="M673.271 48.0275 L673.271 51.6733 L639 51.6733 Q639.487 59.3701 643.618 63.421 Q647.791 67.4314 655.204 67.4314 Q659.498 67.4314 663.508 66.3781 Q667.559 65.3249 671.529 63.2184 L671.529 70.267 Q667.519 71.9684 663.306 72.8596 Q659.093 73.7508 654.758 73.7508 Q643.902 73.7508 637.542 67.4314 Q631.223 61.1119 631.223 50.3365 Q631.223 39.1965 637.218 32.6746 Q643.254 26.1121 653.462 26.1121 Q662.617 26.1121 667.924 32.0264 Q673.271 37.9003 673.271 48.0275 M665.817 45.84 Q665.736 39.7232 662.374 36.0774 Q659.052 32.4315 653.543 32.4315 Q647.305 32.4315 643.537 35.9558 Q639.811 39.4801 639.243 45.8805 L665.817 45.84 Z" fill="#000000" fill-rule="nonzero" fill-opacity="1" /><path clip-path="url(#clip500)" d="M711.795 34.1734 Q710.539 33.4443 709.041 33.1202 Q707.582 32.7556 705.8 32.7556 Q699.48 32.7556 696.078 36.8875 Q692.715 40.9789 692.715 48.6757 L692.715 72.576 L685.221 72.576 L685.221 27.2059 L692.715 27.2059 L692.715 34.2544 Q695.065 30.1225 698.832 28.1376 Q702.6 26.1121 707.987 26.1121 Q708.757 26.1121 709.689 26.2337 Q710.62 26.3147 711.755 26.5172 L711.795 34.1734 Z" fill="#000000" fill-rule="nonzero" fill-opacity="1" /><path clip-path="url(#clip500)" d="M753.479 35.9153 Q756.274 30.8922 760.163 28.5022 Q764.052 26.1121 769.318 26.1121 Q776.407 26.1121 780.255 31.0947 Q784.104 36.0368 784.104 45.1919 L784.104 72.576 L776.61 72.576 L776.61 45.4349 Q776.61 38.913 774.301 35.7533 Q771.992 32.5936 767.252 32.5936 Q761.459 32.5936 758.097 36.4419 Q754.735 40.2903 754.735 46.9338 L754.735 72.576 L747.241 72.576 L747.241 45.4349 Q747.241 38.8725 744.932 35.7533 Q742.623 32.5936 737.802 32.5936 Q732.09 32.5936 728.728 36.4824 Q725.366 40.3308 725.366 46.9338 L725.366 72.576 L717.871 72.576 L717.871 27.2059 L725.366 27.2059 L725.366 34.2544 Q727.918 30.082 731.483 28.0971 Q735.047 26.1121 739.949 26.1121 Q744.891 26.1121 748.334 28.6237 Q751.818 31.1352 753.479 35.9153 Z" fill="#000000" fill-rule="nonzero" fill-opacity="1" /><path clip-path="url(#clip500)" d="M819.59 49.7694 Q810.556 49.7694 807.072 51.8354 Q803.589 53.9013 803.589 58.8839 Q803.589 62.8538 806.181 65.2034 Q808.814 67.5124 813.311 67.5124 Q819.509 67.5124 823.236 63.1374 Q827.003 58.7219 827.003 51.4303 L827.003 49.7694 L819.59 49.7694 M834.457 46.6907 L834.457 72.576 L827.003 72.576 L827.003 65.6895 Q824.451 69.8214 820.643 71.8063 Q816.835 73.7508 811.326 73.7508 Q804.358 73.7508 800.226 69.8619 Q796.135 65.9325 796.135 59.3701 Q796.135 51.7138 801.239 47.825 Q806.384 43.9361 816.552 43.9361 L827.003 43.9361 L827.003 43.2069 Q827.003 38.0623 823.6 35.2672 Q820.238 32.4315 814.121 32.4315 Q810.232 32.4315 806.546 33.3632 Q802.859 34.295 799.457 36.1584 L799.457 29.2718 Q803.548 27.692 807.396 26.9223 Q811.245 26.1121 814.891 26.1121 Q824.734 26.1121 829.595 31.2163 Q834.457 36.3204 834.457 46.6907 Z" fill="#000000" fill-rule="nonzero" fill-opacity="1" /><path clip-path="url(#clip500)" d="M849.809 9.54393 L857.263 9.54393 L857.263 72.576 L849.809 72.576 L849.809 9.54393 Z" fill="#000000" fill-rule="nonzero" fill-opacity="1" /><path clip-path="url(#clip500)" d="M944.844 16.7545 L944.844 25.383 Q940.712 21.5346 936.013 19.6307 Q931.354 17.7268 926.088 17.7268 Q915.718 17.7268 910.208 24.0867 Q904.699 30.4061 904.699 42.3968 Q904.699 54.3469 910.208 60.7069 Q915.718 67.0263 926.088 67.0263 Q931.354 67.0263 936.013 65.1223 Q940.712 63.2184 944.844 59.3701 L944.844 67.9175 Q940.55 70.8341 935.729 72.2924 Q930.949 73.7508 925.602 73.7508 Q911.869 73.7508 903.97 65.3654 Q896.071 56.9395 896.071 42.3968 Q896.071 27.8135 903.97 19.4281 Q911.869 11.0023 925.602 11.0023 Q931.03 11.0023 935.81 12.4606 Q940.631 13.8784 944.844 16.7545 Z" fill="#000000" fill-rule="nonzero" fill-opacity="1" /><path clip-path="url(#clip500)" d="M974.739 32.4315 Q968.744 32.4315 965.26 37.1306 Q961.776 41.7891 961.776 49.9314 Q961.776 58.0738 965.22 62.7728 Q968.703 67.4314 974.739 67.4314 Q980.694 67.4314 984.178 62.7323 Q987.662 58.0333 987.662 49.9314 Q987.662 41.8701 984.178 37.1711 Q980.694 32.4315 974.739 32.4315 M974.739 26.1121 Q984.462 26.1121 990.011 32.4315 Q995.561 38.7509 995.561 49.9314 Q995.561 61.0714 990.011 67.4314 Q984.462 73.7508 974.739 73.7508 Q964.977 73.7508 959.427 67.4314 Q953.918 61.0714 953.918 49.9314 Q953.918 38.7509 959.427 32.4315 Q964.977 26.1121 974.739 26.1121 Z" fill="#000000" fill-rule="nonzero" fill-opacity="1" /><path clip-path="url(#clip500)" d="M1045.63 45.1919 L1045.63 72.576 L1038.18 72.576 L1038.18 45.4349 Q1038.18 38.994 1035.66 35.7938 Q1033.15 32.5936 1028.13 32.5936 Q1022.09 32.5936 1018.61 36.4419 Q1015.13 40.2903 1015.13 46.9338 L1015.13 72.576 L1007.63 72.576 L1007.63 27.2059 L1015.13 27.2059 L1015.13 34.2544 Q1017.8 30.163 1021.41 28.1376 Q1025.05 26.1121 1029.79 26.1121 Q1037.61 26.1121 1041.62 30.9732 Q1045.63 35.7938 1045.63 45.1919 Z" fill="#000000" fill-rule="nonzero" fill-opacity="1" /><path clip-path="url(#clip500)" d="M1090.35 34.0924 L1090.35 9.54393 L1097.81 9.54393 L1097.81 72.576 L1090.35 72.576 L1090.35 65.7705 Q1088 69.8214 1084.4 71.8063 Q1080.83 73.7508 1075.81 73.7508 Q1067.59 73.7508 1062.4 67.1883 Q1057.26 60.6258 1057.26 49.9314 Q1057.26 39.2371 1062.4 32.6746 Q1067.59 26.1121 1075.81 26.1121 Q1080.83 26.1121 1084.4 28.0971 Q1088 30.0415 1090.35 34.0924 M1064.95 49.9314 Q1064.95 58.1548 1068.32 62.8538 Q1071.72 67.5124 1077.63 67.5124 Q1083.55 67.5124 1086.95 62.8538 Q1090.35 58.1548 1090.35 49.9314 Q1090.35 41.7081 1086.95 37.0496 Q1083.55 32.3505 1077.63 32.3505 Q1071.72 32.3505 1068.32 37.0496 Q1064.95 41.7081 1064.95 49.9314 Z" fill="#000000" fill-rule="nonzero" fill-opacity="1" /><path clip-path="url(#clip500)" d="M1112.39 54.671 L1112.39 27.2059 L1119.84 27.2059 L1119.84 54.3874 Q1119.84 60.8284 1122.35 64.0691 Q1124.87 67.2693 1129.89 67.2693 Q1135.92 67.2693 1139.41 63.421 Q1142.93 59.5726 1142.93 52.9291 L1142.93 27.2059 L1150.39 27.2059 L1150.39 72.576 L1142.93 72.576 L1142.93 65.6084 Q1140.22 69.7404 1136.61 71.7658 Q1133.05 73.7508 1128.31 73.7508 Q1120.49 73.7508 1116.44 68.8897 Q1112.39 64.0286 1112.39 54.671 M1131.14 26.1121 L1131.14 26.1121 Z" fill="#000000" fill-rule="nonzero" fill-opacity="1" /><path clip-path="url(#clip500)" d="M1198.39 28.9478 L1198.39 35.9153 Q1195.23 34.1734 1192.03 33.3227 Q1188.87 32.4315 1185.63 32.4315 Q1178.38 32.4315 1174.37 37.0496 Q1170.36 41.6271 1170.36 49.9314 Q1170.36 58.2358 1174.37 62.8538 Q1178.38 67.4314 1185.63 67.4314 Q1188.87 67.4314 1192.03 66.5807 Q1195.23 65.6895 1198.39 63.9476 L1198.39 70.8341 Q1195.27 72.2924 1191.91 73.0216 Q1188.59 73.7508 1184.82 73.7508 Q1174.57 73.7508 1168.53 67.3098 Q1162.5 60.8689 1162.5 49.9314 Q1162.5 38.832 1168.58 32.472 Q1174.69 26.1121 1185.31 26.1121 Q1188.75 26.1121 1192.03 26.8413 Q1195.31 27.5299 1198.39 28.9478 Z" fill="#000000" fill-rule="nonzero" fill-opacity="1" /><path clip-path="url(#clip500)" d="M1218.73 14.324 L1218.73 27.2059 L1234.08 27.2059 L1234.08 32.9987 L1218.73 32.9987 L1218.73 57.6282 Q1218.73 63.1779 1220.22 64.7578 Q1221.76 66.3376 1226.42 66.3376 L1234.08 66.3376 L1234.08 72.576 L1226.42 72.576 Q1217.79 72.576 1214.51 69.3758 Q1211.23 66.1351 1211.23 57.6282 L1211.23 32.9987 L1205.76 32.9987 L1205.76 27.2059 L1211.23 27.2059 L1211.23 14.324 L1218.73 14.324 Z" fill="#000000" fill-rule="nonzero" fill-opacity="1" /><path clip-path="url(#clip500)" d="M1243.88 27.2059 L1251.34 27.2059 L1251.34 72.576 L1243.88 72.576 L1243.88 27.2059 M1243.88 9.54393 L1251.34 9.54393 L1251.34 18.9825 L1243.88 18.9825 L1243.88 9.54393 Z" fill="#000000" fill-rule="nonzero" fill-opacity="1" /><path clip-path="url(#clip500)" d="M1284.51 32.4315 Q1278.52 32.4315 1275.03 37.1306 Q1271.55 41.7891 1271.55 49.9314 Q1271.55 58.0738 1274.99 62.7728 Q1278.48 67.4314 1284.51 67.4314 Q1290.47 67.4314 1293.95 62.7323 Q1297.43 58.0333 1297.43 49.9314 Q1297.43 41.8701 1293.95 37.1711 Q1290.47 32.4315 1284.51 32.4315 M1284.51 26.1121 Q1294.23 26.1121 1299.78 32.4315 Q1305.33 38.7509 1305.33 49.9314 Q1305.33 61.0714 1299.78 67.4314 Q1294.23 73.7508 1284.51 73.7508 Q1274.75 73.7508 1269.2 67.4314 Q1263.69 61.0714 1263.69 49.9314 Q1263.69 38.7509 1269.2 32.4315 Q1274.75 26.1121 1284.51 26.1121 Z" fill="#000000" fill-rule="nonzero" fill-opacity="1" /><path clip-path="url(#clip500)" d="M1355.4 45.1919 L1355.4 72.576 L1347.95 72.576 L1347.95 45.4349 Q1347.95 38.994 1345.44 35.7938 Q1342.93 32.5936 1337.9 32.5936 Q1331.87 32.5936 1328.38 36.4419 Q1324.9 40.2903 1324.9 46.9338 L1324.9 72.576 L1317.41 72.576 L1317.41 27.2059 L1324.9 27.2059 L1324.9 34.2544 Q1327.57 30.163 1331.18 28.1376 Q1334.82 26.1121 1339.56 26.1121 Q1347.38 26.1121 1351.39 30.9732 Q1355.4 35.7938 1355.4 45.1919 Z" fill="#000000" fill-rule="nonzero" fill-opacity="1" /><path clip-path="url(#clip500)" d="M1405.15 18.8205 L1405.15 65.8515 L1415.03 65.8515 Q1427.55 65.8515 1433.34 60.1802 Q1439.18 54.509 1439.18 42.2752 Q1439.18 30.1225 1433.34 24.4918 Q1427.55 18.8205 1415.03 18.8205 L1405.15 18.8205 M1396.97 12.096 L1413.78 12.096 Q1431.36 12.096 1439.58 19.4281 Q1447.8 26.7198 1447.8 42.2752 Q1447.8 57.9117 1439.54 65.2439 Q1431.28 72.576 1413.78 72.576 L1396.97 72.576 L1396.97 12.096 Z" fill="#000000" fill-rule="nonzero" fill-opacity="1" /><path clip-path="url(#clip500)" d="M1499.33 48.0275 L1499.33 51.6733 L1465.06 51.6733 Q1465.55 59.3701 1469.68 63.421 Q1473.85 67.4314 1481.26 67.4314 Q1485.56 67.4314 1489.57 66.3781 Q1493.62 65.3249 1497.59 63.2184 L1497.59 70.267 Q1493.58 71.9684 1489.37 72.8596 Q1485.15 73.7508 1480.82 73.7508 Q1469.96 73.7508 1463.6 67.4314 Q1457.28 61.1119 1457.28 50.3365 Q1457.28 39.1965 1463.28 32.6746 Q1469.31 26.1121 1479.52 26.1121 Q1488.68 26.1121 1493.98 32.0264 Q1499.33 37.9003 1499.33 48.0275 M1491.88 45.84 Q1491.8 39.7232 1488.43 36.0774 Q1485.11 32.4315 1479.6 32.4315 Q1473.37 32.4315 1469.6 35.9558 Q1465.87 39.4801 1465.3 45.8805 L1491.88 45.84 Z" fill="#000000" fill-rule="nonzero" fill-opacity="1" /><path clip-path="url(#clip500)" d="M1546.89 35.9153 Q1549.68 30.8922 1553.57 28.5022 Q1557.46 26.1121 1562.73 26.1121 Q1569.82 26.1121 1573.67 31.0947 Q1577.51 36.0368 1577.51 45.1919 L1577.51 72.576 L1570.02 72.576 L1570.02 45.4349 Q1570.02 38.913 1567.71 35.7533 Q1565.4 32.5936 1560.66 32.5936 Q1554.87 32.5936 1551.51 36.4419 Q1548.14 40.2903 1548.14 46.9338 L1548.14 72.576 L1540.65 72.576 L1540.65 45.4349 Q1540.65 38.8725 1538.34 35.7533 Q1536.03 32.5936 1531.21 32.5936 Q1525.5 32.5936 1522.14 36.4824 Q1518.78 40.3308 1518.78 46.9338 L1518.78 72.576 L1511.28 72.576 L1511.28 27.2059 L1518.78 27.2059 L1518.78 34.2544 Q1521.33 30.082 1524.89 28.0971 Q1528.46 26.1121 1533.36 26.1121 Q1538.3 26.1121 1541.74 28.6237 Q1545.23 31.1352 1546.89 35.9153 Z" fill="#000000" fill-rule="nonzero" fill-opacity="1" /><path clip-path="url(#clip500)" d="M1609.96 32.4315 Q1603.97 32.4315 1600.48 37.1306 Q1597 41.7891 1597 49.9314 Q1597 58.0738 1600.44 62.7728 Q1603.93 67.4314 1609.96 67.4314 Q1615.92 67.4314 1619.4 62.7323 Q1622.88 58.0333 1622.88 49.9314 Q1622.88 41.8701 1619.4 37.1711 Q1615.92 32.4315 1609.96 32.4315 M1609.96 26.1121 Q1619.68 26.1121 1625.23 32.4315 Q1630.78 38.7509 1630.78 49.9314 Q1630.78 61.0714 1625.23 67.4314 Q1619.68 73.7508 1609.96 73.7508 Q1600.2 73.7508 1594.65 67.4314 Q1589.14 61.0714 1589.14 49.9314 Q1589.14 38.7509 1594.65 32.4315 Q1600.2 26.1121 1609.96 26.1121 Z" fill="#000000" fill-rule="nonzero" fill-opacity="1" /><path clip-path="url(#clip500)" d="M1680.85 45.1919 L1680.85 72.576 L1673.4 72.576 L1673.4 45.4349 Q1673.4 38.994 1670.89 35.7938 Q1668.38 32.5936 1663.35 32.5936 Q1657.32 32.5936 1653.83 36.4419 Q1650.35 40.2903 1650.35 46.9338 L1650.35 72.576 L1642.85 72.576 L1642.85 27.2059 L1650.35 27.2059 L1650.35 34.2544 Q1653.02 30.163 1656.63 28.1376 Q1660.27 26.1121 1665.01 26.1121 Q1672.83 26.1121 1676.84 30.9732 Q1680.85 35.7938 1680.85 45.1919 Z" fill="#000000" fill-rule="nonzero" fill-opacity="1" /><path clip-path="url(#clip500)" d="M1724.64 28.5427 L1724.64 35.5912 Q1721.48 33.9709 1718.08 33.1607 Q1714.68 32.3505 1711.03 32.3505 Q1705.48 32.3505 1702.69 34.0519 Q1699.93 35.7533 1699.93 39.156 Q1699.93 41.7486 1701.92 43.2475 Q1703.9 44.7058 1709.9 46.0426 L1712.45 46.6097 Q1720.39 48.3111 1723.71 51.4303 Q1727.07 54.509 1727.07 60.0587 Q1727.07 66.3781 1722.05 70.0644 Q1717.07 73.7508 1708.32 73.7508 Q1704.67 73.7508 1700.7 73.0216 Q1696.77 72.3329 1692.4 70.9151 L1692.4 63.2184 Q1696.53 65.3654 1700.54 66.4591 Q1704.55 67.5124 1708.48 67.5124 Q1713.75 67.5124 1716.58 65.73 Q1719.42 63.9071 1719.42 60.6258 Q1719.42 57.5877 1717.35 55.9673 Q1715.33 54.3469 1708.4 52.8481 L1705.81 52.2405 Q1698.88 50.7821 1695.8 47.7845 Q1692.72 44.7463 1692.72 39.4801 Q1692.72 33.0797 1697.26 29.5959 Q1701.8 26.1121 1710.14 26.1121 Q1714.27 26.1121 1717.92 26.7198 Q1721.56 27.3274 1724.64 28.5427 Z" fill="#000000" fill-rule="nonzero" fill-opacity="1" /><path clip-path="url(#clip500)" d="M1746.32 14.324 L1746.32 27.2059 L1761.67 27.2059 L1761.67 32.9987 L1746.32 32.9987 L1746.32 57.6282 Q1746.32 63.1779 1747.81 64.7578 Q1749.35 66.3376 1754.01 66.3376 L1761.67 66.3376 L1761.67 72.576 L1754.01 72.576 Q1745.38 72.576 1742.1 69.3758 Q1738.82 66.1351 1738.82 57.6282 L1738.82 32.9987 L1733.35 32.9987 L1733.35 27.2059 L1738.82 27.2059 L1738.82 14.324 L1746.32 14.324 Z" fill="#000000" fill-rule="nonzero" fill-opacity="1" /><path clip-path="url(#clip500)" d="M1797.76 34.1734 Q1796.51 33.4443 1795.01 33.1202 Q1793.55 32.7556 1791.77 32.7556 Q1785.45 32.7556 1782.04 36.8875 Q1778.68 40.9789 1778.68 48.6757 L1778.68 72.576 L1771.19 72.576 L1771.19 27.2059 L1778.68 27.2059 L1778.68 34.2544 Q1781.03 30.1225 1784.8 28.1376 Q1788.57 26.1121 1793.95 26.1121 Q1794.72 26.1121 1795.66 26.2337 Q1796.59 26.3147 1797.72 26.5172 L1797.76 34.1734 Z" fill="#000000" fill-rule="nonzero" fill-opacity="1" /><path clip-path="url(#clip500)" d="M1826.2 49.7694 Q1817.17 49.7694 1813.68 51.8354 Q1810.2 53.9013 1810.2 58.8839 Q1810.2 62.8538 1812.79 65.2034 Q1815.42 67.5124 1819.92 67.5124 Q1826.12 67.5124 1829.84 63.1374 Q1833.61 58.7219 1833.61 51.4303 L1833.61 49.7694 L1826.2 49.7694 M1841.07 46.6907 L1841.07 72.576 L1833.61 72.576 L1833.61 65.6895 Q1831.06 69.8214 1827.25 71.8063 Q1823.44 73.7508 1817.94 73.7508 Q1810.97 73.7508 1806.84 69.8619 Q1802.74 65.9325 1802.74 59.3701 Q1802.74 51.7138 1807.85 47.825 Q1812.99 43.9361 1823.16 43.9361 L1833.61 43.9361 L1833.61 43.2069 Q1833.61 38.0623 1830.21 35.2672 Q1826.85 32.4315 1820.73 32.4315 Q1816.84 32.4315 1813.15 33.3632 Q1809.47 34.295 1806.07 36.1584 L1806.07 29.2718 Q1810.16 27.692 1814.01 26.9223 Q1817.85 26.1121 1821.5 26.1121 Q1831.34 26.1121 1836.2 31.2163 Q1841.07 36.3204 1841.07 46.6907 Z" fill="#000000" fill-rule="nonzero" fill-opacity="1" /><path clip-path="url(#clip500)" d="M1863.79 14.324 L1863.79 27.2059 L1879.14 27.2059 L1879.14 32.9987 L1863.79 32.9987 L1863.79 57.6282 Q1863.79 63.1779 1865.29 64.7578 Q1866.83 66.3376 1871.49 66.3376 L1879.14 66.3376 L1879.14 72.576 L1871.49 72.576 Q1862.86 72.576 1859.58 69.3758 Q1856.3 66.1351 1856.3 57.6282 L1856.3 32.9987 L1850.83 32.9987 L1850.83 27.2059 L1856.3 27.2059 L1856.3 14.324 L1863.79 14.324 Z" fill="#000000" fill-rule="nonzero" fill-opacity="1" /><path clip-path="url(#clip500)" d="M1888.95 27.2059 L1896.4 27.2059 L1896.4 72.576 L1888.95 72.576 L1888.95 27.2059 M1888.95 9.54393 L1896.4 9.54393 L1896.4 18.9825 L1888.95 18.9825 L1888.95 9.54393 Z" fill="#000000" fill-rule="nonzero" fill-opacity="1" /><path clip-path="url(#clip500)" d="M1929.58 32.4315 Q1923.58 32.4315 1920.1 37.1306 Q1916.62 41.7891 1916.62 49.9314 Q1916.62 58.0738 1920.06 62.7728 Q1923.54 67.4314 1929.58 67.4314 Q1935.53 67.4314 1939.02 62.7323 Q1942.5 58.0333 1942.5 49.9314 Q1942.5 41.8701 1939.02 37.1711 Q1935.53 32.4315 1929.58 32.4315 M1929.58 26.1121 Q1939.3 26.1121 1944.85 32.4315 Q1950.4 38.7509 1950.4 49.9314 Q1950.4 61.0714 1944.85 67.4314 Q1939.3 73.7508 1929.58 73.7508 Q1919.82 73.7508 1914.27 67.4314 Q1908.76 61.0714 1908.76 49.9314 Q1908.76 38.7509 1914.27 32.4315 Q1919.82 26.1121 1929.58 26.1121 Z" fill="#000000" fill-rule="nonzero" fill-opacity="1" /><path clip-path="url(#clip500)" d="M2000.47 45.1919 L2000.47 72.576 L1993.02 72.576 L1993.02 45.4349 Q1993.02 38.994 1990.5 35.7938 Q1987.99 32.5936 1982.97 32.5936 Q1976.93 32.5936 1973.45 36.4419 Q1969.97 40.2903 1969.97 46.9338 L1969.97 72.576 L1962.47 72.576 L1962.47 27.2059 L1969.97 27.2059 L1969.97 34.2544 Q1972.64 30.163 1976.24 28.1376 Q1979.89 26.1121 1984.63 26.1121 Q1992.45 26.1121 1996.46 30.9732 Q2000.47 35.7938 2000.47 45.1919 Z" fill="#000000" fill-rule="nonzero" fill-opacity="1" /><polyline clip-path="url(#clip502)" style="stroke:#009af9; stroke-linecap:round; stroke-linejoin:round; stroke-width:4; stroke-opacity:1; fill:none" points="170.857,160.256 170.857,160.256 "/>
<polyline clip-path="url(#clip502)" style="stroke:#e26f46; stroke-linecap:round; stroke-linejoin:round; stroke-width:4; stroke-opacity:1; fill:none" points="170.857,1386.4 170.857,1386.4 "/>
<path clip-path="url(#clip500)" d="M1445.31 374.156 L2280.03 374.156 L2280.03 166.796 L1445.31 166.796  Z" fill="#ffffff" fill-rule="evenodd" fill-opacity="1"/>
<polyline clip-path="url(#clip500)" style="stroke:#000000; stroke-linecap:round; stroke-linejoin:round; stroke-width:4; stroke-opacity:1; fill:none" points="1445.31,374.156 2280.03,374.156 2280.03,166.796 1445.31,166.796 1445.31,374.156 "/>
<polyline clip-path="url(#clip500)" style="stroke:#009af9; stroke-linecap:round; stroke-linejoin:round; stroke-width:4; stroke-opacity:1; fill:none" points="1469.55,218.636 1615.01,218.636 "/>
<path clip-path="url(#clip500)" d="M1639.26 201.356 L1646.23 201.356 L1655.05 224.874 L1663.91 201.356 L1670.88 201.356 L1670.88 235.916 L1666.32 235.916 L1666.32 205.569 L1657.41 229.272 L1652.71 229.272 L1643.8 205.569 L1643.8 235.916 L1639.26 235.916 L1639.26 201.356 Z" fill="#000000" fill-rule="nonzero" fill-opacity="1" /><path clip-path="url(#clip500)" d="M1691.76 222.883 Q1686.6 222.883 1684.61 224.064 Q1682.61 225.244 1682.61 228.092 Q1682.61 230.36 1684.1 231.703 Q1685.6 233.022 1688.17 233.022 Q1691.71 233.022 1693.84 230.522 Q1695.99 227.999 1695.99 223.832 L1695.99 222.883 L1691.76 222.883 M1700.25 221.124 L1700.25 235.916 L1695.99 235.916 L1695.99 231.981 Q1694.54 234.342 1692.36 235.476 Q1690.18 236.587 1687.04 236.587 Q1683.05 236.587 1680.69 234.365 Q1678.36 232.119 1678.36 228.369 Q1678.36 223.994 1681.27 221.772 Q1684.21 219.55 1690.02 219.55 L1695.99 219.55 L1695.99 219.133 Q1695.99 216.194 1694.05 214.596 Q1692.13 212.976 1688.63 212.976 Q1686.41 212.976 1684.3 213.508 Q1682.2 214.041 1680.25 215.106 L1680.25 211.17 Q1682.59 210.268 1684.79 209.828 Q1686.99 209.365 1689.07 209.365 Q1694.7 209.365 1697.48 212.282 Q1700.25 215.198 1700.25 221.124 Z" fill="#000000" fill-rule="nonzero" fill-opacity="1" /><path clip-path="url(#clip500)" d="M1725.55 210.754 L1725.55 214.782 Q1723.75 213.856 1721.8 213.393 Q1719.86 212.93 1717.78 212.93 Q1714.6 212.93 1713.01 213.902 Q1711.43 214.874 1711.43 216.819 Q1711.43 218.3 1712.57 219.157 Q1713.7 219.99 1717.13 220.754 L1718.59 221.078 Q1723.12 222.05 1725.02 223.832 Q1726.94 225.592 1726.94 228.763 Q1726.94 232.374 1724.07 234.481 Q1721.23 236.587 1716.23 236.587 Q1714.14 236.587 1711.87 236.17 Q1709.63 235.777 1707.13 234.967 L1707.13 230.569 Q1709.49 231.795 1711.78 232.42 Q1714.07 233.022 1716.32 233.022 Q1719.33 233.022 1720.95 232.004 Q1722.57 230.962 1722.57 229.087 Q1722.57 227.351 1721.39 226.425 Q1720.23 225.499 1716.27 224.643 L1714.79 224.295 Q1710.83 223.462 1709.07 221.749 Q1707.31 220.013 1707.31 217.004 Q1707.31 213.346 1709.91 211.356 Q1712.5 209.365 1717.27 209.365 Q1719.63 209.365 1721.71 209.712 Q1723.79 210.059 1725.55 210.754 Z" fill="#000000" fill-rule="nonzero" fill-opacity="1" /><path clip-path="url(#clip500)" d="M1750.25 210.754 L1750.25 214.782 Q1748.45 213.856 1746.5 213.393 Q1744.56 212.93 1742.48 212.93 Q1739.3 212.93 1737.71 213.902 Q1736.13 214.874 1736.13 216.819 Q1736.13 218.3 1737.27 219.157 Q1738.4 219.99 1741.83 220.754 L1743.29 221.078 Q1747.82 222.05 1749.72 223.832 Q1751.64 225.592 1751.64 228.763 Q1751.64 232.374 1748.77 234.481 Q1745.92 236.587 1740.92 236.587 Q1738.84 236.587 1736.57 236.17 Q1734.33 235.777 1731.83 234.967 L1731.83 230.569 Q1734.19 231.795 1736.48 232.42 Q1738.77 233.022 1741.02 233.022 Q1744.03 233.022 1745.65 232.004 Q1747.27 230.962 1747.27 229.087 Q1747.27 227.351 1746.09 226.425 Q1744.93 225.499 1740.97 224.643 L1739.49 224.295 Q1735.53 223.462 1733.77 221.749 Q1732.01 220.013 1732.01 217.004 Q1732.01 213.346 1734.6 211.356 Q1737.2 209.365 1741.97 209.365 Q1744.33 209.365 1746.41 209.712 Q1748.49 210.059 1750.25 210.754 Z" fill="#000000" fill-rule="nonzero" fill-opacity="1" /><path clip-path="url(#clip500)" d="M1774.91 231.981 L1782.54 231.981 L1782.54 205.615 L1774.23 207.282 L1774.23 203.022 L1782.5 201.356 L1787.17 201.356 L1787.17 231.981 L1794.81 231.981 L1794.81 235.916 L1774.91 235.916 L1774.91 231.981 Z" fill="#000000" fill-rule="nonzero" fill-opacity="1" /><path clip-path="url(#clip500)" d="M1814.12 201.356 L1843.35 201.356 L1843.35 205.291 L1831.09 205.291 L1831.09 235.916 L1826.39 235.916 L1826.39 205.291 L1814.12 205.291 L1814.12 201.356 Z" fill="#000000" fill-rule="nonzero" fill-opacity="1" /><path clip-path="url(#clip500)" d="M1861.8 221.888 L1861.8 223.971 L1842.22 223.971 Q1842.5 228.369 1844.86 230.684 Q1847.24 232.976 1851.48 232.976 Q1853.93 232.976 1856.22 232.374 Q1858.54 231.772 1860.81 230.569 L1860.81 234.596 Q1858.52 235.568 1856.11 236.078 Q1853.7 236.587 1851.22 236.587 Q1845.02 236.587 1841.39 232.976 Q1837.78 229.365 1837.78 223.207 Q1837.78 216.842 1841.2 213.115 Q1844.65 209.365 1850.48 209.365 Q1855.72 209.365 1858.75 212.745 Q1861.8 216.101 1861.8 221.888 M1857.54 220.638 Q1857.5 217.143 1855.58 215.059 Q1853.68 212.976 1850.53 212.976 Q1846.97 212.976 1844.81 214.99 Q1842.68 217.004 1842.36 220.661 L1857.54 220.638 Z" fill="#000000" fill-rule="nonzero" fill-opacity="1" /><path clip-path="url(#clip500)" d="M1888.98 214.967 Q1890.58 212.096 1892.8 210.731 Q1895.02 209.365 1898.03 209.365 Q1902.08 209.365 1904.28 212.212 Q1906.48 215.036 1906.48 220.268 L1906.48 235.916 L1902.2 235.916 L1902.2 220.407 Q1902.2 216.68 1900.88 214.874 Q1899.56 213.069 1896.85 213.069 Q1893.54 213.069 1891.62 215.268 Q1889.7 217.467 1889.7 221.263 L1889.7 235.916 L1885.41 235.916 L1885.41 220.407 Q1885.41 216.657 1884.09 214.874 Q1882.78 213.069 1880.02 213.069 Q1876.76 213.069 1874.84 215.291 Q1872.91 217.49 1872.91 221.263 L1872.91 235.916 L1868.63 235.916 L1868.63 209.99 L1872.91 209.99 L1872.91 214.018 Q1874.37 211.633 1876.41 210.499 Q1878.45 209.365 1881.25 209.365 Q1884.07 209.365 1886.04 210.8 Q1888.03 212.235 1888.98 214.967 Z" fill="#000000" fill-rule="nonzero" fill-opacity="1" /><path clip-path="url(#clip500)" d="M1919.09 232.027 L1919.09 245.777 L1914.81 245.777 L1914.81 209.99 L1919.09 209.99 L1919.09 213.925 Q1920.44 211.61 1922.47 210.499 Q1924.53 209.365 1927.38 209.365 Q1932.1 209.365 1935.04 213.115 Q1938.01 216.865 1938.01 222.976 Q1938.01 229.087 1935.04 232.837 Q1932.1 236.587 1927.38 236.587 Q1924.53 236.587 1922.47 235.476 Q1920.44 234.342 1919.09 232.027 M1933.59 222.976 Q1933.59 218.277 1931.64 215.615 Q1929.72 212.93 1926.34 212.93 Q1922.96 212.93 1921.02 215.615 Q1919.09 218.277 1919.09 222.976 Q1919.09 227.675 1921.02 230.36 Q1922.96 233.022 1926.34 233.022 Q1929.72 233.022 1931.64 230.36 Q1933.59 227.675 1933.59 222.976 Z" fill="#000000" fill-rule="nonzero" fill-opacity="1" /><path clip-path="url(#clip500)" d="M1967.24 221.888 L1967.24 223.971 L1947.66 223.971 Q1947.94 228.369 1950.3 230.684 Q1952.68 232.976 1956.92 232.976 Q1959.37 232.976 1961.66 232.374 Q1963.98 231.772 1966.25 230.569 L1966.25 234.596 Q1963.96 235.568 1961.55 236.078 Q1959.14 236.587 1956.66 236.587 Q1950.46 236.587 1946.83 232.976 Q1943.21 229.365 1943.21 223.207 Q1943.21 216.842 1946.64 213.115 Q1950.09 209.365 1955.92 209.365 Q1961.15 209.365 1964.19 212.745 Q1967.24 216.101 1967.24 221.888 M1962.98 220.638 Q1962.94 217.143 1961.02 215.059 Q1959.12 212.976 1955.97 212.976 Q1952.4 212.976 1950.25 214.99 Q1948.12 217.004 1947.8 220.661 L1962.98 220.638 Z" fill="#000000" fill-rule="nonzero" fill-opacity="1" /><path clip-path="url(#clip500)" d="M1989.26 213.971 Q1988.54 213.555 1987.68 213.37 Q1986.85 213.161 1985.83 213.161 Q1982.22 213.161 1980.27 215.522 Q1978.35 217.86 1978.35 222.258 L1978.35 235.916 L1974.07 235.916 L1974.07 209.99 L1978.35 209.99 L1978.35 214.018 Q1979.7 211.657 1981.85 210.522 Q1984 209.365 1987.08 209.365 Q1987.52 209.365 1988.05 209.434 Q1988.58 209.481 1989.23 209.596 L1989.26 213.971 Z" fill="#000000" fill-rule="nonzero" fill-opacity="1" /><path clip-path="url(#clip500)" d="M2005.51 222.883 Q2000.34 222.883 1998.35 224.064 Q1996.36 225.244 1996.36 228.092 Q1996.36 230.36 1997.84 231.703 Q1999.35 233.022 2001.92 233.022 Q2005.46 233.022 2007.59 230.522 Q2009.74 227.999 2009.74 223.832 L2009.74 222.883 L2005.51 222.883 M2014 221.124 L2014 235.916 L2009.74 235.916 L2009.74 231.981 Q2008.28 234.342 2006.11 235.476 Q2003.93 236.587 2000.78 236.587 Q1996.8 236.587 1994.44 234.365 Q1992.1 232.119 1992.1 228.369 Q1992.1 223.994 1995.02 221.772 Q1997.96 219.55 2003.77 219.55 L2009.74 219.55 L2009.74 219.133 Q2009.74 216.194 2007.8 214.596 Q2005.88 212.976 2002.38 212.976 Q2000.16 212.976 1998.05 213.508 Q1995.95 214.041 1994 215.106 L1994 211.17 Q1996.34 210.268 1998.54 209.828 Q2000.74 209.365 2002.82 209.365 Q2008.45 209.365 2011.22 212.282 Q2014 215.198 2014 221.124 Z" fill="#000000" fill-rule="nonzero" fill-opacity="1" /><path clip-path="url(#clip500)" d="M2026.99 202.629 L2026.99 209.99 L2035.76 209.99 L2035.76 213.3 L2026.99 213.3 L2026.99 227.374 Q2026.99 230.545 2027.84 231.448 Q2028.72 232.351 2031.39 232.351 L2035.76 232.351 L2035.76 235.916 L2031.39 235.916 Q2026.46 235.916 2024.58 234.087 Q2022.71 232.235 2022.71 227.374 L2022.71 213.3 L2019.58 213.3 L2019.58 209.99 L2022.71 209.99 L2022.71 202.629 L2026.99 202.629 Z" fill="#000000" fill-rule="nonzero" fill-opacity="1" /><path clip-path="url(#clip500)" d="M2040.92 225.684 L2040.92 209.99 L2045.18 209.99 L2045.18 225.522 Q2045.18 229.203 2046.62 231.055 Q2048.05 232.883 2050.92 232.883 Q2054.37 232.883 2056.36 230.684 Q2058.38 228.485 2058.38 224.689 L2058.38 209.99 L2062.64 209.99 L2062.64 235.916 L2058.38 235.916 L2058.38 231.934 Q2056.83 234.295 2054.77 235.453 Q2052.73 236.587 2050.02 236.587 Q2045.55 236.587 2043.24 233.809 Q2040.92 231.031 2040.92 225.684 M2051.64 209.365 L2051.64 209.365 Z" fill="#000000" fill-rule="nonzero" fill-opacity="1" /><path clip-path="url(#clip500)" d="M2086.43 213.971 Q2085.71 213.555 2084.86 213.37 Q2084.02 213.161 2083.01 213.161 Q2079.39 213.161 2077.45 215.522 Q2075.53 217.86 2075.53 222.258 L2075.53 235.916 L2071.25 235.916 L2071.25 209.99 L2075.53 209.99 L2075.53 214.018 Q2076.87 211.657 2079.02 210.522 Q2081.18 209.365 2084.26 209.365 Q2084.7 209.365 2085.23 209.434 Q2085.76 209.481 2086.41 209.596 L2086.43 213.971 Z" fill="#000000" fill-rule="nonzero" fill-opacity="1" /><path clip-path="url(#clip500)" d="M2112.03 221.888 L2112.03 223.971 L2092.45 223.971 Q2092.73 228.369 2095.09 230.684 Q2097.47 232.976 2101.71 232.976 Q2104.16 232.976 2106.45 232.374 Q2108.77 231.772 2111.04 230.569 L2111.04 234.596 Q2108.75 235.568 2106.34 236.078 Q2103.93 236.587 2101.45 236.587 Q2095.25 236.587 2091.62 232.976 Q2088.01 229.365 2088.01 223.207 Q2088.01 216.842 2091.43 213.115 Q2094.88 209.365 2100.71 209.365 Q2105.95 209.365 2108.98 212.745 Q2112.03 216.101 2112.03 221.888 M2107.77 220.638 Q2107.73 217.143 2105.81 215.059 Q2103.91 212.976 2100.76 212.976 Q2097.2 212.976 2095.04 214.99 Q2092.91 217.004 2092.59 220.661 L2107.77 220.638 Z" fill="#000000" fill-rule="nonzero" fill-opacity="1" /><polyline clip-path="url(#clip500)" style="stroke:#e26f46; stroke-linecap:round; stroke-linejoin:round; stroke-width:4; stroke-opacity:1; fill:none" points="1469.55,270.476 1615.01,270.476 "/>
<path clip-path="url(#clip500)" d="M1639.26 253.196 L1646.23 253.196 L1655.05 276.714 L1663.91 253.196 L1670.88 253.196 L1670.88 287.756 L1666.32 287.756 L1666.32 257.409 L1657.41 281.112 L1652.71 281.112 L1643.8 257.409 L1643.8 287.756 L1639.26 287.756 L1639.26 253.196 Z" fill="#000000" fill-rule="nonzero" fill-opacity="1" /><path clip-path="url(#clip500)" d="M1691.76 274.723 Q1686.6 274.723 1684.61 275.904 Q1682.61 277.084 1682.61 279.932 Q1682.61 282.2 1684.1 283.543 Q1685.6 284.862 1688.17 284.862 Q1691.71 284.862 1693.84 282.362 Q1695.99 279.839 1695.99 275.672 L1695.99 274.723 L1691.76 274.723 M1700.25 272.964 L1700.25 287.756 L1695.99 287.756 L1695.99 283.821 Q1694.54 286.182 1692.36 287.316 Q1690.18 288.427 1687.04 288.427 Q1683.05 288.427 1680.69 286.205 Q1678.36 283.959 1678.36 280.209 Q1678.36 275.834 1681.27 273.612 Q1684.21 271.39 1690.02 271.39 L1695.99 271.39 L1695.99 270.973 Q1695.99 268.034 1694.05 266.436 Q1692.13 264.816 1688.63 264.816 Q1686.41 264.816 1684.3 265.348 Q1682.2 265.881 1680.25 266.946 L1680.25 263.01 Q1682.59 262.108 1684.79 261.668 Q1686.99 261.205 1689.07 261.205 Q1694.7 261.205 1697.48 264.122 Q1700.25 267.038 1700.25 272.964 Z" fill="#000000" fill-rule="nonzero" fill-opacity="1" /><path clip-path="url(#clip500)" d="M1725.55 262.594 L1725.55 266.622 Q1723.75 265.696 1721.8 265.233 Q1719.86 264.77 1717.78 264.77 Q1714.6 264.77 1713.01 265.742 Q1711.43 266.714 1711.43 268.659 Q1711.43 270.14 1712.57 270.997 Q1713.7 271.83 1717.13 272.594 L1718.59 272.918 Q1723.12 273.89 1725.02 275.672 Q1726.94 277.432 1726.94 280.603 Q1726.94 284.214 1724.07 286.321 Q1721.23 288.427 1716.23 288.427 Q1714.14 288.427 1711.87 288.01 Q1709.63 287.617 1707.13 286.807 L1707.13 282.409 Q1709.49 283.635 1711.78 284.26 Q1714.07 284.862 1716.32 284.862 Q1719.33 284.862 1720.95 283.844 Q1722.57 282.802 1722.57 280.927 Q1722.57 279.191 1721.39 278.265 Q1720.23 277.339 1716.27 276.483 L1714.79 276.135 Q1710.83 275.302 1709.07 273.589 Q1707.31 271.853 1707.31 268.844 Q1707.31 265.186 1709.91 263.196 Q1712.5 261.205 1717.27 261.205 Q1719.63 261.205 1721.71 261.552 Q1723.79 261.899 1725.55 262.594 Z" fill="#000000" fill-rule="nonzero" fill-opacity="1" /><path clip-path="url(#clip500)" d="M1750.25 262.594 L1750.25 266.622 Q1748.45 265.696 1746.5 265.233 Q1744.56 264.77 1742.48 264.77 Q1739.3 264.77 1737.71 265.742 Q1736.13 266.714 1736.13 268.659 Q1736.13 270.14 1737.27 270.997 Q1738.4 271.83 1741.83 272.594 L1743.29 272.918 Q1747.82 273.89 1749.72 275.672 Q1751.64 277.432 1751.64 280.603 Q1751.64 284.214 1748.77 286.321 Q1745.92 288.427 1740.92 288.427 Q1738.84 288.427 1736.57 288.01 Q1734.33 287.617 1731.83 286.807 L1731.83 282.409 Q1734.19 283.635 1736.48 284.26 Q1738.77 284.862 1741.02 284.862 Q1744.03 284.862 1745.65 283.844 Q1747.27 282.802 1747.27 280.927 Q1747.27 279.191 1746.09 278.265 Q1744.93 277.339 1740.97 276.483 L1739.49 276.135 Q1735.53 275.302 1733.77 273.589 Q1732.01 271.853 1732.01 268.844 Q1732.01 265.186 1734.6 263.196 Q1737.2 261.205 1741.97 261.205 Q1744.33 261.205 1746.41 261.552 Q1748.49 261.899 1750.25 262.594 Z" fill="#000000" fill-rule="nonzero" fill-opacity="1" /><path clip-path="url(#clip500)" d="M1778.12 283.821 L1794.44 283.821 L1794.44 287.756 L1772.5 287.756 L1772.5 283.821 Q1775.16 281.066 1779.74 276.436 Q1784.35 271.784 1785.53 270.441 Q1787.78 267.918 1788.66 266.182 Q1789.56 264.423 1789.56 262.733 Q1789.56 259.978 1787.61 258.242 Q1785.69 256.506 1782.59 256.506 Q1780.39 256.506 1777.94 257.27 Q1775.51 258.034 1772.73 259.585 L1772.73 254.862 Q1775.55 253.728 1778.01 253.149 Q1780.46 252.571 1782.5 252.571 Q1787.87 252.571 1791.06 255.256 Q1794.26 257.941 1794.26 262.432 Q1794.26 264.561 1793.45 266.483 Q1792.66 268.381 1790.55 270.973 Q1789.97 271.645 1786.87 274.862 Q1783.77 278.057 1778.12 283.821 Z" fill="#000000" fill-rule="nonzero" fill-opacity="1" /><path clip-path="url(#clip500)" d="M1814.12 253.196 L1843.35 253.196 L1843.35 257.131 L1831.09 257.131 L1831.09 287.756 L1826.39 287.756 L1826.39 257.131 L1814.12 257.131 L1814.12 253.196 Z" fill="#000000" fill-rule="nonzero" fill-opacity="1" /><path clip-path="url(#clip500)" d="M1861.8 273.728 L1861.8 275.811 L1842.22 275.811 Q1842.5 280.209 1844.86 282.524 Q1847.24 284.816 1851.48 284.816 Q1853.93 284.816 1856.22 284.214 Q1858.54 283.612 1860.81 282.409 L1860.81 286.436 Q1858.52 287.408 1856.11 287.918 Q1853.7 288.427 1851.22 288.427 Q1845.02 288.427 1841.39 284.816 Q1837.78 281.205 1837.78 275.047 Q1837.78 268.682 1841.2 264.955 Q1844.65 261.205 1850.48 261.205 Q1855.72 261.205 1858.75 264.585 Q1861.8 267.941 1861.8 273.728 M1857.54 272.478 Q1857.5 268.983 1855.58 266.899 Q1853.68 264.816 1850.53 264.816 Q1846.97 264.816 1844.81 266.83 Q1842.68 268.844 1842.36 272.501 L1857.54 272.478 Z" fill="#000000" fill-rule="nonzero" fill-opacity="1" /><path clip-path="url(#clip500)" d="M1888.98 266.807 Q1890.58 263.936 1892.8 262.571 Q1895.02 261.205 1898.03 261.205 Q1902.08 261.205 1904.28 264.052 Q1906.48 266.876 1906.48 272.108 L1906.48 287.756 L1902.2 287.756 L1902.2 272.247 Q1902.2 268.52 1900.88 266.714 Q1899.56 264.909 1896.85 264.909 Q1893.54 264.909 1891.62 267.108 Q1889.7 269.307 1889.7 273.103 L1889.7 287.756 L1885.41 287.756 L1885.41 272.247 Q1885.41 268.497 1884.09 266.714 Q1882.78 264.909 1880.02 264.909 Q1876.76 264.909 1874.84 267.131 Q1872.91 269.33 1872.91 273.103 L1872.91 287.756 L1868.63 287.756 L1868.63 261.83 L1872.91 261.83 L1872.91 265.858 Q1874.37 263.473 1876.41 262.339 Q1878.45 261.205 1881.25 261.205 Q1884.07 261.205 1886.04 262.64 Q1888.03 264.075 1888.98 266.807 Z" fill="#000000" fill-rule="nonzero" fill-opacity="1" /><path clip-path="url(#clip500)" d="M1919.09 283.867 L1919.09 297.617 L1914.81 297.617 L1914.81 261.83 L1919.09 261.83 L1919.09 265.765 Q1920.44 263.45 1922.47 262.339 Q1924.53 261.205 1927.38 261.205 Q1932.1 261.205 1935.04 264.955 Q1938.01 268.705 1938.01 274.816 Q1938.01 280.927 1935.04 284.677 Q1932.1 288.427 1927.38 288.427 Q1924.53 288.427 1922.47 287.316 Q1920.44 286.182 1919.09 283.867 M1933.59 274.816 Q1933.59 270.117 1931.64 267.455 Q1929.72 264.77 1926.34 264.77 Q1922.96 264.77 1921.02 267.455 Q1919.09 270.117 1919.09 274.816 Q1919.09 279.515 1921.02 282.2 Q1922.96 284.862 1926.34 284.862 Q1929.72 284.862 1931.64 282.2 Q1933.59 279.515 1933.59 274.816 Z" fill="#000000" fill-rule="nonzero" fill-opacity="1" /><path clip-path="url(#clip500)" d="M1967.24 273.728 L1967.24 275.811 L1947.66 275.811 Q1947.94 280.209 1950.3 282.524 Q1952.68 284.816 1956.92 284.816 Q1959.37 284.816 1961.66 284.214 Q1963.98 283.612 1966.25 282.409 L1966.25 286.436 Q1963.96 287.408 1961.55 287.918 Q1959.14 288.427 1956.66 288.427 Q1950.46 288.427 1946.83 284.816 Q1943.21 281.205 1943.21 275.047 Q1943.21 268.682 1946.64 264.955 Q1950.09 261.205 1955.92 261.205 Q1961.15 261.205 1964.19 264.585 Q1967.24 267.941 1967.24 273.728 M1962.98 272.478 Q1962.94 268.983 1961.02 266.899 Q1959.12 264.816 1955.97 264.816 Q1952.4 264.816 1950.25 266.83 Q1948.12 268.844 1947.8 272.501 L1962.98 272.478 Z" fill="#000000" fill-rule="nonzero" fill-opacity="1" /><path clip-path="url(#clip500)" d="M1989.26 265.811 Q1988.54 265.395 1987.68 265.21 Q1986.85 265.001 1985.83 265.001 Q1982.22 265.001 1980.27 267.362 Q1978.35 269.7 1978.35 274.098 L1978.35 287.756 L1974.07 287.756 L1974.07 261.83 L1978.35 261.83 L1978.35 265.858 Q1979.7 263.497 1981.85 262.362 Q1984 261.205 1987.08 261.205 Q1987.52 261.205 1988.05 261.274 Q1988.58 261.321 1989.23 261.436 L1989.26 265.811 Z" fill="#000000" fill-rule="nonzero" fill-opacity="1" /><path clip-path="url(#clip500)" d="M2005.51 274.723 Q2000.34 274.723 1998.35 275.904 Q1996.36 277.084 1996.36 279.932 Q1996.36 282.2 1997.84 283.543 Q1999.35 284.862 2001.92 284.862 Q2005.46 284.862 2007.59 282.362 Q2009.74 279.839 2009.74 275.672 L2009.74 274.723 L2005.51 274.723 M2014 272.964 L2014 287.756 L2009.74 287.756 L2009.74 283.821 Q2008.28 286.182 2006.11 287.316 Q2003.93 288.427 2000.78 288.427 Q1996.8 288.427 1994.44 286.205 Q1992.1 283.959 1992.1 280.209 Q1992.1 275.834 1995.02 273.612 Q1997.96 271.39 2003.77 271.39 L2009.74 271.39 L2009.74 270.973 Q2009.74 268.034 2007.8 266.436 Q2005.88 264.816 2002.38 264.816 Q2000.16 264.816 1998.05 265.348 Q1995.95 265.881 1994 266.946 L1994 263.01 Q1996.34 262.108 1998.54 261.668 Q2000.74 261.205 2002.82 261.205 Q2008.45 261.205 2011.22 264.122 Q2014 267.038 2014 272.964 Z" fill="#000000" fill-rule="nonzero" fill-opacity="1" /><path clip-path="url(#clip500)" d="M2026.99 254.469 L2026.99 261.83 L2035.76 261.83 L2035.76 265.14 L2026.99 265.14 L2026.99 279.214 Q2026.99 282.385 2027.84 283.288 Q2028.72 284.191 2031.39 284.191 L2035.76 284.191 L2035.76 287.756 L2031.39 287.756 Q2026.46 287.756 2024.58 285.927 Q2022.71 284.075 2022.71 279.214 L2022.71 265.14 L2019.58 265.14 L2019.58 261.83 L2022.71 261.83 L2022.71 254.469 L2026.99 254.469 Z" fill="#000000" fill-rule="nonzero" fill-opacity="1" /><path clip-path="url(#clip500)" d="M2040.92 277.524 L2040.92 261.83 L2045.18 261.83 L2045.18 277.362 Q2045.18 281.043 2046.62 282.895 Q2048.05 284.723 2050.92 284.723 Q2054.37 284.723 2056.36 282.524 Q2058.38 280.325 2058.38 276.529 L2058.38 261.83 L2062.64 261.83 L2062.64 287.756 L2058.38 287.756 L2058.38 283.774 Q2056.83 286.135 2054.77 287.293 Q2052.73 288.427 2050.02 288.427 Q2045.55 288.427 2043.24 285.649 Q2040.92 282.871 2040.92 277.524 M2051.64 261.205 L2051.64 261.205 Z" fill="#000000" fill-rule="nonzero" fill-opacity="1" /><path clip-path="url(#clip500)" d="M2086.43 265.811 Q2085.71 265.395 2084.86 265.21 Q2084.02 265.001 2083.01 265.001 Q2079.39 265.001 2077.45 267.362 Q2075.53 269.7 2075.53 274.098 L2075.53 287.756 L2071.25 287.756 L2071.25 261.83 L2075.53 261.83 L2075.53 265.858 Q2076.87 263.497 2079.02 262.362 Q2081.18 261.205 2084.26 261.205 Q2084.7 261.205 2085.23 261.274 Q2085.76 261.321 2086.41 261.436 L2086.43 265.811 Z" fill="#000000" fill-rule="nonzero" fill-opacity="1" /><path clip-path="url(#clip500)" d="M2112.03 273.728 L2112.03 275.811 L2092.45 275.811 Q2092.73 280.209 2095.09 282.524 Q2097.47 284.816 2101.71 284.816 Q2104.16 284.816 2106.45 284.214 Q2108.77 283.612 2111.04 282.409 L2111.04 286.436 Q2108.75 287.408 2106.34 287.918 Q2103.93 288.427 2101.45 288.427 Q2095.25 288.427 2091.62 284.816 Q2088.01 281.205 2088.01 275.047 Q2088.01 268.682 2091.43 264.955 Q2094.88 261.205 2100.71 261.205 Q2105.95 261.205 2108.98 264.585 Q2112.03 267.941 2112.03 273.728 M2107.77 272.478 Q2107.73 268.983 2105.81 266.899 Q2103.91 264.816 2100.76 264.816 Q2097.2 264.816 2095.04 266.83 Q2092.91 268.844 2092.59 272.501 L2107.77 272.478 Z" fill="#000000" fill-rule="nonzero" fill-opacity="1" /><polyline clip-path="url(#clip500)" style="stroke:#3da44d; stroke-linecap:round; stroke-linejoin:round; stroke-width:4; stroke-opacity:1; fill:none" points="1469.55,322.316 1615.01,322.316 "/>
<path clip-path="url(#clip500)" d="M1661.5 306.17 L1661.5 310.73 Q1658.84 309.457 1656.48 308.832 Q1654.12 308.207 1651.92 308.207 Q1648.1 308.207 1646.02 309.688 Q1643.96 311.17 1643.96 313.901 Q1643.96 316.193 1645.32 317.374 Q1646.71 318.531 1650.55 319.249 L1653.38 319.827 Q1658.61 320.823 1661.09 323.346 Q1663.59 325.846 1663.59 330.059 Q1663.59 335.082 1660.21 337.674 Q1656.85 340.267 1650.35 340.267 Q1647.89 340.267 1645.11 339.711 Q1642.36 339.156 1639.4 338.068 L1639.4 333.253 Q1642.24 334.85 1644.98 335.661 Q1647.71 336.471 1650.35 336.471 Q1654.35 336.471 1656.53 334.897 Q1658.7 333.323 1658.7 330.406 Q1658.7 327.86 1657.13 326.424 Q1655.58 324.989 1652.01 324.272 L1649.17 323.716 Q1643.93 322.675 1641.6 320.452 Q1639.26 318.23 1639.26 314.272 Q1639.26 309.688 1642.48 307.05 Q1645.72 304.411 1651.39 304.411 Q1653.82 304.411 1656.34 304.851 Q1658.86 305.29 1661.5 306.17 Z" fill="#000000" fill-rule="nonzero" fill-opacity="1" /><path clip-path="url(#clip500)" d="M1674.91 306.309 L1674.91 313.67 L1683.68 313.67 L1683.68 316.98 L1674.91 316.98 L1674.91 331.054 Q1674.91 334.225 1675.76 335.128 Q1676.64 336.031 1679.3 336.031 L1683.68 336.031 L1683.68 339.596 L1679.3 339.596 Q1674.37 339.596 1672.5 337.767 Q1670.62 335.915 1670.62 331.054 L1670.62 316.98 L1667.5 316.98 L1667.5 313.67 L1670.62 313.67 L1670.62 306.309 L1674.91 306.309 Z" fill="#000000" fill-rule="nonzero" fill-opacity="1" /><path clip-path="url(#clip500)" d="M1711.46 325.568 L1711.46 327.651 L1691.87 327.651 Q1692.15 332.049 1694.51 334.364 Q1696.9 336.656 1701.13 336.656 Q1703.59 336.656 1705.88 336.054 Q1708.19 335.452 1710.46 334.249 L1710.46 338.276 Q1708.17 339.248 1705.76 339.758 Q1703.36 340.267 1700.88 340.267 Q1694.67 340.267 1691.04 336.656 Q1687.43 333.045 1687.43 326.887 Q1687.43 320.522 1690.86 316.795 Q1694.3 313.045 1700.14 313.045 Q1705.37 313.045 1708.4 316.425 Q1711.46 319.781 1711.46 325.568 M1707.2 324.318 Q1707.15 320.823 1705.23 318.739 Q1703.33 316.656 1700.18 316.656 Q1696.62 316.656 1694.47 318.67 Q1692.34 320.684 1692.01 324.341 L1707.2 324.318 Z" fill="#000000" fill-rule="nonzero" fill-opacity="1" /><path clip-path="url(#clip500)" d="M1730.23 326.563 Q1725.07 326.563 1723.08 327.744 Q1721.09 328.924 1721.09 331.772 Q1721.09 334.04 1722.57 335.383 Q1724.07 336.702 1726.64 336.702 Q1730.18 336.702 1732.31 334.202 Q1734.47 331.679 1734.47 327.512 L1734.47 326.563 L1730.23 326.563 M1738.73 324.804 L1738.73 339.596 L1734.47 339.596 L1734.47 335.661 Q1733.01 338.022 1730.83 339.156 Q1728.66 340.267 1725.51 340.267 Q1721.53 340.267 1719.17 338.045 Q1716.83 335.799 1716.83 332.049 Q1716.83 327.674 1719.74 325.452 Q1722.68 323.23 1728.49 323.23 L1734.47 323.23 L1734.47 322.813 Q1734.47 319.874 1732.52 318.276 Q1730.6 316.656 1727.1 316.656 Q1724.88 316.656 1722.78 317.188 Q1720.67 317.721 1718.73 318.786 L1718.73 314.85 Q1721.06 313.948 1723.26 313.508 Q1725.46 313.045 1727.54 313.045 Q1733.17 313.045 1735.95 315.962 Q1738.73 318.878 1738.73 324.804 Z" fill="#000000" fill-rule="nonzero" fill-opacity="1" /><path clip-path="url(#clip500)" d="M1764.56 317.605 L1764.56 303.577 L1768.82 303.577 L1768.82 339.596 L1764.56 339.596 L1764.56 335.707 Q1763.22 338.022 1761.16 339.156 Q1759.12 340.267 1756.25 340.267 Q1751.55 340.267 1748.59 336.517 Q1745.65 332.767 1745.65 326.656 Q1745.65 320.545 1748.59 316.795 Q1751.55 313.045 1756.25 313.045 Q1759.12 313.045 1761.16 314.179 Q1763.22 315.29 1764.56 317.605 M1750.04 326.656 Q1750.04 331.355 1751.97 334.04 Q1753.91 336.702 1757.29 336.702 Q1760.67 336.702 1762.61 334.04 Q1764.56 331.355 1764.56 326.656 Q1764.56 321.957 1762.61 319.295 Q1760.67 316.61 1757.29 316.61 Q1753.91 316.61 1751.97 319.295 Q1750.04 321.957 1750.04 326.656 Z" fill="#000000" fill-rule="nonzero" fill-opacity="1" /><path clip-path="url(#clip500)" d="M1788.38 342.003 Q1786.57 346.633 1784.86 348.045 Q1783.15 349.457 1780.28 349.457 L1776.87 349.457 L1776.87 345.892 L1779.37 345.892 Q1781.13 345.892 1782.1 345.059 Q1783.08 344.225 1784.26 341.123 L1785.02 339.179 L1774.54 313.67 L1779.05 313.67 L1787.15 333.948 L1795.25 313.67 L1799.77 313.67 L1788.38 342.003 Z" fill="#000000" fill-rule="nonzero" fill-opacity="1" /><path clip-path="url(#clip500)" d="M1802.66 324.712 L1815.14 324.712 L1815.14 328.508 L1802.66 328.508 L1802.66 324.712 Z" fill="#000000" fill-rule="nonzero" fill-opacity="1" /><path clip-path="url(#clip500)" d="M1842.82 306.17 L1842.82 310.73 Q1840.16 309.457 1837.8 308.832 Q1835.44 308.207 1833.24 308.207 Q1829.42 308.207 1827.34 309.688 Q1825.28 311.17 1825.28 313.901 Q1825.28 316.193 1826.64 317.374 Q1828.03 318.531 1831.87 319.249 L1834.7 319.827 Q1839.93 320.823 1842.41 323.346 Q1844.91 325.846 1844.91 330.059 Q1844.91 335.082 1841.53 337.674 Q1838.17 340.267 1831.66 340.267 Q1829.21 340.267 1826.43 339.711 Q1823.68 339.156 1820.72 338.068 L1820.72 333.253 Q1823.56 334.85 1826.29 335.661 Q1829.03 336.471 1831.66 336.471 Q1835.67 336.471 1837.85 334.897 Q1840.02 333.323 1840.02 330.406 Q1840.02 327.86 1838.45 326.424 Q1836.9 324.989 1833.33 324.272 L1830.48 323.716 Q1825.25 322.675 1822.91 320.452 Q1820.58 318.23 1820.58 314.272 Q1820.58 309.688 1823.79 307.05 Q1827.03 304.411 1832.71 304.411 Q1835.14 304.411 1837.66 304.851 Q1840.18 305.29 1842.82 306.17 Z" fill="#000000" fill-rule="nonzero" fill-opacity="1" /><path clip-path="url(#clip500)" d="M1856.22 306.309 L1856.22 313.67 L1865 313.67 L1865 316.98 L1856.22 316.98 L1856.22 331.054 Q1856.22 334.225 1857.08 335.128 Q1857.96 336.031 1860.62 336.031 L1865 336.031 L1865 339.596 L1860.62 339.596 Q1855.69 339.596 1853.82 337.767 Q1851.94 335.915 1851.94 331.054 L1851.94 316.98 L1848.82 316.98 L1848.82 313.67 L1851.94 313.67 L1851.94 306.309 L1856.22 306.309 Z" fill="#000000" fill-rule="nonzero" fill-opacity="1" /><path clip-path="url(#clip500)" d="M1882.38 326.563 Q1877.22 326.563 1875.23 327.744 Q1873.24 328.924 1873.24 331.772 Q1873.24 334.04 1874.72 335.383 Q1876.22 336.702 1878.79 336.702 Q1882.34 336.702 1884.47 334.202 Q1886.62 331.679 1886.62 327.512 L1886.62 326.563 L1882.38 326.563 M1890.88 324.804 L1890.88 339.596 L1886.62 339.596 L1886.62 335.661 Q1885.16 338.022 1882.98 339.156 Q1880.81 340.267 1877.66 340.267 Q1873.68 340.267 1871.32 338.045 Q1868.98 335.799 1868.98 332.049 Q1868.98 327.674 1871.9 325.452 Q1874.84 323.23 1880.65 323.23 L1886.62 323.23 L1886.62 322.813 Q1886.62 319.874 1884.67 318.276 Q1882.75 316.656 1879.26 316.656 Q1877.03 316.656 1874.93 317.188 Q1872.82 317.721 1870.88 318.786 L1870.88 314.85 Q1873.22 313.948 1875.41 313.508 Q1877.61 313.045 1879.7 313.045 Q1885.32 313.045 1888.1 315.962 Q1890.88 318.878 1890.88 324.804 Z" fill="#000000" fill-rule="nonzero" fill-opacity="1" /><path clip-path="url(#clip500)" d="M1903.86 306.309 L1903.86 313.67 L1912.64 313.67 L1912.64 316.98 L1903.86 316.98 L1903.86 331.054 Q1903.86 334.225 1904.72 335.128 Q1905.6 336.031 1908.26 336.031 L1912.64 336.031 L1912.64 339.596 L1908.26 339.596 Q1903.33 339.596 1901.46 337.767 Q1899.58 335.915 1899.58 331.054 L1899.58 316.98 L1896.46 316.98 L1896.46 313.67 L1899.58 313.67 L1899.58 306.309 L1903.86 306.309 Z" fill="#000000" fill-rule="nonzero" fill-opacity="1" /><path clip-path="url(#clip500)" d="M1940.41 325.568 L1940.41 327.651 L1920.83 327.651 Q1921.11 332.049 1923.47 334.364 Q1925.85 336.656 1930.09 336.656 Q1932.54 336.656 1934.84 336.054 Q1937.15 335.452 1939.42 334.249 L1939.42 338.276 Q1937.13 339.248 1934.72 339.758 Q1932.31 340.267 1929.84 340.267 Q1923.63 340.267 1920 336.656 Q1916.39 333.045 1916.39 326.887 Q1916.39 320.522 1919.81 316.795 Q1923.26 313.045 1929.09 313.045 Q1934.33 313.045 1937.36 316.425 Q1940.41 319.781 1940.41 325.568 M1936.15 324.318 Q1936.11 320.823 1934.19 318.739 Q1932.29 316.656 1929.14 316.656 Q1925.58 316.656 1923.42 318.67 Q1921.29 320.684 1920.97 324.341 L1936.15 324.318 Z" fill="#000000" fill-rule="nonzero" fill-opacity="1" /><path clip-path="url(#clip500)" d="M1957.87 305.036 L1987.1 305.036 L1987.1 308.971 L1974.84 308.971 L1974.84 339.596 L1970.14 339.596 L1970.14 308.971 L1957.87 308.971 L1957.87 305.036 Z" fill="#000000" fill-rule="nonzero" fill-opacity="1" /><path clip-path="url(#clip500)" d="M2005.55 325.568 L2005.55 327.651 L1985.97 327.651 Q1986.25 332.049 1988.61 334.364 Q1990.99 336.656 1995.23 336.656 Q1997.68 336.656 1999.97 336.054 Q2002.29 335.452 2004.56 334.249 L2004.56 338.276 Q2002.27 339.248 1999.86 339.758 Q1997.45 340.267 1994.97 340.267 Q1988.77 340.267 1985.14 336.656 Q1981.52 333.045 1981.52 326.887 Q1981.52 320.522 1984.95 316.795 Q1988.4 313.045 1994.23 313.045 Q1999.46 313.045 2002.5 316.425 Q2005.55 319.781 2005.55 325.568 M2001.29 324.318 Q2001.25 320.823 1999.33 318.739 Q1997.43 316.656 1994.28 316.656 Q1990.71 316.656 1988.56 318.67 Q1986.43 320.684 1986.11 324.341 L2001.29 324.318 Z" fill="#000000" fill-rule="nonzero" fill-opacity="1" /><path clip-path="url(#clip500)" d="M2032.73 318.647 Q2034.33 315.776 2036.55 314.411 Q2038.77 313.045 2041.78 313.045 Q2045.83 313.045 2048.03 315.892 Q2050.23 318.716 2050.23 323.948 L2050.23 339.596 L2045.95 339.596 L2045.95 324.087 Q2045.95 320.36 2044.63 318.554 Q2043.31 316.749 2040.6 316.749 Q2037.29 316.749 2035.37 318.948 Q2033.45 321.147 2033.45 324.943 L2033.45 339.596 L2029.16 339.596 L2029.16 324.087 Q2029.16 320.337 2027.84 318.554 Q2026.52 316.749 2023.77 316.749 Q2020.51 316.749 2018.58 318.971 Q2016.66 321.17 2016.66 324.943 L2016.66 339.596 L2012.38 339.596 L2012.38 313.67 L2016.66 313.67 L2016.66 317.698 Q2018.12 315.313 2020.16 314.179 Q2022.2 313.045 2025 313.045 Q2027.82 313.045 2029.79 314.48 Q2031.78 315.915 2032.73 318.647 Z" fill="#000000" fill-rule="nonzero" fill-opacity="1" /><path clip-path="url(#clip500)" d="M2062.84 335.707 L2062.84 349.457 L2058.56 349.457 L2058.56 313.67 L2062.84 313.67 L2062.84 317.605 Q2064.19 315.29 2066.22 314.179 Q2068.28 313.045 2071.13 313.045 Q2075.85 313.045 2078.79 316.795 Q2081.76 320.545 2081.76 326.656 Q2081.76 332.767 2078.79 336.517 Q2075.85 340.267 2071.13 340.267 Q2068.28 340.267 2066.22 339.156 Q2064.19 338.022 2062.84 335.707 M2077.33 326.656 Q2077.33 321.957 2075.39 319.295 Q2073.47 316.61 2070.09 316.61 Q2066.71 316.61 2064.77 319.295 Q2062.84 321.957 2062.84 326.656 Q2062.84 331.355 2064.77 334.04 Q2066.71 336.702 2070.09 336.702 Q2073.47 336.702 2075.39 334.04 Q2077.33 331.355 2077.33 326.656 Z" fill="#000000" fill-rule="nonzero" fill-opacity="1" /><path clip-path="url(#clip500)" d="M2110.99 325.568 L2110.99 327.651 L2091.41 327.651 Q2091.69 332.049 2094.05 334.364 Q2096.43 336.656 2100.67 336.656 Q2103.12 336.656 2105.41 336.054 Q2107.73 335.452 2110 334.249 L2110 338.276 Q2107.7 339.248 2105.3 339.758 Q2102.89 340.267 2100.41 340.267 Q2094.21 340.267 2090.58 336.656 Q2086.96 333.045 2086.96 326.887 Q2086.96 320.522 2090.39 316.795 Q2093.84 313.045 2099.67 313.045 Q2104.9 313.045 2107.94 316.425 Q2110.99 319.781 2110.99 325.568 M2106.73 324.318 Q2106.69 320.823 2104.76 318.739 Q2102.87 316.656 2099.72 316.656 Q2096.15 316.656 2094 318.67 Q2091.87 320.684 2091.55 324.341 L2106.73 324.318 Z" fill="#000000" fill-rule="nonzero" fill-opacity="1" /><path clip-path="url(#clip500)" d="M2133.01 317.651 Q2132.29 317.235 2131.43 317.05 Q2130.6 316.841 2129.58 316.841 Q2125.97 316.841 2124.02 319.202 Q2122.1 321.54 2122.1 325.938 L2122.1 339.596 L2117.82 339.596 L2117.82 313.67 L2122.1 313.67 L2122.1 317.698 Q2123.45 315.337 2125.6 314.202 Q2127.75 313.045 2130.83 313.045 Q2131.27 313.045 2131.8 313.114 Q2132.33 313.161 2132.98 313.276 L2133.01 317.651 Z" fill="#000000" fill-rule="nonzero" fill-opacity="1" /><path clip-path="url(#clip500)" d="M2149.26 326.563 Q2144.09 326.563 2142.1 327.744 Q2140.11 328.924 2140.11 331.772 Q2140.11 334.04 2141.59 335.383 Q2143.1 336.702 2145.67 336.702 Q2149.21 336.702 2151.34 334.202 Q2153.49 331.679 2153.49 327.512 L2153.49 326.563 L2149.26 326.563 M2157.75 324.804 L2157.75 339.596 L2153.49 339.596 L2153.49 335.661 Q2152.03 338.022 2149.86 339.156 Q2147.68 340.267 2144.53 340.267 Q2140.55 340.267 2138.19 338.045 Q2135.85 335.799 2135.85 332.049 Q2135.85 327.674 2138.77 325.452 Q2141.71 323.23 2147.52 323.23 L2153.49 323.23 L2153.49 322.813 Q2153.49 319.874 2151.55 318.276 Q2149.63 316.656 2146.13 316.656 Q2143.91 316.656 2141.8 317.188 Q2139.7 317.721 2137.75 318.786 L2137.75 314.85 Q2140.09 313.948 2142.29 313.508 Q2144.49 313.045 2146.57 313.045 Q2152.2 313.045 2154.97 315.962 Q2157.75 318.878 2157.75 324.804 Z" fill="#000000" fill-rule="nonzero" fill-opacity="1" /><path clip-path="url(#clip500)" d="M2170.74 306.309 L2170.74 313.67 L2179.51 313.67 L2179.51 316.98 L2170.74 316.98 L2170.74 331.054 Q2170.74 334.225 2171.59 335.128 Q2172.47 336.031 2175.13 336.031 L2179.51 336.031 L2179.51 339.596 L2175.13 339.596 Q2170.2 339.596 2168.33 337.767 Q2166.45 335.915 2166.45 331.054 L2166.45 316.98 L2163.33 316.98 L2163.33 313.67 L2166.45 313.67 L2166.45 306.309 L2170.74 306.309 Z" fill="#000000" fill-rule="nonzero" fill-opacity="1" /><path clip-path="url(#clip500)" d="M2184.67 329.364 L2184.67 313.67 L2188.93 313.67 L2188.93 329.202 Q2188.93 332.883 2190.37 334.735 Q2191.8 336.563 2194.67 336.563 Q2198.12 336.563 2200.11 334.364 Q2202.13 332.165 2202.13 328.369 L2202.13 313.67 L2206.38 313.67 L2206.38 339.596 L2202.13 339.596 L2202.13 335.614 Q2200.57 337.975 2198.51 339.133 Q2196.48 340.267 2193.77 340.267 Q2189.3 340.267 2186.99 337.489 Q2184.67 334.711 2184.67 329.364 M2195.39 313.045 L2195.39 313.045 Z" fill="#000000" fill-rule="nonzero" fill-opacity="1" /><path clip-path="url(#clip500)" d="M2230.18 317.651 Q2229.46 317.235 2228.61 317.05 Q2227.77 316.841 2226.76 316.841 Q2223.14 316.841 2221.2 319.202 Q2219.28 321.54 2219.28 325.938 L2219.28 339.596 L2215 339.596 L2215 313.67 L2219.28 313.67 L2219.28 317.698 Q2220.62 315.337 2222.77 314.202 Q2224.93 313.045 2228.01 313.045 Q2228.44 313.045 2228.98 313.114 Q2229.51 313.161 2230.16 313.276 L2230.18 317.651 Z" fill="#000000" fill-rule="nonzero" fill-opacity="1" /><path clip-path="url(#clip500)" d="M2255.78 325.568 L2255.78 327.651 L2236.2 327.651 Q2236.48 332.049 2238.84 334.364 Q2241.22 336.656 2245.46 336.656 Q2247.91 336.656 2250.2 336.054 Q2252.52 335.452 2254.79 334.249 L2254.79 338.276 Q2252.5 339.248 2250.09 339.758 Q2247.68 340.267 2245.2 340.267 Q2239 340.267 2235.37 336.656 Q2231.75 333.045 2231.75 326.887 Q2231.75 320.522 2235.18 316.795 Q2238.63 313.045 2244.46 313.045 Q2249.69 313.045 2252.73 316.425 Q2255.78 319.781 2255.78 325.568 M2251.52 324.318 Q2251.48 320.823 2249.56 318.739 Q2247.66 316.656 2244.51 316.656 Q2240.94 316.656 2238.79 318.67 Q2236.66 320.684 2236.34 324.341 L2251.52 324.318 Z" fill="#000000" fill-rule="nonzero" fill-opacity="1" /></svg>
