<?xml version="1.0" encoding="utf-8"?>
<svg xmlns="http://www.w3.org/2000/svg" xmlns:xlink="http://www.w3.org/1999/xlink" width="600" height="400" viewBox="0 0 2400 1600">
<defs>
  <clipPath id="clip140">
    <rect x="0" y="0" width="2400" height="1600"/>
  </clipPath>
</defs>
<path clip-path="url(#clip140)" d="M0 1600 L2400 1600 L2400 0 L0 0  Z" fill="#ffffff" fill-rule="evenodd" fill-opacity="1"/>
<defs>
  <clipPath id="clip141">
    <rect x="480" y="0" width="1681" height="1600"/>
  </clipPath>
</defs>
<path clip-path="url(#clip140)" d="M432.029 1423.18 L2352.76 1423.18 L2352.76 123.472 L432.029 123.472  Z" fill="#ffffff" fill-rule="evenodd" fill-opacity="1"/>
<defs>
  <clipPath id="clip142">
    <rect x="432" y="123" width="1922" height="1301"/>
  </clipPath>
</defs>
<polyline clip-path="url(#clip142)" style="stroke:#000000; stroke-linecap:round; stroke-linejoin:round; stroke-width:2; stroke-opacity:0.1; fill:none" points="486.39,1423.18 486.39,123.472 "/>
<polyline clip-path="url(#clip142)" style="stroke:#000000; stroke-linecap:round; stroke-linejoin:round; stroke-width:2; stroke-opacity:0.1; fill:none" points="939.391,1423.18 939.391,123.472 "/>
<polyline clip-path="url(#clip142)" style="stroke:#000000; stroke-linecap:round; stroke-linejoin:round; stroke-width:2; stroke-opacity:0.1; fill:none" points="1392.39,1423.18 1392.39,123.472 "/>
<polyline clip-path="url(#clip142)" style="stroke:#000000; stroke-linecap:round; stroke-linejoin:round; stroke-width:2; stroke-opacity:0.1; fill:none" points="1845.39,1423.18 1845.39,123.472 "/>
<polyline clip-path="url(#clip142)" style="stroke:#000000; stroke-linecap:round; stroke-linejoin:round; stroke-width:2; stroke-opacity:0.1; fill:none" points="2298.4,1423.18 2298.4,123.472 "/>
<polyline clip-path="url(#clip140)" style="stroke:#000000; stroke-linecap:round; stroke-linejoin:round; stroke-width:4; stroke-opacity:1; fill:none" points="432.029,1423.18 2352.76,1423.18 "/>
<polyline clip-path="url(#clip140)" style="stroke:#000000; stroke-linecap:round; stroke-linejoin:round; stroke-width:4; stroke-opacity:1; fill:none" points="486.39,1423.18 486.39,1404.28 "/>
<polyline clip-path="url(#clip140)" style="stroke:#000000; stroke-linecap:round; stroke-linejoin:round; stroke-width:4; stroke-opacity:1; fill:none" points="939.391,1423.18 939.391,1404.28 "/>
<polyline clip-path="url(#clip140)" style="stroke:#000000; stroke-linecap:round; stroke-linejoin:round; stroke-width:4; stroke-opacity:1; fill:none" points="1392.39,1423.18 1392.39,1404.28 "/>
<polyline clip-path="url(#clip140)" style="stroke:#000000; stroke-linecap:round; stroke-linejoin:round; stroke-width:4; stroke-opacity:1; fill:none" points="1845.39,1423.18 1845.39,1404.28 "/>
<polyline clip-path="url(#clip140)" style="stroke:#000000; stroke-linecap:round; stroke-linejoin:round; stroke-width:4; stroke-opacity:1; fill:none" points="2298.4,1423.18 2298.4,1404.28 "/>
<path clip-path="url(#clip140)" d="M463.774 1454.1 Q460.163 1454.1 458.334 1457.66 Q456.529 1461.2 456.529 1468.33 Q456.529 1475.44 458.334 1479.01 Q460.163 1482.55 463.774 1482.55 Q467.408 1482.55 469.214 1479.01 Q471.043 1475.44 471.043 1468.33 Q471.043 1461.2 469.214 1457.66 Q467.408 1454.1 463.774 1454.1 M463.774 1450.39 Q469.584 1450.39 472.64 1455 Q475.718 1459.58 475.718 1468.33 Q475.718 1477.06 472.64 1481.67 Q469.584 1486.25 463.774 1486.25 Q457.964 1486.25 454.885 1481.67 Q451.83 1477.06 451.83 1468.33 Q451.83 1459.58 454.885 1455 Q457.964 1450.39 463.774 1450.39 Z" fill="#000000" fill-rule="nonzero" fill-opacity="1" /><path clip-path="url(#clip140)" d="M483.936 1479.7 L488.82 1479.7 L488.82 1485.58 L483.936 1485.58 L483.936 1479.7 Z" fill="#000000" fill-rule="nonzero" fill-opacity="1" /><path clip-path="url(#clip140)" d="M509.005 1454.1 Q505.394 1454.1 503.565 1457.66 Q501.76 1461.2 501.76 1468.33 Q501.76 1475.44 503.565 1479.01 Q505.394 1482.55 509.005 1482.55 Q512.64 1482.55 514.445 1479.01 Q516.274 1475.44 516.274 1468.33 Q516.274 1461.2 514.445 1457.66 Q512.64 1454.1 509.005 1454.1 M509.005 1450.39 Q514.815 1450.39 517.871 1455 Q520.95 1459.58 520.95 1468.33 Q520.95 1477.06 517.871 1481.67 Q514.815 1486.25 509.005 1486.25 Q503.195 1486.25 500.116 1481.67 Q497.061 1477.06 497.061 1468.33 Q497.061 1459.58 500.116 1455 Q503.195 1450.39 509.005 1450.39 Z" fill="#000000" fill-rule="nonzero" fill-opacity="1" /><path clip-path="url(#clip140)" d="M911.127 1481.64 L927.447 1481.64 L927.447 1485.58 L905.502 1485.58 L905.502 1481.64 Q908.164 1478.89 912.748 1474.26 Q917.354 1469.61 918.535 1468.27 Q920.78 1465.74 921.66 1464.01 Q922.563 1462.25 922.563 1460.56 Q922.563 1457.8 920.618 1456.07 Q918.697 1454.33 915.595 1454.33 Q913.396 1454.33 910.942 1455.09 Q908.512 1455.86 905.734 1457.41 L905.734 1452.69 Q908.558 1451.55 911.012 1450.97 Q913.465 1450.39 915.502 1450.39 Q920.873 1450.39 924.067 1453.08 Q927.262 1455.77 927.262 1460.26 Q927.262 1462.39 926.451 1464.31 Q925.664 1466.2 923.558 1468.8 Q922.979 1469.47 919.877 1472.69 Q916.776 1475.88 911.127 1481.64 Z" fill="#000000" fill-rule="nonzero" fill-opacity="1" /><path clip-path="url(#clip140)" d="M937.262 1479.7 L942.146 1479.7 L942.146 1485.58 L937.262 1485.58 L937.262 1479.7 Z" fill="#000000" fill-rule="nonzero" fill-opacity="1" /><path clip-path="url(#clip140)" d="M952.377 1451.02 L970.734 1451.02 L970.734 1454.96 L956.66 1454.96 L956.66 1463.43 Q957.678 1463.08 958.697 1462.92 Q959.715 1462.73 960.734 1462.73 Q966.521 1462.73 969.9 1465.9 Q973.28 1469.08 973.28 1474.49 Q973.28 1480.07 969.808 1483.17 Q966.335 1486.25 960.016 1486.25 Q957.84 1486.25 955.572 1485.88 Q953.326 1485.51 950.919 1484.77 L950.919 1480.07 Q953.002 1481.2 955.224 1481.76 Q957.447 1482.32 959.923 1482.32 Q963.928 1482.32 966.266 1480.21 Q968.604 1478.1 968.604 1474.49 Q968.604 1470.88 966.266 1468.77 Q963.928 1466.67 959.923 1466.67 Q958.048 1466.67 956.173 1467.08 Q954.322 1467.5 952.377 1468.38 L952.377 1451.02 Z" fill="#000000" fill-rule="nonzero" fill-opacity="1" /><path clip-path="url(#clip140)" d="M1359.56 1451.02 L1377.91 1451.02 L1377.91 1454.96 L1363.84 1454.96 L1363.84 1463.43 Q1364.86 1463.08 1365.88 1462.92 Q1366.9 1462.73 1367.91 1462.73 Q1373.7 1462.73 1377.08 1465.9 Q1380.46 1469.08 1380.46 1474.49 Q1380.46 1480.07 1376.99 1483.17 Q1373.52 1486.25 1367.2 1486.25 Q1365.02 1486.25 1362.75 1485.88 Q1360.51 1485.51 1358.1 1484.77 L1358.1 1480.07 Q1360.18 1481.2 1362.4 1481.76 Q1364.63 1482.32 1367.1 1482.32 Q1371.11 1482.32 1373.45 1480.21 Q1375.78 1478.1 1375.78 1474.49 Q1375.78 1470.88 1373.45 1468.77 Q1371.11 1466.67 1367.1 1466.67 Q1365.23 1466.67 1363.35 1467.08 Q1361.5 1467.5 1359.56 1468.38 L1359.56 1451.02 Z" fill="#000000" fill-rule="nonzero" fill-opacity="1" /><path clip-path="url(#clip140)" d="M1389.67 1479.7 L1394.56 1479.7 L1394.56 1485.58 L1389.67 1485.58 L1389.67 1479.7 Z" fill="#000000" fill-rule="nonzero" fill-opacity="1" /><path clip-path="url(#clip140)" d="M1414.74 1454.1 Q1411.13 1454.1 1409.3 1457.66 Q1407.5 1461.2 1407.5 1468.33 Q1407.5 1475.44 1409.3 1479.01 Q1411.13 1482.55 1414.74 1482.55 Q1418.38 1482.55 1420.18 1479.01 Q1422.01 1475.44 1422.01 1468.33 Q1422.01 1461.2 1420.18 1457.66 Q1418.38 1454.1 1414.74 1454.1 M1414.74 1450.39 Q1420.55 1450.39 1423.61 1455 Q1426.69 1459.58 1426.69 1468.33 Q1426.69 1477.06 1423.61 1481.67 Q1420.55 1486.25 1414.74 1486.25 Q1408.93 1486.25 1405.85 1481.67 Q1402.8 1477.06 1402.8 1468.33 Q1402.8 1459.58 1405.85 1455 Q1408.93 1450.39 1414.74 1450.39 Z" fill="#000000" fill-rule="nonzero" fill-opacity="1" /><path clip-path="url(#clip140)" d="M1811.71 1451.02 L1833.94 1451.02 L1833.94 1453.01 L1821.39 1485.58 L1816.51 1485.58 L1828.31 1454.96 L1811.71 1454.96 L1811.71 1451.02 Z" fill="#000000" fill-rule="nonzero" fill-opacity="1" /><path clip-path="url(#clip140)" d="M1843.06 1479.7 L1847.94 1479.7 L1847.94 1485.58 L1843.06 1485.58 L1843.06 1479.7 Z" fill="#000000" fill-rule="nonzero" fill-opacity="1" /><path clip-path="url(#clip140)" d="M1858.17 1451.02 L1876.53 1451.02 L1876.53 1454.96 L1862.45 1454.96 L1862.45 1463.43 Q1863.47 1463.08 1864.49 1462.92 Q1865.51 1462.73 1866.53 1462.73 Q1872.32 1462.73 1875.69 1465.9 Q1879.07 1469.08 1879.07 1474.49 Q1879.07 1480.07 1875.6 1483.17 Q1872.13 1486.25 1865.81 1486.25 Q1863.63 1486.25 1861.37 1485.88 Q1859.12 1485.51 1856.71 1484.77 L1856.71 1480.07 Q1858.8 1481.2 1861.02 1481.76 Q1863.24 1482.32 1865.72 1482.32 Q1869.72 1482.32 1872.06 1480.21 Q1874.4 1478.1 1874.4 1474.49 Q1874.4 1470.88 1872.06 1468.77 Q1869.72 1466.67 1865.72 1466.67 Q1863.84 1466.67 1861.97 1467.08 Q1860.12 1467.5 1858.17 1468.38 L1858.17 1451.02 Z" fill="#000000" fill-rule="nonzero" fill-opacity="1" /><path clip-path="url(#clip140)" d="M2250.47 1481.64 L2258.11 1481.64 L2258.11 1455.28 L2249.8 1456.95 L2249.8 1452.69 L2258.06 1451.02 L2262.74 1451.02 L2262.74 1481.64 L2270.38 1481.64 L2270.38 1485.58 L2250.47 1485.58 L2250.47 1481.64 Z" fill="#000000" fill-rule="nonzero" fill-opacity="1" /><path clip-path="url(#clip140)" d="M2289.82 1454.1 Q2286.21 1454.1 2284.38 1457.66 Q2282.57 1461.2 2282.57 1468.33 Q2282.57 1475.44 2284.38 1479.01 Q2286.21 1482.55 2289.82 1482.55 Q2293.45 1482.55 2295.26 1479.01 Q2297.09 1475.44 2297.09 1468.33 Q2297.09 1461.2 2295.26 1457.66 Q2293.45 1454.1 2289.82 1454.1 M2289.82 1450.39 Q2295.63 1450.39 2298.69 1455 Q2301.76 1459.58 2301.76 1468.33 Q2301.76 1477.06 2298.69 1481.67 Q2295.63 1486.25 2289.82 1486.25 Q2284.01 1486.25 2280.93 1481.67 Q2277.88 1477.06 2277.88 1468.33 Q2277.88 1459.58 2280.93 1455 Q2284.01 1450.39 2289.82 1450.39 Z" fill="#000000" fill-rule="nonzero" fill-opacity="1" /><path clip-path="url(#clip140)" d="M2309.98 1479.7 L2314.87 1479.7 L2314.87 1485.58 L2309.98 1485.58 L2309.98 1479.7 Z" fill="#000000" fill-rule="nonzero" fill-opacity="1" /><path clip-path="url(#clip140)" d="M2335.05 1454.1 Q2331.44 1454.1 2329.61 1457.66 Q2327.81 1461.2 2327.81 1468.33 Q2327.81 1475.44 2329.61 1479.01 Q2331.44 1482.55 2335.05 1482.55 Q2338.68 1482.55 2340.49 1479.01 Q2342.32 1475.44 2342.32 1468.33 Q2342.32 1461.2 2340.49 1457.66 Q2338.68 1454.1 2335.05 1454.1 M2335.05 1450.39 Q2340.86 1450.39 2343.92 1455 Q2347 1459.58 2347 1468.33 Q2347 1477.06 2343.92 1481.67 Q2340.86 1486.25 2335.05 1486.25 Q2329.24 1486.25 2326.16 1481.67 Q2323.11 1477.06 2323.11 1468.33 Q2323.11 1459.58 2326.16 1455 Q2329.24 1450.39 2335.05 1450.39 Z" fill="#000000" fill-rule="nonzero" fill-opacity="1" /><path clip-path="url(#clip140)" d="M1279.85 1522.27 L1279.85 1532.4 L1291.91 1532.4 L1291.91 1536.95 L1279.85 1536.95 L1279.85 1556.3 Q1279.85 1560.66 1281.02 1561.9 Q1282.23 1563.14 1285.89 1563.14 L1291.91 1563.14 L1291.91 1568.04 L1285.89 1568.04 Q1279.11 1568.04 1276.54 1565.53 Q1273.96 1562.98 1273.96 1556.3 L1273.96 1536.95 L1269.66 1536.95 L1269.66 1532.4 L1273.96 1532.4 L1273.96 1522.27 L1279.85 1522.27 Z" fill="#000000" fill-rule="nonzero" fill-opacity="1" /><path clip-path="url(#clip140)" d="M1299.61 1532.4 L1305.47 1532.4 L1305.47 1568.04 L1299.61 1568.04 L1299.61 1532.4 M1299.61 1518.52 L1305.47 1518.52 L1305.47 1525.93 L1299.61 1525.93 L1299.61 1518.52 Z" fill="#000000" fill-rule="nonzero" fill-opacity="1" /><path clip-path="url(#clip140)" d="M1345.48 1539.24 Q1347.67 1535.29 1350.73 1533.41 Q1353.78 1531.54 1357.92 1531.54 Q1363.49 1531.54 1366.52 1535.45 Q1369.54 1539.33 1369.54 1546.53 L1369.54 1568.04 L1363.65 1568.04 L1363.65 1546.72 Q1363.65 1541.59 1361.84 1539.11 Q1360.02 1536.63 1356.3 1536.63 Q1351.75 1536.63 1349.11 1539.65 Q1346.46 1542.68 1346.46 1547.9 L1346.46 1568.04 L1340.58 1568.04 L1340.58 1546.72 Q1340.58 1541.56 1338.76 1539.11 Q1336.95 1536.63 1333.16 1536.63 Q1328.67 1536.63 1326.03 1539.68 Q1323.39 1542.71 1323.39 1547.9 L1323.39 1568.04 L1317.5 1568.04 L1317.5 1532.4 L1323.39 1532.4 L1323.39 1537.93 Q1325.39 1534.66 1328.19 1533.1 Q1331 1531.54 1334.85 1531.54 Q1338.73 1531.54 1341.44 1533.51 Q1344.17 1535.48 1345.48 1539.24 Z" fill="#000000" fill-rule="nonzero" fill-opacity="1" /><path clip-path="url(#clip140)" d="M1411.71 1548.76 L1411.71 1551.62 L1384.79 1551.62 Q1385.17 1557.67 1388.41 1560.85 Q1391.69 1564 1397.52 1564 Q1400.89 1564 1404.04 1563.17 Q1407.22 1562.35 1410.34 1560.69 L1410.34 1566.23 Q1407.19 1567.57 1403.88 1568.27 Q1400.57 1568.97 1397.17 1568.97 Q1388.64 1568.97 1383.64 1564 Q1378.67 1559.04 1378.67 1550.57 Q1378.67 1541.82 1383.39 1536.69 Q1388.13 1531.54 1396.15 1531.54 Q1403.34 1531.54 1407.51 1536.18 Q1411.71 1540.8 1411.71 1548.76 M1405.86 1547.04 Q1405.79 1542.23 1403.15 1539.37 Q1400.54 1536.5 1396.21 1536.5 Q1391.31 1536.5 1388.35 1539.27 Q1385.42 1542.04 1384.98 1547.07 L1405.86 1547.04 Z" fill="#000000" fill-rule="nonzero" fill-opacity="1" /><path clip-path="url(#clip140)" d="M1441.5 1518.52 L1455 1518.52 L1455 1523.07 L1447.36 1523.07 L1447.36 1572.09 L1455 1572.09 L1455 1576.64 L1441.5 1576.64 L1441.5 1518.52 Z" fill="#000000" fill-rule="nonzero" fill-opacity="1" /><path clip-path="url(#clip140)" d="M1490.2 1533.45 L1490.2 1538.98 Q1487.72 1537.71 1485.05 1537.07 Q1482.37 1536.44 1479.51 1536.44 Q1475.15 1536.44 1472.95 1537.77 Q1470.79 1539.11 1470.79 1541.79 Q1470.79 1543.82 1472.35 1545 Q1473.91 1546.15 1478.62 1547.2 L1480.62 1547.64 Q1486.86 1548.98 1489.47 1551.43 Q1492.11 1553.85 1492.11 1558.21 Q1492.11 1563.17 1488.16 1566.07 Q1484.25 1568.97 1477.37 1568.97 Q1474.51 1568.97 1471.39 1568.39 Q1468.3 1567.85 1464.87 1566.74 L1464.87 1560.69 Q1468.11 1562.38 1471.26 1563.24 Q1474.41 1564.07 1477.5 1564.07 Q1481.64 1564.07 1483.87 1562.66 Q1486.1 1561.23 1486.1 1558.65 Q1486.1 1556.27 1484.47 1554.99 Q1482.88 1553.72 1477.44 1552.54 L1475.4 1552.07 Q1469.96 1550.92 1467.54 1548.56 Q1465.12 1546.18 1465.12 1542.04 Q1465.12 1537.01 1468.69 1534.27 Q1472.25 1531.54 1478.81 1531.54 Q1482.05 1531.54 1484.92 1532.01 Q1487.78 1532.49 1490.2 1533.45 Z" fill="#000000" fill-rule="nonzero" fill-opacity="1" /><path clip-path="url(#clip140)" d="M1515.12 1518.52 L1515.12 1576.64 L1501.63 1576.64 L1501.63 1572.09 L1509.24 1572.09 L1509.24 1523.07 L1501.63 1523.07 L1501.63 1518.52 L1515.12 1518.52 Z" fill="#000000" fill-rule="nonzero" fill-opacity="1" /><polyline clip-path="url(#clip142)" style="stroke:#000000; stroke-linecap:round; stroke-linejoin:round; stroke-width:2; stroke-opacity:0.1; fill:none" points="432.029,1423.18 2352.76,1423.18 "/>
<polyline clip-path="url(#clip142)" style="stroke:#000000; stroke-linecap:round; stroke-linejoin:round; stroke-width:2; stroke-opacity:0.1; fill:none" points="432.029,1098.25 2352.76,1098.25 "/>
<polyline clip-path="url(#clip142)" style="stroke:#000000; stroke-linecap:round; stroke-linejoin:round; stroke-width:2; stroke-opacity:0.1; fill:none" points="432.029,773.326 2352.76,773.326 "/>
<polyline clip-path="url(#clip142)" style="stroke:#000000; stroke-linecap:round; stroke-linejoin:round; stroke-width:2; stroke-opacity:0.1; fill:none" points="432.029,448.399 2352.76,448.399 "/>
<polyline clip-path="url(#clip142)" style="stroke:#000000; stroke-linecap:round; stroke-linejoin:round; stroke-width:2; stroke-opacity:0.1; fill:none" points="432.029,123.472 2352.76,123.472 "/>
<polyline clip-path="url(#clip140)" style="stroke:#000000; stroke-linecap:round; stroke-linejoin:round; stroke-width:4; stroke-opacity:1; fill:none" points="432.029,1423.18 432.029,123.472 "/>
<polyline clip-path="url(#clip140)" style="stroke:#000000; stroke-linecap:round; stroke-linejoin:round; stroke-width:4; stroke-opacity:1; fill:none" points="432.029,1423.18 450.927,1423.18 "/>
<polyline clip-path="url(#clip140)" style="stroke:#000000; stroke-linecap:round; stroke-linejoin:round; stroke-width:4; stroke-opacity:1; fill:none" points="432.029,1098.25 450.927,1098.25 "/>
<polyline clip-path="url(#clip140)" style="stroke:#000000; stroke-linecap:round; stroke-linejoin:round; stroke-width:4; stroke-opacity:1; fill:none" points="432.029,773.326 450.927,773.326 "/>
<polyline clip-path="url(#clip140)" style="stroke:#000000; stroke-linecap:round; stroke-linejoin:round; stroke-width:4; stroke-opacity:1; fill:none" points="432.029,448.399 450.927,448.399 "/>
<polyline clip-path="url(#clip140)" style="stroke:#000000; stroke-linecap:round; stroke-linejoin:round; stroke-width:4; stroke-opacity:1; fill:none" points="432.029,123.472 450.927,123.472 "/>
<path clip-path="url(#clip140)" d="M115.201 1430.08 L144.876 1430.08 L144.876 1434.01 L115.201 1434.01 L115.201 1430.08 Z" fill="#000000" fill-rule="nonzero" fill-opacity="1" /><path clip-path="url(#clip140)" d="M155.779 1442.97 L163.418 1442.97 L163.418 1416.61 L155.108 1418.27 L155.108 1414.01 L163.372 1412.35 L168.047 1412.35 L168.047 1442.97 L175.686 1442.97 L175.686 1446.91 L155.779 1446.91 L155.779 1442.97 Z" fill="#000000" fill-rule="nonzero" fill-opacity="1" /><path clip-path="url(#clip140)" d="M185.131 1441.03 L190.015 1441.03 L190.015 1446.91 L185.131 1446.91 L185.131 1441.03 Z" fill="#000000" fill-rule="nonzero" fill-opacity="1" /><path clip-path="url(#clip140)" d="M210.2 1415.43 Q206.589 1415.43 204.76 1418.99 Q202.955 1422.53 202.955 1429.66 Q202.955 1436.77 204.76 1440.33 Q206.589 1443.88 210.2 1443.88 Q213.834 1443.88 215.64 1440.33 Q217.469 1436.77 217.469 1429.66 Q217.469 1422.53 215.64 1418.99 Q213.834 1415.43 210.2 1415.43 M210.2 1411.72 Q216.01 1411.72 219.066 1416.33 Q222.144 1420.91 222.144 1429.66 Q222.144 1438.39 219.066 1443 Q216.01 1447.58 210.2 1447.58 Q204.39 1447.58 201.311 1443 Q198.256 1438.39 198.256 1429.66 Q198.256 1420.91 201.311 1416.33 Q204.39 1411.72 210.2 1411.72 Z" fill="#000000" fill-rule="nonzero" fill-opacity="1" /><path clip-path="url(#clip140)" d="M258.533 1421.44 L247.954 1432.07 L258.533 1442.65 L255.778 1445.45 L245.154 1434.82 L234.529 1445.45 L231.797 1442.65 L242.353 1432.07 L231.797 1421.44 L234.529 1418.64 L245.154 1429.27 L255.778 1418.64 L258.533 1421.44 Z" fill="#000000" fill-rule="nonzero" fill-opacity="1" /><path clip-path="url(#clip140)" d="M270.894 1442.97 L278.533 1442.97 L278.533 1416.61 L270.223 1418.27 L270.223 1414.01 L278.487 1412.35 L283.163 1412.35 L283.163 1442.97 L290.801 1442.97 L290.801 1446.91 L270.894 1446.91 L270.894 1442.97 Z" fill="#000000" fill-rule="nonzero" fill-opacity="1" /><path clip-path="url(#clip140)" d="M310.246 1415.43 Q306.635 1415.43 304.806 1418.99 Q303 1422.53 303 1429.66 Q303 1436.77 304.806 1440.33 Q306.635 1443.88 310.246 1443.88 Q313.88 1443.88 315.686 1440.33 Q317.514 1436.77 317.514 1429.66 Q317.514 1422.53 315.686 1418.99 Q313.88 1415.43 310.246 1415.43 M310.246 1411.72 Q316.056 1411.72 319.111 1416.33 Q322.19 1420.91 322.19 1429.66 Q322.19 1438.39 319.111 1443 Q316.056 1447.58 310.246 1447.58 Q304.436 1447.58 301.357 1443 Q298.301 1438.39 298.301 1429.66 Q298.301 1420.91 301.357 1416.33 Q304.436 1411.72 310.246 1411.72 Z" fill="#000000" fill-rule="nonzero" fill-opacity="1" /><path clip-path="url(#clip140)" d="M322.19 1405.82 L346.302 1405.82 L346.302 1409.02 L322.19 1409.02 L322.19 1405.82 Z" fill="#000000" fill-rule="nonzero" fill-opacity="1" /><path clip-path="url(#clip140)" d="M355.16 1416.3 L361.367 1416.3 L361.367 1394.88 L354.615 1396.23 L354.615 1392.77 L361.329 1391.42 L365.128 1391.42 L365.128 1416.3 L371.335 1416.3 L371.335 1419.5 L355.16 1419.5 L355.16 1416.3 Z" fill="#000000" fill-rule="nonzero" fill-opacity="1" /><path clip-path="url(#clip140)" d="M379.046 1391.42 L393.961 1391.42 L393.961 1394.61 L382.526 1394.61 L382.526 1401.5 Q383.353 1401.22 384.181 1401.08 Q385.008 1400.93 385.836 1400.93 Q390.538 1400.93 393.284 1403.51 Q396.029 1406.09 396.029 1410.49 Q396.029 1415.02 393.208 1417.54 Q390.387 1420.04 385.253 1420.04 Q383.485 1420.04 381.642 1419.74 Q379.817 1419.44 377.861 1418.84 L377.861 1415.02 Q379.554 1415.94 381.359 1416.39 Q383.165 1416.85 385.177 1416.85 Q388.431 1416.85 390.331 1415.13 Q392.23 1413.42 392.23 1410.49 Q392.23 1407.55 390.331 1405.84 Q388.431 1404.13 385.177 1404.13 Q383.654 1404.13 382.131 1404.47 Q380.626 1404.81 379.046 1405.52 L379.046 1391.42 Z" fill="#000000" fill-rule="nonzero" fill-opacity="1" /><path clip-path="url(#clip140)" d="M114.26 1105.15 L143.936 1105.15 L143.936 1109.09 L114.26 1109.09 L114.26 1105.15 Z" fill="#000000" fill-rule="nonzero" fill-opacity="1" /><path clip-path="url(#clip140)" d="M154.075 1087.42 L172.431 1087.42 L172.431 1091.36 L158.357 1091.36 L158.357 1099.83 Q159.376 1099.48 160.394 1099.32 Q161.413 1099.13 162.431 1099.13 Q168.218 1099.13 171.598 1102.3 Q174.977 1105.48 174.977 1110.89 Q174.977 1116.47 171.505 1119.57 Q168.033 1122.65 161.714 1122.65 Q159.538 1122.65 157.269 1122.28 Q155.024 1121.91 152.616 1121.17 L152.616 1116.47 Q154.7 1117.61 156.922 1118.16 Q159.144 1118.72 161.621 1118.72 Q165.626 1118.72 167.964 1116.61 Q170.302 1114.5 170.302 1110.89 Q170.302 1107.28 167.964 1105.18 Q165.626 1103.07 161.621 1103.07 Q159.746 1103.07 157.871 1103.49 Q156.019 1103.9 154.075 1104.78 L154.075 1087.42 Z" fill="#000000" fill-rule="nonzero" fill-opacity="1" /><path clip-path="url(#clip140)" d="M184.19 1116.1 L189.075 1116.1 L189.075 1121.98 L184.19 1121.98 L184.19 1116.1 Z" fill="#000000" fill-rule="nonzero" fill-opacity="1" /><path clip-path="url(#clip140)" d="M209.26 1090.5 Q205.649 1090.5 203.82 1094.06 Q202.014 1097.61 202.014 1104.74 Q202.014 1111.84 203.82 1115.41 Q205.649 1118.95 209.26 1118.95 Q212.894 1118.95 214.699 1115.41 Q216.528 1111.84 216.528 1104.74 Q216.528 1097.61 214.699 1094.06 Q212.894 1090.5 209.26 1090.5 M209.26 1086.8 Q215.07 1086.8 218.125 1091.4 Q221.204 1095.99 221.204 1104.74 Q221.204 1113.46 218.125 1118.07 Q215.07 1122.65 209.26 1122.65 Q203.449 1122.65 200.371 1118.07 Q197.315 1113.46 197.315 1104.74 Q197.315 1095.99 200.371 1091.4 Q203.449 1086.8 209.26 1086.8 Z" fill="#000000" fill-rule="nonzero" fill-opacity="1" /><path clip-path="url(#clip140)" d="M257.593 1096.52 L247.014 1107.14 L257.593 1117.72 L254.838 1120.52 L244.213 1109.9 L233.588 1120.52 L230.857 1117.72 L241.412 1107.14 L230.857 1096.52 L233.588 1093.72 L244.213 1104.34 L254.838 1093.72 L257.593 1096.52 Z" fill="#000000" fill-rule="nonzero" fill-opacity="1" /><path clip-path="url(#clip140)" d="M269.954 1118.05 L277.593 1118.05 L277.593 1091.68 L269.282 1093.35 L269.282 1089.09 L277.546 1087.42 L282.222 1087.42 L282.222 1118.05 L289.861 1118.05 L289.861 1121.98 L269.954 1121.98 L269.954 1118.05 Z" fill="#000000" fill-rule="nonzero" fill-opacity="1" /><path clip-path="url(#clip140)" d="M309.305 1090.5 Q305.694 1090.5 303.866 1094.06 Q302.06 1097.61 302.06 1104.74 Q302.06 1111.84 303.866 1115.41 Q305.694 1118.95 309.305 1118.95 Q312.94 1118.95 314.745 1115.41 Q316.574 1111.84 316.574 1104.74 Q316.574 1097.61 314.745 1094.06 Q312.94 1090.5 309.305 1090.5 M309.305 1086.8 Q315.116 1086.8 318.171 1091.4 Q321.25 1095.99 321.25 1104.74 Q321.25 1113.46 318.171 1118.07 Q315.116 1122.65 309.305 1122.65 Q303.495 1122.65 300.417 1118.07 Q297.361 1113.46 297.361 1104.74 Q297.361 1095.99 300.417 1091.4 Q303.495 1086.8 309.305 1086.8 Z" fill="#000000" fill-rule="nonzero" fill-opacity="1" /><path clip-path="url(#clip140)" d="M321.25 1080.9 L345.361 1080.9 L345.361 1084.09 L321.25 1084.09 L321.25 1080.9 Z" fill="#000000" fill-rule="nonzero" fill-opacity="1" /><path clip-path="url(#clip140)" d="M354.22 1091.37 L360.426 1091.37 L360.426 1069.95 L353.674 1071.3 L353.674 1067.84 L360.389 1066.49 L364.188 1066.49 L364.188 1091.37 L370.394 1091.37 L370.394 1094.57 L354.22 1094.57 L354.22 1091.37 Z" fill="#000000" fill-rule="nonzero" fill-opacity="1" /><path clip-path="url(#clip140)" d="M386.663 1079.02 Q384.105 1079.02 382.601 1080.77 Q381.115 1082.51 381.115 1085.56 Q381.115 1088.59 382.601 1090.36 Q384.105 1092.11 386.663 1092.11 Q389.221 1092.11 390.707 1090.36 Q392.212 1088.59 392.212 1085.56 Q392.212 1082.51 390.707 1080.77 Q389.221 1079.02 386.663 1079.02 M394.205 1067.11 L394.205 1070.57 Q392.776 1069.89 391.309 1069.54 Q389.861 1069.18 388.431 1069.18 Q384.67 1069.18 382.676 1071.72 Q380.701 1074.26 380.419 1079.39 Q381.529 1077.76 383.203 1076.89 Q384.876 1076.01 386.889 1076.01 Q391.121 1076.01 393.566 1078.58 Q396.029 1081.14 396.029 1085.56 Q396.029 1089.89 393.472 1092.5 Q390.914 1095.12 386.663 1095.12 Q381.792 1095.12 379.215 1091.39 Q376.639 1087.65 376.639 1080.56 Q376.639 1073.9 379.798 1069.95 Q382.958 1065.98 388.281 1065.98 Q389.71 1065.98 391.158 1066.26 Q392.625 1066.55 394.205 1067.11 Z" fill="#000000" fill-rule="nonzero" fill-opacity="1" /><path clip-path="url(#clip140)" d="M384.085 759.125 Q380.474 759.125 378.645 762.689 Q376.84 766.231 376.84 773.361 Q376.84 780.467 378.645 784.032 Q380.474 787.574 384.085 787.574 Q387.719 787.574 389.525 784.032 Q391.354 780.467 391.354 773.361 Q391.354 766.231 389.525 762.689 Q387.719 759.125 384.085 759.125 M384.085 755.421 Q389.895 755.421 392.951 760.027 Q396.029 764.611 396.029 773.361 Q396.029 782.088 392.951 786.694 Q389.895 791.277 384.085 791.277 Q378.275 791.277 375.196 786.694 Q372.141 782.088 372.141 773.361 Q372.141 764.611 375.196 760.027 Q378.275 755.421 384.085 755.421 Z" fill="#000000" fill-rule="nonzero" fill-opacity="1" /><path clip-path="url(#clip140)" d="M154.075 437.567 L172.431 437.567 L172.431 441.502 L158.357 441.502 L158.357 449.974 Q159.376 449.627 160.394 449.465 Q161.413 449.28 162.431 449.28 Q168.218 449.28 171.598 452.451 Q174.977 455.622 174.977 461.039 Q174.977 466.617 171.505 469.719 Q168.033 472.798 161.714 472.798 Q159.538 472.798 157.269 472.428 Q155.024 472.057 152.616 471.316 L152.616 466.617 Q154.7 467.752 156.922 468.307 Q159.144 468.863 161.621 468.863 Q165.626 468.863 167.964 466.756 Q170.302 464.65 170.302 461.039 Q170.302 457.428 167.964 455.321 Q165.626 453.215 161.621 453.215 Q159.746 453.215 157.871 453.631 Q156.019 454.048 154.075 454.928 L154.075 437.567 Z" fill="#000000" fill-rule="nonzero" fill-opacity="1" /><path clip-path="url(#clip140)" d="M184.19 466.247 L189.075 466.247 L189.075 472.127 L184.19 472.127 L184.19 466.247 Z" fill="#000000" fill-rule="nonzero" fill-opacity="1" /><path clip-path="url(#clip140)" d="M209.26 440.645 Q205.649 440.645 203.82 444.21 Q202.014 447.752 202.014 454.881 Q202.014 461.988 203.82 465.553 Q205.649 469.094 209.26 469.094 Q212.894 469.094 214.699 465.553 Q216.528 461.988 216.528 454.881 Q216.528 447.752 214.699 444.21 Q212.894 440.645 209.26 440.645 M209.26 436.942 Q215.07 436.942 218.125 441.548 Q221.204 446.131 221.204 454.881 Q221.204 463.608 218.125 468.215 Q215.07 472.798 209.26 472.798 Q203.449 472.798 200.371 468.215 Q197.315 463.608 197.315 454.881 Q197.315 446.131 200.371 441.548 Q203.449 436.942 209.26 436.942 Z" fill="#000000" fill-rule="nonzero" fill-opacity="1" /><path clip-path="url(#clip140)" d="M257.593 446.664 L247.014 457.289 L257.593 467.867 L254.838 470.668 L244.213 460.043 L233.588 470.668 L230.857 467.867 L241.412 457.289 L230.857 446.664 L233.588 443.863 L244.213 454.488 L254.838 443.863 L257.593 446.664 Z" fill="#000000" fill-rule="nonzero" fill-opacity="1" /><path clip-path="url(#clip140)" d="M269.954 468.191 L277.593 468.191 L277.593 441.826 L269.282 443.493 L269.282 439.233 L277.546 437.567 L282.222 437.567 L282.222 468.191 L289.861 468.191 L289.861 472.127 L269.954 472.127 L269.954 468.191 Z" fill="#000000" fill-rule="nonzero" fill-opacity="1" /><path clip-path="url(#clip140)" d="M309.305 440.645 Q305.694 440.645 303.866 444.21 Q302.06 447.752 302.06 454.881 Q302.06 461.988 303.866 465.553 Q305.694 469.094 309.305 469.094 Q312.94 469.094 314.745 465.553 Q316.574 461.988 316.574 454.881 Q316.574 447.752 314.745 444.21 Q312.94 440.645 309.305 440.645 M309.305 436.942 Q315.116 436.942 318.171 441.548 Q321.25 446.131 321.25 454.881 Q321.25 463.608 318.171 468.215 Q315.116 472.798 309.305 472.798 Q303.495 472.798 300.417 468.215 Q297.361 463.608 297.361 454.881 Q297.361 446.131 300.417 441.548 Q303.495 436.942 309.305 436.942 Z" fill="#000000" fill-rule="nonzero" fill-opacity="1" /><path clip-path="url(#clip140)" d="M321.25 431.043 L345.361 431.043 L345.361 434.24 L321.25 434.24 L321.25 431.043 Z" fill="#000000" fill-rule="nonzero" fill-opacity="1" /><path clip-path="url(#clip140)" d="M354.22 441.519 L360.426 441.519 L360.426 420.097 L353.674 421.451 L353.674 417.99 L360.389 416.636 L364.188 416.636 L364.188 441.519 L370.394 441.519 L370.394 444.716 L354.22 444.716 L354.22 441.519 Z" fill="#000000" fill-rule="nonzero" fill-opacity="1" /><path clip-path="url(#clip140)" d="M386.663 429.162 Q384.105 429.162 382.601 430.911 Q381.115 432.66 381.115 435.707 Q381.115 438.735 382.601 440.503 Q384.105 442.252 386.663 442.252 Q389.221 442.252 390.707 440.503 Q392.212 438.735 392.212 435.707 Q392.212 432.66 390.707 430.911 Q389.221 429.162 386.663 429.162 M394.205 417.257 L394.205 420.718 Q392.776 420.04 391.309 419.683 Q389.861 419.326 388.431 419.326 Q384.67 419.326 382.676 421.865 Q380.701 424.404 380.419 429.538 Q381.529 427.902 383.203 427.037 Q384.876 426.153 386.889 426.153 Q391.121 426.153 393.566 428.73 Q396.029 431.288 396.029 435.707 Q396.029 440.033 393.472 442.647 Q390.914 445.262 386.663 445.262 Q381.792 445.262 379.215 441.538 Q376.639 437.795 376.639 430.704 Q376.639 424.047 379.798 420.097 Q382.958 416.128 388.281 416.128 Q389.71 416.128 391.158 416.411 Q392.625 416.693 394.205 417.257 Z" fill="#000000" fill-rule="nonzero" fill-opacity="1" /><path clip-path="url(#clip140)" d="M155.779 143.265 L163.418 143.265 L163.418 116.899 L155.108 118.566 L155.108 114.306 L163.372 112.64 L168.047 112.64 L168.047 143.265 L175.686 143.265 L175.686 147.2 L155.779 147.2 L155.779 143.265 Z" fill="#000000" fill-rule="nonzero" fill-opacity="1" /><path clip-path="url(#clip140)" d="M185.131 141.32 L190.015 141.32 L190.015 147.2 L185.131 147.2 L185.131 141.32 Z" fill="#000000" fill-rule="nonzero" fill-opacity="1" /><path clip-path="url(#clip140)" d="M210.2 115.718 Q206.589 115.718 204.76 119.283 Q202.955 122.825 202.955 129.954 Q202.955 137.061 204.76 140.626 Q206.589 144.167 210.2 144.167 Q213.834 144.167 215.64 140.626 Q217.469 137.061 217.469 129.954 Q217.469 122.825 215.64 119.283 Q213.834 115.718 210.2 115.718 M210.2 112.015 Q216.01 112.015 219.066 116.621 Q222.144 121.204 222.144 129.954 Q222.144 138.681 219.066 143.288 Q216.01 147.871 210.2 147.871 Q204.39 147.871 201.311 143.288 Q198.256 138.681 198.256 129.954 Q198.256 121.204 201.311 116.621 Q204.39 112.015 210.2 112.015 Z" fill="#000000" fill-rule="nonzero" fill-opacity="1" /><path clip-path="url(#clip140)" d="M258.533 121.737 L247.954 132.362 L258.533 142.94 L255.778 145.741 L245.154 135.116 L234.529 145.741 L231.797 142.94 L242.353 132.362 L231.797 121.737 L234.529 118.936 L245.154 129.561 L255.778 118.936 L258.533 121.737 Z" fill="#000000" fill-rule="nonzero" fill-opacity="1" /><path clip-path="url(#clip140)" d="M270.894 143.265 L278.533 143.265 L278.533 116.899 L270.223 118.566 L270.223 114.306 L278.487 112.64 L283.163 112.64 L283.163 143.265 L290.801 143.265 L290.801 147.2 L270.894 147.2 L270.894 143.265 Z" fill="#000000" fill-rule="nonzero" fill-opacity="1" /><path clip-path="url(#clip140)" d="M310.246 115.718 Q306.635 115.718 304.806 119.283 Q303 122.825 303 129.954 Q303 137.061 304.806 140.626 Q306.635 144.167 310.246 144.167 Q313.88 144.167 315.686 140.626 Q317.514 137.061 317.514 129.954 Q317.514 122.825 315.686 119.283 Q313.88 115.718 310.246 115.718 M310.246 112.015 Q316.056 112.015 319.111 116.621 Q322.19 121.204 322.19 129.954 Q322.19 138.681 319.111 143.288 Q316.056 147.871 310.246 147.871 Q304.436 147.871 301.357 143.288 Q298.301 138.681 298.301 129.954 Q298.301 121.204 301.357 116.621 Q304.436 112.015 310.246 112.015 Z" fill="#000000" fill-rule="nonzero" fill-opacity="1" /><path clip-path="url(#clip140)" d="M322.19 106.116 L346.302 106.116 L346.302 109.313 L322.19 109.313 L322.19 106.116 Z" fill="#000000" fill-rule="nonzero" fill-opacity="1" /><path clip-path="url(#clip140)" d="M355.16 116.592 L361.367 116.592 L361.367 95.17 L354.615 96.5241 L354.615 93.0635 L361.329 91.7093 L365.128 91.7093 L365.128 116.592 L371.335 116.592 L371.335 119.789 L355.16 119.789 L355.16 116.592 Z" fill="#000000" fill-rule="nonzero" fill-opacity="1" /><path clip-path="url(#clip140)" d="M379.046 91.7093 L393.961 91.7093 L393.961 94.9066 L382.526 94.9066 L382.526 101.79 Q383.353 101.508 384.181 101.377 Q385.008 101.226 385.836 101.226 Q390.538 101.226 393.284 103.803 Q396.029 106.379 396.029 110.78 Q396.029 115.313 393.208 117.833 Q390.387 120.335 385.253 120.335 Q383.485 120.335 381.642 120.034 Q379.817 119.733 377.861 119.131 L377.861 115.313 Q379.554 116.235 381.359 116.686 Q383.165 117.137 385.177 117.137 Q388.431 117.137 390.331 115.426 Q392.23 113.714 392.23 110.78 Q392.23 107.846 390.331 106.135 Q388.431 104.423 385.177 104.423 Q383.654 104.423 382.131 104.762 Q380.626 105.1 379.046 105.815 L379.046 91.7093 Z" fill="#000000" fill-rule="nonzero" fill-opacity="1" /><path clip-path="url(#clip140)" d="M29.4065 1107.18 L34.9447 1107.18 Q33.6716 1109.66 33.035 1112.33 Q32.3984 1115.01 32.3984 1117.87 Q32.3984 1122.23 33.7352 1124.43 Q35.072 1126.59 37.7456 1126.59 Q39.7826 1126.59 40.9603 1125.03 Q42.1061 1123.47 43.1565 1118.76 L43.6021 1116.76 Q44.9389 1110.52 47.3897 1107.91 Q49.8086 1105.27 54.1691 1105.27 Q59.1344 1105.27 62.0308 1109.21 Q64.9272 1113.13 64.9272 1120 Q64.9272 1122.87 64.3543 1125.99 Q63.8132 1129.07 62.6992 1132.51 L56.6518 1132.51 Q58.3387 1129.26 59.198 1126.11 Q60.0256 1122.96 60.0256 1119.88 Q60.0256 1115.74 58.6251 1113.51 Q57.1929 1111.28 54.6147 1111.28 Q52.2276 1111.28 50.9545 1112.9 Q49.6813 1114.5 48.5037 1119.94 L48.0262 1121.98 Q46.8804 1127.42 44.5251 1129.84 Q42.138 1132.26 38.0002 1132.26 Q32.9713 1132.26 30.2341 1128.69 Q27.4968 1125.13 27.4968 1118.57 Q27.4968 1115.32 27.9743 1112.46 Q28.4517 1109.59 29.4065 1107.18 Z" fill="#000000" fill-rule="nonzero" fill-opacity="1" /><path clip-path="url(#clip140)" d="M32.4621 1082.13 Q32.4621 1086.84 36.1542 1089.57 Q39.8145 1092.31 46.212 1092.31 Q52.6095 1092.31 56.3017 1089.61 Q59.9619 1086.87 59.9619 1082.13 Q59.9619 1077.45 56.2698 1074.71 Q52.5777 1071.97 46.212 1071.97 Q39.8781 1071.97 36.186 1074.71 Q32.4621 1077.45 32.4621 1082.13 M27.4968 1082.13 Q27.4968 1074.49 32.4621 1070.13 Q37.4273 1065.77 46.212 1065.77 Q54.9649 1065.77 59.9619 1070.13 Q64.9272 1074.49 64.9272 1082.13 Q64.9272 1089.8 59.9619 1094.16 Q54.9649 1098.49 46.212 1098.49 Q37.4273 1098.49 32.4621 1094.16 Q27.4968 1089.8 27.4968 1082.13 Z" fill="#000000" fill-rule="nonzero" fill-opacity="1" /><path clip-path="url(#clip140)" d="M14.479 1056.06 L14.479 1050.2 L64.0042 1050.2 L64.0042 1056.06 L14.479 1056.06 Z" fill="#000000" fill-rule="nonzero" fill-opacity="1" /><path clip-path="url(#clip140)" d="M28.3562 1042.15 L28.3562 1035.94 L58.275 1024.8 L28.3562 1013.66 L28.3562 1007.46 L64.0042 1020.82 L64.0042 1028.78 L28.3562 1042.15 Z" fill="#000000" fill-rule="nonzero" fill-opacity="1" /><path clip-path="url(#clip140)" d="M14.479 999.913 L14.479 986.418 L19.0304 986.418 L19.0304 994.057 L68.0464 994.057 L68.0464 986.418 L72.5979 986.418 L72.5979 999.913 L14.479 999.913 Z" fill="#000000" fill-rule="nonzero" fill-opacity="1" /><path clip-path="url(#clip140)" d="M46.212 948.351 Q39.7508 948.351 36.0905 951.025 Q32.3984 953.666 32.3984 958.313 Q32.3984 962.96 36.0905 965.634 Q39.7508 968.276 46.212 968.276 Q52.6732 968.276 56.3653 965.634 Q60.0256 962.96 60.0256 958.313 Q60.0256 953.666 56.3653 951.025 Q52.6732 948.351 46.212 948.351 M33.7671 968.276 Q30.5842 966.43 29.0564 963.629 Q27.4968 960.796 27.4968 956.881 Q27.4968 950.388 32.6531 946.346 Q37.8093 942.272 46.212 942.272 Q54.6147 942.272 59.771 946.346 Q64.9272 950.388 64.9272 956.881 Q64.9272 960.796 63.3994 963.629 Q61.8398 966.43 58.657 968.276 L64.0042 968.276 L64.0042 974.164 L14.479 974.164 L14.479 968.276 L33.7671 968.276 Z" fill="#000000" fill-rule="nonzero" fill-opacity="1" /><path clip-path="url(#clip140)" d="M28.3562 936.766 L28.3562 930.559 L58.275 919.419 L28.3562 908.279 L28.3562 902.072 L64.0042 915.44 L64.0042 923.398 L28.3562 936.766 Z" fill="#000000" fill-rule="nonzero" fill-opacity="1" /><path clip-path="url(#clip140)" d="M55.9197 898.221 L55.9197 891.505 L64.0042 891.505 L64.0042 898.221 L55.9197 898.221 Z" fill="#000000" fill-rule="nonzero" fill-opacity="1" /><path clip-path="url(#clip140)" d="M28.3562 882.53 L28.3562 876.323 L58.275 865.183 L28.3562 854.043 L28.3562 847.837 L64.0042 861.205 L64.0042 869.162 L28.3562 882.53 Z" fill="#000000" fill-rule="nonzero" fill-opacity="1" /><path clip-path="url(#clip140)" d="M14.479 826.066 L72.5979 826.066 L72.5979 839.561 L68.0464 839.561 L68.0464 831.954 L19.0304 831.954 L19.0304 839.561 L14.479 839.561 L14.479 826.066 Z" fill="#000000" fill-rule="nonzero" fill-opacity="1" /><path clip-path="url(#clip140)" d="M55.9197 792.773 L55.9197 786.057 L64.0042 786.057 L64.0042 792.773 L55.9197 792.773 Z" fill="#000000" fill-rule="nonzero" fill-opacity="1" /><path clip-path="url(#clip140)" d="M43.5384 775.84 L43.5384 758.685 L48.7583 758.685 L48.7583 775.84 L43.5384 775.84 Z" fill="#000000" fill-rule="nonzero" fill-opacity="1" /><path clip-path="url(#clip140)" d="M29.4065 705.913 L34.9447 705.913 Q33.6716 708.396 33.035 711.069 Q32.3984 713.743 32.3984 716.608 Q32.3984 720.968 33.7352 723.164 Q35.072 725.329 37.7456 725.329 Q39.7826 725.329 40.9603 723.769 Q42.1061 722.209 43.1565 717.499 L43.6021 715.494 Q44.9389 709.255 47.3897 706.645 Q49.8086 704.003 54.1691 704.003 Q59.1344 704.003 62.0308 707.95 Q64.9272 711.865 64.9272 718.74 Q64.9272 721.605 64.3543 724.724 Q63.8132 727.811 62.6992 731.249 L56.6518 731.249 Q58.3387 728.002 59.198 724.851 Q60.0256 721.7 60.0256 718.613 Q60.0256 714.475 58.6251 712.247 Q57.1929 710.019 54.6147 710.019 Q52.2276 710.019 50.9545 711.642 Q49.6813 713.234 48.5037 718.676 L48.0262 720.713 Q46.8804 726.156 44.5251 728.575 Q42.138 730.994 38.0002 730.994 Q32.9713 730.994 30.2341 727.429 Q27.4968 723.864 27.4968 717.308 Q27.4968 714.061 27.9743 711.197 Q28.4517 708.332 29.4065 705.913 Z" fill="#000000" fill-rule="nonzero" fill-opacity="1" /><path clip-path="url(#clip140)" d="M32.4621 680.864 Q32.4621 685.575 36.1542 688.312 Q39.8145 691.049 46.212 691.049 Q52.6095 691.049 56.3017 688.344 Q59.9619 685.607 59.9619 680.864 Q59.9619 676.185 56.2698 673.448 Q52.5777 670.711 46.212 670.711 Q39.8781 670.711 36.186 673.448 Q32.4621 676.185 32.4621 680.864 M27.4968 680.864 Q27.4968 673.225 32.4621 668.865 Q37.4273 664.504 46.212 664.504 Q54.9649 664.504 59.9619 668.865 Q64.9272 673.225 64.9272 680.864 Q64.9272 688.535 59.9619 692.895 Q54.9649 697.224 46.212 697.224 Q37.4273 697.224 32.4621 692.895 Q27.4968 688.535 27.4968 680.864 Z" fill="#000000" fill-rule="nonzero" fill-opacity="1" /><path clip-path="url(#clip140)" d="M14.479 654.797 L14.479 648.94 L64.0042 648.94 L64.0042 654.797 L14.479 654.797 Z" fill="#000000" fill-rule="nonzero" fill-opacity="1" /><path clip-path="url(#clip140)" d="M58.657 631.021 L77.5631 631.021 L77.5631 636.909 L28.3562 636.909 L28.3562 631.021 L33.7671 631.021 Q30.5842 629.175 29.0564 626.374 Q27.4968 623.541 27.4968 619.626 Q27.4968 613.133 32.6531 609.091 Q37.8093 605.017 46.212 605.017 Q54.6147 605.017 59.771 609.091 Q64.9272 613.133 64.9272 619.626 Q64.9272 623.541 63.3994 626.374 Q61.8398 629.175 58.657 631.021 M46.212 611.096 Q39.7508 611.096 36.0905 613.77 Q32.3984 616.411 32.3984 621.058 Q32.3984 625.705 36.0905 628.379 Q39.7508 631.021 46.212 631.021 Q52.6732 631.021 56.3653 628.379 Q60.0256 625.705 60.0256 621.058 Q60.0256 616.411 56.3653 613.77 Q52.6732 611.096 46.212 611.096 Z" fill="#000000" fill-rule="nonzero" fill-opacity="1" /><path clip-path="url(#clip140)" d="M14.479 595.85 L14.479 582.355 L19.0304 582.355 L19.0304 589.994 L68.0464 589.994 L68.0464 582.355 L72.5979 582.355 L72.5979 595.85 L14.479 595.85 Z" fill="#000000" fill-rule="nonzero" fill-opacity="1" /><path clip-path="url(#clip140)" d="M46.212 544.288 Q39.7508 544.288 36.0905 546.961 Q32.3984 549.603 32.3984 554.25 Q32.3984 558.897 36.0905 561.571 Q39.7508 564.213 46.212 564.213 Q52.6732 564.213 56.3653 561.571 Q60.0256 558.897 60.0256 554.25 Q60.0256 549.603 56.3653 546.961 Q52.6732 544.288 46.212 544.288 M33.7671 564.213 Q30.5842 562.366 29.0564 559.566 Q27.4968 556.733 27.4968 552.818 Q27.4968 546.325 32.6531 542.283 Q37.8093 538.209 46.212 538.209 Q54.6147 538.209 59.771 542.283 Q64.9272 546.325 64.9272 552.818 Q64.9272 556.733 63.3994 559.566 Q61.8398 562.366 58.657 564.213 L64.0042 564.213 L64.0042 570.101 L14.479 570.101 L14.479 564.213 L33.7671 564.213 Z" fill="#000000" fill-rule="nonzero" fill-opacity="1" /><path clip-path="url(#clip140)" d="M58.657 522.835 L77.5631 522.835 L77.5631 528.724 L28.3562 528.724 L28.3562 522.835 L33.7671 522.835 Q30.5842 520.989 29.0564 518.188 Q27.4968 515.356 27.4968 511.441 Q27.4968 504.948 32.6531 500.906 Q37.8093 496.832 46.212 496.832 Q54.6147 496.832 59.771 500.906 Q64.9272 504.948 64.9272 511.441 Q64.9272 515.356 63.3994 518.188 Q61.8398 520.989 58.657 522.835 M46.212 502.911 Q39.7508 502.911 36.0905 505.584 Q32.3984 508.226 32.3984 512.873 Q32.3984 517.52 36.0905 520.194 Q39.7508 522.835 46.212 522.835 Q52.6732 522.835 56.3653 520.194 Q60.0256 517.52 60.0256 512.873 Q60.0256 508.226 56.3653 505.584 Q52.6732 502.911 46.212 502.911 Z" fill="#000000" fill-rule="nonzero" fill-opacity="1" /><path clip-path="url(#clip140)" d="M55.9197 486.296 L55.9197 479.58 L64.0042 479.58 L64.0042 486.296 L55.9197 486.296 Z" fill="#000000" fill-rule="nonzero" fill-opacity="1" /><path clip-path="url(#clip140)" d="M28.3562 470.605 L28.3562 464.398 L58.275 453.258 L28.3562 442.118 L28.3562 435.912 L64.0042 449.28 L64.0042 457.237 L28.3562 470.605 Z" fill="#000000" fill-rule="nonzero" fill-opacity="1" /><path clip-path="url(#clip140)" d="M14.479 414.141 L72.5979 414.141 L72.5979 427.636 L68.0464 427.636 L68.0464 420.029 L19.0304 420.029 L19.0304 427.636 L14.479 427.636 L14.479 414.141 Z" fill="#000000" fill-rule="nonzero" fill-opacity="1" /><path clip-path="url(#clip140)" d="M566.089 45.1919 L566.089 72.576 L558.636 72.576 L558.636 45.4349 Q558.636 38.994 556.124 35.7938 Q553.612 32.5936 548.589 32.5936 Q542.553 32.5936 539.07 36.4419 Q535.586 40.2903 535.586 46.9338 L535.586 72.576 L528.092 72.576 L528.092 27.2059 L535.586 27.2059 L535.586 34.2544 Q538.26 30.163 541.865 28.1376 Q545.511 26.1121 550.25 26.1121 Q558.068 26.1121 562.079 30.9732 Q566.089 35.7938 566.089 45.1919 Z" fill="#000000" fill-rule="nonzero" fill-opacity="1" /><path clip-path="url(#clip140)" d="M580.186 54.671 L580.186 27.2059 L587.64 27.2059 L587.64 54.3874 Q587.64 60.8284 590.152 64.0691 Q592.663 67.2693 597.686 67.2693 Q603.722 67.2693 607.206 63.421 Q610.73 59.5726 610.73 52.9291 L610.73 27.2059 L618.184 27.2059 L618.184 72.576 L610.73 72.576 L610.73 65.6084 Q608.016 69.7404 604.411 71.7658 Q600.846 73.7508 596.106 73.7508 Q588.288 73.7508 584.237 68.8897 Q580.186 64.0286 580.186 54.671 M598.942 26.1121 L598.942 26.1121 Z" fill="#000000" fill-rule="nonzero" fill-opacity="1" /><path clip-path="url(#clip140)" d="M668.861 35.9153 Q671.656 30.8922 675.545 28.5022 Q679.434 26.1121 684.7 26.1121 Q691.789 26.1121 695.637 31.0947 Q699.486 36.0368 699.486 45.1919 L699.486 72.576 L691.991 72.576 L691.991 45.4349 Q691.991 38.913 689.682 35.7533 Q687.373 32.5936 682.634 32.5936 Q676.841 32.5936 673.479 36.4419 Q670.116 40.2903 670.116 46.9338 L670.116 72.576 L662.622 72.576 L662.622 45.4349 Q662.622 38.8725 660.313 35.7533 Q658.004 32.5936 653.184 32.5936 Q647.472 32.5936 644.11 36.4824 Q640.747 40.3308 640.747 46.9338 L640.747 72.576 L633.253 72.576 L633.253 27.2059 L640.747 27.2059 L640.747 34.2544 Q643.299 30.082 646.864 28.0971 Q650.429 26.1121 655.331 26.1121 Q660.273 26.1121 663.716 28.6237 Q667.2 31.1352 668.861 35.9153 Z" fill="#000000" fill-rule="nonzero" fill-opacity="1" /><path clip-path="url(#clip140)" d="M753.16 48.0275 L753.16 51.6733 L718.889 51.6733 Q719.375 59.3701 723.507 63.421 Q727.68 67.4314 735.093 67.4314 Q739.387 67.4314 743.397 66.3781 Q747.448 65.3249 751.418 63.2184 L751.418 70.267 Q747.408 71.9684 743.195 72.8596 Q738.982 73.7508 734.647 73.7508 Q723.791 73.7508 717.431 67.4314 Q711.112 61.1119 711.112 50.3365 Q711.112 39.1965 717.107 32.6746 Q723.143 26.1121 733.351 26.1121 Q742.506 26.1121 747.813 32.0264 Q753.16 37.9003 753.16 48.0275 M745.706 45.84 Q745.625 39.7232 742.263 36.0774 Q738.941 32.4315 733.432 32.4315 Q727.194 32.4315 723.426 35.9558 Q719.7 39.4801 719.132 45.8805 L745.706 45.84 Z" fill="#000000" fill-rule="nonzero" fill-opacity="1" /><path clip-path="url(#clip140)" d="M791.684 34.1734 Q790.428 33.4443 788.929 33.1202 Q787.471 32.7556 785.689 32.7556 Q779.369 32.7556 775.967 36.8875 Q772.604 40.9789 772.604 48.6757 L772.604 72.576 L765.11 72.576 L765.11 27.2059 L772.604 27.2059 L772.604 34.2544 Q774.954 30.1225 778.721 28.1376 Q782.489 26.1121 787.876 26.1121 Q788.646 26.1121 789.578 26.2337 Q790.509 26.3147 791.644 26.5172 L791.684 34.1734 Z" fill="#000000" fill-rule="nonzero" fill-opacity="1" /><path clip-path="url(#clip140)" d="M799.502 27.2059 L806.956 27.2059 L806.956 72.576 L799.502 72.576 L799.502 27.2059 M799.502 9.54393 L806.956 9.54393 L806.956 18.9825 L799.502 18.9825 L799.502 9.54393 Z" fill="#000000" fill-rule="nonzero" fill-opacity="1" /><path clip-path="url(#clip140)" d="M855.202 28.9478 L855.202 35.9153 Q852.043 34.1734 848.842 33.3227 Q845.683 32.4315 842.442 32.4315 Q835.191 32.4315 831.18 37.0496 Q827.17 41.6271 827.17 49.9314 Q827.17 58.2358 831.18 62.8538 Q835.191 67.4314 842.442 67.4314 Q845.683 67.4314 848.842 66.5807 Q852.043 65.6895 855.202 63.9476 L855.202 70.8341 Q852.083 72.2924 848.721 73.0216 Q845.399 73.7508 841.632 73.7508 Q831.383 73.7508 825.347 67.3098 Q819.311 60.8689 819.311 49.9314 Q819.311 38.832 825.388 32.472 Q831.504 26.1121 842.118 26.1121 Q845.561 26.1121 848.842 26.8413 Q852.124 27.5299 855.202 28.9478 Z" fill="#000000" fill-rule="nonzero" fill-opacity="1" /><path clip-path="url(#clip140)" d="M888.784 49.7694 Q879.751 49.7694 876.267 51.8354 Q872.783 53.9013 872.783 58.8839 Q872.783 62.8538 875.376 65.2034 Q878.009 67.5124 882.505 67.5124 Q888.703 67.5124 892.43 63.1374 Q896.197 58.7219 896.197 51.4303 L896.197 49.7694 L888.784 49.7694 M903.651 46.6907 L903.651 72.576 L896.197 72.576 L896.197 65.6895 Q893.645 69.8214 889.838 71.8063 Q886.03 73.7508 880.52 73.7508 Q873.553 73.7508 869.421 69.8619 Q865.33 65.9325 865.33 59.3701 Q865.33 51.7138 870.434 47.825 Q875.578 43.9361 885.746 43.9361 L896.197 43.9361 L896.197 43.2069 Q896.197 38.0623 892.795 35.2672 Q889.432 32.4315 883.316 32.4315 Q879.427 32.4315 875.74 33.3632 Q872.054 34.295 868.651 36.1584 L868.651 29.2718 Q872.743 27.692 876.591 26.9223 Q880.439 26.1121 884.085 26.1121 Q893.929 26.1121 898.79 31.2163 Q903.651 36.3204 903.651 46.6907 Z" fill="#000000" fill-rule="nonzero" fill-opacity="1" /><path clip-path="url(#clip140)" d="M919.004 9.54393 L926.458 9.54393 L926.458 72.576 L919.004 72.576 L919.004 9.54393 Z" fill="#000000" fill-rule="nonzero" fill-opacity="1" /><path clip-path="url(#clip140)" d="M998.28 34.0924 L998.28 9.54393 L1005.73 9.54393 L1005.73 72.576 L998.28 72.576 L998.28 65.7705 Q995.931 69.8214 992.325 71.8063 Q988.761 73.7508 983.737 73.7508 Q975.514 73.7508 970.329 67.1883 Q965.184 60.6258 965.184 49.9314 Q965.184 39.2371 970.329 32.6746 Q975.514 26.1121 983.737 26.1121 Q988.761 26.1121 992.325 28.0971 Q995.931 30.0415 998.28 34.0924 M972.881 49.9314 Q972.881 58.1548 976.243 62.8538 Q979.646 67.5124 985.56 67.5124 Q991.475 67.5124 994.877 62.8538 Q998.28 58.1548 998.28 49.9314 Q998.28 41.7081 994.877 37.0496 Q991.475 32.3505 985.56 32.3505 Q979.646 32.3505 976.243 37.0496 Q972.881 41.7081 972.881 49.9314 Z" fill="#000000" fill-rule="nonzero" fill-opacity="1" /><path clip-path="url(#clip140)" d="M1021.09 27.2059 L1028.54 27.2059 L1028.54 72.576 L1021.09 72.576 L1021.09 27.2059 M1021.09 9.54393 L1028.54 9.54393 L1028.54 18.9825 L1021.09 18.9825 L1021.09 9.54393 Z" fill="#000000" fill-rule="nonzero" fill-opacity="1" /><path clip-path="url(#clip140)" d="M1067.11 9.54393 L1067.11 15.7418 L1059.98 15.7418 Q1055.97 15.7418 1054.39 17.3622 Q1052.85 18.9825 1052.85 23.1955 L1052.85 27.2059 L1065.12 27.2059 L1065.12 32.9987 L1052.85 32.9987 L1052.85 72.576 L1045.35 72.576 L1045.35 32.9987 L1038.22 32.9987 L1038.22 27.2059 L1045.35 27.2059 L1045.35 24.0462 Q1045.35 16.471 1048.88 13.0277 Q1052.4 9.54393 1060.06 9.54393 L1067.11 9.54393 Z" fill="#000000" fill-rule="nonzero" fill-opacity="1" /><path clip-path="url(#clip140)" d="M1096.31 9.54393 L1096.31 15.7418 L1089.18 15.7418 Q1085.17 15.7418 1083.59 17.3622 Q1082.05 18.9825 1082.05 23.1955 L1082.05 27.2059 L1094.33 27.2059 L1094.33 32.9987 L1082.05 32.9987 L1082.05 72.576 L1074.56 72.576 L1074.56 32.9987 L1067.43 32.9987 L1067.43 27.2059 L1074.56 27.2059 L1074.56 24.0462 Q1074.56 16.471 1078.08 13.0277 Q1081.61 9.54393 1089.26 9.54393 L1096.31 9.54393 Z" fill="#000000" fill-rule="nonzero" fill-opacity="1" /><path clip-path="url(#clip140)" d="M1141.36 48.0275 L1141.36 51.6733 L1107.09 51.6733 Q1107.57 59.3701 1111.71 63.421 Q1115.88 67.4314 1123.29 67.4314 Q1127.59 67.4314 1131.6 66.3781 Q1135.65 65.3249 1139.62 63.2184 L1139.62 70.267 Q1135.61 71.9684 1131.39 72.8596 Q1127.18 73.7508 1122.85 73.7508 Q1111.99 73.7508 1105.63 67.4314 Q1099.31 61.1119 1099.31 50.3365 Q1099.31 39.1965 1105.31 32.6746 Q1111.34 26.1121 1121.55 26.1121 Q1130.7 26.1121 1136.01 32.0264 Q1141.36 37.9003 1141.36 48.0275 M1133.9 45.84 Q1133.82 39.7232 1130.46 36.0774 Q1127.14 32.4315 1121.63 32.4315 Q1115.39 32.4315 1111.62 35.9558 Q1107.9 39.4801 1107.33 45.8805 L1133.9 45.84 Z" fill="#000000" fill-rule="nonzero" fill-opacity="1" /><path clip-path="url(#clip140)" d="M1179.88 34.1734 Q1178.63 33.4443 1177.13 33.1202 Q1175.67 32.7556 1173.89 32.7556 Q1167.57 32.7556 1164.16 36.8875 Q1160.8 40.9789 1160.8 48.6757 L1160.8 72.576 L1153.31 72.576 L1153.31 27.2059 L1160.8 27.2059 L1160.8 34.2544 Q1163.15 30.1225 1166.92 28.1376 Q1170.69 26.1121 1176.07 26.1121 Q1176.84 26.1121 1177.78 26.2337 Q1178.71 26.3147 1179.84 26.5172 L1179.88 34.1734 Z" fill="#000000" fill-rule="nonzero" fill-opacity="1" /><path clip-path="url(#clip140)" d="M1224.69 48.0275 L1224.69 51.6733 L1190.41 51.6733 Q1190.9 59.3701 1195.03 63.421 Q1199.21 67.4314 1206.62 67.4314 Q1210.91 67.4314 1214.92 66.3781 Q1218.97 65.3249 1222.94 63.2184 L1222.94 70.267 Q1218.93 71.9684 1214.72 72.8596 Q1210.51 73.7508 1206.17 73.7508 Q1195.32 73.7508 1188.96 67.4314 Q1182.64 61.1119 1182.64 50.3365 Q1182.64 39.1965 1188.63 32.6746 Q1194.67 26.1121 1204.88 26.1121 Q1214.03 26.1121 1219.34 32.0264 Q1224.69 37.9003 1224.69 48.0275 M1217.23 45.84 Q1217.15 39.7232 1213.79 36.0774 Q1210.47 32.4315 1204.96 32.4315 Q1198.72 32.4315 1194.95 35.9558 Q1191.22 39.4801 1190.66 45.8805 L1217.23 45.84 Z" fill="#000000" fill-rule="nonzero" fill-opacity="1" /><path clip-path="url(#clip140)" d="M1274.63 45.1919 L1274.63 72.576 L1267.18 72.576 L1267.18 45.4349 Q1267.18 38.994 1264.67 35.7938 Q1262.16 32.5936 1257.13 32.5936 Q1251.1 32.5936 1247.61 36.4419 Q1244.13 40.2903 1244.13 46.9338 L1244.13 72.576 L1236.64 72.576 L1236.64 27.2059 L1244.13 27.2059 L1244.13 34.2544 Q1246.8 30.163 1250.41 28.1376 Q1254.05 26.1121 1258.79 26.1121 Q1266.61 26.1121 1270.62 30.9732 Q1274.63 35.7938 1274.63 45.1919 Z" fill="#000000" fill-rule="nonzero" fill-opacity="1" /><path clip-path="url(#clip140)" d="M1322.15 28.9478 L1322.15 35.9153 Q1318.99 34.1734 1315.79 33.3227 Q1312.63 32.4315 1309.39 32.4315 Q1302.14 32.4315 1298.13 37.0496 Q1294.12 41.6271 1294.12 49.9314 Q1294.12 58.2358 1298.13 62.8538 Q1302.14 67.4314 1309.39 67.4314 Q1312.63 67.4314 1315.79 66.5807 Q1318.99 65.6895 1322.15 63.9476 L1322.15 70.8341 Q1319.03 72.2924 1315.67 73.0216 Q1312.35 73.7508 1308.58 73.7508 Q1298.33 73.7508 1292.29 67.3098 Q1286.26 60.8689 1286.26 49.9314 Q1286.26 38.832 1292.34 32.472 Q1298.45 26.1121 1309.07 26.1121 Q1312.51 26.1121 1315.79 26.8413 Q1319.07 27.5299 1322.15 28.9478 Z" fill="#000000" fill-rule="nonzero" fill-opacity="1" /><path clip-path="url(#clip140)" d="M1373.92 48.0275 L1373.92 51.6733 L1339.65 51.6733 Q1340.14 59.3701 1344.27 63.421 Q1348.44 67.4314 1355.85 67.4314 Q1360.15 67.4314 1364.16 66.3781 Q1368.21 65.3249 1372.18 63.2184 L1372.18 70.267 Q1368.17 71.9684 1363.96 72.8596 Q1359.74 73.7508 1355.41 73.7508 Q1344.55 73.7508 1338.19 67.4314 Q1331.87 61.1119 1331.87 50.3365 Q1331.87 39.1965 1337.87 32.6746 Q1343.9 26.1121 1354.11 26.1121 Q1363.27 26.1121 1368.57 32.0264 Q1373.92 37.9003 1373.92 48.0275 M1366.47 45.84 Q1366.39 39.7232 1363.02 36.0774 Q1359.7 32.4315 1354.19 32.4315 Q1347.95 32.4315 1344.19 35.9558 Q1340.46 39.4801 1339.89 45.8805 L1366.47 45.84 Z" fill="#000000" fill-rule="nonzero" fill-opacity="1" /><path clip-path="url(#clip140)" d="M1388.06 62.2867 L1396.61 62.2867 L1396.61 72.576 L1388.06 72.576 L1388.06 62.2867 M1388.06 29.6769 L1396.61 29.6769 L1396.61 39.9662 L1388.06 39.9662 L1388.06 29.6769 Z" fill="#000000" fill-rule="nonzero" fill-opacity="1" /><path clip-path="url(#clip140)" d="M1435.13 27.2059 L1443.03 27.2059 L1457.21 65.2844 L1471.39 27.2059 L1479.28 27.2059 L1462.27 72.576 L1452.14 72.576 L1435.13 27.2059 Z" fill="#000000" fill-rule="nonzero" fill-opacity="1" /><path clip-path="url(#clip140)" d="M1528.38 48.0275 L1528.38 51.6733 L1494.11 51.6733 Q1494.6 59.3701 1498.73 63.421 Q1502.9 67.4314 1510.31 67.4314 Q1514.61 67.4314 1518.62 66.3781 Q1522.67 65.3249 1526.64 63.2184 L1526.64 70.267 Q1522.63 71.9684 1518.42 72.8596 Q1514.2 73.7508 1509.87 73.7508 Q1499.01 73.7508 1492.65 67.4314 Q1486.33 61.1119 1486.33 50.3365 Q1486.33 39.1965 1492.33 32.6746 Q1498.36 26.1121 1508.57 26.1121 Q1517.73 26.1121 1523.03 32.0264 Q1528.38 37.9003 1528.38 48.0275 M1520.93 45.84 Q1520.85 39.7232 1517.48 36.0774 Q1514.16 32.4315 1508.65 32.4315 Q1502.42 32.4315 1498.65 35.9558 Q1494.92 39.4801 1494.35 45.8805 L1520.93 45.84 Z" fill="#000000" fill-rule="nonzero" fill-opacity="1" /><path clip-path="url(#clip140)" d="M1540.62 9.54393 L1548.07 9.54393 L1548.07 72.576 L1540.62 72.576 L1540.62 9.54393 Z" fill="#000000" fill-rule="nonzero" fill-opacity="1" /><path clip-path="url(#clip140)" d="M1564.72 62.2867 L1573.27 62.2867 L1573.27 72.576 L1564.72 72.576 L1564.72 62.2867 Z" fill="#000000" fill-rule="nonzero" fill-opacity="1" /><path clip-path="url(#clip140)" d="M1611.06 27.2059 L1618.96 27.2059 L1633.14 65.2844 L1647.32 27.2059 L1655.22 27.2059 L1638.2 72.576 L1628.07 72.576 L1611.06 27.2059 Z" fill="#000000" fill-rule="nonzero" fill-opacity="1" /><path clip-path="url(#clip140)" d="M1694.43 28.5427 L1694.43 35.5912 Q1691.27 33.9709 1687.87 33.1607 Q1684.46 32.3505 1680.82 32.3505 Q1675.27 32.3505 1672.47 34.0519 Q1669.72 35.7533 1669.72 39.156 Q1669.72 41.7486 1671.7 43.2475 Q1673.69 44.7058 1679.68 46.0426 L1682.23 46.6097 Q1690.17 48.3111 1693.5 51.4303 Q1696.86 54.509 1696.86 60.0587 Q1696.86 66.3781 1691.84 70.0644 Q1686.85 73.7508 1678.1 73.7508 Q1674.46 73.7508 1670.49 73.0216 Q1666.56 72.3329 1662.18 70.9151 L1662.18 63.2184 Q1666.31 65.3654 1670.33 66.4591 Q1674.34 67.5124 1678.27 67.5124 Q1683.53 67.5124 1686.37 65.73 Q1689.2 63.9071 1689.2 60.6258 Q1689.2 57.5877 1687.14 55.9673 Q1685.11 54.3469 1678.18 52.8481 L1675.59 52.2405 Q1668.66 50.7821 1665.59 47.7845 Q1662.51 44.7463 1662.51 39.4801 Q1662.51 33.0797 1667.04 29.5959 Q1671.58 26.1121 1679.93 26.1121 Q1684.06 26.1121 1687.7 26.7198 Q1691.35 27.3274 1694.43 28.5427 Z" fill="#000000" fill-rule="nonzero" fill-opacity="1" /><path clip-path="url(#clip140)" d="M1709.78 62.2867 L1718.33 62.2867 L1718.33 72.576 L1709.78 72.576 L1709.78 62.2867 Z" fill="#000000" fill-rule="nonzero" fill-opacity="1" /><path clip-path="url(#clip140)" d="M1768.68 65.7705 L1768.68 89.8329 L1761.19 89.8329 L1761.19 27.2059 L1768.68 27.2059 L1768.68 34.0924 Q1771.03 30.0415 1774.6 28.0971 Q1778.2 26.1121 1783.18 26.1121 Q1791.45 26.1121 1796.59 32.6746 Q1801.78 39.2371 1801.78 49.9314 Q1801.78 60.6258 1796.59 67.1883 Q1791.45 73.7508 1783.18 73.7508 Q1778.2 73.7508 1774.6 71.8063 Q1771.03 69.8214 1768.68 65.7705 M1794.04 49.9314 Q1794.04 41.7081 1790.64 37.0496 Q1787.27 32.3505 1781.36 32.3505 Q1775.45 32.3505 1772.04 37.0496 Q1768.68 41.7081 1768.68 49.9314 Q1768.68 58.1548 1772.04 62.8538 Q1775.45 67.5124 1781.36 67.5124 Q1787.27 67.5124 1790.64 62.8538 Q1794.04 58.1548 1794.04 49.9314 Z" fill="#000000" fill-rule="nonzero" fill-opacity="1" /><path clip-path="url(#clip140)" d="M1831.71 32.4315 Q1825.72 32.4315 1822.23 37.1306 Q1818.75 41.7891 1818.75 49.9314 Q1818.75 58.0738 1822.19 62.7728 Q1825.68 67.4314 1831.71 67.4314 Q1837.67 67.4314 1841.15 62.7323 Q1844.64 58.0333 1844.64 49.9314 Q1844.64 41.8701 1841.15 37.1711 Q1837.67 32.4315 1831.71 32.4315 M1831.71 26.1121 Q1841.44 26.1121 1846.99 32.4315 Q1852.53 38.7509 1852.53 49.9314 Q1852.53 61.0714 1846.99 67.4314 Q1841.44 73.7508 1831.71 73.7508 Q1821.95 73.7508 1816.4 67.4314 Q1810.89 61.0714 1810.89 49.9314 Q1810.89 38.7509 1816.4 32.4315 Q1821.95 26.1121 1831.71 26.1121 Z" fill="#000000" fill-rule="nonzero" fill-opacity="1" /><path clip-path="url(#clip140)" d="M1893.81 28.5427 L1893.81 35.5912 Q1890.65 33.9709 1887.25 33.1607 Q1883.85 32.3505 1880.2 32.3505 Q1874.65 32.3505 1871.86 34.0519 Q1869.1 35.7533 1869.1 39.156 Q1869.1 41.7486 1871.09 43.2475 Q1873.07 44.7058 1879.07 46.0426 L1881.62 46.6097 Q1889.56 48.3111 1892.88 51.4303 Q1896.24 54.509 1896.24 60.0587 Q1896.24 66.3781 1891.22 70.0644 Q1886.24 73.7508 1877.49 73.7508 Q1873.84 73.7508 1869.87 73.0216 Q1865.94 72.3329 1861.57 70.9151 L1861.57 63.2184 Q1865.7 65.3654 1869.71 66.4591 Q1873.72 67.5124 1877.65 67.5124 Q1882.92 67.5124 1885.75 65.73 Q1888.59 63.9071 1888.59 60.6258 Q1888.59 57.5877 1886.52 55.9673 Q1884.5 54.3469 1877.57 52.8481 L1874.98 52.2405 Q1868.05 50.7821 1864.97 47.7845 Q1861.89 44.7463 1861.89 39.4801 Q1861.89 33.0797 1866.43 29.5959 Q1870.97 26.1121 1879.31 26.1121 Q1883.44 26.1121 1887.09 26.7198 Q1890.73 27.3274 1893.81 28.5427 Z" fill="#000000" fill-rule="nonzero" fill-opacity="1" /><path clip-path="url(#clip140)" d="M1909.17 62.2867 L1917.71 62.2867 L1917.71 72.576 L1909.17 72.576 L1909.17 62.2867 Z" fill="#000000" fill-rule="nonzero" fill-opacity="1" /><path clip-path="url(#clip140)" d="M1990.71 34.0924 L1990.71 9.54393 L1998.16 9.54393 L1998.16 72.576 L1990.71 72.576 L1990.71 65.7705 Q1988.36 69.8214 1984.76 71.8063 Q1981.19 73.7508 1976.17 73.7508 Q1967.95 73.7508 1962.76 67.1883 Q1957.62 60.6258 1957.62 49.9314 Q1957.62 39.2371 1962.76 32.6746 Q1967.95 26.1121 1976.17 26.1121 Q1981.19 26.1121 1984.76 28.0971 Q1988.36 30.0415 1990.71 34.0924 M1965.31 49.9314 Q1965.31 58.1548 1968.67 62.8538 Q1972.08 67.5124 1977.99 67.5124 Q1983.91 67.5124 1987.31 62.8538 Q1990.71 58.1548 1990.71 49.9314 Q1990.71 41.7081 1987.31 37.0496 Q1983.91 32.3505 1977.99 32.3505 Q1972.08 32.3505 1968.67 37.0496 Q1965.31 41.7081 1965.31 49.9314 Z" fill="#000000" fill-rule="nonzero" fill-opacity="1" /><path clip-path="url(#clip140)" d="M2031.1 32.4315 Q2025.1 32.4315 2021.62 37.1306 Q2018.14 41.7891 2018.14 49.9314 Q2018.14 58.0738 2021.58 62.7728 Q2025.06 67.4314 2031.1 67.4314 Q2037.05 67.4314 2040.54 62.7323 Q2044.02 58.0333 2044.02 49.9314 Q2044.02 41.8701 2040.54 37.1711 Q2037.05 32.4315 2031.1 32.4315 M2031.1 26.1121 Q2040.82 26.1121 2046.37 32.4315 Q2051.92 38.7509 2051.92 49.9314 Q2051.92 61.0714 2046.37 67.4314 Q2040.82 73.7508 2031.1 73.7508 Q2021.34 73.7508 2015.79 67.4314 Q2010.28 61.0714 2010.28 49.9314 Q2010.28 38.7509 2015.79 32.4315 Q2021.34 26.1121 2031.1 26.1121 Z" fill="#000000" fill-rule="nonzero" fill-opacity="1" /><path clip-path="url(#clip140)" d="M2099.6 35.9153 Q2102.39 30.8922 2106.28 28.5022 Q2110.17 26.1121 2115.44 26.1121 Q2122.53 26.1121 2126.38 31.0947 Q2130.22 36.0368 2130.22 45.1919 L2130.22 72.576 L2122.73 72.576 L2122.73 45.4349 Q2122.73 38.913 2120.42 35.7533 Q2118.11 32.5936 2113.37 32.5936 Q2107.58 32.5936 2104.22 36.4419 Q2100.86 40.2903 2100.86 46.9338 L2100.86 72.576 L2093.36 72.576 L2093.36 45.4349 Q2093.36 38.8725 2091.05 35.7533 Q2088.74 32.5936 2083.92 32.5936 Q2078.21 32.5936 2074.85 36.4824 Q2071.49 40.3308 2071.49 46.9338 L2071.49 72.576 L2063.99 72.576 L2063.99 27.2059 L2071.49 27.2059 L2071.49 34.2544 Q2074.04 30.082 2077.6 28.0971 Q2081.17 26.1121 2086.07 26.1121 Q2091.01 26.1121 2094.45 28.6237 Q2097.94 31.1352 2099.6 35.9153 Z" fill="#000000" fill-rule="nonzero" fill-opacity="1" /><path clip-path="url(#clip140)" d="M2165.71 49.7694 Q2156.68 49.7694 2153.19 51.8354 Q2149.71 53.9013 2149.71 58.8839 Q2149.71 62.8538 2152.3 65.2034 Q2154.93 67.5124 2159.43 67.5124 Q2165.63 67.5124 2169.36 63.1374 Q2173.12 58.7219 2173.12 51.4303 L2173.12 49.7694 L2165.71 49.7694 M2180.58 46.6907 L2180.58 72.576 L2173.12 72.576 L2173.12 65.6895 Q2170.57 69.8214 2166.76 71.8063 Q2162.96 73.7508 2157.45 73.7508 Q2150.48 73.7508 2146.35 69.8619 Q2142.26 65.9325 2142.26 59.3701 Q2142.26 51.7138 2147.36 47.825 Q2152.5 43.9361 2162.67 43.9361 L2173.12 43.9361 L2173.12 43.2069 Q2173.12 38.0623 2169.72 35.2672 Q2166.36 32.4315 2160.24 32.4315 Q2156.35 32.4315 2152.67 33.3632 Q2148.98 34.295 2145.58 36.1584 L2145.58 29.2718 Q2149.67 27.692 2153.52 26.9223 Q2157.37 26.1121 2161.01 26.1121 Q2170.85 26.1121 2175.72 31.2163 Q2180.58 36.3204 2180.58 46.6907 Z" fill="#000000" fill-rule="nonzero" fill-opacity="1" /><path clip-path="url(#clip140)" d="M2195.93 27.2059 L2203.38 27.2059 L2203.38 72.576 L2195.93 72.576 L2195.93 27.2059 M2195.93 9.54393 L2203.38 9.54393 L2203.38 18.9825 L2195.93 18.9825 L2195.93 9.54393 Z" fill="#000000" fill-rule="nonzero" fill-opacity="1" /><path clip-path="url(#clip140)" d="M2256.69 45.1919 L2256.69 72.576 L2249.24 72.576 L2249.24 45.4349 Q2249.24 38.994 2246.73 35.7938 Q2244.22 32.5936 2239.19 32.5936 Q2233.16 32.5936 2229.67 36.4419 Q2226.19 40.2903 2226.19 46.9338 L2226.19 72.576 L2218.7 72.576 L2218.7 27.2059 L2226.19 27.2059 L2226.19 34.2544 Q2228.86 30.163 2232.47 28.1376 Q2236.12 26.1121 2240.85 26.1121 Q2248.67 26.1121 2252.68 30.9732 Q2256.69 35.7938 2256.69 45.1919 Z" fill="#000000" fill-rule="nonzero" fill-opacity="1" /><polyline clip-path="url(#clip142)" style="stroke:#009af9; stroke-linecap:round; stroke-linejoin:round; stroke-width:4; stroke-opacity:1; fill:none" points="486.39,773.326 504.51,773.326 522.63,773.326 540.75,629.029 558.87,701.178 576.99,665.104 595.11,614.938 613.23,574.918 631.35,556.881 649.47,520.807 667.59,484.733 685.71,448.659 703.83,412.585 721.95,412.585 740.071,340.436 758.191,340.436 776.311,412.585 794.431,412.585 812.551,412.585 830.671,412.585 848.791,412.585 866.911,412.585 885.031,412.585 903.151,412.585 921.271,412.585 939.391,484.733 957.511,484.733 975.631,484.733 993.751,448.659 1011.87,448.659 1029.99,484.733 1048.11,520.807 1066.23,556.881 1084.35,592.955 1102.47,592.955 1120.59,610.992 1138.71,647.067 1156.83,683.141 1174.95,710.196 1193.07,719.215 1211.19,737.252 1229.31,744.016 1247.43,755.289 1265.55,767.689 1283.67,786.854 1301.79,800.382 1319.91,809.4 1338.03,827.437 1356.15,836.456 1374.27,845.474 1392.39,863.511 1410.51,881.548 1428.63,899.585 1446.75,908.604 1464.87,908.604 1482.99,908.604 1501.11,908.604 1519.23,899.585 1537.35,890.567 1555.47,872.53 1573.59,854.493 1591.71,845.474 1609.83,836.456 1627.95,827.437 1646.07,809.4 1664.19,791.363 1682.31,782.345 1700.43,764.307 1718.55,741.761 1736.67,714.706 1754.79,678.631 1772.91,651.576 1791.03,629.029 1809.15,624.52 1827.27,615.502 1845.39,613.247 1863.51,585.064 1881.63,574.355 1899.75,573.509 1917.87,558.149 1935.99,556.318 1954.11,551.808 1972.23,553.499 1990.35,546.735 2008.47,535.462 2026.59,534.335 2044.71,534.335 2062.83,547.863 2080.95,561.39 2099.08,579.428 2117.2,592.955 2135.32,592.955 2153.44,601.974 2171.56,595.21 2189.68,615.502 2207.8,606.483 2225.92,624.52 2244.04,647.067 2262.16,658.34 2280.28,675.249 2298.4,694.414 "/>
</svg>
