<?xml version="1.0" encoding="utf-8"?>
<svg xmlns="http://www.w3.org/2000/svg" xmlns:xlink="http://www.w3.org/1999/xlink" width="600" height="400" viewBox="0 0 2400 1600">
<defs>
  <clipPath id="clip040">
    <rect x="0" y="0" width="2400" height="1600"/>
  </clipPath>
</defs>
<path clip-path="url(#clip040)" d="M0 1600 L2400 1600 L2400 0 L0 0  Z" fill="#ffffff" fill-rule="evenodd" fill-opacity="1"/>
<defs>
  <clipPath id="clip041">
    <rect x="480" y="0" width="1681" height="1600"/>
  </clipPath>
</defs>
<path clip-path="url(#clip040)" d="M186.274 1423.18 L1152.76 1423.18 L1152.76 47.2441 L186.274 47.2441  Z" fill="#ffffff" fill-rule="evenodd" fill-opacity="1"/>
<defs>
  <clipPath id="clip042">
    <rect x="186" y="47" width="967" height="1377"/>
  </clipPath>
</defs>
<polyline clip-path="url(#clip042)" style="stroke:#000000; stroke-linecap:round; stroke-linejoin:round; stroke-width:2; stroke-opacity:0.1; fill:none" points="186.274,1423.18 186.274,47.2441 "/>
<polyline clip-path="url(#clip042)" style="stroke:#000000; stroke-linecap:round; stroke-linejoin:round; stroke-width:2; stroke-opacity:0.1; fill:none" points="379.57,1423.18 379.57,47.2441 "/>
<polyline clip-path="url(#clip042)" style="stroke:#000000; stroke-linecap:round; stroke-linejoin:round; stroke-width:2; stroke-opacity:0.1; fill:none" points="572.867,1423.18 572.867,47.2441 "/>
<polyline clip-path="url(#clip042)" style="stroke:#000000; stroke-linecap:round; stroke-linejoin:round; stroke-width:2; stroke-opacity:0.1; fill:none" points="766.163,1423.18 766.163,47.2441 "/>
<polyline clip-path="url(#clip042)" style="stroke:#000000; stroke-linecap:round; stroke-linejoin:round; stroke-width:2; stroke-opacity:0.1; fill:none" points="959.46,1423.18 959.46,47.2441 "/>
<polyline clip-path="url(#clip042)" style="stroke:#000000; stroke-linecap:round; stroke-linejoin:round; stroke-width:2; stroke-opacity:0.1; fill:none" points="1152.76,1423.18 1152.76,47.2441 "/>
<polyline clip-path="url(#clip042)" style="stroke:#000000; stroke-linecap:round; stroke-linejoin:round; stroke-width:2; stroke-opacity:0.1; fill:none" points="186.274,1384.3 1152.76,1384.3 "/>
<polyline clip-path="url(#clip042)" style="stroke:#000000; stroke-linecap:round; stroke-linejoin:round; stroke-width:2; stroke-opacity:0.1; fill:none" points="186.274,1059.77 1152.76,1059.77 "/>
<polyline clip-path="url(#clip042)" style="stroke:#000000; stroke-linecap:round; stroke-linejoin:round; stroke-width:2; stroke-opacity:0.1; fill:none" points="186.274,735.241 1152.76,735.241 "/>
<polyline clip-path="url(#clip042)" style="stroke:#000000; stroke-linecap:round; stroke-linejoin:round; stroke-width:2; stroke-opacity:0.1; fill:none" points="186.274,410.714 1152.76,410.714 "/>
<polyline clip-path="url(#clip042)" style="stroke:#000000; stroke-linecap:round; stroke-linejoin:round; stroke-width:2; stroke-opacity:0.1; fill:none" points="186.274,86.1857 1152.76,86.1857 "/>
<polyline clip-path="url(#clip040)" style="stroke:#000000; stroke-linecap:round; stroke-linejoin:round; stroke-width:4; stroke-opacity:1; fill:none" points="186.274,1423.18 1152.76,1423.18 "/>
<polyline clip-path="url(#clip040)" style="stroke:#000000; stroke-linecap:round; stroke-linejoin:round; stroke-width:4; stroke-opacity:1; fill:none" points="186.274,1423.18 186.274,1404.28 "/>
<polyline clip-path="url(#clip040)" style="stroke:#000000; stroke-linecap:round; stroke-linejoin:round; stroke-width:4; stroke-opacity:1; fill:none" points="379.57,1423.18 379.57,1404.28 "/>
<polyline clip-path="url(#clip040)" style="stroke:#000000; stroke-linecap:round; stroke-linejoin:round; stroke-width:4; stroke-opacity:1; fill:none" points="572.867,1423.18 572.867,1404.28 "/>
<polyline clip-path="url(#clip040)" style="stroke:#000000; stroke-linecap:round; stroke-linejoin:round; stroke-width:4; stroke-opacity:1; fill:none" points="766.163,1423.18 766.163,1404.28 "/>
<polyline clip-path="url(#clip040)" style="stroke:#000000; stroke-linecap:round; stroke-linejoin:round; stroke-width:4; stroke-opacity:1; fill:none" points="959.46,1423.18 959.46,1404.28 "/>
<polyline clip-path="url(#clip040)" style="stroke:#000000; stroke-linecap:round; stroke-linejoin:round; stroke-width:4; stroke-opacity:1; fill:none" points="1152.76,1423.18 1152.76,1404.28 "/>
<path clip-path="url(#clip040)" d="M186.274 1454.1 Q182.663 1454.1 180.834 1457.66 Q179.029 1461.2 179.029 1468.33 Q179.029 1475.44 180.834 1479.01 Q182.663 1482.55 186.274 1482.55 Q189.908 1482.55 191.714 1479.01 Q193.542 1475.44 193.542 1468.33 Q193.542 1461.2 191.714 1457.66 Q189.908 1454.1 186.274 1454.1 M186.274 1450.39 Q192.084 1450.39 195.14 1455 Q198.218 1459.58 198.218 1468.33 Q198.218 1477.06 195.14 1481.67 Q192.084 1486.25 186.274 1486.25 Q180.464 1486.25 177.385 1481.67 Q174.33 1477.06 174.33 1468.33 Q174.33 1459.58 177.385 1455 Q180.464 1450.39 186.274 1450.39 Z" fill="#000000" fill-rule="nonzero" fill-opacity="1" /><path clip-path="url(#clip040)" d="M374.223 1481.64 L390.543 1481.64 L390.543 1485.58 L368.598 1485.58 L368.598 1481.64 Q371.26 1478.89 375.844 1474.26 Q380.45 1469.61 381.631 1468.27 Q383.876 1465.74 384.756 1464.01 Q385.658 1462.25 385.658 1460.56 Q385.658 1457.8 383.714 1456.07 Q381.793 1454.33 378.691 1454.33 Q376.492 1454.33 374.038 1455.09 Q371.607 1455.86 368.83 1457.41 L368.83 1452.69 Q371.654 1451.55 374.107 1450.97 Q376.561 1450.39 378.598 1450.39 Q383.969 1450.39 387.163 1453.08 Q390.357 1455.77 390.357 1460.26 Q390.357 1462.39 389.547 1464.31 Q388.76 1466.2 386.654 1468.8 Q386.075 1469.47 382.973 1472.69 Q379.871 1475.88 374.223 1481.64 Z" fill="#000000" fill-rule="nonzero" fill-opacity="1" /><path clip-path="url(#clip040)" d="M575.876 1455.09 L564.071 1473.54 L575.876 1473.54 L575.876 1455.09 M574.649 1451.02 L580.529 1451.02 L580.529 1473.54 L585.459 1473.54 L585.459 1477.43 L580.529 1477.43 L580.529 1485.58 L575.876 1485.58 L575.876 1477.43 L560.274 1477.43 L560.274 1472.92 L574.649 1451.02 Z" fill="#000000" fill-rule="nonzero" fill-opacity="1" /><path clip-path="url(#clip040)" d="M766.568 1466.44 Q763.42 1466.44 761.568 1468.59 Q759.74 1470.74 759.74 1474.49 Q759.74 1478.22 761.568 1480.39 Q763.42 1482.55 766.568 1482.55 Q769.716 1482.55 771.545 1480.39 Q773.397 1478.22 773.397 1474.49 Q773.397 1470.74 771.545 1468.59 Q769.716 1466.44 766.568 1466.44 M775.851 1451.78 L775.851 1456.04 Q774.091 1455.21 772.286 1454.77 Q770.503 1454.33 768.744 1454.33 Q764.115 1454.33 761.661 1457.45 Q759.23 1460.58 758.883 1466.9 Q760.249 1464.89 762.309 1463.82 Q764.369 1462.73 766.846 1462.73 Q772.054 1462.73 775.064 1465.9 Q778.096 1469.05 778.096 1474.49 Q778.096 1479.82 774.948 1483.03 Q771.8 1486.25 766.568 1486.25 Q760.573 1486.25 757.402 1481.67 Q754.23 1477.06 754.23 1468.33 Q754.23 1460.14 758.119 1455.28 Q762.008 1450.39 768.559 1450.39 Q770.318 1450.39 772.101 1450.74 Q773.906 1451.09 775.851 1451.78 Z" fill="#000000" fill-rule="nonzero" fill-opacity="1" /><path clip-path="url(#clip040)" d="M959.46 1469.17 Q956.126 1469.17 954.205 1470.95 Q952.307 1472.73 952.307 1475.86 Q952.307 1478.98 954.205 1480.77 Q956.126 1482.55 959.46 1482.55 Q962.793 1482.55 964.714 1480.77 Q966.635 1478.96 966.635 1475.86 Q966.635 1472.73 964.714 1470.95 Q962.816 1469.17 959.46 1469.17 M954.784 1467.18 Q951.774 1466.44 950.085 1464.38 Q948.418 1462.32 948.418 1459.35 Q948.418 1455.21 951.358 1452.8 Q954.321 1450.39 959.46 1450.39 Q964.622 1450.39 967.561 1452.8 Q970.501 1455.21 970.501 1459.35 Q970.501 1462.32 968.811 1464.38 Q967.145 1466.44 964.159 1467.18 Q967.538 1467.96 969.413 1470.26 Q971.311 1472.55 971.311 1475.86 Q971.311 1480.88 968.233 1483.57 Q965.177 1486.25 959.46 1486.25 Q953.742 1486.25 950.663 1483.57 Q947.608 1480.88 947.608 1475.86 Q947.608 1472.55 949.506 1470.26 Q951.404 1467.96 954.784 1467.18 M953.071 1459.79 Q953.071 1462.48 954.737 1463.98 Q956.427 1465.49 959.46 1465.49 Q962.469 1465.49 964.159 1463.98 Q965.872 1462.48 965.872 1459.79 Q965.872 1457.11 964.159 1455.6 Q962.469 1454.1 959.46 1454.1 Q956.427 1454.1 954.737 1455.6 Q953.071 1457.11 953.071 1459.79 Z" fill="#000000" fill-rule="nonzero" fill-opacity="1" /><path clip-path="url(#clip040)" d="M1127.44 1481.64 L1135.08 1481.64 L1135.08 1455.28 L1126.77 1456.95 L1126.77 1452.69 L1135.04 1451.02 L1139.71 1451.02 L1139.71 1481.64 L1147.35 1481.64 L1147.35 1485.58 L1127.44 1485.58 L1127.44 1481.64 Z" fill="#000000" fill-rule="nonzero" fill-opacity="1" /><path clip-path="url(#clip040)" d="M1166.8 1454.1 Q1163.18 1454.1 1161.36 1457.66 Q1159.55 1461.2 1159.55 1468.33 Q1159.55 1475.44 1161.36 1479.01 Q1163.18 1482.55 1166.8 1482.55 Q1170.43 1482.55 1172.23 1479.01 Q1174.06 1475.44 1174.06 1468.33 Q1174.06 1461.2 1172.23 1457.66 Q1170.43 1454.1 1166.8 1454.1 M1166.8 1450.39 Q1172.61 1450.39 1175.66 1455 Q1178.74 1459.58 1178.74 1468.33 Q1178.74 1477.06 1175.66 1481.67 Q1172.61 1486.25 1166.8 1486.25 Q1160.99 1486.25 1157.91 1481.67 Q1154.85 1477.06 1154.85 1468.33 Q1154.85 1459.58 1157.91 1455 Q1160.99 1450.39 1166.8 1450.39 Z" fill="#000000" fill-rule="nonzero" fill-opacity="1" /><path clip-path="url(#clip040)" d="M668.576 1522.27 L668.576 1532.4 L680.639 1532.4 L680.639 1536.95 L668.576 1536.95 L668.576 1556.3 Q668.576 1560.66 669.754 1561.9 Q670.963 1563.14 674.623 1563.14 L680.639 1563.14 L680.639 1568.04 L674.623 1568.04 Q667.844 1568.04 665.266 1565.53 Q662.688 1562.98 662.688 1556.3 L662.688 1536.95 L658.391 1536.95 L658.391 1532.4 L662.688 1532.4 L662.688 1522.27 L668.576 1522.27 Z" fill="#000000" fill-rule="nonzero" fill-opacity="1" /><polyline clip-path="url(#clip040)" style="stroke:#000000; stroke-linecap:round; stroke-linejoin:round; stroke-width:4; stroke-opacity:1; fill:none" points="186.274,1423.18 186.274,47.2441 "/>
<polyline clip-path="url(#clip040)" style="stroke:#000000; stroke-linecap:round; stroke-linejoin:round; stroke-width:4; stroke-opacity:1; fill:none" points="186.274,1384.3 205.172,1384.3 "/>
<polyline clip-path="url(#clip040)" style="stroke:#000000; stroke-linecap:round; stroke-linejoin:round; stroke-width:4; stroke-opacity:1; fill:none" points="186.274,1059.77 205.172,1059.77 "/>
<polyline clip-path="url(#clip040)" style="stroke:#000000; stroke-linecap:round; stroke-linejoin:round; stroke-width:4; stroke-opacity:1; fill:none" points="186.274,735.241 205.172,735.241 "/>
<polyline clip-path="url(#clip040)" style="stroke:#000000; stroke-linecap:round; stroke-linejoin:round; stroke-width:4; stroke-opacity:1; fill:none" points="186.274,410.714 205.172,410.714 "/>
<polyline clip-path="url(#clip040)" style="stroke:#000000; stroke-linecap:round; stroke-linejoin:round; stroke-width:4; stroke-opacity:1; fill:none" points="186.274,86.1857 205.172,86.1857 "/>
<path clip-path="url(#clip040)" d="M62.9365 1370.1 Q59.3254 1370.1 57.4967 1373.66 Q55.6912 1377.2 55.6912 1384.33 Q55.6912 1391.44 57.4967 1395 Q59.3254 1398.54 62.9365 1398.54 Q66.5707 1398.54 68.3763 1395 Q70.205 1391.44 70.205 1384.33 Q70.205 1377.2 68.3763 1373.66 Q66.5707 1370.1 62.9365 1370.1 M62.9365 1366.39 Q68.7467 1366.39 71.8022 1371 Q74.8809 1375.58 74.8809 1384.33 Q74.8809 1393.06 71.8022 1397.67 Q68.7467 1402.25 62.9365 1402.25 Q57.1264 1402.25 54.0477 1397.67 Q50.9921 1393.06 50.9921 1384.33 Q50.9921 1375.58 54.0477 1371 Q57.1264 1366.39 62.9365 1366.39 Z" fill="#000000" fill-rule="nonzero" fill-opacity="1" /><path clip-path="url(#clip040)" d="M83.0984 1395.7 L87.9827 1395.7 L87.9827 1401.58 L83.0984 1401.58 L83.0984 1395.7 Z" fill="#000000" fill-rule="nonzero" fill-opacity="1" /><path clip-path="url(#clip040)" d="M108.168 1370.1 Q104.557 1370.1 102.728 1373.66 Q100.922 1377.2 100.922 1384.33 Q100.922 1391.44 102.728 1395 Q104.557 1398.54 108.168 1398.54 Q111.802 1398.54 113.608 1395 Q115.436 1391.44 115.436 1384.33 Q115.436 1377.2 113.608 1373.66 Q111.802 1370.1 108.168 1370.1 M108.168 1366.39 Q113.978 1366.39 117.033 1371 Q120.112 1375.58 120.112 1384.33 Q120.112 1393.06 117.033 1397.67 Q113.978 1402.25 108.168 1402.25 Q102.358 1402.25 99.2789 1397.67 Q96.2234 1393.06 96.2234 1384.33 Q96.2234 1375.58 99.2789 1371 Q102.358 1366.39 108.168 1366.39 Z" fill="#000000" fill-rule="nonzero" fill-opacity="1" /><path clip-path="url(#clip040)" d="M138.33 1370.1 Q134.719 1370.1 132.89 1373.66 Q131.084 1377.2 131.084 1384.33 Q131.084 1391.44 132.89 1395 Q134.719 1398.54 138.33 1398.54 Q141.964 1398.54 143.769 1395 Q145.598 1391.44 145.598 1384.33 Q145.598 1377.2 143.769 1373.66 Q141.964 1370.1 138.33 1370.1 M138.33 1366.39 Q144.14 1366.39 147.195 1371 Q150.274 1375.58 150.274 1384.33 Q150.274 1393.06 147.195 1397.67 Q144.14 1402.25 138.33 1402.25 Q132.519 1402.25 129.441 1397.67 Q126.385 1393.06 126.385 1384.33 Q126.385 1375.58 129.441 1371 Q132.519 1366.39 138.33 1366.39 Z" fill="#000000" fill-rule="nonzero" fill-opacity="1" /><path clip-path="url(#clip040)" d="M63.9319 1045.57 Q60.3208 1045.57 58.4921 1049.13 Q56.6865 1052.67 56.6865 1059.8 Q56.6865 1066.91 58.4921 1070.48 Q60.3208 1074.02 63.9319 1074.02 Q67.5661 1074.02 69.3717 1070.48 Q71.2004 1066.91 71.2004 1059.8 Q71.2004 1052.67 69.3717 1049.13 Q67.5661 1045.57 63.9319 1045.57 M63.9319 1041.86 Q69.742 1041.86 72.7976 1046.47 Q75.8763 1051.05 75.8763 1059.8 Q75.8763 1068.53 72.7976 1073.14 Q69.742 1077.72 63.9319 1077.72 Q58.1217 1077.72 55.043 1073.14 Q51.9875 1068.53 51.9875 1059.8 Q51.9875 1051.05 55.043 1046.47 Q58.1217 1041.86 63.9319 1041.86 Z" fill="#000000" fill-rule="nonzero" fill-opacity="1" /><path clip-path="url(#clip040)" d="M84.0938 1071.17 L88.978 1071.17 L88.978 1077.05 L84.0938 1077.05 L84.0938 1071.17 Z" fill="#000000" fill-rule="nonzero" fill-opacity="1" /><path clip-path="url(#clip040)" d="M103.191 1073.11 L119.51 1073.11 L119.51 1077.05 L97.566 1077.05 L97.566 1073.11 Q100.228 1070.36 104.811 1065.73 Q109.418 1061.08 110.598 1059.73 Q112.844 1057.21 113.723 1055.48 Q114.626 1053.72 114.626 1052.03 Q114.626 1049.27 112.682 1047.54 Q110.76 1045.8 107.658 1045.8 Q105.459 1045.8 103.006 1046.56 Q100.575 1047.33 97.7974 1048.88 L97.7974 1044.16 Q100.621 1043.02 103.075 1042.44 Q105.529 1041.86 107.566 1041.86 Q112.936 1041.86 116.131 1044.55 Q119.325 1047.23 119.325 1051.73 Q119.325 1053.86 118.515 1055.78 Q117.728 1057.67 115.621 1060.27 Q115.043 1060.94 111.941 1064.16 Q108.839 1067.35 103.191 1073.11 Z" fill="#000000" fill-rule="nonzero" fill-opacity="1" /><path clip-path="url(#clip040)" d="M129.371 1042.49 L147.728 1042.49 L147.728 1046.42 L133.654 1046.42 L133.654 1054.9 Q134.672 1054.55 135.691 1054.39 Q136.709 1054.2 137.728 1054.2 Q143.515 1054.2 146.894 1057.37 Q150.274 1060.54 150.274 1065.96 Q150.274 1071.54 146.802 1074.64 Q143.33 1077.72 137.01 1077.72 Q134.834 1077.72 132.566 1077.35 Q130.32 1076.98 127.913 1076.24 L127.913 1071.54 Q129.996 1072.67 132.219 1073.23 Q134.441 1073.79 136.918 1073.79 Q140.922 1073.79 143.26 1071.68 Q145.598 1069.57 145.598 1065.96 Q145.598 1062.35 143.26 1060.24 Q140.922 1058.14 136.918 1058.14 Q135.043 1058.14 133.168 1058.55 Q131.316 1058.97 129.371 1059.85 L129.371 1042.49 Z" fill="#000000" fill-rule="nonzero" fill-opacity="1" /><path clip-path="url(#clip040)" d="M62.9365 721.04 Q59.3254 721.04 57.4967 724.605 Q55.6912 728.147 55.6912 735.276 Q55.6912 742.383 57.4967 745.947 Q59.3254 749.489 62.9365 749.489 Q66.5707 749.489 68.3763 745.947 Q70.205 742.383 70.205 735.276 Q70.205 728.147 68.3763 724.605 Q66.5707 721.04 62.9365 721.04 M62.9365 717.336 Q68.7467 717.336 71.8022 721.943 Q74.8809 726.526 74.8809 735.276 Q74.8809 744.003 71.8022 748.609 Q68.7467 753.193 62.9365 753.193 Q57.1264 753.193 54.0477 748.609 Q50.9921 744.003 50.9921 735.276 Q50.9921 726.526 54.0477 721.943 Q57.1264 717.336 62.9365 717.336 Z" fill="#000000" fill-rule="nonzero" fill-opacity="1" /><path clip-path="url(#clip040)" d="M83.0984 746.642 L87.9827 746.642 L87.9827 752.521 L83.0984 752.521 L83.0984 746.642 Z" fill="#000000" fill-rule="nonzero" fill-opacity="1" /><path clip-path="url(#clip040)" d="M98.2141 717.961 L116.57 717.961 L116.57 721.897 L102.496 721.897 L102.496 730.369 Q103.515 730.022 104.534 729.86 Q105.552 729.674 106.571 729.674 Q112.358 729.674 115.737 732.846 Q119.117 736.017 119.117 741.434 Q119.117 747.012 115.645 750.114 Q112.172 753.193 105.853 753.193 Q103.677 753.193 101.409 752.822 Q99.1632 752.452 96.7558 751.711 L96.7558 747.012 Q98.8391 748.146 101.061 748.702 Q103.284 749.258 105.76 749.258 Q109.765 749.258 112.103 747.151 Q114.441 745.045 114.441 741.434 Q114.441 737.822 112.103 735.716 Q109.765 733.61 105.76 733.61 Q103.885 733.61 102.01 734.026 Q100.159 734.443 98.2141 735.322 L98.2141 717.961 Z" fill="#000000" fill-rule="nonzero" fill-opacity="1" /><path clip-path="url(#clip040)" d="M138.33 721.04 Q134.719 721.04 132.89 724.605 Q131.084 728.147 131.084 735.276 Q131.084 742.383 132.89 745.947 Q134.719 749.489 138.33 749.489 Q141.964 749.489 143.769 745.947 Q145.598 742.383 145.598 735.276 Q145.598 728.147 143.769 724.605 Q141.964 721.04 138.33 721.04 M138.33 717.336 Q144.14 717.336 147.195 721.943 Q150.274 726.526 150.274 735.276 Q150.274 744.003 147.195 748.609 Q144.14 753.193 138.33 753.193 Q132.519 753.193 129.441 748.609 Q126.385 744.003 126.385 735.276 Q126.385 726.526 129.441 721.943 Q132.519 717.336 138.33 717.336 Z" fill="#000000" fill-rule="nonzero" fill-opacity="1" /><path clip-path="url(#clip040)" d="M63.9319 396.512 Q60.3208 396.512 58.4921 400.077 Q56.6865 403.619 56.6865 410.748 Q56.6865 417.855 58.4921 421.42 Q60.3208 424.961 63.9319 424.961 Q67.5661 424.961 69.3717 421.42 Q71.2004 417.855 71.2004 410.748 Q71.2004 403.619 69.3717 400.077 Q67.5661 396.512 63.9319 396.512 M63.9319 392.809 Q69.742 392.809 72.7976 397.415 Q75.8763 401.998 75.8763 410.748 Q75.8763 419.475 72.7976 424.082 Q69.742 428.665 63.9319 428.665 Q58.1217 428.665 55.043 424.082 Q51.9875 419.475 51.9875 410.748 Q51.9875 401.998 55.043 397.415 Q58.1217 392.809 63.9319 392.809 Z" fill="#000000" fill-rule="nonzero" fill-opacity="1" /><path clip-path="url(#clip040)" d="M84.0938 422.114 L88.978 422.114 L88.978 427.994 L84.0938 427.994 L84.0938 422.114 Z" fill="#000000" fill-rule="nonzero" fill-opacity="1" /><path clip-path="url(#clip040)" d="M97.9826 393.434 L120.205 393.434 L120.205 395.424 L107.658 427.994 L102.774 427.994 L114.58 397.369 L97.9826 397.369 L97.9826 393.434 Z" fill="#000000" fill-rule="nonzero" fill-opacity="1" /><path clip-path="url(#clip040)" d="M129.371 393.434 L147.728 393.434 L147.728 397.369 L133.654 397.369 L133.654 405.841 Q134.672 405.494 135.691 405.332 Q136.709 405.146 137.728 405.146 Q143.515 405.146 146.894 408.318 Q150.274 411.489 150.274 416.906 Q150.274 422.484 146.802 425.586 Q143.33 428.665 137.01 428.665 Q134.834 428.665 132.566 428.294 Q130.32 427.924 127.913 427.183 L127.913 422.484 Q129.996 423.619 132.219 424.174 Q134.441 424.73 136.918 424.73 Q140.922 424.73 143.26 422.623 Q145.598 420.517 145.598 416.906 Q145.598 413.295 143.26 411.188 Q140.922 409.082 136.918 409.082 Q135.043 409.082 133.168 409.498 Q131.316 409.915 129.371 410.795 L129.371 393.434 Z" fill="#000000" fill-rule="nonzero" fill-opacity="1" /><path clip-path="url(#clip040)" d="M53.7467 99.5305 L61.3856 99.5305 L61.3856 73.1649 L53.0754 74.8316 L53.0754 70.5723 L61.3393 68.9057 L66.0152 68.9057 L66.0152 99.5305 L73.654 99.5305 L73.654 103.466 L53.7467 103.466 L53.7467 99.5305 Z" fill="#000000" fill-rule="nonzero" fill-opacity="1" /><path clip-path="url(#clip040)" d="M83.0984 97.5861 L87.9827 97.5861 L87.9827 103.466 L83.0984 103.466 L83.0984 97.5861 Z" fill="#000000" fill-rule="nonzero" fill-opacity="1" /><path clip-path="url(#clip040)" d="M108.168 71.9844 Q104.557 71.9844 102.728 75.5492 Q100.922 79.0908 100.922 86.2204 Q100.922 93.3268 102.728 96.8916 Q104.557 100.433 108.168 100.433 Q111.802 100.433 113.608 96.8916 Q115.436 93.3268 115.436 86.2204 Q115.436 79.0908 113.608 75.5492 Q111.802 71.9844 108.168 71.9844 M108.168 68.2807 Q113.978 68.2807 117.033 72.8871 Q120.112 77.4704 120.112 86.2204 Q120.112 94.9472 117.033 99.5537 Q113.978 104.137 108.168 104.137 Q102.358 104.137 99.2789 99.5537 Q96.2234 94.9472 96.2234 86.2204 Q96.2234 77.4704 99.2789 72.8871 Q102.358 68.2807 108.168 68.2807 Z" fill="#000000" fill-rule="nonzero" fill-opacity="1" /><path clip-path="url(#clip040)" d="M138.33 71.9844 Q134.719 71.9844 132.89 75.5492 Q131.084 79.0908 131.084 86.2204 Q131.084 93.3268 132.89 96.8916 Q134.719 100.433 138.33 100.433 Q141.964 100.433 143.769 96.8916 Q145.598 93.3268 145.598 86.2204 Q145.598 79.0908 143.769 75.5492 Q141.964 71.9844 138.33 71.9844 M138.33 68.2807 Q144.14 68.2807 147.195 72.8871 Q150.274 77.4704 150.274 86.2204 Q150.274 94.9472 147.195 99.5537 Q144.14 104.137 138.33 104.137 Q132.519 104.137 129.441 99.5537 Q126.385 94.9472 126.385 86.2204 Q126.385 77.4704 129.441 72.8871 Q132.519 68.2807 138.33 68.2807 Z" fill="#000000" fill-rule="nonzero" fill-opacity="1" /><polyline clip-path="url(#clip042)" style="stroke:#009af9; stroke-linecap:round; stroke-linejoin:round; stroke-width:4; stroke-opacity:1; fill:none" points="186.274,86.1857 187.241,99.115 188.209,111.915 189.176,124.588 190.144,137.135 191.111,149.557 192.079,161.855 193.046,174.031 194.014,186.085 194.981,198.019 195.948,209.835 196.916,221.533 197.883,233.114 198.851,244.58 199.818,255.931 200.786,267.17 201.753,278.297 202.721,289.313 203.688,300.219 204.656,311.016 205.623,321.706 206.59,332.29 207.558,342.768 208.525,353.141 209.493,363.412 210.46,373.58 211.428,383.647 212.395,393.613 213.363,403.481 214.33,413.25 215.297,422.921 216.265,432.497 217.232,441.977 218.2,451.362 219.167,460.655 220.135,469.854 221.102,478.962 222.07,487.979 223.037,496.907 224.005,505.745 224.972,514.495 225.939,523.159 226.907,531.736 227.874,540.227 228.842,548.634 229.809,556.958 230.777,565.198 231.744,573.356 232.712,581.433 233.679,589.43 234.646,597.347 235.614,605.185 236.581,612.945 237.549,620.628 238.516,628.234 239.484,635.765 240.451,643.22 241.419,650.601 242.386,657.909 243.354,665.144 244.321,672.307 245.288,679.398 246.256,686.419 247.223,693.37 248.191,700.252 249.158,707.065 250.126,713.81 251.093,720.488 252.061,727.099 253.028,733.645 253.995,740.126 254.963,746.542 255.93,752.894 256.898,759.183 257.865,765.409 258.833,771.573 259.8,777.676 260.768,783.718 261.735,789.699 262.703,795.622 263.67,801.485 264.637,807.29 265.605,813.037 266.572,818.727 267.54,824.36 268.507,829.938 269.475,835.459 270.442,840.926 271.41,846.338 272.377,851.696 273.344,857.001 274.312,862.253 275.279,867.452 276.247,872.6 277.214,877.697 278.182,882.743 279.149,887.738 280.117,892.684 281.084,897.58 282.051,902.428 283.019,907.227 283.986,911.979 284.954,916.683 285.921,921.34 286.889,925.951 287.856,930.516 288.824,935.036 289.791,939.511 290.759,943.941 291.726,948.327 292.693,952.669 293.661,956.968 294.628,961.224 295.596,965.438 296.563,969.61 297.531,973.74 298.498,977.829 299.466,981.878 300.433,985.886 301.4,989.854 302.368,993.783 303.335,997.673 304.303,1001.52 305.27,1005.34 306.238,1009.11 307.205,1012.85 308.173,1016.55 309.14,1020.21 310.108,1023.84 311.075,1027.43 312.042,1030.98 313.01,1034.5 313.977,1037.99 314.945,1041.43 315.912,1044.85 316.88,1048.23 317.847,1051.58 318.815,1054.89 319.782,1058.17 320.749,1061.42 321.717,1064.64 322.684,1067.82 323.652,1070.97 324.619,1074.09 325.587,1077.18 326.554,1080.24 327.522,1083.27 328.489,1086.27 329.457,1089.24 330.424,1092.17 331.391,1095.08 332.359,1097.96 333.326,1100.82 334.294,1103.64 335.261,1106.43 336.229,1109.2 337.196,1111.94 338.164,1114.65 339.131,1117.34 340.098,1120 341.066,1122.63 342.033,1125.24 343.001,1127.82 343.968,1130.37 344.936,1132.9 345.903,1135.41 346.871,1137.89 347.838,1140.34 348.805,1142.77 349.773,1145.18 350.74,1147.56 351.708,1149.92 352.675,1152.25 353.643,1154.56 354.61,1156.85 355.578,1159.12 356.545,1161.36 357.513,1163.58 358.48,1165.78 359.447,1167.95 360.415,1170.11 361.382,1172.24 362.35,1174.35 363.317,1176.45 364.285,1178.52 365.252,1180.57 366.22,1182.59 367.187,1184.6 368.154,1186.59 369.122,1188.56 370.089,1190.51 371.057,1192.44 372.024,1194.35 372.992,1196.24 373.959,1198.12 374.927,1199.97 375.894,1201.81 376.862,1203.62 377.829,1205.42 378.796,1207.2 379.764,1208.97 380.731,1210.71 381.699,1212.44 382.666,1214.15 383.634,1215.85 384.601,1217.53 385.569,1219.19 386.536,1220.83 387.503,1222.46 388.471,1224.07 389.438,1225.67 390.406,1227.25 391.373,1228.81 392.341,1230.36 393.308,1231.89 394.276,1233.41 395.243,1234.92 396.211,1236.4 397.178,1237.88 398.145,1239.34 399.113,1240.78 400.08,1242.21 401.048,1243.62 402.015,1245.03 402.983,1246.41 403.95,1247.79 404.918,1249.15 405.885,1250.49 406.852,1251.83 407.82,1253.15 408.787,1254.45 409.755,1255.74 410.722,1257.03 411.69,1258.29 412.657,1259.55 413.625,1260.79 414.592,1262.02 415.559,1263.24 416.527,1264.44 417.494,1265.64 418.462,1266.82 419.429,1267.99 420.397,1269.15 421.364,1270.29 422.332,1271.43 423.299,1272.55 424.267,1273.67 425.234,1274.77 426.201,1275.86 427.169,1276.94 428.136,1278.01 429.104,1279.07 430.071,1280.12 431.039,1281.15 432.006,1282.18 432.974,1283.2 433.941,1284.2 434.908,1285.2 435.876,1286.19 436.843,1287.16 437.811,1288.13 438.778,1289.09 439.746,1290.04 440.713,1290.98 441.681,1291.91 442.648,1292.83 443.616,1293.74 444.583,1294.64 445.55,1295.53 446.518,1296.42 447.485,1297.29 448.453,1298.16 449.42,1299.02 450.388,1299.87 451.355,1300.71 452.323,1301.54 453.29,1302.36 454.257,1303.18 455.225,1303.99 456.192,1304.79 457.16,1305.58 458.127,1306.36 459.095,1307.14 460.062,1307.91 461.03,1308.67 461.997,1309.42 462.965,1310.17 463.932,1310.91 464.899,1311.64 465.867,1312.36 466.834,1313.08 467.802,1313.79 468.769,1314.49 469.737,1315.19 470.704,1315.88 471.672,1316.56 472.639,1317.23 473.606,1317.9 474.574,1318.56 475.541,1319.22 476.509,1319.86 477.476,1320.51 478.444,1321.14 479.411,1321.77 480.379,1322.39 481.346,1323.01 482.314,1323.62 483.281,1324.22 484.248,1324.82 485.216,1325.41 486.183,1326 487.151,1326.58 488.118,1327.16 489.086,1327.72 490.053,1328.29 491.021,1328.85 491.988,1329.4 492.955,1329.94 493.923,1330.49 494.89,1331.02 495.858,1331.55 496.825,1332.08 497.793,1332.6 498.76,1333.11 499.728,1333.62 500.695,1334.13 501.662,1334.63 502.63,1335.12 503.597,1335.61 504.565,1336.1 505.532,1336.58 506.5,1337.05 507.467,1337.52 508.435,1337.99 509.402,1338.45 510.37,1338.91 511.337,1339.36 512.304,1339.81 513.272,1340.25 514.239,1340.69 515.207,1341.12 516.174,1341.55 517.142,1341.98 518.109,1342.4 519.077,1342.82 520.044,1343.23 521.011,1343.64 521.979,1344.04 522.946,1344.45 523.914,1344.84 524.881,1345.24 525.849,1345.62 526.816,1346.01 527.784,1346.39 528.751,1346.77 529.719,1347.14 530.686,1347.51 531.653,1347.88 532.621,1348.24 533.588,1348.6 534.556,1348.96 535.523,1349.31 536.491,1349.66 537.458,1350 538.426,1350.34 539.393,1350.68 540.36,1351.02 541.328,1351.35 542.295,1351.68 543.263,1352 544.23,1352.32 545.198,1352.64 546.165,1352.96 547.133,1353.27 548.1,1353.58 549.068,1353.88 550.035,1354.19 551.002,1354.49 551.97,1354.78 552.937,1355.08 553.905,1355.37 554.872,1355.66 555.84,1355.94 556.807,1356.22 557.775,1356.5 558.742,1356.78 559.709,1357.05 560.677,1357.32 561.644,1357.59 562.612,1357.86 563.579,1358.12 564.547,1358.38 565.514,1358.64 566.482,1358.9 567.449,1359.15 568.416,1359.4 569.384,1359.65 570.351,1359.89 571.319,1360.14 572.286,1360.38 573.254,1360.62 574.221,1360.85 575.189,1361.08 576.156,1361.32 577.124,1361.55 578.091,1361.77 579.058,1362 580.026,1362.22 580.993,1362.44 581.961,1362.66 582.928,1362.87 583.896,1363.09 584.863,1363.3 585.831,1363.51 586.798,1363.71 587.765,1363.92 588.733,1364.12 589.7,1364.32 590.668,1364.52 591.635,1364.72 592.603,1364.91 593.57,1365.11 594.538,1365.3 595.505,1365.49 596.473,1365.67 597.44,1365.86 598.407,1366.04 599.375,1366.23 600.342,1366.41 601.31,1366.58 602.277,1366.76 603.245,1366.93 604.212,1367.11 605.18,1367.28 606.147,1367.45 607.114,1367.62 608.082,1367.78 609.049,1367.95 610.017,1368.11 610.984,1368.27 611.952,1368.43 612.919,1368.59 613.887,1368.74 614.854,1368.9 615.822,1369.05 616.789,1369.2 617.756,1369.35 618.724,1369.5 619.691,1369.65 620.659,1369.8 621.626,1369.94 622.594,1370.08 623.561,1370.23 624.529,1370.37 625.496,1370.5 626.463,1370.64 627.431,1370.78 628.398,1370.91 629.366,1371.05 630.333,1371.18 631.301,1371.31 632.268,1371.44 633.236,1371.57 634.203,1371.69 635.171,1371.82 636.138,1371.94 637.105,1372.06 638.073,1372.19 639.04,1372.31 640.008,1372.43 640.975,1372.55 641.943,1372.66 642.91,1372.78 643.878,1372.89 644.845,1373.01 645.812,1373.12 646.78,1373.23 647.747,1373.34 648.715,1373.45 649.682,1373.56 650.65,1373.66 651.617,1373.77 652.585,1373.88 653.552,1373.98 654.519,1374.08 655.487,1374.18 656.454,1374.29 657.422,1374.38 658.389,1374.48 659.357,1374.58 660.324,1374.68 661.292,1374.77 662.259,1374.87 663.227,1374.96 664.194,1375.06 665.161,1375.15 666.129,1375.24 667.096,1375.33 668.064,1375.42 669.031,1375.51 669.999,1375.59 670.966,1375.68 671.934,1375.77 672.901,1375.85 673.868,1375.94 674.836,1376.02 675.803,1376.1 676.771,1376.18 677.738,1376.26 678.706,1376.34 679.673,1376.42 680.641,1376.5 681.608,1376.58 682.576,1376.66 683.543,1376.73 684.51,1376.81 685.478,1376.88 686.445,1376.96 687.413,1377.03 688.38,1377.1 689.348,1377.17 690.315,1377.24 691.283,1377.31 692.25,1377.38 693.217,1377.45 694.185,1377.52 695.152,1377.59 696.12,1377.65 697.087,1377.72 698.055,1377.79 699.022,1377.85 699.99,1377.92 700.957,1377.98 701.925,1378.04 702.892,1378.1 703.859,1378.17 704.827,1378.23 705.794,1378.29 706.762,1378.35 707.729,1378.41 708.697,1378.47 709.664,1378.52 710.632,1378.58 711.599,1378.64 712.566,1378.69 713.534,1378.75 714.501,1378.81 715.469,1378.86 716.436,1378.91 717.404,1378.97 718.371,1379.02 719.339,1379.07 720.306,1379.13 721.273,1379.18 722.241,1379.23 723.208,1379.28 724.176,1379.33 725.143,1379.38 726.111,1379.43 727.078,1379.48 728.046,1379.52 729.013,1379.57 729.981,1379.62 730.948,1379.66 731.915,1379.71 732.883,1379.76 733.85,1379.8 734.818,1379.85 735.785,1379.89 736.753,1379.94 737.72,1379.98 738.688,1380.02 739.655,1380.06 740.622,1380.11 741.59,1380.15 742.557,1380.19 743.525,1380.23 744.492,1380.27 745.46,1380.31 746.427,1380.35 747.395,1380.39 748.362,1380.43 749.33,1380.47 750.297,1380.51 751.264,1380.54 752.232,1380.58 753.199,1380.62 754.167,1380.65 755.134,1380.69 756.102,1380.73 757.069,1380.76 758.037,1380.8 759.004,1380.83 759.971,1380.87 760.939,1380.9 761.906,1380.93 762.874,1380.97 763.841,1381 764.809,1381.03 765.776,1381.07 766.744,1381.1 767.711,1381.13 768.679,1381.16 769.646,1381.19 770.613,1381.22 771.581,1381.25 772.548,1381.28 773.516,1381.31 774.483,1381.34 775.451,1381.37 776.418,1381.4 777.386,1381.43 778.353,1381.46 779.32,1381.49 780.288,1381.52 781.255,1381.54 782.223,1381.57 783.19,1381.6 784.158,1381.63 785.125,1381.65 786.093,1381.68 787.06,1381.7 788.027,1381.73 788.995,1381.76 789.962,1381.78 790.93,1381.81 791.897,1381.83 792.865,1381.86 793.832,1381.88 794.8,1381.9 795.767,1381.93 796.735,1381.95 797.702,1381.98 798.669,1382 799.637,1382.02 800.604,1382.04 801.572,1382.07 802.539,1382.09 803.507,1382.11 804.474,1382.13 805.442,1382.15 806.409,1382.18 807.376,1382.2 808.344,1382.22 809.311,1382.24 810.279,1382.26 811.246,1382.28 812.214,1382.3 813.181,1382.32 814.149,1382.34 815.116,1382.36 816.084,1382.38 817.051,1382.4 818.018,1382.42 818.986,1382.43 819.953,1382.45 820.921,1382.47 821.888,1382.49 822.856,1382.51 823.823,1382.53 824.791,1382.54 825.758,1382.56 826.725,1382.58 827.693,1382.59 828.66,1382.61 829.628,1382.63 830.595,1382.65 831.563,1382.66 832.53,1382.68 833.498,1382.69 834.465,1382.71 835.433,1382.73 836.4,1382.74 837.367,1382.76 838.335,1382.77 839.302,1382.79 840.27,1382.8 841.237,1382.82 842.205,1382.83 843.172,1382.85 844.14,1382.86 845.107,1382.88 846.074,1382.89 847.042,1382.9 848.009,1382.92 848.977,1382.93 849.944,1382.94 850.912,1382.96 851.879,1382.97 852.847,1382.98 853.814,1383 854.782,1383.01 855.749,1383.02 856.716,1383.04 857.684,1383.05 858.651,1383.06 859.619,1383.07 860.586,1383.09 861.554,1383.1 862.521,1383.11 863.489,1383.12 864.456,1383.13 865.423,1383.14 866.391,1383.16 867.358,1383.17 868.326,1383.18 869.293,1383.19 870.261,1383.2 871.228,1383.21 872.196,1383.22 873.163,1383.23 874.13,1383.24 875.098,1383.25 876.065,1383.27 877.033,1383.28 878,1383.29 878.968,1383.3 879.935,1383.31 880.903,1383.32 881.87,1383.33 882.838,1383.33 883.805,1383.34 884.772,1383.35 885.74,1383.36 886.707,1383.37 887.675,1383.38 888.642,1383.39 889.61,1383.4 890.577,1383.41 891.545,1383.42 892.512,1383.43 893.479,1383.44 894.447,1383.44 895.414,1383.45 896.382,1383.46 897.349,1383.47 898.317,1383.48 899.284,1383.49 900.252,1383.49 901.219,1383.5 902.187,1383.51 903.154,1383.52 904.121,1383.53 905.089,1383.53 906.056,1383.54 907.024,1383.55 907.991,1383.56 908.959,1383.56 909.926,1383.57 910.894,1383.58 911.861,1383.58 912.828,1383.59 913.796,1383.6 914.763,1383.61 915.731,1383.61 916.698,1383.62 917.666,1383.63 918.633,1383.63 919.601,1383.64 920.568,1383.65 921.536,1383.65 922.503,1383.66 923.47,1383.67 924.438,1383.67 925.405,1383.68 926.373,1383.68 927.34,1383.69 928.308,1383.7 929.275,1383.7 930.243,1383.71 931.21,1383.71 932.177,1383.72 933.145,1383.73 934.112,1383.73 935.08,1383.74 936.047,1383.74 937.015,1383.75 937.982,1383.75 938.95,1383.76 939.917,1383.76 940.884,1383.77 941.852,1383.77 942.819,1383.78 943.787,1383.78 944.754,1383.79 945.722,1383.8 946.689,1383.8 947.657,1383.81 948.624,1383.81 949.592,1383.81 950.559,1383.82 951.526,1383.82 952.494,1383.83 953.461,1383.83 954.429,1383.84 955.396,1383.84 956.364,1383.85 957.331,1383.85 958.299,1383.86 959.266,1383.86 960.233,1383.87 961.201,1383.87 962.168,1383.87 963.136,1383.88 964.103,1383.88 965.071,1383.89 966.038,1383.89 967.006,1383.89 967.973,1383.9 968.941,1383.9 969.908,1383.91 970.875,1383.91 971.843,1383.91 972.81,1383.92 973.778,1383.92 974.745,1383.93 975.713,1383.93 976.68,1383.93 977.648,1383.94 978.615,1383.94 979.582,1383.94 980.55,1383.95 981.517,1383.95 982.485,1383.95 983.452,1383.96 984.42,1383.96 985.387,1383.96 986.355,1383.97 987.322,1383.97 988.29,1383.97 989.257,1383.98 990.224,1383.98 991.192,1383.98 992.159,1383.99 993.127,1383.99 994.094,1383.99 995.062,1384 996.029,1384 996.997,1384 997.964,1384 998.931,1384.01 999.899,1384.01 1000.87,1384.01 1001.83,1384.02 1002.8,1384.02 1003.77,1384.02 1004.74,1384.02 1005.7,1384.03 1006.67,1384.03 1007.64,1384.03 1008.61,1384.04 1009.57,1384.04 1010.54,1384.04 1011.51,1384.04 1012.48,1384.05 1013.44,1384.05 1014.41,1384.05 1015.38,1384.05 1016.35,1384.06 1017.31,1384.06 1018.28,1384.06 1019.25,1384.06 1020.22,1384.06 1021.18,1384.07 1022.15,1384.07 1023.12,1384.07 1024.09,1384.07 1025.05,1384.08 1026.02,1384.08 1026.99,1384.08 1027.95,1384.08 1028.92,1384.08 1029.89,1384.09 1030.86,1384.09 1031.82,1384.09 1032.79,1384.09 1033.76,1384.1 1034.73,1384.1 1035.69,1384.1 1036.66,1384.1 1037.63,1384.1 1038.6,1384.11 1039.56,1384.11 1040.53,1384.11 1041.5,1384.11 1042.47,1384.11 1043.43,1384.11 1044.4,1384.12 1045.37,1384.12 1046.34,1384.12 1047.3,1384.12 1048.27,1384.12 1049.24,1384.13 1050.21,1384.13 1051.17,1384.13 1052.14,1384.13 1053.11,1384.13 1054.08,1384.13 1055.04,1384.14 1056.01,1384.14 1056.98,1384.14 1057.95,1384.14 1058.91,1384.14 1059.88,1384.14 1060.85,1384.14 1061.82,1384.15 1062.78,1384.15 1063.75,1384.15 1064.72,1384.15 1065.69,1384.15 1066.65,1384.15 1067.62,1384.16 1068.59,1384.16 1069.56,1384.16 1070.52,1384.16 1071.49,1384.16 1072.46,1384.16 1073.43,1384.16 1074.39,1384.16 1075.36,1384.17 1076.33,1384.17 1077.29,1384.17 1078.26,1384.17 1079.23,1384.17 1080.2,1384.17 1081.16,1384.17 1082.13,1384.17 1083.1,1384.18 1084.07,1384.18 1085.03,1384.18 1086,1384.18 1086.97,1384.18 1087.94,1384.18 1088.9,1384.18 1089.87,1384.18 1090.84,1384.19 1091.81,1384.19 1092.77,1384.19 1093.74,1384.19 1094.71,1384.19 1095.68,1384.19 1096.64,1384.19 1097.61,1384.19 1098.58,1384.19 1099.55,1384.19 1100.51,1384.2 1101.48,1384.2 1102.45,1384.2 1103.42,1384.2 1104.38,1384.2 1105.35,1384.2 1106.32,1384.2 1107.29,1384.2 1108.25,1384.2 1109.22,1384.2 1110.19,1384.21 1111.16,1384.21 1112.12,1384.21 1113.09,1384.21 1114.06,1384.21 1115.03,1384.21 1115.99,1384.21 1116.96,1384.21 1117.93,1384.21 1118.9,1384.21 1119.86,1384.21 1120.83,1384.22 1121.8,1384.22 1122.76,1384.22 1123.73,1384.22 1124.7,1384.22 1125.67,1384.22 1126.63,1384.22 1127.6,1384.22 1128.57,1384.22 1129.54,1384.22 1130.5,1384.22 1131.47,1384.22 1132.44,1384.22 1133.41,1384.23 1134.37,1384.23 1135.34,1384.23 1136.31,1384.23 1137.28,1384.23 1138.24,1384.23 1139.21,1384.23 1140.18,1384.23 1141.15,1384.23 1142.11,1384.23 1143.08,1384.23 1144.05,1384.23 1145.02,1384.23 1145.98,1384.23 1146.95,1384.23 1147.92,1384.24 1148.89,1384.24 1149.85,1384.24 1150.82,1384.24 1151.79,1384.24 1152.76,1384.24 "/>
<path clip-path="url(#clip040)" d="M859.286 196.789 L1120.54 196.789 L1120.54 93.1086 L859.286 93.1086  Z" fill="#ffffff" fill-rule="evenodd" fill-opacity="1"/>
<polyline clip-path="url(#clip040)" style="stroke:#000000; stroke-linecap:round; stroke-linejoin:round; stroke-width:4; stroke-opacity:1; fill:none" points="859.286,196.789 1120.54,196.789 1120.54,93.1086 859.286,93.1086 859.286,196.789 "/>
<polyline clip-path="url(#clip040)" style="stroke:#009af9; stroke-linecap:round; stroke-linejoin:round; stroke-width:4; stroke-opacity:1; fill:none" points="870.025,144.949 934.457,144.949 "/>
<path clip-path="url(#clip040)" d="M963.969 149.289 Q963.969 144.59 962.024 141.928 Q960.103 139.243 956.723 139.243 Q953.344 139.243 951.399 141.928 Q949.478 144.59 949.478 149.289 Q949.478 153.988 951.399 156.673 Q953.344 159.335 956.723 159.335 Q960.103 159.335 962.024 156.673 Q963.969 153.988 963.969 149.289 M949.478 140.238 Q950.821 137.923 952.858 136.812 Q954.918 135.678 957.765 135.678 Q962.487 135.678 965.427 139.428 Q968.39 143.178 968.39 149.289 Q968.39 155.4 965.427 159.15 Q962.487 162.9 957.765 162.9 Q954.918 162.9 952.858 161.789 Q950.821 160.655 949.478 158.34 L949.478 162.229 L945.196 162.229 L945.196 126.21 L949.478 126.21 L949.478 140.238 Z" fill="#000000" fill-rule="nonzero" fill-opacity="1" /><path clip-path="url(#clip040)" d="M985.496 139.289 Q982.07 139.289 980.08 141.974 Q978.089 144.636 978.089 149.289 Q978.089 153.942 980.056 156.627 Q982.047 159.289 985.496 159.289 Q988.899 159.289 990.89 156.604 Q992.88 153.918 992.88 149.289 Q992.88 144.682 990.89 141.997 Q988.899 139.289 985.496 139.289 M985.496 135.678 Q991.052 135.678 994.223 139.289 Q997.394 142.9 997.394 149.289 Q997.394 155.655 994.223 159.289 Q991.052 162.9 985.496 162.9 Q979.918 162.9 976.746 159.289 Q973.598 155.655 973.598 149.289 Q973.598 142.9 976.746 139.289 Q979.918 135.678 985.496 135.678 Z" fill="#000000" fill-rule="nonzero" fill-opacity="1" /><path clip-path="url(#clip040)" d="M1021.51 140.238 L1021.51 126.21 L1025.77 126.21 L1025.77 162.229 L1021.51 162.229 L1021.51 158.34 Q1020.17 160.655 1018.11 161.789 Q1016.07 162.9 1013.2 162.9 Q1008.51 162.9 1005.54 159.15 Q1002.6 155.4 1002.6 149.289 Q1002.6 143.178 1005.54 139.428 Q1008.51 135.678 1013.2 135.678 Q1016.07 135.678 1018.11 136.812 Q1020.17 137.923 1021.51 140.238 M1007 149.289 Q1007 153.988 1008.92 156.673 Q1010.87 159.335 1014.25 159.335 Q1017.63 159.335 1019.57 156.673 Q1021.51 153.988 1021.51 149.289 Q1021.51 144.59 1019.57 141.928 Q1017.63 139.243 1014.25 139.243 Q1010.87 139.243 1008.92 141.928 Q1007 144.59 1007 149.289 Z" fill="#000000" fill-rule="nonzero" fill-opacity="1" /><path clip-path="url(#clip040)" d="M1045.33 164.636 Q1043.53 169.266 1041.82 170.678 Q1040.1 172.09 1037.23 172.09 L1033.83 172.09 L1033.83 168.525 L1036.33 168.525 Q1038.09 168.525 1039.06 167.692 Q1040.03 166.858 1041.21 163.756 L1041.98 161.812 L1031.49 136.303 L1036.01 136.303 L1044.11 156.581 L1052.21 136.303 L1056.72 136.303 L1045.33 164.636 Z" fill="#000000" fill-rule="nonzero" fill-opacity="1" /><path clip-path="url(#clip040)" d="M1071.86 145.585 L1071.86 152.807 L1079.99 152.807 L1079.99 155.006 L1071.86 155.006 L1071.86 162.229 L1069.43 162.229 L1069.43 155.006 L1061.31 155.006 L1061.31 152.807 L1069.43 152.807 L1069.43 145.585 L1071.86 145.585 Z" fill="#000000" fill-rule="nonzero" fill-opacity="1" /><path clip-path="url(#clip040)" d="M1084.57 136.303 L1089.08 136.303 L1097.19 158.062 L1105.29 136.303 L1109.8 136.303 L1100.08 162.229 L1094.29 162.229 L1084.57 136.303 Z" fill="#000000" fill-rule="nonzero" fill-opacity="1" /><path clip-path="url(#clip040)" d="M1386.27 1423.18 L2352.76 1423.18 L2352.76 47.2441 L1386.27 47.2441  Z" fill="#ffffff" fill-rule="evenodd" fill-opacity="1"/>
<defs>
  <clipPath id="clip043">
    <rect x="1386" y="47" width="967" height="1377"/>
  </clipPath>
</defs>
<polyline clip-path="url(#clip043)" style="stroke:#000000; stroke-linecap:round; stroke-linejoin:round; stroke-width:2; stroke-opacity:0.1; fill:none" points="1386.27,1423.18 1386.27,47.2441 "/>
<polyline clip-path="url(#clip043)" style="stroke:#000000; stroke-linecap:round; stroke-linejoin:round; stroke-width:2; stroke-opacity:0.1; fill:none" points="1579.57,1423.18 1579.57,47.2441 "/>
<polyline clip-path="url(#clip043)" style="stroke:#000000; stroke-linecap:round; stroke-linejoin:round; stroke-width:2; stroke-opacity:0.1; fill:none" points="1772.87,1423.18 1772.87,47.2441 "/>
<polyline clip-path="url(#clip043)" style="stroke:#000000; stroke-linecap:round; stroke-linejoin:round; stroke-width:2; stroke-opacity:0.1; fill:none" points="1966.16,1423.18 1966.16,47.2441 "/>
<polyline clip-path="url(#clip043)" style="stroke:#000000; stroke-linecap:round; stroke-linejoin:round; stroke-width:2; stroke-opacity:0.1; fill:none" points="2159.46,1423.18 2159.46,47.2441 "/>
<polyline clip-path="url(#clip043)" style="stroke:#000000; stroke-linecap:round; stroke-linejoin:round; stroke-width:2; stroke-opacity:0.1; fill:none" points="2352.76,1423.18 2352.76,47.2441 "/>
<polyline clip-path="url(#clip043)" style="stroke:#000000; stroke-linecap:round; stroke-linejoin:round; stroke-width:2; stroke-opacity:0.1; fill:none" points="1386.27,1384.3 2352.76,1384.3 "/>
<polyline clip-path="url(#clip043)" style="stroke:#000000; stroke-linecap:round; stroke-linejoin:round; stroke-width:2; stroke-opacity:0.1; fill:none" points="1386.27,1059.77 2352.76,1059.77 "/>
<polyline clip-path="url(#clip043)" style="stroke:#000000; stroke-linecap:round; stroke-linejoin:round; stroke-width:2; stroke-opacity:0.1; fill:none" points="1386.27,735.241 2352.76,735.241 "/>
<polyline clip-path="url(#clip043)" style="stroke:#000000; stroke-linecap:round; stroke-linejoin:round; stroke-width:2; stroke-opacity:0.1; fill:none" points="1386.27,410.714 2352.76,410.714 "/>
<polyline clip-path="url(#clip043)" style="stroke:#000000; stroke-linecap:round; stroke-linejoin:round; stroke-width:2; stroke-opacity:0.1; fill:none" points="1386.27,86.1857 2352.76,86.1857 "/>
<polyline clip-path="url(#clip040)" style="stroke:#000000; stroke-linecap:round; stroke-linejoin:round; stroke-width:4; stroke-opacity:1; fill:none" points="1386.27,1423.18 2352.76,1423.18 "/>
<polyline clip-path="url(#clip040)" style="stroke:#000000; stroke-linecap:round; stroke-linejoin:round; stroke-width:4; stroke-opacity:1; fill:none" points="1386.27,1423.18 1386.27,1404.28 "/>
<polyline clip-path="url(#clip040)" style="stroke:#000000; stroke-linecap:round; stroke-linejoin:round; stroke-width:4; stroke-opacity:1; fill:none" points="1579.57,1423.18 1579.57,1404.28 "/>
<polyline clip-path="url(#clip040)" style="stroke:#000000; stroke-linecap:round; stroke-linejoin:round; stroke-width:4; stroke-opacity:1; fill:none" points="1772.87,1423.18 1772.87,1404.28 "/>
<polyline clip-path="url(#clip040)" style="stroke:#000000; stroke-linecap:round; stroke-linejoin:round; stroke-width:4; stroke-opacity:1; fill:none" points="1966.16,1423.18 1966.16,1404.28 "/>
<polyline clip-path="url(#clip040)" style="stroke:#000000; stroke-linecap:round; stroke-linejoin:round; stroke-width:4; stroke-opacity:1; fill:none" points="2159.46,1423.18 2159.46,1404.28 "/>
<polyline clip-path="url(#clip040)" style="stroke:#000000; stroke-linecap:round; stroke-linejoin:round; stroke-width:4; stroke-opacity:1; fill:none" points="2352.76,1423.18 2352.76,1404.28 "/>
<path clip-path="url(#clip040)" d="M1386.27 1454.1 Q1382.66 1454.1 1380.83 1457.66 Q1379.03 1461.2 1379.03 1468.33 Q1379.03 1475.44 1380.83 1479.01 Q1382.66 1482.55 1386.27 1482.55 Q1389.91 1482.55 1391.71 1479.01 Q1393.54 1475.44 1393.54 1468.33 Q1393.54 1461.2 1391.71 1457.66 Q1389.91 1454.1 1386.27 1454.1 M1386.27 1450.39 Q1392.08 1450.39 1395.14 1455 Q1398.22 1459.58 1398.22 1468.33 Q1398.22 1477.06 1395.14 1481.67 Q1392.08 1486.25 1386.27 1486.25 Q1380.46 1486.25 1377.39 1481.67 Q1374.33 1477.06 1374.33 1468.33 Q1374.33 1459.58 1377.39 1455 Q1380.46 1450.39 1386.27 1450.39 Z" fill="#000000" fill-rule="nonzero" fill-opacity="1" /><path clip-path="url(#clip040)" d="M1574.22 1481.64 L1590.54 1481.64 L1590.54 1485.58 L1568.6 1485.58 L1568.6 1481.64 Q1571.26 1478.89 1575.84 1474.26 Q1580.45 1469.61 1581.63 1468.27 Q1583.88 1465.74 1584.76 1464.01 Q1585.66 1462.25 1585.66 1460.56 Q1585.66 1457.8 1583.71 1456.07 Q1581.79 1454.33 1578.69 1454.33 Q1576.49 1454.33 1574.04 1455.09 Q1571.61 1455.86 1568.83 1457.41 L1568.83 1452.69 Q1571.65 1451.55 1574.11 1450.97 Q1576.56 1450.39 1578.6 1450.39 Q1583.97 1450.39 1587.16 1453.08 Q1590.36 1455.77 1590.36 1460.26 Q1590.36 1462.39 1589.55 1464.31 Q1588.76 1466.2 1586.65 1468.8 Q1586.07 1469.47 1582.97 1472.69 Q1579.87 1475.88 1574.22 1481.64 Z" fill="#000000" fill-rule="nonzero" fill-opacity="1" /><path clip-path="url(#clip040)" d="M1775.88 1455.09 L1764.07 1473.54 L1775.88 1473.54 L1775.88 1455.09 M1774.65 1451.02 L1780.53 1451.02 L1780.53 1473.54 L1785.46 1473.54 L1785.46 1477.43 L1780.53 1477.43 L1780.53 1485.58 L1775.88 1485.58 L1775.88 1477.43 L1760.27 1477.43 L1760.27 1472.92 L1774.65 1451.02 Z" fill="#000000" fill-rule="nonzero" fill-opacity="1" /><path clip-path="url(#clip040)" d="M1966.57 1466.44 Q1963.42 1466.44 1961.57 1468.59 Q1959.74 1470.74 1959.74 1474.49 Q1959.74 1478.22 1961.57 1480.39 Q1963.42 1482.55 1966.57 1482.55 Q1969.72 1482.55 1971.55 1480.39 Q1973.4 1478.22 1973.4 1474.49 Q1973.4 1470.74 1971.55 1468.59 Q1969.72 1466.44 1966.57 1466.44 M1975.85 1451.78 L1975.85 1456.04 Q1974.09 1455.21 1972.29 1454.77 Q1970.5 1454.33 1968.74 1454.33 Q1964.11 1454.33 1961.66 1457.45 Q1959.23 1460.58 1958.88 1466.9 Q1960.25 1464.89 1962.31 1463.82 Q1964.37 1462.73 1966.85 1462.73 Q1972.05 1462.73 1975.06 1465.9 Q1978.1 1469.05 1978.1 1474.49 Q1978.1 1479.82 1974.95 1483.03 Q1971.8 1486.25 1966.57 1486.25 Q1960.57 1486.25 1957.4 1481.67 Q1954.23 1477.06 1954.23 1468.33 Q1954.23 1460.14 1958.12 1455.28 Q1962.01 1450.39 1968.56 1450.39 Q1970.32 1450.39 1972.1 1450.74 Q1973.91 1451.09 1975.85 1451.78 Z" fill="#000000" fill-rule="nonzero" fill-opacity="1" /><path clip-path="url(#clip040)" d="M2159.46 1469.17 Q2156.13 1469.17 2154.2 1470.95 Q2152.31 1472.73 2152.31 1475.86 Q2152.31 1478.98 2154.2 1480.77 Q2156.13 1482.55 2159.46 1482.55 Q2162.79 1482.55 2164.71 1480.77 Q2166.64 1478.96 2166.64 1475.86 Q2166.64 1472.73 2164.71 1470.95 Q2162.82 1469.17 2159.46 1469.17 M2154.78 1467.18 Q2151.77 1466.44 2150.08 1464.38 Q2148.42 1462.32 2148.42 1459.35 Q2148.42 1455.21 2151.36 1452.8 Q2154.32 1450.39 2159.46 1450.39 Q2164.62 1450.39 2167.56 1452.8 Q2170.5 1455.21 2170.5 1459.35 Q2170.5 1462.32 2168.81 1464.38 Q2167.14 1466.44 2164.16 1467.18 Q2167.54 1467.96 2169.41 1470.26 Q2171.31 1472.55 2171.31 1475.86 Q2171.31 1480.88 2168.23 1483.57 Q2165.18 1486.25 2159.46 1486.25 Q2153.74 1486.25 2150.66 1483.57 Q2147.61 1480.88 2147.61 1475.86 Q2147.61 1472.55 2149.51 1470.26 Q2151.4 1467.96 2154.78 1467.18 M2153.07 1459.79 Q2153.07 1462.48 2154.74 1463.98 Q2156.43 1465.49 2159.46 1465.49 Q2162.47 1465.49 2164.16 1463.98 Q2165.87 1462.48 2165.87 1459.79 Q2165.87 1457.11 2164.16 1455.6 Q2162.47 1454.1 2159.46 1454.1 Q2156.43 1454.1 2154.74 1455.6 Q2153.07 1457.11 2153.07 1459.79 Z" fill="#000000" fill-rule="nonzero" fill-opacity="1" /><path clip-path="url(#clip040)" d="M2327.44 1481.64 L2335.08 1481.64 L2335.08 1455.28 L2326.77 1456.95 L2326.77 1452.69 L2335.04 1451.02 L2339.71 1451.02 L2339.71 1481.64 L2347.35 1481.64 L2347.35 1485.58 L2327.44 1485.58 L2327.44 1481.64 Z" fill="#000000" fill-rule="nonzero" fill-opacity="1" /><path clip-path="url(#clip040)" d="M2366.8 1454.1 Q2363.18 1454.1 2361.36 1457.66 Q2359.55 1461.2 2359.55 1468.33 Q2359.55 1475.44 2361.36 1479.01 Q2363.18 1482.55 2366.8 1482.55 Q2370.43 1482.55 2372.23 1479.01 Q2374.06 1475.44 2374.06 1468.33 Q2374.06 1461.2 2372.23 1457.66 Q2370.43 1454.1 2366.8 1454.1 M2366.8 1450.39 Q2372.61 1450.39 2375.66 1455 Q2378.74 1459.58 2378.74 1468.33 Q2378.74 1477.06 2375.66 1481.67 Q2372.61 1486.25 2366.8 1486.25 Q2360.99 1486.25 2357.91 1481.67 Q2354.85 1477.06 2354.85 1468.33 Q2354.85 1459.58 2357.91 1455 Q2360.99 1450.39 2366.8 1450.39 Z" fill="#000000" fill-rule="nonzero" fill-opacity="1" /><path clip-path="url(#clip040)" d="M1868.58 1522.27 L1868.58 1532.4 L1880.64 1532.4 L1880.64 1536.95 L1868.58 1536.95 L1868.58 1556.3 Q1868.58 1560.66 1869.75 1561.9 Q1870.96 1563.14 1874.62 1563.14 L1880.64 1563.14 L1880.64 1568.04 L1874.62 1568.04 Q1867.84 1568.04 1865.27 1565.53 Q1862.69 1562.98 1862.69 1556.3 L1862.69 1536.95 L1858.39 1536.95 L1858.39 1532.4 L1862.69 1532.4 L1862.69 1522.27 L1868.58 1522.27 Z" fill="#000000" fill-rule="nonzero" fill-opacity="1" /><polyline clip-path="url(#clip040)" style="stroke:#000000; stroke-linecap:round; stroke-linejoin:round; stroke-width:4; stroke-opacity:1; fill:none" points="1386.27,1423.18 1386.27,47.2441 "/>
<polyline clip-path="url(#clip040)" style="stroke:#000000; stroke-linecap:round; stroke-linejoin:round; stroke-width:4; stroke-opacity:1; fill:none" points="1386.27,1384.3 1405.17,1384.3 "/>
<polyline clip-path="url(#clip040)" style="stroke:#000000; stroke-linecap:round; stroke-linejoin:round; stroke-width:4; stroke-opacity:1; fill:none" points="1386.27,1059.77 1405.17,1059.77 "/>
<polyline clip-path="url(#clip040)" style="stroke:#000000; stroke-linecap:round; stroke-linejoin:round; stroke-width:4; stroke-opacity:1; fill:none" points="1386.27,735.241 1405.17,735.241 "/>
<polyline clip-path="url(#clip040)" style="stroke:#000000; stroke-linecap:round; stroke-linejoin:round; stroke-width:4; stroke-opacity:1; fill:none" points="1386.27,410.714 1405.17,410.714 "/>
<polyline clip-path="url(#clip040)" style="stroke:#000000; stroke-linecap:round; stroke-linejoin:round; stroke-width:4; stroke-opacity:1; fill:none" points="1386.27,86.1857 1405.17,86.1857 "/>
<path clip-path="url(#clip040)" d="M1262.94 1370.1 Q1259.33 1370.1 1257.5 1373.66 Q1255.69 1377.2 1255.69 1384.33 Q1255.69 1391.44 1257.5 1395 Q1259.33 1398.54 1262.94 1398.54 Q1266.57 1398.54 1268.38 1395 Q1270.2 1391.44 1270.2 1384.33 Q1270.2 1377.2 1268.38 1373.66 Q1266.57 1370.1 1262.94 1370.1 M1262.94 1366.39 Q1268.75 1366.39 1271.8 1371 Q1274.88 1375.58 1274.88 1384.33 Q1274.88 1393.06 1271.8 1397.67 Q1268.75 1402.25 1262.94 1402.25 Q1257.13 1402.25 1254.05 1397.67 Q1250.99 1393.06 1250.99 1384.33 Q1250.99 1375.58 1254.05 1371 Q1257.13 1366.39 1262.94 1366.39 Z" fill="#000000" fill-rule="nonzero" fill-opacity="1" /><path clip-path="url(#clip040)" d="M1283.1 1395.7 L1287.98 1395.7 L1287.98 1401.58 L1283.1 1401.58 L1283.1 1395.7 Z" fill="#000000" fill-rule="nonzero" fill-opacity="1" /><path clip-path="url(#clip040)" d="M1308.17 1370.1 Q1304.56 1370.1 1302.73 1373.66 Q1300.92 1377.2 1300.92 1384.33 Q1300.92 1391.44 1302.73 1395 Q1304.56 1398.54 1308.17 1398.54 Q1311.8 1398.54 1313.61 1395 Q1315.44 1391.44 1315.44 1384.33 Q1315.44 1377.2 1313.61 1373.66 Q1311.8 1370.1 1308.17 1370.1 M1308.17 1366.39 Q1313.98 1366.39 1317.03 1371 Q1320.11 1375.58 1320.11 1384.33 Q1320.11 1393.06 1317.03 1397.67 Q1313.98 1402.25 1308.17 1402.25 Q1302.36 1402.25 1299.28 1397.67 Q1296.22 1393.06 1296.22 1384.33 Q1296.22 1375.58 1299.28 1371 Q1302.36 1366.39 1308.17 1366.39 Z" fill="#000000" fill-rule="nonzero" fill-opacity="1" /><path clip-path="url(#clip040)" d="M1338.33 1370.1 Q1334.72 1370.1 1332.89 1373.66 Q1331.08 1377.2 1331.08 1384.33 Q1331.08 1391.44 1332.89 1395 Q1334.72 1398.54 1338.33 1398.54 Q1341.96 1398.54 1343.77 1395 Q1345.6 1391.44 1345.6 1384.33 Q1345.6 1377.2 1343.77 1373.66 Q1341.96 1370.1 1338.33 1370.1 M1338.33 1366.39 Q1344.14 1366.39 1347.2 1371 Q1350.27 1375.58 1350.27 1384.33 Q1350.27 1393.06 1347.2 1397.67 Q1344.14 1402.25 1338.33 1402.25 Q1332.52 1402.25 1329.44 1397.67 Q1326.39 1393.06 1326.39 1384.33 Q1326.39 1375.58 1329.44 1371 Q1332.52 1366.39 1338.33 1366.39 Z" fill="#000000" fill-rule="nonzero" fill-opacity="1" /><path clip-path="url(#clip040)" d="M1263.93 1045.57 Q1260.32 1045.57 1258.49 1049.13 Q1256.69 1052.67 1256.69 1059.8 Q1256.69 1066.91 1258.49 1070.48 Q1260.32 1074.02 1263.93 1074.02 Q1267.57 1074.02 1269.37 1070.48 Q1271.2 1066.91 1271.2 1059.8 Q1271.2 1052.67 1269.37 1049.13 Q1267.57 1045.57 1263.93 1045.57 M1263.93 1041.86 Q1269.74 1041.86 1272.8 1046.47 Q1275.88 1051.05 1275.88 1059.8 Q1275.88 1068.53 1272.8 1073.14 Q1269.74 1077.72 1263.93 1077.72 Q1258.12 1077.72 1255.04 1073.14 Q1251.99 1068.53 1251.99 1059.8 Q1251.99 1051.05 1255.04 1046.47 Q1258.12 1041.86 1263.93 1041.86 Z" fill="#000000" fill-rule="nonzero" fill-opacity="1" /><path clip-path="url(#clip040)" d="M1284.09 1071.17 L1288.98 1071.17 L1288.98 1077.05 L1284.09 1077.05 L1284.09 1071.17 Z" fill="#000000" fill-rule="nonzero" fill-opacity="1" /><path clip-path="url(#clip040)" d="M1303.19 1073.11 L1319.51 1073.11 L1319.51 1077.05 L1297.57 1077.05 L1297.57 1073.11 Q1300.23 1070.36 1304.81 1065.73 Q1309.42 1061.08 1310.6 1059.73 Q1312.84 1057.21 1313.72 1055.48 Q1314.63 1053.72 1314.63 1052.03 Q1314.63 1049.27 1312.68 1047.54 Q1310.76 1045.8 1307.66 1045.8 Q1305.46 1045.8 1303.01 1046.56 Q1300.58 1047.33 1297.8 1048.88 L1297.8 1044.16 Q1300.62 1043.02 1303.08 1042.44 Q1305.53 1041.86 1307.57 1041.86 Q1312.94 1041.86 1316.13 1044.55 Q1319.33 1047.23 1319.33 1051.73 Q1319.33 1053.86 1318.51 1055.78 Q1317.73 1057.67 1315.62 1060.27 Q1315.04 1060.94 1311.94 1064.16 Q1308.84 1067.35 1303.19 1073.11 Z" fill="#000000" fill-rule="nonzero" fill-opacity="1" /><path clip-path="url(#clip040)" d="M1329.37 1042.49 L1347.73 1042.49 L1347.73 1046.42 L1333.65 1046.42 L1333.65 1054.9 Q1334.67 1054.55 1335.69 1054.39 Q1336.71 1054.2 1337.73 1054.2 Q1343.51 1054.2 1346.89 1057.37 Q1350.27 1060.54 1350.27 1065.96 Q1350.27 1071.54 1346.8 1074.64 Q1343.33 1077.72 1337.01 1077.72 Q1334.83 1077.72 1332.57 1077.35 Q1330.32 1076.98 1327.91 1076.24 L1327.91 1071.54 Q1330 1072.67 1332.22 1073.23 Q1334.44 1073.79 1336.92 1073.79 Q1340.92 1073.79 1343.26 1071.68 Q1345.6 1069.57 1345.6 1065.96 Q1345.6 1062.35 1343.26 1060.24 Q1340.92 1058.14 1336.92 1058.14 Q1335.04 1058.14 1333.17 1058.55 Q1331.32 1058.97 1329.37 1059.85 L1329.37 1042.49 Z" fill="#000000" fill-rule="nonzero" fill-opacity="1" /><path clip-path="url(#clip040)" d="M1262.94 721.04 Q1259.33 721.04 1257.5 724.605 Q1255.69 728.147 1255.69 735.276 Q1255.69 742.383 1257.5 745.947 Q1259.33 749.489 1262.94 749.489 Q1266.57 749.489 1268.38 745.947 Q1270.2 742.383 1270.2 735.276 Q1270.2 728.147 1268.38 724.605 Q1266.57 721.04 1262.94 721.04 M1262.94 717.336 Q1268.75 717.336 1271.8 721.943 Q1274.88 726.526 1274.88 735.276 Q1274.88 744.003 1271.8 748.609 Q1268.75 753.193 1262.94 753.193 Q1257.13 753.193 1254.05 748.609 Q1250.99 744.003 1250.99 735.276 Q1250.99 726.526 1254.05 721.943 Q1257.13 717.336 1262.94 717.336 Z" fill="#000000" fill-rule="nonzero" fill-opacity="1" /><path clip-path="url(#clip040)" d="M1283.1 746.642 L1287.98 746.642 L1287.98 752.521 L1283.1 752.521 L1283.1 746.642 Z" fill="#000000" fill-rule="nonzero" fill-opacity="1" /><path clip-path="url(#clip040)" d="M1298.21 717.961 L1316.57 717.961 L1316.57 721.897 L1302.5 721.897 L1302.5 730.369 Q1303.51 730.022 1304.53 729.86 Q1305.55 729.674 1306.57 729.674 Q1312.36 729.674 1315.74 732.846 Q1319.12 736.017 1319.12 741.434 Q1319.12 747.012 1315.64 750.114 Q1312.17 753.193 1305.85 753.193 Q1303.68 753.193 1301.41 752.822 Q1299.16 752.452 1296.76 751.711 L1296.76 747.012 Q1298.84 748.146 1301.06 748.702 Q1303.28 749.258 1305.76 749.258 Q1309.76 749.258 1312.1 747.151 Q1314.44 745.045 1314.44 741.434 Q1314.44 737.822 1312.1 735.716 Q1309.76 733.61 1305.76 733.61 Q1303.89 733.61 1302.01 734.026 Q1300.16 734.443 1298.21 735.322 L1298.21 717.961 Z" fill="#000000" fill-rule="nonzero" fill-opacity="1" /><path clip-path="url(#clip040)" d="M1338.33 721.04 Q1334.72 721.04 1332.89 724.605 Q1331.08 728.147 1331.08 735.276 Q1331.08 742.383 1332.89 745.947 Q1334.72 749.489 1338.33 749.489 Q1341.96 749.489 1343.77 745.947 Q1345.6 742.383 1345.6 735.276 Q1345.6 728.147 1343.77 724.605 Q1341.96 721.04 1338.33 721.04 M1338.33 717.336 Q1344.14 717.336 1347.2 721.943 Q1350.27 726.526 1350.27 735.276 Q1350.27 744.003 1347.2 748.609 Q1344.14 753.193 1338.33 753.193 Q1332.52 753.193 1329.44 748.609 Q1326.39 744.003 1326.39 735.276 Q1326.39 726.526 1329.44 721.943 Q1332.52 717.336 1338.33 717.336 Z" fill="#000000" fill-rule="nonzero" fill-opacity="1" /><path clip-path="url(#clip040)" d="M1263.93 396.512 Q1260.32 396.512 1258.49 400.077 Q1256.69 403.619 1256.69 410.748 Q1256.69 417.855 1258.49 421.42 Q1260.32 424.961 1263.93 424.961 Q1267.57 424.961 1269.37 421.42 Q1271.2 417.855 1271.2 410.748 Q1271.2 403.619 1269.37 400.077 Q1267.57 396.512 1263.93 396.512 M1263.93 392.809 Q1269.74 392.809 1272.8 397.415 Q1275.88 401.998 1275.88 410.748 Q1275.88 419.475 1272.8 424.082 Q1269.74 428.665 1263.93 428.665 Q1258.12 428.665 1255.04 424.082 Q1251.99 419.475 1251.99 410.748 Q1251.99 401.998 1255.04 397.415 Q1258.12 392.809 1263.93 392.809 Z" fill="#000000" fill-rule="nonzero" fill-opacity="1" /><path clip-path="url(#clip040)" d="M1284.09 422.114 L1288.98 422.114 L1288.98 427.994 L1284.09 427.994 L1284.09 422.114 Z" fill="#000000" fill-rule="nonzero" fill-opacity="1" /><path clip-path="url(#clip040)" d="M1297.98 393.434 L1320.2 393.434 L1320.2 395.424 L1307.66 427.994 L1302.77 427.994 L1314.58 397.369 L1297.98 397.369 L1297.98 393.434 Z" fill="#000000" fill-rule="nonzero" fill-opacity="1" /><path clip-path="url(#clip040)" d="M1329.37 393.434 L1347.73 393.434 L1347.73 397.369 L1333.65 397.369 L1333.65 405.841 Q1334.67 405.494 1335.69 405.332 Q1336.71 405.146 1337.73 405.146 Q1343.51 405.146 1346.89 408.318 Q1350.27 411.489 1350.27 416.906 Q1350.27 422.484 1346.8 425.586 Q1343.33 428.665 1337.01 428.665 Q1334.83 428.665 1332.57 428.294 Q1330.32 427.924 1327.91 427.183 L1327.91 422.484 Q1330 423.619 1332.22 424.174 Q1334.44 424.73 1336.92 424.73 Q1340.92 424.73 1343.26 422.623 Q1345.6 420.517 1345.6 416.906 Q1345.6 413.295 1343.26 411.188 Q1340.92 409.082 1336.92 409.082 Q1335.04 409.082 1333.17 409.498 Q1331.32 409.915 1329.37 410.795 L1329.37 393.434 Z" fill="#000000" fill-rule="nonzero" fill-opacity="1" /><path clip-path="url(#clip040)" d="M1253.75 99.5305 L1261.39 99.5305 L1261.39 73.1649 L1253.08 74.8316 L1253.08 70.5723 L1261.34 68.9057 L1266.02 68.9057 L1266.02 99.5305 L1273.65 99.5305 L1273.65 103.466 L1253.75 103.466 L1253.75 99.5305 Z" fill="#000000" fill-rule="nonzero" fill-opacity="1" /><path clip-path="url(#clip040)" d="M1283.1 97.5861 L1287.98 97.5861 L1287.98 103.466 L1283.1 103.466 L1283.1 97.5861 Z" fill="#000000" fill-rule="nonzero" fill-opacity="1" /><path clip-path="url(#clip040)" d="M1308.17 71.9844 Q1304.56 71.9844 1302.73 75.5492 Q1300.92 79.0908 1300.92 86.2204 Q1300.92 93.3268 1302.73 96.8916 Q1304.56 100.433 1308.17 100.433 Q1311.8 100.433 1313.61 96.8916 Q1315.44 93.3268 1315.44 86.2204 Q1315.44 79.0908 1313.61 75.5492 Q1311.8 71.9844 1308.17 71.9844 M1308.17 68.2807 Q1313.98 68.2807 1317.03 72.8871 Q1320.11 77.4704 1320.11 86.2204 Q1320.11 94.9472 1317.03 99.5537 Q1313.98 104.137 1308.17 104.137 Q1302.36 104.137 1299.28 99.5537 Q1296.22 94.9472 1296.22 86.2204 Q1296.22 77.4704 1299.28 72.8871 Q1302.36 68.2807 1308.17 68.2807 Z" fill="#000000" fill-rule="nonzero" fill-opacity="1" /><path clip-path="url(#clip040)" d="M1338.33 71.9844 Q1334.72 71.9844 1332.89 75.5492 Q1331.08 79.0908 1331.08 86.2204 Q1331.08 93.3268 1332.89 96.8916 Q1334.72 100.433 1338.33 100.433 Q1341.96 100.433 1343.77 96.8916 Q1345.6 93.3268 1345.6 86.2204 Q1345.6 79.0908 1343.77 75.5492 Q1341.96 71.9844 1338.33 71.9844 M1338.33 68.2807 Q1344.14 68.2807 1347.2 72.8871 Q1350.27 77.4704 1350.27 86.2204 Q1350.27 94.9472 1347.2 99.5537 Q1344.14 104.137 1338.33 104.137 Q1332.52 104.137 1329.44 99.5537 Q1326.39 94.9472 1326.39 86.2204 Q1326.39 77.4704 1329.44 72.8871 Q1332.52 68.2807 1338.33 68.2807 Z" fill="#000000" fill-rule="nonzero" fill-opacity="1" /><polyline clip-path="url(#clip043)" style="stroke:#009af9; stroke-linecap:round; stroke-linejoin:round; stroke-width:4; stroke-opacity:1; fill:none" points="1386.27,86.1857 1387.24,99.115 1388.21,111.915 1389.18,124.588 1390.14,137.135 1391.11,149.557 1392.08,161.855 1393.05,174.031 1394.01,186.085 1394.98,198.019 1395.95,209.835 1396.92,221.533 1397.88,233.114 1398.85,244.58 1399.82,255.931 1400.79,267.17 1401.75,278.297 1402.72,289.313 1403.69,300.219 1404.66,311.016 1405.62,321.706 1406.59,332.29 1407.56,342.768 1408.53,353.141 1409.49,363.412 1410.46,373.58 1411.43,383.647 1412.4,393.613 1413.36,403.481 1414.33,413.25 1415.3,422.921 1416.26,432.497 1417.23,441.977 1418.2,451.362 1419.17,460.655 1420.13,469.854 1421.1,478.962 1422.07,487.979 1423.04,496.907 1424,505.745 1424.97,514.495 1425.94,523.159 1426.91,531.736 1427.87,540.227 1428.84,548.634 1429.81,556.958 1430.78,565.198 1431.74,573.356 1432.71,581.433 1433.68,589.43 1434.65,597.347 1435.61,605.185 1436.58,612.945 1437.55,620.628 1438.52,628.234 1439.48,635.765 1440.45,643.22 1441.42,650.601 1442.39,657.909 1443.35,665.144 1444.32,672.307 1445.29,679.398 1446.26,686.419 1447.22,693.37 1448.19,700.252 1449.16,707.065 1450.13,713.81 1451.09,720.488 1452.06,727.099 1453.03,733.645 1454,740.126 1454.96,746.542 1455.93,752.894 1456.9,759.183 1457.87,765.409 1458.83,771.573 1459.8,777.676 1460.77,783.718 1461.74,789.699 1462.7,795.622 1463.67,801.485 1464.64,807.29 1465.6,813.037 1466.57,818.727 1467.54,824.36 1468.51,829.938 1469.47,835.459 1470.44,840.926 1471.41,846.338 1472.38,851.696 1473.34,857.001 1474.31,862.253 1475.28,867.452 1476.25,872.6 1477.21,877.697 1478.18,882.743 1479.15,887.738 1480.12,892.684 1481.08,897.58 1482.05,902.428 1483.02,907.227 1483.99,911.979 1484.95,916.683 1485.92,921.34 1486.89,925.951 1487.86,930.516 1488.82,935.036 1489.79,939.511 1490.76,943.941 1491.73,948.327 1492.69,952.669 1493.66,956.968 1494.63,961.224 1495.6,965.438 1496.56,969.61 1497.53,973.74 1498.5,977.829 1499.47,981.878 1500.43,985.886 1501.4,989.854 1502.37,993.783 1503.34,997.673 1504.3,1001.52 1505.27,1005.34 1506.24,1009.11 1507.21,1012.85 1508.17,1016.55 1509.14,1020.21 1510.11,1023.84 1511.07,1027.43 1512.04,1030.98 1513.01,1034.5 1513.98,1037.99 1514.94,1041.43 1515.91,1044.85 1516.88,1048.23 1517.85,1051.58 1518.81,1054.89 1519.78,1058.17 1520.75,1061.42 1521.72,1064.64 1522.68,1067.82 1523.65,1070.97 1524.62,1074.09 1525.59,1077.18 1526.55,1080.24 1527.52,1083.27 1528.49,1086.27 1529.46,1089.24 1530.42,1092.17 1531.39,1095.08 1532.36,1097.96 1533.33,1100.82 1534.29,1103.64 1535.26,1106.43 1536.23,1109.2 1537.2,1111.94 1538.16,1114.65 1539.13,1117.34 1540.1,1120 1541.07,1122.63 1542.03,1125.24 1543,1127.82 1543.97,1130.37 1544.94,1132.9 1545.9,1135.41 1546.87,1137.89 1547.84,1140.34 1548.81,1142.77 1549.77,1145.18 1550.74,1147.56 1551.71,1149.92 1552.68,1152.25 1553.64,1154.56 1554.61,1156.85 1555.58,1159.12 1556.55,1161.36 1557.51,1163.58 1558.48,1165.78 1559.45,1167.95 1560.41,1170.11 1561.38,1172.24 1562.35,1174.35 1563.32,1176.45 1564.28,1178.52 1565.25,1180.57 1566.22,1182.59 1567.19,1184.6 1568.15,1186.59 1569.12,1188.56 1570.09,1190.51 1571.06,1192.44 1572.02,1194.35 1572.99,1196.24 1573.96,1198.12 1574.93,1199.97 1575.89,1201.81 1576.86,1203.62 1577.83,1205.42 1578.8,1207.2 1579.76,1208.97 1580.73,1210.71 1581.7,1212.44 1582.67,1214.15 1583.63,1215.85 1584.6,1217.53 1585.57,1219.19 1586.54,1220.83 1587.5,1222.46 1588.47,1224.07 1589.44,1225.67 1590.41,1227.25 1591.37,1228.81 1592.34,1230.36 1593.31,1231.89 1594.28,1233.41 1595.24,1234.92 1596.21,1236.4 1597.18,1237.88 1598.15,1239.34 1599.11,1240.78 1600.08,1242.21 1601.05,1243.62 1602.02,1245.03 1602.98,1246.41 1603.95,1247.79 1604.92,1249.15 1605.89,1250.49 1606.85,1251.83 1607.82,1253.15 1608.79,1254.45 1609.75,1255.74 1610.72,1257.03 1611.69,1258.29 1612.66,1259.55 1613.62,1260.79 1614.59,1262.02 1615.56,1263.24 1616.53,1264.44 1617.49,1265.64 1618.46,1266.82 1619.43,1267.99 1620.4,1269.15 1621.36,1270.29 1622.33,1271.43 1623.3,1272.55 1624.27,1273.67 1625.23,1274.77 1626.2,1275.86 1627.17,1276.94 1628.14,1278.01 1629.1,1279.07 1630.07,1280.12 1631.04,1281.15 1632.01,1282.18 1632.97,1283.2 1633.94,1284.2 1634.91,1285.2 1635.88,1286.19 1636.84,1287.16 1637.81,1288.13 1638.78,1289.09 1639.75,1290.04 1640.71,1290.98 1641.68,1291.91 1642.65,1292.83 1643.62,1293.74 1644.58,1294.64 1645.55,1295.53 1646.52,1296.42 1647.49,1297.29 1648.45,1298.16 1649.42,1299.02 1650.39,1299.87 1651.36,1300.71 1652.32,1301.54 1653.29,1302.36 1654.26,1303.18 1655.22,1303.99 1656.19,1304.79 1657.16,1305.58 1658.13,1306.36 1659.09,1307.14 1660.06,1307.91 1661.03,1308.67 1662,1309.42 1662.96,1310.17 1663.93,1310.91 1664.9,1311.64 1665.87,1312.36 1666.83,1313.08 1667.8,1313.79 1668.77,1314.49 1669.74,1315.19 1670.7,1315.88 1671.67,1316.56 1672.64,1317.23 1673.61,1317.9 1674.57,1318.56 1675.54,1319.22 1676.51,1319.86 1677.48,1320.51 1678.44,1321.14 1679.41,1321.77 1680.38,1322.39 1681.35,1323.01 1682.31,1323.62 1683.28,1324.22 1684.25,1324.82 1685.22,1325.41 1686.18,1326 1687.15,1326.58 1688.12,1327.16 1689.09,1327.72 1690.05,1328.29 1691.02,1328.85 1691.99,1329.4 1692.96,1329.94 1693.92,1330.49 1694.89,1331.02 1695.86,1331.55 1696.83,1332.08 1697.79,1332.6 1698.76,1333.11 1699.73,1333.62 1700.7,1334.13 1701.66,1334.63 1702.63,1335.12 1703.6,1335.61 1704.56,1336.1 1705.53,1336.58 1706.5,1337.05 1707.47,1337.52 1708.43,1337.99 1709.4,1338.45 1710.37,1338.91 1711.34,1339.36 1712.3,1339.81 1713.27,1340.25 1714.24,1340.69 1715.21,1341.12 1716.17,1341.55 1717.14,1341.98 1718.11,1342.4 1719.08,1342.82 1720.04,1343.23 1721.01,1343.64 1721.98,1344.04 1722.95,1344.45 1723.91,1344.84 1724.88,1345.24 1725.85,1345.62 1726.82,1346.01 1727.78,1346.39 1728.75,1346.77 1729.72,1347.14 1730.69,1347.51 1731.65,1347.88 1732.62,1348.24 1733.59,1348.6 1734.56,1348.96 1735.52,1349.31 1736.49,1349.66 1737.46,1350 1738.43,1350.34 1739.39,1350.68 1740.36,1351.02 1741.33,1351.35 1742.3,1351.68 1743.26,1352 1744.23,1352.32 1745.2,1352.64 1746.17,1352.96 1747.13,1353.27 1748.1,1353.58 1749.07,1353.88 1750.03,1354.19 1751,1354.49 1751.97,1354.78 1752.94,1355.08 1753.9,1355.37 1754.87,1355.66 1755.84,1355.94 1756.81,1356.22 1757.77,1356.5 1758.74,1356.78 1759.71,1357.05 1760.68,1357.32 1761.64,1357.59 1762.61,1357.86 1763.58,1358.12 1764.55,1358.38 1765.51,1358.64 1766.48,1358.9 1767.45,1359.15 1768.42,1359.4 1769.38,1359.65 1770.35,1359.89 1771.32,1360.14 1772.29,1360.38 1773.25,1360.62 1774.22,1360.85 1775.19,1361.08 1776.16,1361.32 1777.12,1361.55 1778.09,1361.77 1779.06,1362 1780.03,1362.22 1780.99,1362.44 1781.96,1362.66 1782.93,1362.87 1783.9,1363.09 1784.86,1363.3 1785.83,1363.51 1786.8,1363.71 1787.77,1363.92 1788.73,1364.12 1789.7,1364.32 1790.67,1364.52 1791.64,1364.72 1792.6,1364.91 1793.57,1365.11 1794.54,1365.3 1795.51,1365.49 1796.47,1365.67 1797.44,1365.86 1798.41,1366.04 1799.37,1366.23 1800.34,1366.41 1801.31,1366.58 1802.28,1366.76 1803.24,1366.93 1804.21,1367.11 1805.18,1367.28 1806.15,1367.45 1807.11,1367.62 1808.08,1367.78 1809.05,1367.95 1810.02,1368.11 1810.98,1368.27 1811.95,1368.43 1812.92,1368.59 1813.89,1368.74 1814.85,1368.9 1815.82,1369.05 1816.79,1369.2 1817.76,1369.35 1818.72,1369.5 1819.69,1369.65 1820.66,1369.8 1821.63,1369.94 1822.59,1370.08 1823.56,1370.23 1824.53,1370.37 1825.5,1370.5 1826.46,1370.64 1827.43,1370.78 1828.4,1370.91 1829.37,1371.05 1830.33,1371.18 1831.3,1371.31 1832.27,1371.44 1833.24,1371.57 1834.2,1371.69 1835.17,1371.82 1836.14,1371.94 1837.11,1372.06 1838.07,1372.19 1839.04,1372.31 1840.01,1372.43 1840.98,1372.55 1841.94,1372.66 1842.91,1372.78 1843.88,1372.89 1844.84,1373.01 1845.81,1373.12 1846.78,1373.23 1847.75,1373.34 1848.71,1373.45 1849.68,1373.56 1850.65,1373.66 1851.62,1373.77 1852.58,1373.88 1853.55,1373.98 1854.52,1374.08 1855.49,1374.18 1856.45,1374.29 1857.42,1374.38 1858.39,1374.48 1859.36,1374.58 1860.32,1374.68 1861.29,1374.77 1862.26,1374.87 1863.23,1374.96 1864.19,1375.06 1865.16,1375.15 1866.13,1375.24 1867.1,1375.33 1868.06,1375.42 1869.03,1375.51 1870,1375.59 1870.97,1375.68 1871.93,1375.77 1872.9,1375.85 1873.87,1375.94 1874.84,1376.02 1875.8,1376.1 1876.77,1376.18 1877.74,1376.26 1878.71,1376.34 1879.67,1376.42 1880.64,1376.5 1881.61,1376.58 1882.58,1376.66 1883.54,1376.73 1884.51,1376.81 1885.48,1376.88 1886.45,1376.96 1887.41,1377.03 1888.38,1377.1 1889.35,1377.17 1890.32,1377.24 1891.28,1377.31 1892.25,1377.38 1893.22,1377.45 1894.18,1377.52 1895.15,1377.59 1896.12,1377.65 1897.09,1377.72 1898.05,1377.79 1899.02,1377.85 1899.99,1377.92 1900.96,1377.98 1901.92,1378.04 1902.89,1378.1 1903.86,1378.17 1904.83,1378.23 1905.79,1378.29 1906.76,1378.35 1907.73,1378.41 1908.7,1378.47 1909.66,1378.52 1910.63,1378.58 1911.6,1378.64 1912.57,1378.69 1913.53,1378.75 1914.5,1378.81 1915.47,1378.86 1916.44,1378.91 1917.4,1378.97 1918.37,1379.02 1919.34,1379.07 1920.31,1379.13 1921.27,1379.18 1922.24,1379.23 1923.21,1379.28 1924.18,1379.33 1925.14,1379.38 1926.11,1379.43 1927.08,1379.48 1928.05,1379.52 1929.01,1379.57 1929.98,1379.62 1930.95,1379.66 1931.92,1379.71 1932.88,1379.76 1933.85,1379.8 1934.82,1379.85 1935.79,1379.89 1936.75,1379.94 1937.72,1379.98 1938.69,1380.02 1939.66,1380.06 1940.62,1380.11 1941.59,1380.15 1942.56,1380.19 1943.52,1380.23 1944.49,1380.27 1945.46,1380.31 1946.43,1380.35 1947.39,1380.39 1948.36,1380.43 1949.33,1380.47 1950.3,1380.51 1951.26,1380.54 1952.23,1380.58 1953.2,1380.62 1954.17,1380.65 1955.13,1380.69 1956.1,1380.73 1957.07,1380.76 1958.04,1380.8 1959,1380.83 1959.97,1380.87 1960.94,1380.9 1961.91,1380.93 1962.87,1380.97 1963.84,1381 1964.81,1381.03 1965.78,1381.07 1966.74,1381.1 1967.71,1381.13 1968.68,1381.16 1969.65,1381.19 1970.61,1381.22 1971.58,1381.25 1972.55,1381.28 1973.52,1381.31 1974.48,1381.34 1975.45,1381.37 1976.42,1381.4 1977.39,1381.43 1978.35,1381.46 1979.32,1381.49 1980.29,1381.52 1981.26,1381.54 1982.22,1381.57 1983.19,1381.6 1984.16,1381.63 1985.13,1381.65 1986.09,1381.68 1987.06,1381.7 1988.03,1381.73 1988.99,1381.76 1989.96,1381.78 1990.93,1381.81 1991.9,1381.83 1992.86,1381.86 1993.83,1381.88 1994.8,1381.9 1995.77,1381.93 1996.73,1381.95 1997.7,1381.98 1998.67,1382 1999.64,1382.02 2000.6,1382.04 2001.57,1382.07 2002.54,1382.09 2003.51,1382.11 2004.47,1382.13 2005.44,1382.15 2006.41,1382.18 2007.38,1382.2 2008.34,1382.22 2009.31,1382.24 2010.28,1382.26 2011.25,1382.28 2012.21,1382.3 2013.18,1382.32 2014.15,1382.34 2015.12,1382.36 2016.08,1382.38 2017.05,1382.4 2018.02,1382.42 2018.99,1382.43 2019.95,1382.45 2020.92,1382.47 2021.89,1382.49 2022.86,1382.51 2023.82,1382.53 2024.79,1382.54 2025.76,1382.56 2026.73,1382.58 2027.69,1382.59 2028.66,1382.61 2029.63,1382.63 2030.6,1382.65 2031.56,1382.66 2032.53,1382.68 2033.5,1382.69 2034.47,1382.71 2035.43,1382.73 2036.4,1382.74 2037.37,1382.76 2038.33,1382.77 2039.3,1382.79 2040.27,1382.8 2041.24,1382.82 2042.2,1382.83 2043.17,1382.85 2044.14,1382.86 2045.11,1382.88 2046.07,1382.89 2047.04,1382.9 2048.01,1382.92 2048.98,1382.93 2049.94,1382.94 2050.91,1382.96 2051.88,1382.97 2052.85,1382.98 2053.81,1383 2054.78,1383.01 2055.75,1383.02 2056.72,1383.04 2057.68,1383.05 2058.65,1383.06 2059.62,1383.07 2060.59,1383.09 2061.55,1383.1 2062.52,1383.11 2063.49,1383.12 2064.46,1383.13 2065.42,1383.14 2066.39,1383.16 2067.36,1383.17 2068.33,1383.18 2069.29,1383.19 2070.26,1383.2 2071.23,1383.21 2072.2,1383.22 2073.16,1383.23 2074.13,1383.24 2075.1,1383.25 2076.07,1383.27 2077.03,1383.28 2078,1383.29 2078.97,1383.3 2079.94,1383.31 2080.9,1383.32 2081.87,1383.33 2082.84,1383.33 2083.8,1383.34 2084.77,1383.35 2085.74,1383.36 2086.71,1383.37 2087.67,1383.38 2088.64,1383.39 2089.61,1383.4 2090.58,1383.41 2091.54,1383.42 2092.51,1383.43 2093.48,1383.44 2094.45,1383.44 2095.41,1383.45 2096.38,1383.46 2097.35,1383.47 2098.32,1383.48 2099.28,1383.49 2100.25,1383.49 2101.22,1383.5 2102.19,1383.51 2103.15,1383.52 2104.12,1383.53 2105.09,1383.53 2106.06,1383.54 2107.02,1383.55 2107.99,1383.56 2108.96,1383.56 2109.93,1383.57 2110.89,1383.58 2111.86,1383.58 2112.83,1383.59 2113.8,1383.6 2114.76,1383.61 2115.73,1383.61 2116.7,1383.62 2117.67,1383.63 2118.63,1383.63 2119.6,1383.64 2120.57,1383.65 2121.54,1383.65 2122.5,1383.66 2123.47,1383.67 2124.44,1383.67 2125.41,1383.68 2126.37,1383.68 2127.34,1383.69 2128.31,1383.7 2129.28,1383.7 2130.24,1383.71 2131.21,1383.71 2132.18,1383.72 2133.14,1383.73 2134.11,1383.73 2135.08,1383.74 2136.05,1383.74 2137.01,1383.75 2137.98,1383.75 2138.95,1383.76 2139.92,1383.76 2140.88,1383.77 2141.85,1383.77 2142.82,1383.78 2143.79,1383.78 2144.75,1383.79 2145.72,1383.8 2146.69,1383.8 2147.66,1383.81 2148.62,1383.81 2149.59,1383.81 2150.56,1383.82 2151.53,1383.82 2152.49,1383.83 2153.46,1383.83 2154.43,1383.84 2155.4,1383.84 2156.36,1383.85 2157.33,1383.85 2158.3,1383.86 2159.27,1383.86 2160.23,1383.87 2161.2,1383.87 2162.17,1383.87 2163.14,1383.88 2164.1,1383.88 2165.07,1383.89 2166.04,1383.89 2167.01,1383.89 2167.97,1383.9 2168.94,1383.9 2169.91,1383.91 2170.88,1383.91 2171.84,1383.91 2172.81,1383.92 2173.78,1383.92 2174.75,1383.93 2175.71,1383.93 2176.68,1383.93 2177.65,1383.94 2178.62,1383.94 2179.58,1383.94 2180.55,1383.95 2181.52,1383.95 2182.48,1383.95 2183.45,1383.96 2184.42,1383.96 2185.39,1383.96 2186.35,1383.97 2187.32,1383.97 2188.29,1383.97 2189.26,1383.98 2190.22,1383.98 2191.19,1383.98 2192.16,1383.99 2193.13,1383.99 2194.09,1383.99 2195.06,1384 2196.03,1384 2197,1384 2197.96,1384 2198.93,1384.01 2199.9,1384.01 2200.87,1384.01 2201.83,1384.02 2202.8,1384.02 2203.77,1384.02 2204.74,1384.02 2205.7,1384.03 2206.67,1384.03 2207.64,1384.03 2208.61,1384.04 2209.57,1384.04 2210.54,1384.04 2211.51,1384.04 2212.48,1384.05 2213.44,1384.05 2214.41,1384.05 2215.38,1384.05 2216.35,1384.06 2217.31,1384.06 2218.28,1384.06 2219.25,1384.06 2220.22,1384.06 2221.18,1384.07 2222.15,1384.07 2223.12,1384.07 2224.09,1384.07 2225.05,1384.08 2226.02,1384.08 2226.99,1384.08 2227.95,1384.08 2228.92,1384.08 2229.89,1384.09 2230.86,1384.09 2231.82,1384.09 2232.79,1384.09 2233.76,1384.1 2234.73,1384.1 2235.69,1384.1 2236.66,1384.1 2237.63,1384.1 2238.6,1384.11 2239.56,1384.11 2240.53,1384.11 2241.5,1384.11 2242.47,1384.11 2243.43,1384.11 2244.4,1384.12 2245.37,1384.12 2246.34,1384.12 2247.3,1384.12 2248.27,1384.12 2249.24,1384.13 2250.21,1384.13 2251.17,1384.13 2252.14,1384.13 2253.11,1384.13 2254.08,1384.13 2255.04,1384.14 2256.01,1384.14 2256.98,1384.14 2257.95,1384.14 2258.91,1384.14 2259.88,1384.14 2260.85,1384.14 2261.82,1384.15 2262.78,1384.15 2263.75,1384.15 2264.72,1384.15 2265.69,1384.15 2266.65,1384.15 2267.62,1384.16 2268.59,1384.16 2269.56,1384.16 2270.52,1384.16 2271.49,1384.16 2272.46,1384.16 2273.43,1384.16 2274.39,1384.16 2275.36,1384.17 2276.33,1384.17 2277.29,1384.17 2278.26,1384.17 2279.23,1384.17 2280.2,1384.17 2281.16,1384.17 2282.13,1384.17 2283.1,1384.18 2284.07,1384.18 2285.03,1384.18 2286,1384.18 2286.97,1384.18 2287.94,1384.18 2288.9,1384.18 2289.87,1384.18 2290.84,1384.19 2291.81,1384.19 2292.77,1384.19 2293.74,1384.19 2294.71,1384.19 2295.68,1384.19 2296.64,1384.19 2297.61,1384.19 2298.58,1384.19 2299.55,1384.19 2300.51,1384.2 2301.48,1384.2 2302.45,1384.2 2303.42,1384.2 2304.38,1384.2 2305.35,1384.2 2306.32,1384.2 2307.29,1384.2 2308.25,1384.2 2309.22,1384.2 2310.19,1384.21 2311.16,1384.21 2312.12,1384.21 2313.09,1384.21 2314.06,1384.21 2315.03,1384.21 2315.99,1384.21 2316.96,1384.21 2317.93,1384.21 2318.9,1384.21 2319.86,1384.21 2320.83,1384.22 2321.8,1384.22 2322.76,1384.22 2323.73,1384.22 2324.7,1384.22 2325.67,1384.22 2326.63,1384.22 2327.6,1384.22 2328.57,1384.22 2329.54,1384.22 2330.5,1384.22 2331.47,1384.22 2332.44,1384.22 2333.41,1384.23 2334.37,1384.23 2335.34,1384.23 2336.31,1384.23 2337.28,1384.23 2338.24,1384.23 2339.21,1384.23 2340.18,1384.23 2341.15,1384.23 2342.11,1384.23 2343.08,1384.23 2344.05,1384.23 2345.02,1384.23 2345.98,1384.23 2346.95,1384.23 2347.92,1384.24 2348.89,1384.24 2349.85,1384.24 2350.82,1384.24 2351.79,1384.24 2352.76,1384.24 "/>
<path clip-path="url(#clip040)" d="M1975.17 196.789 L2320.54 196.789 L2320.54 93.1086 L1975.17 93.1086  Z" fill="#ffffff" fill-rule="evenodd" fill-opacity="1"/>
<polyline clip-path="url(#clip040)" style="stroke:#000000; stroke-linecap:round; stroke-linejoin:round; stroke-width:4; stroke-opacity:1; fill:none" points="1975.17,196.789 2320.54,196.789 2320.54,93.1086 1975.17,93.1086 1975.17,196.789 "/>
<polyline clip-path="url(#clip040)" style="stroke:#009af9; stroke-linecap:round; stroke-linejoin:round; stroke-width:4; stroke-opacity:1; fill:none" points="1985.9,144.949 2050.34,144.949 "/>
<path clip-path="url(#clip040)" d="M2079.99 140.238 L2079.99 126.21 L2084.25 126.21 L2084.25 162.229 L2079.99 162.229 L2079.99 158.34 Q2078.64 160.655 2076.58 161.789 Q2074.55 162.9 2071.68 162.9 Q2066.98 162.9 2064.02 159.15 Q2061.08 155.4 2061.08 149.289 Q2061.08 143.178 2064.02 139.428 Q2066.98 135.678 2071.68 135.678 Q2074.55 135.678 2076.58 136.812 Q2078.64 137.923 2079.99 140.238 M2065.47 149.289 Q2065.47 153.988 2067.4 156.673 Q2069.34 159.335 2072.72 159.335 Q2076.1 159.335 2078.04 156.673 Q2079.99 153.988 2079.99 149.289 Q2079.99 144.59 2078.04 141.928 Q2076.1 139.243 2072.72 139.243 Q2069.34 139.243 2067.4 141.928 Q2065.47 144.59 2065.47 149.289 Z" fill="#000000" fill-rule="nonzero" fill-opacity="1" /><path clip-path="url(#clip040)" d="M2104.8 149.196 Q2099.64 149.196 2097.65 150.377 Q2095.66 151.557 2095.66 154.405 Q2095.66 156.673 2097.14 158.016 Q2098.64 159.335 2101.21 159.335 Q2104.76 159.335 2106.89 156.835 Q2109.04 154.312 2109.04 150.145 L2109.04 149.196 L2104.8 149.196 M2113.3 147.437 L2113.3 162.229 L2109.04 162.229 L2109.04 158.293 Q2107.58 160.655 2105.4 161.789 Q2103.23 162.9 2100.08 162.9 Q2096.1 162.9 2093.74 160.678 Q2091.4 158.432 2091.4 154.682 Q2091.4 150.307 2094.32 148.085 Q2097.26 145.863 2103.07 145.863 L2109.04 145.863 L2109.04 145.446 Q2109.04 142.507 2107.09 140.909 Q2105.17 139.289 2101.68 139.289 Q2099.46 139.289 2097.35 139.821 Q2095.24 140.354 2093.3 141.419 L2093.3 137.483 Q2095.64 136.581 2097.83 136.141 Q2100.03 135.678 2102.12 135.678 Q2107.74 135.678 2110.52 138.594 Q2113.3 141.511 2113.3 147.437 Z" fill="#000000" fill-rule="nonzero" fill-opacity="1" /><path clip-path="url(#clip040)" d="M2142.26 141.28 Q2143.85 138.409 2146.08 137.044 Q2148.3 135.678 2151.31 135.678 Q2155.36 135.678 2157.56 138.525 Q2159.76 141.349 2159.76 146.581 L2159.76 162.229 L2155.47 162.229 L2155.47 146.719 Q2155.47 142.993 2154.15 141.187 Q2152.83 139.382 2150.13 139.382 Q2146.82 139.382 2144.89 141.581 Q2142.97 143.78 2142.97 147.576 L2142.97 162.229 L2138.69 162.229 L2138.69 146.719 Q2138.69 142.969 2137.37 141.187 Q2136.05 139.382 2133.3 139.382 Q2130.03 139.382 2128.11 141.604 Q2126.19 143.803 2126.19 147.576 L2126.19 162.229 L2121.91 162.229 L2121.91 136.303 L2126.19 136.303 L2126.19 140.331 Q2127.65 137.946 2129.69 136.812 Q2131.72 135.678 2134.52 135.678 Q2137.35 135.678 2139.32 137.113 Q2141.31 138.548 2142.26 141.28 Z" fill="#000000" fill-rule="nonzero" fill-opacity="1" /><path clip-path="url(#clip040)" d="M2172.37 158.34 L2172.37 172.09 L2168.09 172.09 L2168.09 136.303 L2172.37 136.303 L2172.37 140.238 Q2173.71 137.923 2175.75 136.812 Q2177.81 135.678 2180.66 135.678 Q2185.38 135.678 2188.32 139.428 Q2191.28 143.178 2191.28 149.289 Q2191.28 155.4 2188.32 159.15 Q2185.38 162.9 2180.66 162.9 Q2177.81 162.9 2175.75 161.789 Q2173.71 160.655 2172.37 158.34 M2186.86 149.289 Q2186.86 144.59 2184.92 141.928 Q2183 139.243 2179.62 139.243 Q2176.24 139.243 2174.29 141.928 Q2172.37 144.59 2172.37 149.289 Q2172.37 153.988 2174.29 156.673 Q2176.24 159.335 2179.62 159.335 Q2183 159.335 2184.92 156.673 Q2186.86 153.988 2186.86 149.289 Z" fill="#000000" fill-rule="nonzero" fill-opacity="1" /><path clip-path="url(#clip040)" d="M2198.34 136.303 L2202.6 136.303 L2202.6 162.229 L2198.34 162.229 L2198.34 136.303 M2198.34 126.21 L2202.6 126.21 L2202.6 131.604 L2198.34 131.604 L2198.34 126.21 Z" fill="#000000" fill-rule="nonzero" fill-opacity="1" /><path clip-path="url(#clip040)" d="M2233.07 146.581 L2233.07 162.229 L2228.81 162.229 L2228.81 146.719 Q2228.81 143.039 2227.37 141.21 Q2225.94 139.382 2223.07 139.382 Q2219.62 139.382 2217.63 141.581 Q2215.63 143.78 2215.63 147.576 L2215.63 162.229 L2211.35 162.229 L2211.35 136.303 L2215.63 136.303 L2215.63 140.331 Q2217.16 137.993 2219.22 136.835 Q2221.31 135.678 2224.01 135.678 Q2228.48 135.678 2230.77 138.456 Q2233.07 141.21 2233.07 146.581 Z" fill="#000000" fill-rule="nonzero" fill-opacity="1" /><path clip-path="url(#clip040)" d="M2258.62 148.965 Q2258.62 144.335 2256.7 141.789 Q2254.8 139.243 2251.35 139.243 Q2247.93 139.243 2246.01 141.789 Q2244.11 144.335 2244.11 148.965 Q2244.11 153.571 2246.01 156.118 Q2247.93 158.664 2251.35 158.664 Q2254.8 158.664 2256.7 156.118 Q2258.62 153.571 2258.62 148.965 M2262.88 159.011 Q2262.88 165.631 2259.94 168.849 Q2257 172.09 2250.94 172.09 Q2248.69 172.09 2246.7 171.742 Q2244.71 171.418 2242.83 170.724 L2242.83 166.58 Q2244.71 167.599 2246.54 168.085 Q2248.37 168.571 2250.26 168.571 Q2254.45 168.571 2256.54 166.372 Q2258.62 164.196 2258.62 159.775 L2258.62 157.668 Q2257.3 159.96 2255.24 161.094 Q2253.18 162.229 2250.31 162.229 Q2245.54 162.229 2242.63 158.594 Q2239.71 154.96 2239.71 148.965 Q2239.71 142.946 2242.63 139.312 Q2245.54 135.678 2250.31 135.678 Q2253.18 135.678 2255.24 136.812 Q2257.3 137.946 2258.62 140.238 L2258.62 136.303 L2262.88 136.303 L2262.88 159.011 Z" fill="#000000" fill-rule="nonzero" fill-opacity="1" /><path clip-path="url(#clip040)" d="M2280.91 145.585 L2280.91 152.807 L2289.04 152.807 L2289.04 155.006 L2280.91 155.006 L2280.91 162.229 L2278.48 162.229 L2278.48 155.006 L2270.36 155.006 L2270.36 152.807 L2278.48 152.807 L2278.48 145.585 L2280.91 145.585 Z" fill="#000000" fill-rule="nonzero" fill-opacity="1" /><path clip-path="url(#clip040)" d="M2309.8 126.21 L2309.8 129.752 L2305.73 129.752 Q2303.44 129.752 2302.53 130.678 Q2301.65 131.604 2301.65 134.011 L2301.65 136.303 L2308.67 136.303 L2308.67 139.613 L2301.65 139.613 L2301.65 162.229 L2297.37 162.229 L2297.37 139.613 L2293.3 139.613 L2293.3 136.303 L2297.37 136.303 L2297.37 134.497 Q2297.37 130.169 2299.38 128.201 Q2301.4 126.21 2305.77 126.21 L2309.8 126.21 Z" fill="#000000" fill-rule="nonzero" fill-opacity="1" /></svg>
