<?xml version="1.0" encoding="utf-8"?>
<svg xmlns="http://www.w3.org/2000/svg" xmlns:xlink="http://www.w3.org/1999/xlink" width="600" height="400" viewBox="0 0 2400 1600">
<defs>
  <clipPath id="clip350">
    <rect x="0" y="0" width="2400" height="1600"/>
  </clipPath>
</defs>
<path clip-path="url(#clip350)" d="M0 1600 L2400 1600 L2400 0 L0 0  Z" fill="#ffffff" fill-rule="evenodd" fill-opacity="1"/>
<defs>
  <clipPath id="clip351">
    <rect x="480" y="0" width="1681" height="1600"/>
  </clipPath>
</defs>
<path clip-path="url(#clip350)" d="M431.371 1423.18 L2352.76 1423.18 L2352.76 123.472 L431.371 123.472  Z" fill="#ffffff" fill-rule="evenodd" fill-opacity="1"/>
<defs>
  <clipPath id="clip352">
    <rect x="431" y="123" width="1922" height="1301"/>
  </clipPath>
</defs>
<polyline clip-path="url(#clip352)" style="stroke:#000000; stroke-linecap:round; stroke-linejoin:round; stroke-width:2; stroke-opacity:0.1; fill:none" points="485.75,1423.18 485.75,123.472 "/>
<polyline clip-path="url(#clip352)" style="stroke:#000000; stroke-linecap:round; stroke-linejoin:round; stroke-width:2; stroke-opacity:0.1; fill:none" points="938.907,1423.18 938.907,123.472 "/>
<polyline clip-path="url(#clip352)" style="stroke:#000000; stroke-linecap:round; stroke-linejoin:round; stroke-width:2; stroke-opacity:0.1; fill:none" points="1392.06,1423.18 1392.06,123.472 "/>
<polyline clip-path="url(#clip352)" style="stroke:#000000; stroke-linecap:round; stroke-linejoin:round; stroke-width:2; stroke-opacity:0.1; fill:none" points="1845.22,1423.18 1845.22,123.472 "/>
<polyline clip-path="url(#clip352)" style="stroke:#000000; stroke-linecap:round; stroke-linejoin:round; stroke-width:2; stroke-opacity:0.1; fill:none" points="2298.38,1423.18 2298.38,123.472 "/>
<polyline clip-path="url(#clip352)" style="stroke:#000000; stroke-linecap:round; stroke-linejoin:round; stroke-width:2; stroke-opacity:0.1; fill:none" points="431.371,1288.32 2352.76,1288.32 "/>
<polyline clip-path="url(#clip352)" style="stroke:#000000; stroke-linecap:round; stroke-linejoin:round; stroke-width:2; stroke-opacity:0.1; fill:none" points="431.371,1020.63 2352.76,1020.63 "/>
<polyline clip-path="url(#clip352)" style="stroke:#000000; stroke-linecap:round; stroke-linejoin:round; stroke-width:2; stroke-opacity:0.1; fill:none" points="431.371,752.943 2352.76,752.943 "/>
<polyline clip-path="url(#clip352)" style="stroke:#000000; stroke-linecap:round; stroke-linejoin:round; stroke-width:2; stroke-opacity:0.1; fill:none" points="431.371,485.254 2352.76,485.254 "/>
<polyline clip-path="url(#clip352)" style="stroke:#000000; stroke-linecap:round; stroke-linejoin:round; stroke-width:2; stroke-opacity:0.1; fill:none" points="431.371,217.566 2352.76,217.566 "/>
<polyline clip-path="url(#clip350)" style="stroke:#000000; stroke-linecap:round; stroke-linejoin:round; stroke-width:4; stroke-opacity:1; fill:none" points="431.371,1423.18 2352.76,1423.18 "/>
<polyline clip-path="url(#clip350)" style="stroke:#000000; stroke-linecap:round; stroke-linejoin:round; stroke-width:4; stroke-opacity:1; fill:none" points="485.75,1423.18 485.75,1404.28 "/>
<polyline clip-path="url(#clip350)" style="stroke:#000000; stroke-linecap:round; stroke-linejoin:round; stroke-width:4; stroke-opacity:1; fill:none" points="938.907,1423.18 938.907,1404.28 "/>
<polyline clip-path="url(#clip350)" style="stroke:#000000; stroke-linecap:round; stroke-linejoin:round; stroke-width:4; stroke-opacity:1; fill:none" points="1392.06,1423.18 1392.06,1404.28 "/>
<polyline clip-path="url(#clip350)" style="stroke:#000000; stroke-linecap:round; stroke-linejoin:round; stroke-width:4; stroke-opacity:1; fill:none" points="1845.22,1423.18 1845.22,1404.28 "/>
<polyline clip-path="url(#clip350)" style="stroke:#000000; stroke-linecap:round; stroke-linejoin:round; stroke-width:4; stroke-opacity:1; fill:none" points="2298.38,1423.18 2298.38,1404.28 "/>
<path clip-path="url(#clip350)" d="M463.134 1454.1 Q459.523 1454.1 457.695 1457.66 Q455.889 1461.2 455.889 1468.33 Q455.889 1475.44 457.695 1479.01 Q459.523 1482.55 463.134 1482.55 Q466.769 1482.55 468.574 1479.01 Q470.403 1475.44 470.403 1468.33 Q470.403 1461.2 468.574 1457.66 Q466.769 1454.1 463.134 1454.1 M463.134 1450.39 Q468.945 1450.39 472 1455 Q475.079 1459.58 475.079 1468.33 Q475.079 1477.06 472 1481.67 Q468.945 1486.25 463.134 1486.25 Q457.324 1486.25 454.246 1481.67 Q451.19 1477.06 451.19 1468.33 Q451.19 1459.58 454.246 1455 Q457.324 1450.39 463.134 1450.39 Z" fill="#000000" fill-rule="nonzero" fill-opacity="1" /><path clip-path="url(#clip350)" d="M483.296 1479.7 L488.181 1479.7 L488.181 1485.58 L483.296 1485.58 L483.296 1479.7 Z" fill="#000000" fill-rule="nonzero" fill-opacity="1" /><path clip-path="url(#clip350)" d="M508.366 1454.1 Q504.755 1454.1 502.926 1457.66 Q501.12 1461.2 501.12 1468.33 Q501.12 1475.44 502.926 1479.01 Q504.755 1482.55 508.366 1482.55 Q512 1482.55 513.805 1479.01 Q515.634 1475.44 515.634 1468.33 Q515.634 1461.2 513.805 1457.66 Q512 1454.1 508.366 1454.1 M508.366 1450.39 Q514.176 1450.39 517.231 1455 Q520.31 1459.58 520.31 1468.33 Q520.31 1477.06 517.231 1481.67 Q514.176 1486.25 508.366 1486.25 Q502.555 1486.25 499.477 1481.67 Q496.421 1477.06 496.421 1468.33 Q496.421 1459.58 499.477 1455 Q502.555 1450.39 508.366 1450.39 Z" fill="#000000" fill-rule="nonzero" fill-opacity="1" /><path clip-path="url(#clip350)" d="M910.643 1481.64 L926.962 1481.64 L926.962 1485.58 L905.018 1485.58 L905.018 1481.64 Q907.68 1478.89 912.263 1474.26 Q916.87 1469.61 918.05 1468.27 Q920.296 1465.74 921.175 1464.01 Q922.078 1462.25 922.078 1460.56 Q922.078 1457.8 920.134 1456.07 Q918.212 1454.33 915.111 1454.33 Q912.912 1454.33 910.458 1455.09 Q908.027 1455.86 905.25 1457.41 L905.25 1452.69 Q908.074 1451.55 910.527 1450.97 Q912.981 1450.39 915.018 1450.39 Q920.388 1450.39 923.583 1453.08 Q926.777 1455.77 926.777 1460.26 Q926.777 1462.39 925.967 1464.31 Q925.18 1466.2 923.074 1468.8 Q922.495 1469.47 919.393 1472.69 Q916.291 1475.88 910.643 1481.64 Z" fill="#000000" fill-rule="nonzero" fill-opacity="1" /><path clip-path="url(#clip350)" d="M936.777 1479.7 L941.661 1479.7 L941.661 1485.58 L936.777 1485.58 L936.777 1479.7 Z" fill="#000000" fill-rule="nonzero" fill-opacity="1" /><path clip-path="url(#clip350)" d="M951.893 1451.02 L970.249 1451.02 L970.249 1454.96 L956.175 1454.96 L956.175 1463.43 Q957.194 1463.08 958.212 1462.92 Q959.231 1462.73 960.249 1462.73 Q966.036 1462.73 969.416 1465.9 Q972.795 1469.08 972.795 1474.49 Q972.795 1480.07 969.323 1483.17 Q965.851 1486.25 959.532 1486.25 Q957.356 1486.25 955.087 1485.88 Q952.842 1485.51 950.435 1484.77 L950.435 1480.07 Q952.518 1481.2 954.74 1481.76 Q956.962 1482.32 959.439 1482.32 Q963.444 1482.32 965.782 1480.21 Q968.12 1478.1 968.12 1474.49 Q968.12 1470.88 965.782 1468.77 Q963.444 1466.67 959.439 1466.67 Q957.564 1466.67 955.689 1467.08 Q953.837 1467.5 951.893 1468.38 L951.893 1451.02 Z" fill="#000000" fill-rule="nonzero" fill-opacity="1" /><path clip-path="url(#clip350)" d="M1359.23 1451.02 L1377.58 1451.02 L1377.58 1454.96 L1363.51 1454.96 L1363.51 1463.43 Q1364.53 1463.08 1365.55 1462.92 Q1366.57 1462.73 1367.58 1462.73 Q1373.37 1462.73 1376.75 1465.9 Q1380.13 1469.08 1380.13 1474.49 Q1380.13 1480.07 1376.66 1483.17 Q1373.19 1486.25 1366.87 1486.25 Q1364.69 1486.25 1362.42 1485.88 Q1360.18 1485.51 1357.77 1484.77 L1357.77 1480.07 Q1359.85 1481.2 1362.08 1481.76 Q1364.3 1482.32 1366.77 1482.32 Q1370.78 1482.32 1373.12 1480.21 Q1375.45 1478.1 1375.45 1474.49 Q1375.45 1470.88 1373.12 1468.77 Q1370.78 1466.67 1366.77 1466.67 Q1364.9 1466.67 1363.02 1467.08 Q1361.17 1467.5 1359.23 1468.38 L1359.23 1451.02 Z" fill="#000000" fill-rule="nonzero" fill-opacity="1" /><path clip-path="url(#clip350)" d="M1389.34 1479.7 L1394.23 1479.7 L1394.23 1485.58 L1389.34 1485.58 L1389.34 1479.7 Z" fill="#000000" fill-rule="nonzero" fill-opacity="1" /><path clip-path="url(#clip350)" d="M1414.41 1454.1 Q1410.8 1454.1 1408.97 1457.66 Q1407.17 1461.2 1407.17 1468.33 Q1407.17 1475.44 1408.97 1479.01 Q1410.8 1482.55 1414.41 1482.55 Q1418.05 1482.55 1419.85 1479.01 Q1421.68 1475.44 1421.68 1468.33 Q1421.68 1461.2 1419.85 1457.66 Q1418.05 1454.1 1414.41 1454.1 M1414.41 1450.39 Q1420.22 1450.39 1423.28 1455 Q1426.36 1459.58 1426.36 1468.33 Q1426.36 1477.06 1423.28 1481.67 Q1420.22 1486.25 1414.41 1486.25 Q1408.6 1486.25 1405.52 1481.67 Q1402.47 1477.06 1402.47 1468.33 Q1402.47 1459.58 1405.52 1455 Q1408.6 1450.39 1414.41 1450.39 Z" fill="#000000" fill-rule="nonzero" fill-opacity="1" /><path clip-path="url(#clip350)" d="M1811.54 1451.02 L1833.76 1451.02 L1833.76 1453.01 L1821.22 1485.58 L1816.33 1485.58 L1828.14 1454.96 L1811.54 1454.96 L1811.54 1451.02 Z" fill="#000000" fill-rule="nonzero" fill-opacity="1" /><path clip-path="url(#clip350)" d="M1842.88 1479.7 L1847.77 1479.7 L1847.77 1485.58 L1842.88 1485.58 L1842.88 1479.7 Z" fill="#000000" fill-rule="nonzero" fill-opacity="1" /><path clip-path="url(#clip350)" d="M1858 1451.02 L1876.35 1451.02 L1876.35 1454.96 L1862.28 1454.96 L1862.28 1463.43 Q1863.3 1463.08 1864.32 1462.92 Q1865.34 1462.73 1866.35 1462.73 Q1872.14 1462.73 1875.52 1465.9 Q1878.9 1469.08 1878.9 1474.49 Q1878.9 1480.07 1875.43 1483.17 Q1871.96 1486.25 1865.64 1486.25 Q1863.46 1486.25 1861.19 1485.88 Q1858.95 1485.51 1856.54 1484.77 L1856.54 1480.07 Q1858.62 1481.2 1860.85 1481.76 Q1863.07 1482.32 1865.54 1482.32 Q1869.55 1482.32 1871.89 1480.21 Q1874.22 1478.1 1874.22 1474.49 Q1874.22 1470.88 1871.89 1468.77 Q1869.55 1466.67 1865.54 1466.67 Q1863.67 1466.67 1861.79 1467.08 Q1859.94 1467.5 1858 1468.38 L1858 1451.02 Z" fill="#000000" fill-rule="nonzero" fill-opacity="1" /><path clip-path="url(#clip350)" d="M2250.45 1481.64 L2258.09 1481.64 L2258.09 1455.28 L2249.78 1456.95 L2249.78 1452.69 L2258.04 1451.02 L2262.72 1451.02 L2262.72 1481.64 L2270.36 1481.64 L2270.36 1485.58 L2250.45 1485.58 L2250.45 1481.64 Z" fill="#000000" fill-rule="nonzero" fill-opacity="1" /><path clip-path="url(#clip350)" d="M2289.8 1454.1 Q2286.19 1454.1 2284.36 1457.66 Q2282.56 1461.2 2282.56 1468.33 Q2282.56 1475.44 2284.36 1479.01 Q2286.19 1482.55 2289.8 1482.55 Q2293.43 1482.55 2295.24 1479.01 Q2297.07 1475.44 2297.07 1468.33 Q2297.07 1461.2 2295.24 1457.66 Q2293.43 1454.1 2289.8 1454.1 M2289.8 1450.39 Q2295.61 1450.39 2298.67 1455 Q2301.75 1459.58 2301.75 1468.33 Q2301.75 1477.06 2298.67 1481.67 Q2295.61 1486.25 2289.8 1486.25 Q2283.99 1486.25 2280.91 1481.67 Q2277.86 1477.06 2277.86 1468.33 Q2277.86 1459.58 2280.91 1455 Q2283.99 1450.39 2289.8 1450.39 Z" fill="#000000" fill-rule="nonzero" fill-opacity="1" /><path clip-path="url(#clip350)" d="M2309.96 1479.7 L2314.85 1479.7 L2314.85 1485.58 L2309.96 1485.58 L2309.96 1479.7 Z" fill="#000000" fill-rule="nonzero" fill-opacity="1" /><path clip-path="url(#clip350)" d="M2335.03 1454.1 Q2331.42 1454.1 2329.59 1457.66 Q2327.79 1461.2 2327.79 1468.33 Q2327.79 1475.44 2329.59 1479.01 Q2331.42 1482.55 2335.03 1482.55 Q2338.67 1482.55 2340.47 1479.01 Q2342.3 1475.44 2342.3 1468.33 Q2342.3 1461.2 2340.47 1457.66 Q2338.67 1454.1 2335.03 1454.1 M2335.03 1450.39 Q2340.84 1450.39 2343.9 1455 Q2346.98 1459.58 2346.98 1468.33 Q2346.98 1477.06 2343.9 1481.67 Q2340.84 1486.25 2335.03 1486.25 Q2329.22 1486.25 2326.14 1481.67 Q2323.09 1477.06 2323.09 1468.33 Q2323.09 1459.58 2326.14 1455 Q2329.22 1450.39 2335.03 1450.39 Z" fill="#000000" fill-rule="nonzero" fill-opacity="1" /><path clip-path="url(#clip350)" d="M1279.52 1522.27 L1279.52 1532.4 L1291.58 1532.4 L1291.58 1536.95 L1279.52 1536.95 L1279.52 1556.3 Q1279.52 1560.66 1280.7 1561.9 Q1281.91 1563.14 1285.57 1563.14 L1291.58 1563.14 L1291.58 1568.04 L1285.57 1568.04 Q1278.79 1568.04 1276.21 1565.53 Q1273.63 1562.98 1273.63 1556.3 L1273.63 1536.95 L1269.33 1536.95 L1269.33 1532.4 L1273.63 1532.4 L1273.63 1522.27 L1279.52 1522.27 Z" fill="#000000" fill-rule="nonzero" fill-opacity="1" /><path clip-path="url(#clip350)" d="M1299.28 1532.4 L1305.14 1532.4 L1305.14 1568.04 L1299.28 1568.04 L1299.28 1532.4 M1299.28 1518.52 L1305.14 1518.52 L1305.14 1525.93 L1299.28 1525.93 L1299.28 1518.52 Z" fill="#000000" fill-rule="nonzero" fill-opacity="1" /><path clip-path="url(#clip350)" d="M1345.15 1539.24 Q1347.34 1535.29 1350.4 1533.41 Q1353.46 1531.54 1357.59 1531.54 Q1363.16 1531.54 1366.19 1535.45 Q1369.21 1539.33 1369.21 1546.53 L1369.21 1568.04 L1363.32 1568.04 L1363.32 1546.72 Q1363.32 1541.59 1361.51 1539.11 Q1359.69 1536.63 1355.97 1536.63 Q1351.42 1536.63 1348.78 1539.65 Q1346.13 1542.68 1346.13 1547.9 L1346.13 1568.04 L1340.25 1568.04 L1340.25 1546.72 Q1340.25 1541.56 1338.43 1539.11 Q1336.62 1536.63 1332.83 1536.63 Q1328.34 1536.63 1325.7 1539.68 Q1323.06 1542.71 1323.06 1547.9 L1323.06 1568.04 L1317.17 1568.04 L1317.17 1532.4 L1323.06 1532.4 L1323.06 1537.93 Q1325.06 1534.66 1327.87 1533.1 Q1330.67 1531.54 1334.52 1531.54 Q1338.4 1531.54 1341.11 1533.51 Q1343.84 1535.48 1345.15 1539.24 Z" fill="#000000" fill-rule="nonzero" fill-opacity="1" /><path clip-path="url(#clip350)" d="M1411.38 1548.76 L1411.38 1551.62 L1384.46 1551.62 Q1384.84 1557.67 1388.08 1560.85 Q1391.36 1564 1397.19 1564 Q1400.56 1564 1403.71 1563.17 Q1406.9 1562.35 1410.01 1560.69 L1410.01 1566.23 Q1406.86 1567.57 1403.55 1568.27 Q1400.24 1568.97 1396.84 1568.97 Q1388.31 1568.97 1383.31 1564 Q1378.35 1559.04 1378.35 1550.57 Q1378.35 1541.82 1383.06 1536.69 Q1387.8 1531.54 1395.82 1531.54 Q1403.01 1531.54 1407.18 1536.18 Q1411.38 1540.8 1411.38 1548.76 M1405.53 1547.04 Q1405.46 1542.23 1402.82 1539.37 Q1400.21 1536.5 1395.88 1536.5 Q1390.98 1536.5 1388.02 1539.27 Q1385.09 1542.04 1384.65 1547.07 L1405.53 1547.04 Z" fill="#000000" fill-rule="nonzero" fill-opacity="1" /><path clip-path="url(#clip350)" d="M1441.17 1518.52 L1454.67 1518.52 L1454.67 1523.07 L1447.03 1523.07 L1447.03 1572.09 L1454.67 1572.09 L1454.67 1576.64 L1441.17 1576.64 L1441.17 1518.52 Z" fill="#000000" fill-rule="nonzero" fill-opacity="1" /><path clip-path="url(#clip350)" d="M1489.87 1533.45 L1489.87 1538.98 Q1487.39 1537.71 1484.72 1537.07 Q1482.04 1536.44 1479.18 1536.44 Q1474.82 1536.44 1472.62 1537.77 Q1470.46 1539.11 1470.46 1541.79 Q1470.46 1543.82 1472.02 1545 Q1473.58 1546.15 1478.29 1547.2 L1480.29 1547.64 Q1486.53 1548.98 1489.14 1551.43 Q1491.78 1553.85 1491.78 1558.21 Q1491.78 1563.17 1487.84 1566.07 Q1483.92 1568.97 1477.05 1568.97 Q1474.18 1568.97 1471.06 1568.39 Q1467.97 1567.85 1464.54 1566.74 L1464.54 1560.69 Q1467.78 1562.38 1470.93 1563.24 Q1474.09 1564.07 1477.17 1564.07 Q1481.31 1564.07 1483.54 1562.66 Q1485.77 1561.23 1485.77 1558.65 Q1485.77 1556.27 1484.14 1554.99 Q1482.55 1553.72 1477.11 1552.54 L1475.07 1552.07 Q1469.63 1550.92 1467.21 1548.56 Q1464.79 1546.18 1464.79 1542.04 Q1464.79 1537.01 1468.36 1534.27 Q1471.92 1531.54 1478.48 1531.54 Q1481.72 1531.54 1484.59 1532.01 Q1487.45 1532.49 1489.87 1533.45 Z" fill="#000000" fill-rule="nonzero" fill-opacity="1" /><path clip-path="url(#clip350)" d="M1514.79 1518.52 L1514.79 1576.64 L1501.3 1576.64 L1501.3 1572.09 L1508.91 1572.09 L1508.91 1523.07 L1501.3 1523.07 L1501.3 1518.52 L1514.79 1518.52 Z" fill="#000000" fill-rule="nonzero" fill-opacity="1" /><polyline clip-path="url(#clip350)" style="stroke:#000000; stroke-linecap:round; stroke-linejoin:round; stroke-width:4; stroke-opacity:1; fill:none" points="431.371,1423.18 431.371,123.472 "/>
<polyline clip-path="url(#clip350)" style="stroke:#000000; stroke-linecap:round; stroke-linejoin:round; stroke-width:4; stroke-opacity:1; fill:none" points="431.371,1288.32 450.269,1288.32 "/>
<polyline clip-path="url(#clip350)" style="stroke:#000000; stroke-linecap:round; stroke-linejoin:round; stroke-width:4; stroke-opacity:1; fill:none" points="431.371,1020.63 450.269,1020.63 "/>
<polyline clip-path="url(#clip350)" style="stroke:#000000; stroke-linecap:round; stroke-linejoin:round; stroke-width:4; stroke-opacity:1; fill:none" points="431.371,752.943 450.269,752.943 "/>
<polyline clip-path="url(#clip350)" style="stroke:#000000; stroke-linecap:round; stroke-linejoin:round; stroke-width:4; stroke-opacity:1; fill:none" points="431.371,485.254 450.269,485.254 "/>
<polyline clip-path="url(#clip350)" style="stroke:#000000; stroke-linecap:round; stroke-linejoin:round; stroke-width:4; stroke-opacity:1; fill:none" points="431.371,217.566 450.269,217.566 "/>
<path clip-path="url(#clip350)" d="M115.031 1295.22 L144.707 1295.22 L144.707 1299.15 L115.031 1299.15 L115.031 1295.22 Z" fill="#000000" fill-rule="nonzero" fill-opacity="1" /><path clip-path="url(#clip350)" d="M155.61 1308.11 L163.249 1308.11 L163.249 1281.75 L154.938 1283.41 L154.938 1279.15 L163.202 1277.49 L167.878 1277.49 L167.878 1308.11 L175.517 1308.11 L175.517 1312.05 L155.61 1312.05 L155.61 1308.11 Z" fill="#000000" fill-rule="nonzero" fill-opacity="1" /><path clip-path="url(#clip350)" d="M184.961 1306.17 L189.846 1306.17 L189.846 1312.05 L184.961 1312.05 L184.961 1306.17 Z" fill="#000000" fill-rule="nonzero" fill-opacity="1" /><path clip-path="url(#clip350)" d="M210.031 1280.57 Q206.42 1280.57 204.591 1284.13 Q202.785 1287.67 202.785 1294.8 Q202.785 1301.91 204.591 1305.47 Q206.42 1309.02 210.031 1309.02 Q213.665 1309.02 215.471 1305.47 Q217.299 1301.91 217.299 1294.8 Q217.299 1287.67 215.471 1284.13 Q213.665 1280.57 210.031 1280.57 M210.031 1276.86 Q215.841 1276.86 218.896 1281.47 Q221.975 1286.05 221.975 1294.8 Q221.975 1303.53 218.896 1308.14 Q215.841 1312.72 210.031 1312.72 Q204.221 1312.72 201.142 1308.14 Q198.086 1303.53 198.086 1294.8 Q198.086 1286.05 201.142 1281.47 Q204.221 1276.86 210.031 1276.86 Z" fill="#000000" fill-rule="nonzero" fill-opacity="1" /><path clip-path="url(#clip350)" d="M258.364 1286.59 L247.785 1297.21 L258.364 1307.79 L255.609 1310.59 L244.984 1299.96 L234.359 1310.59 L231.628 1307.79 L242.183 1297.21 L231.628 1286.59 L234.359 1283.78 L244.984 1294.41 L255.609 1283.78 L258.364 1286.59 Z" fill="#000000" fill-rule="nonzero" fill-opacity="1" /><path clip-path="url(#clip350)" d="M270.725 1308.11 L278.364 1308.11 L278.364 1281.75 L270.054 1283.41 L270.054 1279.15 L278.317 1277.49 L282.993 1277.49 L282.993 1308.11 L290.632 1308.11 L290.632 1312.05 L270.725 1312.05 L270.725 1308.11 Z" fill="#000000" fill-rule="nonzero" fill-opacity="1" /><path clip-path="url(#clip350)" d="M310.077 1280.57 Q306.465 1280.57 304.637 1284.13 Q302.831 1287.67 302.831 1294.8 Q302.831 1301.91 304.637 1305.47 Q306.465 1309.02 310.077 1309.02 Q313.711 1309.02 315.516 1305.47 Q317.345 1301.91 317.345 1294.8 Q317.345 1287.67 315.516 1284.13 Q313.711 1280.57 310.077 1280.57 M310.077 1276.86 Q315.887 1276.86 318.942 1281.47 Q322.021 1286.05 322.021 1294.8 Q322.021 1303.53 318.942 1308.14 Q315.887 1312.72 310.077 1312.72 Q304.266 1312.72 301.188 1308.14 Q298.132 1303.53 298.132 1294.8 Q298.132 1286.05 301.188 1281.47 Q304.266 1276.86 310.077 1276.86 Z" fill="#000000" fill-rule="nonzero" fill-opacity="1" /><path clip-path="url(#clip350)" d="M322.021 1270.96 L346.132 1270.96 L346.132 1274.16 L322.021 1274.16 L322.021 1270.96 Z" fill="#000000" fill-rule="nonzero" fill-opacity="1" /><path clip-path="url(#clip350)" d="M354.991 1281.44 L361.197 1281.44 L361.197 1260.02 L354.446 1261.37 L354.446 1257.91 L361.16 1256.56 L364.959 1256.56 L364.959 1281.44 L371.166 1281.44 L371.166 1284.64 L354.991 1284.64 L354.991 1281.44 Z" fill="#000000" fill-rule="nonzero" fill-opacity="1" /><path clip-path="url(#clip350)" d="M382.112 1281.44 L395.371 1281.44 L395.371 1284.64 L377.541 1284.64 L377.541 1281.44 Q379.704 1279.2 383.428 1275.44 Q387.171 1271.66 388.13 1270.57 Q389.955 1268.52 390.669 1267.11 Q391.403 1265.68 391.403 1264.31 Q391.403 1262.07 389.823 1260.66 Q388.262 1259.25 385.742 1259.25 Q383.955 1259.25 381.961 1259.87 Q379.986 1260.49 377.73 1261.75 L377.73 1257.91 Q380.024 1256.99 382.018 1256.52 Q384.011 1256.05 385.666 1256.05 Q390.03 1256.05 392.625 1258.23 Q395.221 1260.41 395.221 1264.06 Q395.221 1265.79 394.562 1267.35 Q393.923 1268.9 392.212 1271 Q391.741 1271.55 389.221 1274.16 Q386.701 1276.76 382.112 1281.44 Z" fill="#000000" fill-rule="nonzero" fill-opacity="1" /><path clip-path="url(#clip350)" d="M114.26 1027.53 L143.936 1027.53 L143.936 1031.47 L114.26 1031.47 L114.26 1027.53 Z" fill="#000000" fill-rule="nonzero" fill-opacity="1" /><path clip-path="url(#clip350)" d="M154.075 1009.8 L172.431 1009.8 L172.431 1013.73 L158.357 1013.73 L158.357 1022.21 Q159.376 1021.86 160.394 1021.7 Q161.413 1021.51 162.431 1021.51 Q168.218 1021.51 171.598 1024.68 Q174.977 1027.85 174.977 1033.27 Q174.977 1038.85 171.505 1041.95 Q168.033 1045.03 161.714 1045.03 Q159.538 1045.03 157.269 1044.66 Q155.024 1044.29 152.616 1043.55 L152.616 1038.85 Q154.7 1039.98 156.922 1040.54 Q159.144 1041.1 161.621 1041.1 Q165.626 1041.1 167.964 1038.99 Q170.302 1036.88 170.302 1033.27 Q170.302 1029.66 167.964 1027.55 Q165.626 1025.45 161.621 1025.45 Q159.746 1025.45 157.871 1025.86 Q156.019 1026.28 154.075 1027.16 L154.075 1009.8 Z" fill="#000000" fill-rule="nonzero" fill-opacity="1" /><path clip-path="url(#clip350)" d="M184.19 1038.48 L189.075 1038.48 L189.075 1044.36 L184.19 1044.36 L184.19 1038.48 Z" fill="#000000" fill-rule="nonzero" fill-opacity="1" /><path clip-path="url(#clip350)" d="M209.26 1012.88 Q205.649 1012.88 203.82 1016.44 Q202.014 1019.98 202.014 1027.11 Q202.014 1034.22 203.82 1037.79 Q205.649 1041.33 209.26 1041.33 Q212.894 1041.33 214.699 1037.79 Q216.528 1034.22 216.528 1027.11 Q216.528 1019.98 214.699 1016.44 Q212.894 1012.88 209.26 1012.88 M209.26 1009.17 Q215.07 1009.17 218.125 1013.78 Q221.204 1018.36 221.204 1027.11 Q221.204 1035.84 218.125 1040.45 Q215.07 1045.03 209.26 1045.03 Q203.449 1045.03 200.371 1040.45 Q197.315 1035.84 197.315 1027.11 Q197.315 1018.36 200.371 1013.78 Q203.449 1009.17 209.26 1009.17 Z" fill="#000000" fill-rule="nonzero" fill-opacity="1" /><path clip-path="url(#clip350)" d="M257.593 1018.9 L247.014 1029.52 L257.593 1040.1 L254.838 1042.9 L244.213 1032.28 L233.588 1042.9 L230.857 1040.1 L241.412 1029.52 L230.857 1018.9 L233.588 1016.1 L244.213 1026.72 L254.838 1016.1 L257.593 1018.9 Z" fill="#000000" fill-rule="nonzero" fill-opacity="1" /><path clip-path="url(#clip350)" d="M269.954 1040.42 L277.593 1040.42 L277.593 1014.06 L269.282 1015.73 L269.282 1011.47 L277.546 1009.8 L282.222 1009.8 L282.222 1040.42 L289.861 1040.42 L289.861 1044.36 L269.954 1044.36 L269.954 1040.42 Z" fill="#000000" fill-rule="nonzero" fill-opacity="1" /><path clip-path="url(#clip350)" d="M309.305 1012.88 Q305.694 1012.88 303.866 1016.44 Q302.06 1019.98 302.06 1027.11 Q302.06 1034.22 303.866 1037.79 Q305.694 1041.33 309.305 1041.33 Q312.94 1041.33 314.745 1037.79 Q316.574 1034.22 316.574 1027.11 Q316.574 1019.98 314.745 1016.44 Q312.94 1012.88 309.305 1012.88 M309.305 1009.17 Q315.116 1009.17 318.171 1013.78 Q321.25 1018.36 321.25 1027.11 Q321.25 1035.84 318.171 1040.45 Q315.116 1045.03 309.305 1045.03 Q303.495 1045.03 300.417 1040.45 Q297.361 1035.84 297.361 1027.11 Q297.361 1018.36 300.417 1013.78 Q303.495 1009.17 309.305 1009.17 Z" fill="#000000" fill-rule="nonzero" fill-opacity="1" /><path clip-path="url(#clip350)" d="M321.25 1003.28 L345.361 1003.28 L345.361 1006.47 L321.25 1006.47 L321.25 1003.28 Z" fill="#000000" fill-rule="nonzero" fill-opacity="1" /><path clip-path="url(#clip350)" d="M354.22 1013.75 L360.426 1013.75 L360.426 992.33 L353.674 993.684 L353.674 990.223 L360.389 988.869 L364.188 988.869 L364.188 1013.75 L370.394 1013.75 L370.394 1016.95 L354.22 1016.95 L354.22 1013.75 Z" fill="#000000" fill-rule="nonzero" fill-opacity="1" /><path clip-path="url(#clip350)" d="M389.578 1001.81 Q392.306 1002.39 393.829 1004.23 Q395.371 1006.08 395.371 1008.79 Q395.371 1012.94 392.512 1015.22 Q389.654 1017.49 384.387 1017.49 Q382.62 1017.49 380.739 1017.14 Q378.877 1016.8 376.883 1016.1 L376.883 1012.44 Q378.463 1013.36 380.344 1013.83 Q382.225 1014.3 384.275 1014.3 Q387.848 1014.3 389.71 1012.89 Q391.591 1011.48 391.591 1008.79 Q391.591 1006.3 389.842 1004.91 Q388.111 1003.5 385.008 1003.5 L381.736 1003.5 L381.736 1000.38 L385.159 1000.38 Q387.961 1000.38 389.447 999.27 Q390.933 998.141 390.933 996.035 Q390.933 993.872 389.39 992.725 Q387.867 991.558 385.008 991.558 Q383.447 991.558 381.66 991.897 Q379.874 992.236 377.73 992.95 L377.73 989.565 Q379.892 988.963 381.773 988.662 Q383.673 988.361 385.347 988.361 Q389.672 988.361 392.193 990.336 Q394.713 992.292 394.713 995.64 Q394.713 997.972 393.378 999.589 Q392.042 1001.19 389.578 1001.81 Z" fill="#000000" fill-rule="nonzero" fill-opacity="1" /><path clip-path="url(#clip350)" d="M383.427 738.742 Q379.816 738.742 377.987 742.307 Q376.181 745.848 376.181 752.978 Q376.181 760.084 377.987 763.649 Q379.816 767.191 383.427 767.191 Q387.061 767.191 388.867 763.649 Q390.695 760.084 390.695 752.978 Q390.695 745.848 388.867 742.307 Q387.061 738.742 383.427 738.742 M383.427 735.038 Q389.237 735.038 392.293 739.645 Q395.371 744.228 395.371 752.978 Q395.371 761.705 392.293 766.311 Q389.237 770.894 383.427 770.894 Q377.617 770.894 374.538 766.311 Q371.482 761.705 371.482 752.978 Q371.482 744.228 374.538 739.645 Q377.617 735.038 383.427 735.038 Z" fill="#000000" fill-rule="nonzero" fill-opacity="1" /><path clip-path="url(#clip350)" d="M154.075 474.422 L172.431 474.422 L172.431 478.357 L158.357 478.357 L158.357 486.829 Q159.376 486.482 160.394 486.32 Q161.413 486.135 162.431 486.135 Q168.218 486.135 171.598 489.306 Q174.977 492.478 174.977 497.894 Q174.977 503.473 171.505 506.575 Q168.033 509.653 161.714 509.653 Q159.538 509.653 157.269 509.283 Q155.024 508.913 152.616 508.172 L152.616 503.473 Q154.7 504.607 156.922 505.163 Q159.144 505.718 161.621 505.718 Q165.626 505.718 167.964 503.612 Q170.302 501.505 170.302 497.894 Q170.302 494.283 167.964 492.177 Q165.626 490.07 161.621 490.07 Q159.746 490.07 157.871 490.487 Q156.019 490.903 154.075 491.783 L154.075 474.422 Z" fill="#000000" fill-rule="nonzero" fill-opacity="1" /><path clip-path="url(#clip350)" d="M184.19 503.102 L189.075 503.102 L189.075 508.982 L184.19 508.982 L184.19 503.102 Z" fill="#000000" fill-rule="nonzero" fill-opacity="1" /><path clip-path="url(#clip350)" d="M209.26 477.501 Q205.649 477.501 203.82 481.066 Q202.014 484.607 202.014 491.737 Q202.014 498.843 203.82 502.408 Q205.649 505.95 209.26 505.95 Q212.894 505.95 214.699 502.408 Q216.528 498.843 216.528 491.737 Q216.528 484.607 214.699 481.066 Q212.894 477.501 209.26 477.501 M209.26 473.797 Q215.07 473.797 218.125 478.404 Q221.204 482.987 221.204 491.737 Q221.204 500.464 218.125 505.07 Q215.07 509.653 209.26 509.653 Q203.449 509.653 200.371 505.07 Q197.315 500.464 197.315 491.737 Q197.315 482.987 200.371 478.404 Q203.449 473.797 209.26 473.797 Z" fill="#000000" fill-rule="nonzero" fill-opacity="1" /><path clip-path="url(#clip350)" d="M257.593 483.519 L247.014 494.144 L257.593 504.723 L254.838 507.524 L244.213 496.899 L233.588 507.524 L230.857 504.723 L241.412 494.144 L230.857 483.519 L233.588 480.718 L244.213 491.343 L254.838 480.718 L257.593 483.519 Z" fill="#000000" fill-rule="nonzero" fill-opacity="1" /><path clip-path="url(#clip350)" d="M269.954 505.047 L277.593 505.047 L277.593 478.681 L269.282 480.348 L269.282 476.089 L277.546 474.422 L282.222 474.422 L282.222 505.047 L289.861 505.047 L289.861 508.982 L269.954 508.982 L269.954 505.047 Z" fill="#000000" fill-rule="nonzero" fill-opacity="1" /><path clip-path="url(#clip350)" d="M309.305 477.501 Q305.694 477.501 303.866 481.066 Q302.06 484.607 302.06 491.737 Q302.06 498.843 303.866 502.408 Q305.694 505.95 309.305 505.95 Q312.94 505.95 314.745 502.408 Q316.574 498.843 316.574 491.737 Q316.574 484.607 314.745 481.066 Q312.94 477.501 309.305 477.501 M309.305 473.797 Q315.116 473.797 318.171 478.404 Q321.25 482.987 321.25 491.737 Q321.25 500.464 318.171 505.07 Q315.116 509.653 309.305 509.653 Q303.495 509.653 300.417 505.07 Q297.361 500.464 297.361 491.737 Q297.361 482.987 300.417 478.404 Q303.495 473.797 309.305 473.797 Z" fill="#000000" fill-rule="nonzero" fill-opacity="1" /><path clip-path="url(#clip350)" d="M321.25 467.898 L345.361 467.898 L345.361 471.096 L321.25 471.096 L321.25 467.898 Z" fill="#000000" fill-rule="nonzero" fill-opacity="1" /><path clip-path="url(#clip350)" d="M354.22 478.374 L360.426 478.374 L360.426 456.952 L353.674 458.306 L353.674 454.846 L360.389 453.492 L364.188 453.492 L364.188 478.374 L370.394 478.374 L370.394 481.572 L354.22 481.572 L354.22 478.374 Z" fill="#000000" fill-rule="nonzero" fill-opacity="1" /><path clip-path="url(#clip350)" d="M389.578 466.431 Q392.306 467.014 393.829 468.858 Q395.371 470.701 395.371 473.409 Q395.371 477.566 392.512 479.841 Q389.654 482.117 384.387 482.117 Q382.62 482.117 380.739 481.76 Q378.877 481.421 376.883 480.725 L376.883 477.058 Q378.463 477.979 380.344 478.45 Q382.225 478.92 384.275 478.92 Q387.848 478.92 389.71 477.509 Q391.591 476.099 391.591 473.409 Q391.591 470.926 389.842 469.535 Q388.111 468.124 385.008 468.124 L381.736 468.124 L381.736 465.002 L385.159 465.002 Q387.961 465.002 389.447 463.892 Q390.933 462.764 390.933 460.657 Q390.933 458.495 389.39 457.347 Q387.867 456.181 385.008 456.181 Q383.447 456.181 381.66 456.52 Q379.874 456.858 377.73 457.573 L377.73 454.188 Q379.892 453.586 381.773 453.285 Q383.673 452.984 385.347 452.984 Q389.672 452.984 392.193 454.959 Q394.713 456.915 394.713 460.262 Q394.713 462.595 393.378 464.212 Q392.042 465.811 389.578 466.431 Z" fill="#000000" fill-rule="nonzero" fill-opacity="1" /><path clip-path="url(#clip350)" d="M155.61 237.358 L163.249 237.358 L163.249 210.993 L154.938 212.659 L154.938 208.4 L163.202 206.733 L167.878 206.733 L167.878 237.358 L175.517 237.358 L175.517 241.293 L155.61 241.293 L155.61 237.358 Z" fill="#000000" fill-rule="nonzero" fill-opacity="1" /><path clip-path="url(#clip350)" d="M184.961 235.414 L189.846 235.414 L189.846 241.293 L184.961 241.293 L184.961 235.414 Z" fill="#000000" fill-rule="nonzero" fill-opacity="1" /><path clip-path="url(#clip350)" d="M210.031 209.812 Q206.42 209.812 204.591 213.377 Q202.785 216.919 202.785 224.048 Q202.785 231.155 204.591 234.719 Q206.42 238.261 210.031 238.261 Q213.665 238.261 215.471 234.719 Q217.299 231.155 217.299 224.048 Q217.299 216.919 215.471 213.377 Q213.665 209.812 210.031 209.812 M210.031 206.108 Q215.841 206.108 218.896 210.715 Q221.975 215.298 221.975 224.048 Q221.975 232.775 218.896 237.381 Q215.841 241.965 210.031 241.965 Q204.221 241.965 201.142 237.381 Q198.086 232.775 198.086 224.048 Q198.086 215.298 201.142 210.715 Q204.221 206.108 210.031 206.108 Z" fill="#000000" fill-rule="nonzero" fill-opacity="1" /><path clip-path="url(#clip350)" d="M258.364 215.831 L247.785 226.455 L258.364 237.034 L255.609 239.835 L244.984 229.21 L234.359 239.835 L231.628 237.034 L242.183 226.455 L231.628 215.831 L234.359 213.03 L244.984 223.655 L255.609 213.03 L258.364 215.831 Z" fill="#000000" fill-rule="nonzero" fill-opacity="1" /><path clip-path="url(#clip350)" d="M270.725 237.358 L278.364 237.358 L278.364 210.993 L270.054 212.659 L270.054 208.4 L278.317 206.733 L282.993 206.733 L282.993 237.358 L290.632 237.358 L290.632 241.293 L270.725 241.293 L270.725 237.358 Z" fill="#000000" fill-rule="nonzero" fill-opacity="1" /><path clip-path="url(#clip350)" d="M310.077 209.812 Q306.465 209.812 304.637 213.377 Q302.831 216.919 302.831 224.048 Q302.831 231.155 304.637 234.719 Q306.465 238.261 310.077 238.261 Q313.711 238.261 315.516 234.719 Q317.345 231.155 317.345 224.048 Q317.345 216.919 315.516 213.377 Q313.711 209.812 310.077 209.812 M310.077 206.108 Q315.887 206.108 318.942 210.715 Q322.021 215.298 322.021 224.048 Q322.021 232.775 318.942 237.381 Q315.887 241.965 310.077 241.965 Q304.266 241.965 301.188 237.381 Q298.132 232.775 298.132 224.048 Q298.132 215.298 301.188 210.715 Q304.266 206.108 310.077 206.108 Z" fill="#000000" fill-rule="nonzero" fill-opacity="1" /><path clip-path="url(#clip350)" d="M322.021 200.21 L346.132 200.21 L346.132 203.407 L322.021 203.407 L322.021 200.21 Z" fill="#000000" fill-rule="nonzero" fill-opacity="1" /><path clip-path="url(#clip350)" d="M354.991 210.686 L361.197 210.686 L361.197 189.264 L354.446 190.618 L354.446 187.157 L361.16 185.803 L364.959 185.803 L364.959 210.686 L371.166 210.686 L371.166 213.883 L354.991 213.883 L354.991 210.686 Z" fill="#000000" fill-rule="nonzero" fill-opacity="1" /><path clip-path="url(#clip350)" d="M382.112 210.686 L395.371 210.686 L395.371 213.883 L377.541 213.883 L377.541 210.686 Q379.704 208.448 383.428 204.686 Q387.171 200.906 388.13 199.815 Q389.955 197.765 390.669 196.354 Q391.403 194.925 391.403 193.552 Q391.403 191.314 389.823 189.903 Q388.262 188.492 385.742 188.492 Q383.955 188.492 381.961 189.113 Q379.986 189.734 377.73 190.994 L377.73 187.157 Q380.024 186.236 382.018 185.765 Q384.011 185.295 385.666 185.295 Q390.03 185.295 392.625 187.477 Q395.221 189.659 395.221 193.307 Q395.221 195.038 394.562 196.599 Q393.923 198.141 392.212 200.247 Q391.741 200.793 389.221 203.407 Q386.701 206.003 382.112 210.686 Z" fill="#000000" fill-rule="nonzero" fill-opacity="1" /><path clip-path="url(#clip350)" d="M29.4065 1107.18 L34.9447 1107.18 Q33.6716 1109.66 33.035 1112.33 Q32.3984 1115.01 32.3984 1117.87 Q32.3984 1122.23 33.7352 1124.43 Q35.072 1126.59 37.7456 1126.59 Q39.7826 1126.59 40.9603 1125.03 Q42.1061 1123.47 43.1565 1118.76 L43.6021 1116.76 Q44.9389 1110.52 47.3897 1107.91 Q49.8086 1105.27 54.1691 1105.27 Q59.1344 1105.27 62.0308 1109.21 Q64.9272 1113.13 64.9272 1120 Q64.9272 1122.87 64.3543 1125.99 Q63.8132 1129.07 62.6992 1132.51 L56.6518 1132.51 Q58.3387 1129.26 59.198 1126.11 Q60.0256 1122.96 60.0256 1119.88 Q60.0256 1115.74 58.6251 1113.51 Q57.1929 1111.28 54.6147 1111.28 Q52.2276 1111.28 50.9545 1112.9 Q49.6813 1114.5 48.5037 1119.94 L48.0262 1121.98 Q46.8804 1127.42 44.5251 1129.84 Q42.138 1132.26 38.0002 1132.26 Q32.9713 1132.26 30.2341 1128.69 Q27.4968 1125.13 27.4968 1118.57 Q27.4968 1115.32 27.9743 1112.46 Q28.4517 1109.59 29.4065 1107.18 Z" fill="#000000" fill-rule="nonzero" fill-opacity="1" /><path clip-path="url(#clip350)" d="M32.4621 1082.13 Q32.4621 1086.84 36.1542 1089.57 Q39.8145 1092.31 46.212 1092.31 Q52.6095 1092.31 56.3017 1089.61 Q59.9619 1086.87 59.9619 1082.13 Q59.9619 1077.45 56.2698 1074.71 Q52.5777 1071.97 46.212 1071.97 Q39.8781 1071.97 36.186 1074.71 Q32.4621 1077.45 32.4621 1082.13 M27.4968 1082.13 Q27.4968 1074.49 32.4621 1070.13 Q37.4273 1065.77 46.212 1065.77 Q54.9649 1065.77 59.9619 1070.13 Q64.9272 1074.49 64.9272 1082.13 Q64.9272 1089.8 59.9619 1094.16 Q54.9649 1098.49 46.212 1098.49 Q37.4273 1098.49 32.4621 1094.16 Q27.4968 1089.8 27.4968 1082.13 Z" fill="#000000" fill-rule="nonzero" fill-opacity="1" /><path clip-path="url(#clip350)" d="M14.479 1056.06 L14.479 1050.2 L64.0042 1050.2 L64.0042 1056.06 L14.479 1056.06 Z" fill="#000000" fill-rule="nonzero" fill-opacity="1" /><path clip-path="url(#clip350)" d="M28.3562 1042.15 L28.3562 1035.94 L58.275 1024.8 L28.3562 1013.66 L28.3562 1007.46 L64.0042 1020.82 L64.0042 1028.78 L28.3562 1042.15 Z" fill="#000000" fill-rule="nonzero" fill-opacity="1" /><path clip-path="url(#clip350)" d="M14.479 999.913 L14.479 986.418 L19.0304 986.418 L19.0304 994.057 L68.0464 994.057 L68.0464 986.418 L72.5979 986.418 L72.5979 999.913 L14.479 999.913 Z" fill="#000000" fill-rule="nonzero" fill-opacity="1" /><path clip-path="url(#clip350)" d="M46.212 948.351 Q39.7508 948.351 36.0905 951.025 Q32.3984 953.666 32.3984 958.313 Q32.3984 962.96 36.0905 965.634 Q39.7508 968.276 46.212 968.276 Q52.6732 968.276 56.3653 965.634 Q60.0256 962.96 60.0256 958.313 Q60.0256 953.666 56.3653 951.025 Q52.6732 948.351 46.212 948.351 M33.7671 968.276 Q30.5842 966.43 29.0564 963.629 Q27.4968 960.796 27.4968 956.881 Q27.4968 950.388 32.6531 946.346 Q37.8093 942.272 46.212 942.272 Q54.6147 942.272 59.771 946.346 Q64.9272 950.388 64.9272 956.881 Q64.9272 960.796 63.3994 963.629 Q61.8398 966.43 58.657 968.276 L64.0042 968.276 L64.0042 974.164 L14.479 974.164 L14.479 968.276 L33.7671 968.276 Z" fill="#000000" fill-rule="nonzero" fill-opacity="1" /><path clip-path="url(#clip350)" d="M28.3562 936.766 L28.3562 930.559 L58.275 919.419 L28.3562 908.279 L28.3562 902.072 L64.0042 915.44 L64.0042 923.398 L28.3562 936.766 Z" fill="#000000" fill-rule="nonzero" fill-opacity="1" /><path clip-path="url(#clip350)" d="M55.9197 898.221 L55.9197 891.505 L64.0042 891.505 L64.0042 898.221 L55.9197 898.221 Z" fill="#000000" fill-rule="nonzero" fill-opacity="1" /><path clip-path="url(#clip350)" d="M28.3562 882.53 L28.3562 876.323 L58.275 865.183 L28.3562 854.043 L28.3562 847.837 L64.0042 861.205 L64.0042 869.162 L28.3562 882.53 Z" fill="#000000" fill-rule="nonzero" fill-opacity="1" /><path clip-path="url(#clip350)" d="M14.479 826.066 L72.5979 826.066 L72.5979 839.561 L68.0464 839.561 L68.0464 831.954 L19.0304 831.954 L19.0304 839.561 L14.479 839.561 L14.479 826.066 Z" fill="#000000" fill-rule="nonzero" fill-opacity="1" /><path clip-path="url(#clip350)" d="M55.9197 792.773 L55.9197 786.057 L64.0042 786.057 L64.0042 792.773 L55.9197 792.773 Z" fill="#000000" fill-rule="nonzero" fill-opacity="1" /><path clip-path="url(#clip350)" d="M43.5384 775.84 L43.5384 758.685 L48.7583 758.685 L48.7583 775.84 L43.5384 775.84 Z" fill="#000000" fill-rule="nonzero" fill-opacity="1" /><path clip-path="url(#clip350)" d="M29.4065 705.913 L34.9447 705.913 Q33.6716 708.396 33.035 711.069 Q32.3984 713.743 32.3984 716.608 Q32.3984 720.968 33.7352 723.164 Q35.072 725.329 37.7456 725.329 Q39.7826 725.329 40.9603 723.769 Q42.1061 722.209 43.1565 717.499 L43.6021 715.494 Q44.9389 709.255 47.3897 706.645 Q49.8086 704.003 54.1691 704.003 Q59.1344 704.003 62.0308 707.95 Q64.9272 711.865 64.9272 718.74 Q64.9272 721.605 64.3543 724.724 Q63.8132 727.811 62.6992 731.249 L56.6518 731.249 Q58.3387 728.002 59.198 724.851 Q60.0256 721.7 60.0256 718.613 Q60.0256 714.475 58.6251 712.247 Q57.1929 710.019 54.6147 710.019 Q52.2276 710.019 50.9545 711.642 Q49.6813 713.234 48.5037 718.676 L48.0262 720.713 Q46.8804 726.156 44.5251 728.575 Q42.138 730.994 38.0002 730.994 Q32.9713 730.994 30.2341 727.429 Q27.4968 723.864 27.4968 717.308 Q27.4968 714.061 27.9743 711.197 Q28.4517 708.332 29.4065 705.913 Z" fill="#000000" fill-rule="nonzero" fill-opacity="1" /><path clip-path="url(#clip350)" d="M32.4621 680.864 Q32.4621 685.575 36.1542 688.312 Q39.8145 691.049 46.212 691.049 Q52.6095 691.049 56.3017 688.344 Q59.9619 685.607 59.9619 680.864 Q59.9619 676.185 56.2698 673.448 Q52.5777 670.711 46.212 670.711 Q39.8781 670.711 36.186 673.448 Q32.4621 676.185 32.4621 680.864 M27.4968 680.864 Q27.4968 673.225 32.4621 668.865 Q37.4273 664.504 46.212 664.504 Q54.9649 664.504 59.9619 668.865 Q64.9272 673.225 64.9272 680.864 Q64.9272 688.535 59.9619 692.895 Q54.9649 697.224 46.212 697.224 Q37.4273 697.224 32.4621 692.895 Q27.4968 688.535 27.4968 680.864 Z" fill="#000000" fill-rule="nonzero" fill-opacity="1" /><path clip-path="url(#clip350)" d="M14.479 654.797 L14.479 648.94 L64.0042 648.94 L64.0042 654.797 L14.479 654.797 Z" fill="#000000" fill-rule="nonzero" fill-opacity="1" /><path clip-path="url(#clip350)" d="M58.657 631.021 L77.5631 631.021 L77.5631 636.909 L28.3562 636.909 L28.3562 631.021 L33.7671 631.021 Q30.5842 629.175 29.0564 626.374 Q27.4968 623.541 27.4968 619.626 Q27.4968 613.133 32.6531 609.091 Q37.8093 605.017 46.212 605.017 Q54.6147 605.017 59.771 609.091 Q64.9272 613.133 64.9272 619.626 Q64.9272 623.541 63.3994 626.374 Q61.8398 629.175 58.657 631.021 M46.212 611.096 Q39.7508 611.096 36.0905 613.77 Q32.3984 616.411 32.3984 621.058 Q32.3984 625.705 36.0905 628.379 Q39.7508 631.021 46.212 631.021 Q52.6732 631.021 56.3653 628.379 Q60.0256 625.705 60.0256 621.058 Q60.0256 616.411 56.3653 613.77 Q52.6732 611.096 46.212 611.096 Z" fill="#000000" fill-rule="nonzero" fill-opacity="1" /><path clip-path="url(#clip350)" d="M14.479 595.85 L14.479 582.355 L19.0304 582.355 L19.0304 589.994 L68.0464 589.994 L68.0464 582.355 L72.5979 582.355 L72.5979 595.85 L14.479 595.85 Z" fill="#000000" fill-rule="nonzero" fill-opacity="1" /><path clip-path="url(#clip350)" d="M46.212 544.288 Q39.7508 544.288 36.0905 546.961 Q32.3984 549.603 32.3984 554.25 Q32.3984 558.897 36.0905 561.571 Q39.7508 564.213 46.212 564.213 Q52.6732 564.213 56.3653 561.571 Q60.0256 558.897 60.0256 554.25 Q60.0256 549.603 56.3653 546.961 Q52.6732 544.288 46.212 544.288 M33.7671 564.213 Q30.5842 562.366 29.0564 559.566 Q27.4968 556.733 27.4968 552.818 Q27.4968 546.325 32.6531 542.283 Q37.8093 538.209 46.212 538.209 Q54.6147 538.209 59.771 542.283 Q64.9272 546.325 64.9272 552.818 Q64.9272 556.733 63.3994 559.566 Q61.8398 562.366 58.657 564.213 L64.0042 564.213 L64.0042 570.101 L14.479 570.101 L14.479 564.213 L33.7671 564.213 Z" fill="#000000" fill-rule="nonzero" fill-opacity="1" /><path clip-path="url(#clip350)" d="M58.657 522.835 L77.5631 522.835 L77.5631 528.724 L28.3562 528.724 L28.3562 522.835 L33.7671 522.835 Q30.5842 520.989 29.0564 518.188 Q27.4968 515.356 27.4968 511.441 Q27.4968 504.948 32.6531 500.906 Q37.8093 496.832 46.212 496.832 Q54.6147 496.832 59.771 500.906 Q64.9272 504.948 64.9272 511.441 Q64.9272 515.356 63.3994 518.188 Q61.8398 520.989 58.657 522.835 M46.212 502.911 Q39.7508 502.911 36.0905 505.584 Q32.3984 508.226 32.3984 512.873 Q32.3984 517.52 36.0905 520.194 Q39.7508 522.835 46.212 522.835 Q52.6732 522.835 56.3653 520.194 Q60.0256 517.52 60.0256 512.873 Q60.0256 508.226 56.3653 505.584 Q52.6732 502.911 46.212 502.911 Z" fill="#000000" fill-rule="nonzero" fill-opacity="1" /><path clip-path="url(#clip350)" d="M55.9197 486.296 L55.9197 479.58 L64.0042 479.58 L64.0042 486.296 L55.9197 486.296 Z" fill="#000000" fill-rule="nonzero" fill-opacity="1" /><path clip-path="url(#clip350)" d="M28.3562 470.605 L28.3562 464.398 L58.275 453.258 L28.3562 442.118 L28.3562 435.912 L64.0042 449.28 L64.0042 457.237 L28.3562 470.605 Z" fill="#000000" fill-rule="nonzero" fill-opacity="1" /><path clip-path="url(#clip350)" d="M14.479 414.141 L72.5979 414.141 L72.5979 427.636 L68.0464 427.636 L68.0464 420.029 L19.0304 420.029 L19.0304 427.636 L14.479 427.636 L14.479 414.141 Z" fill="#000000" fill-rule="nonzero" fill-opacity="1" /><path clip-path="url(#clip350)" d="M565.76 45.1919 L565.76 72.576 L558.306 72.576 L558.306 45.4349 Q558.306 38.994 555.795 35.7938 Q553.283 32.5936 548.26 32.5936 Q542.224 32.5936 538.741 36.4419 Q535.257 40.2903 535.257 46.9338 L535.257 72.576 L527.763 72.576 L527.763 27.2059 L535.257 27.2059 L535.257 34.2544 Q537.93 30.163 541.536 28.1376 Q545.182 26.1121 549.921 26.1121 Q557.739 26.1121 561.75 30.9732 Q565.76 35.7938 565.76 45.1919 Z" fill="#000000" fill-rule="nonzero" fill-opacity="1" /><path clip-path="url(#clip350)" d="M579.857 54.671 L579.857 27.2059 L587.311 27.2059 L587.311 54.3874 Q587.311 60.8284 589.822 64.0691 Q592.334 67.2693 597.357 67.2693 Q603.393 67.2693 606.877 63.421 Q610.401 59.5726 610.401 52.9291 L610.401 27.2059 L617.855 27.2059 L617.855 72.576 L610.401 72.576 L610.401 65.6084 Q607.687 69.7404 604.082 71.7658 Q600.517 73.7508 595.777 73.7508 Q587.959 73.7508 583.908 68.8897 Q579.857 64.0286 579.857 54.671 M598.613 26.1121 L598.613 26.1121 Z" fill="#000000" fill-rule="nonzero" fill-opacity="1" /><path clip-path="url(#clip350)" d="M668.532 35.9153 Q671.327 30.8922 675.216 28.5022 Q679.104 26.1121 684.371 26.1121 Q691.46 26.1121 695.308 31.0947 Q699.156 36.0368 699.156 45.1919 L699.156 72.576 L691.662 72.576 L691.662 45.4349 Q691.662 38.913 689.353 35.7533 Q687.044 32.5936 682.305 32.5936 Q676.512 32.5936 673.15 36.4419 Q669.787 40.2903 669.787 46.9338 L669.787 72.576 L662.293 72.576 L662.293 45.4349 Q662.293 38.8725 659.984 35.7533 Q657.675 32.5936 652.855 32.5936 Q647.143 32.5936 643.781 36.4824 Q640.418 40.3308 640.418 46.9338 L640.418 72.576 L632.924 72.576 L632.924 27.2059 L640.418 27.2059 L640.418 34.2544 Q642.97 30.082 646.535 28.0971 Q650.1 26.1121 655.002 26.1121 Q659.944 26.1121 663.387 28.6237 Q666.871 31.1352 668.532 35.9153 Z" fill="#000000" fill-rule="nonzero" fill-opacity="1" /><path clip-path="url(#clip350)" d="M752.831 48.0275 L752.831 51.6733 L718.56 51.6733 Q719.046 59.3701 723.178 63.421 Q727.351 67.4314 734.764 67.4314 Q739.058 67.4314 743.068 66.3781 Q747.119 65.3249 751.089 63.2184 L751.089 70.267 Q747.079 71.9684 742.866 72.8596 Q738.653 73.7508 734.318 73.7508 Q723.462 73.7508 717.102 67.4314 Q710.782 61.1119 710.782 50.3365 Q710.782 39.1965 716.778 32.6746 Q722.814 26.1121 733.022 26.1121 Q742.177 26.1121 747.484 32.0264 Q752.831 37.9003 752.831 48.0275 M745.377 45.84 Q745.296 39.7232 741.934 36.0774 Q738.612 32.4315 733.103 32.4315 Q726.865 32.4315 723.097 35.9558 Q719.37 39.4801 718.803 45.8805 L745.377 45.84 Z" fill="#000000" fill-rule="nonzero" fill-opacity="1" /><path clip-path="url(#clip350)" d="M791.355 34.1734 Q790.099 33.4443 788.6 33.1202 Q787.142 32.7556 785.36 32.7556 Q779.04 32.7556 775.637 36.8875 Q772.275 40.9789 772.275 48.6757 L772.275 72.576 L764.781 72.576 L764.781 27.2059 L772.275 27.2059 L772.275 34.2544 Q774.625 30.1225 778.392 28.1376 Q782.159 26.1121 787.547 26.1121 Q788.317 26.1121 789.249 26.2337 Q790.18 26.3147 791.314 26.5172 L791.355 34.1734 Z" fill="#000000" fill-rule="nonzero" fill-opacity="1" /><path clip-path="url(#clip350)" d="M799.173 27.2059 L806.627 27.2059 L806.627 72.576 L799.173 72.576 L799.173 27.2059 M799.173 9.54393 L806.627 9.54393 L806.627 18.9825 L799.173 18.9825 L799.173 9.54393 Z" fill="#000000" fill-rule="nonzero" fill-opacity="1" /><path clip-path="url(#clip350)" d="M854.873 28.9478 L854.873 35.9153 Q851.713 34.1734 848.513 33.3227 Q845.354 32.4315 842.113 32.4315 Q834.862 32.4315 830.851 37.0496 Q826.841 41.6271 826.841 49.9314 Q826.841 58.2358 830.851 62.8538 Q834.862 67.4314 842.113 67.4314 Q845.354 67.4314 848.513 66.5807 Q851.713 65.6895 854.873 63.9476 L854.873 70.8341 Q851.754 72.2924 848.392 73.0216 Q845.07 73.7508 841.303 73.7508 Q831.054 73.7508 825.018 67.3098 Q818.982 60.8689 818.982 49.9314 Q818.982 38.832 825.058 32.472 Q831.175 26.1121 841.789 26.1121 Q845.232 26.1121 848.513 26.8413 Q851.794 27.5299 854.873 28.9478 Z" fill="#000000" fill-rule="nonzero" fill-opacity="1" /><path clip-path="url(#clip350)" d="M888.455 49.7694 Q879.422 49.7694 875.938 51.8354 Q872.454 53.9013 872.454 58.8839 Q872.454 62.8538 875.047 65.2034 Q877.68 67.5124 882.176 67.5124 Q888.374 67.5124 892.101 63.1374 Q895.868 58.7219 895.868 51.4303 L895.868 49.7694 L888.455 49.7694 M903.322 46.6907 L903.322 72.576 L895.868 72.576 L895.868 65.6895 Q893.316 69.8214 889.508 71.8063 Q885.701 73.7508 880.191 73.7508 Q873.224 73.7508 869.092 69.8619 Q865 65.9325 865 59.3701 Q865 51.7138 870.105 47.825 Q875.249 43.9361 885.417 43.9361 L895.868 43.9361 L895.868 43.2069 Q895.868 38.0623 892.466 35.2672 Q889.103 32.4315 882.986 32.4315 Q879.098 32.4315 875.411 33.3632 Q871.725 34.295 868.322 36.1584 L868.322 29.2718 Q872.414 27.692 876.262 26.9223 Q880.11 26.1121 883.756 26.1121 Q893.6 26.1121 898.461 31.2163 Q903.322 36.3204 903.322 46.6907 Z" fill="#000000" fill-rule="nonzero" fill-opacity="1" /><path clip-path="url(#clip350)" d="M918.675 9.54393 L926.129 9.54393 L926.129 72.576 L918.675 72.576 L918.675 9.54393 Z" fill="#000000" fill-rule="nonzero" fill-opacity="1" /><path clip-path="url(#clip350)" d="M997.951 34.0924 L997.951 9.54393 L1005.4 9.54393 L1005.4 72.576 L997.951 72.576 L997.951 65.7705 Q995.602 69.8214 991.996 71.8063 Q988.431 73.7508 983.408 73.7508 Q975.185 73.7508 970 67.1883 Q964.855 60.6258 964.855 49.9314 Q964.855 39.2371 970 32.6746 Q975.185 26.1121 983.408 26.1121 Q988.431 26.1121 991.996 28.0971 Q995.602 30.0415 997.951 34.0924 M972.552 49.9314 Q972.552 58.1548 975.914 62.8538 Q979.317 67.5124 985.231 67.5124 Q991.146 67.5124 994.548 62.8538 Q997.951 58.1548 997.951 49.9314 Q997.951 41.7081 994.548 37.0496 Q991.146 32.3505 985.231 32.3505 Q979.317 32.3505 975.914 37.0496 Q972.552 41.7081 972.552 49.9314 Z" fill="#000000" fill-rule="nonzero" fill-opacity="1" /><path clip-path="url(#clip350)" d="M1020.76 27.2059 L1028.21 27.2059 L1028.21 72.576 L1020.76 72.576 L1020.76 27.2059 M1020.76 9.54393 L1028.21 9.54393 L1028.21 18.9825 L1020.76 18.9825 L1020.76 9.54393 Z" fill="#000000" fill-rule="nonzero" fill-opacity="1" /><path clip-path="url(#clip350)" d="M1066.78 9.54393 L1066.78 15.7418 L1059.65 15.7418 Q1055.64 15.7418 1054.06 17.3622 Q1052.52 18.9825 1052.52 23.1955 L1052.52 27.2059 L1064.79 27.2059 L1064.79 32.9987 L1052.52 32.9987 L1052.52 72.576 L1045.02 72.576 L1045.02 32.9987 L1037.89 32.9987 L1037.89 27.2059 L1045.02 27.2059 L1045.02 24.0462 Q1045.02 16.471 1048.55 13.0277 Q1052.07 9.54393 1059.73 9.54393 L1066.78 9.54393 Z" fill="#000000" fill-rule="nonzero" fill-opacity="1" /><path clip-path="url(#clip350)" d="M1095.98 9.54393 L1095.98 15.7418 L1088.85 15.7418 Q1084.84 15.7418 1083.26 17.3622 Q1081.72 18.9825 1081.72 23.1955 L1081.72 27.2059 L1094 27.2059 L1094 32.9987 L1081.72 32.9987 L1081.72 72.576 L1074.23 72.576 L1074.23 32.9987 L1067.1 32.9987 L1067.1 27.2059 L1074.23 27.2059 L1074.23 24.0462 Q1074.23 16.471 1077.75 13.0277 Q1081.28 9.54393 1088.93 9.54393 L1095.98 9.54393 Z" fill="#000000" fill-rule="nonzero" fill-opacity="1" /><path clip-path="url(#clip350)" d="M1141.03 48.0275 L1141.03 51.6733 L1106.76 51.6733 Q1107.24 59.3701 1111.38 63.421 Q1115.55 67.4314 1122.96 67.4314 Q1127.26 67.4314 1131.27 66.3781 Q1135.32 65.3249 1139.29 63.2184 L1139.29 70.267 Q1135.28 71.9684 1131.06 72.8596 Q1126.85 73.7508 1122.52 73.7508 Q1111.66 73.7508 1105.3 67.4314 Q1098.98 61.1119 1098.98 50.3365 Q1098.98 39.1965 1104.98 32.6746 Q1111.01 26.1121 1121.22 26.1121 Q1130.38 26.1121 1135.68 32.0264 Q1141.03 37.9003 1141.03 48.0275 M1133.58 45.84 Q1133.49 39.7232 1130.13 36.0774 Q1126.81 32.4315 1121.3 32.4315 Q1115.06 32.4315 1111.3 35.9558 Q1107.57 39.4801 1107 45.8805 L1133.58 45.84 Z" fill="#000000" fill-rule="nonzero" fill-opacity="1" /><path clip-path="url(#clip350)" d="M1179.55 34.1734 Q1178.3 33.4443 1176.8 33.1202 Q1175.34 32.7556 1173.56 32.7556 Q1167.24 32.7556 1163.84 36.8875 Q1160.47 40.9789 1160.47 48.6757 L1160.47 72.576 L1152.98 72.576 L1152.98 27.2059 L1160.47 27.2059 L1160.47 34.2544 Q1162.82 30.1225 1166.59 28.1376 Q1170.36 26.1121 1175.75 26.1121 Q1176.51 26.1121 1177.45 26.2337 Q1178.38 26.3147 1179.51 26.5172 L1179.55 34.1734 Z" fill="#000000" fill-rule="nonzero" fill-opacity="1" /><path clip-path="url(#clip350)" d="M1224.36 48.0275 L1224.36 51.6733 L1190.09 51.6733 Q1190.57 59.3701 1194.7 63.421 Q1198.88 67.4314 1206.29 67.4314 Q1210.58 67.4314 1214.59 66.3781 Q1218.64 65.3249 1222.61 63.2184 L1222.61 70.267 Q1218.6 71.9684 1214.39 72.8596 Q1210.18 73.7508 1205.84 73.7508 Q1194.99 73.7508 1188.63 67.4314 Q1182.31 61.1119 1182.31 50.3365 Q1182.31 39.1965 1188.3 32.6746 Q1194.34 26.1121 1204.55 26.1121 Q1213.7 26.1121 1219.01 32.0264 Q1224.36 37.9003 1224.36 48.0275 M1216.9 45.84 Q1216.82 39.7232 1213.46 36.0774 Q1210.14 32.4315 1204.63 32.4315 Q1198.39 32.4315 1194.62 35.9558 Q1190.9 39.4801 1190.33 45.8805 L1216.9 45.84 Z" fill="#000000" fill-rule="nonzero" fill-opacity="1" /><path clip-path="url(#clip350)" d="M1274.3 45.1919 L1274.3 72.576 L1266.85 72.576 L1266.85 45.4349 Q1266.85 38.994 1264.34 35.7938 Q1261.83 32.5936 1256.8 32.5936 Q1250.77 32.5936 1247.28 36.4419 Q1243.8 40.2903 1243.8 46.9338 L1243.8 72.576 L1236.31 72.576 L1236.31 27.2059 L1243.8 27.2059 L1243.8 34.2544 Q1246.47 30.163 1250.08 28.1376 Q1253.73 26.1121 1258.46 26.1121 Q1266.28 26.1121 1270.29 30.9732 Q1274.3 35.7938 1274.3 45.1919 Z" fill="#000000" fill-rule="nonzero" fill-opacity="1" /><path clip-path="url(#clip350)" d="M1321.82 28.9478 L1321.82 35.9153 Q1318.66 34.1734 1315.46 33.3227 Q1312.3 32.4315 1309.06 32.4315 Q1301.81 32.4315 1297.8 37.0496 Q1293.79 41.6271 1293.79 49.9314 Q1293.79 58.2358 1297.8 62.8538 Q1301.81 67.4314 1309.06 67.4314 Q1312.3 67.4314 1315.46 66.5807 Q1318.66 65.6895 1321.82 63.9476 L1321.82 70.8341 Q1318.7 72.2924 1315.34 73.0216 Q1312.02 73.7508 1308.25 73.7508 Q1298 73.7508 1291.97 67.3098 Q1285.93 60.8689 1285.93 49.9314 Q1285.93 38.832 1292.01 32.472 Q1298.12 26.1121 1308.74 26.1121 Q1312.18 26.1121 1315.46 26.8413 Q1318.74 27.5299 1321.82 28.9478 Z" fill="#000000" fill-rule="nonzero" fill-opacity="1" /><path clip-path="url(#clip350)" d="M1373.59 48.0275 L1373.59 51.6733 L1339.32 51.6733 Q1339.81 59.3701 1343.94 63.421 Q1348.11 67.4314 1355.52 67.4314 Q1359.82 67.4314 1363.83 66.3781 Q1367.88 65.3249 1371.85 63.2184 L1371.85 70.267 Q1367.84 71.9684 1363.63 72.8596 Q1359.41 73.7508 1355.08 73.7508 Q1344.22 73.7508 1337.86 67.4314 Q1331.54 61.1119 1331.54 50.3365 Q1331.54 39.1965 1337.54 32.6746 Q1343.57 26.1121 1353.78 26.1121 Q1362.94 26.1121 1368.24 32.0264 Q1373.59 37.9003 1373.59 48.0275 M1366.14 45.84 Q1366.06 39.7232 1362.69 36.0774 Q1359.37 32.4315 1353.86 32.4315 Q1347.63 32.4315 1343.86 35.9558 Q1340.13 39.4801 1339.56 45.8805 L1366.14 45.84 Z" fill="#000000" fill-rule="nonzero" fill-opacity="1" /><path clip-path="url(#clip350)" d="M1387.73 62.2867 L1396.28 62.2867 L1396.28 72.576 L1387.73 72.576 L1387.73 62.2867 M1387.73 29.6769 L1396.28 29.6769 L1396.28 39.9662 L1387.73 39.9662 L1387.73 29.6769 Z" fill="#000000" fill-rule="nonzero" fill-opacity="1" /><path clip-path="url(#clip350)" d="M1434.8 27.2059 L1442.7 27.2059 L1456.88 65.2844 L1471.06 27.2059 L1478.96 27.2059 L1461.94 72.576 L1451.81 72.576 L1434.8 27.2059 Z" fill="#000000" fill-rule="nonzero" fill-opacity="1" /><path clip-path="url(#clip350)" d="M1528.05 48.0275 L1528.05 51.6733 L1493.78 51.6733 Q1494.27 59.3701 1498.4 63.421 Q1502.57 67.4314 1509.99 67.4314 Q1514.28 67.4314 1518.29 66.3781 Q1522.34 65.3249 1526.31 63.2184 L1526.31 70.267 Q1522.3 71.9684 1518.09 72.8596 Q1513.87 73.7508 1509.54 73.7508 Q1498.68 73.7508 1492.32 67.4314 Q1486 61.1119 1486 50.3365 Q1486 39.1965 1492 32.6746 Q1498.04 26.1121 1508.24 26.1121 Q1517.4 26.1121 1522.71 32.0264 Q1528.05 37.9003 1528.05 48.0275 M1520.6 45.84 Q1520.52 39.7232 1517.16 36.0774 Q1513.83 32.4315 1508.32 32.4315 Q1502.09 32.4315 1498.32 35.9558 Q1494.59 39.4801 1494.02 45.8805 L1520.6 45.84 Z" fill="#000000" fill-rule="nonzero" fill-opacity="1" /><path clip-path="url(#clip350)" d="M1540.29 9.54393 L1547.74 9.54393 L1547.74 72.576 L1540.29 72.576 L1540.29 9.54393 Z" fill="#000000" fill-rule="nonzero" fill-opacity="1" /><path clip-path="url(#clip350)" d="M1564.39 62.2867 L1572.94 62.2867 L1572.94 72.576 L1564.39 72.576 L1564.39 62.2867 Z" fill="#000000" fill-rule="nonzero" fill-opacity="1" /><path clip-path="url(#clip350)" d="M1610.73 27.2059 L1618.63 27.2059 L1632.81 65.2844 L1646.99 27.2059 L1654.89 27.2059 L1637.87 72.576 L1627.75 72.576 L1610.73 27.2059 Z" fill="#000000" fill-rule="nonzero" fill-opacity="1" /><path clip-path="url(#clip350)" d="M1694.1 28.5427 L1694.1 35.5912 Q1690.94 33.9709 1687.54 33.1607 Q1684.13 32.3505 1680.49 32.3505 Q1674.94 32.3505 1672.14 34.0519 Q1669.39 35.7533 1669.39 39.156 Q1669.39 41.7486 1671.37 43.2475 Q1673.36 44.7058 1679.35 46.0426 L1681.91 46.6097 Q1689.85 48.3111 1693.17 51.4303 Q1696.53 54.509 1696.53 60.0587 Q1696.53 66.3781 1691.51 70.0644 Q1686.52 73.7508 1677.77 73.7508 Q1674.13 73.7508 1670.16 73.0216 Q1666.23 72.3329 1661.85 70.9151 L1661.85 63.2184 Q1665.99 65.3654 1670 66.4591 Q1674.01 67.5124 1677.94 67.5124 Q1683.2 67.5124 1686.04 65.73 Q1688.87 63.9071 1688.87 60.6258 Q1688.87 57.5877 1686.81 55.9673 Q1684.78 54.3469 1677.85 52.8481 L1675.26 52.2405 Q1668.34 50.7821 1665.26 47.7845 Q1662.18 44.7463 1662.18 39.4801 Q1662.18 33.0797 1666.71 29.5959 Q1671.25 26.1121 1679.6 26.1121 Q1683.73 26.1121 1687.37 26.7198 Q1691.02 27.3274 1694.1 28.5427 Z" fill="#000000" fill-rule="nonzero" fill-opacity="1" /><path clip-path="url(#clip350)" d="M1709.45 62.2867 L1718 62.2867 L1718 72.576 L1709.45 72.576 L1709.45 62.2867 Z" fill="#000000" fill-rule="nonzero" fill-opacity="1" /><path clip-path="url(#clip350)" d="M1768.35 65.7705 L1768.35 89.8329 L1760.86 89.8329 L1760.86 27.2059 L1768.35 27.2059 L1768.35 34.0924 Q1770.7 30.0415 1774.27 28.0971 Q1777.87 26.1121 1782.85 26.1121 Q1791.12 26.1121 1796.26 32.6746 Q1801.45 39.2371 1801.45 49.9314 Q1801.45 60.6258 1796.26 67.1883 Q1791.12 73.7508 1782.85 73.7508 Q1777.87 73.7508 1774.27 71.8063 Q1770.7 69.8214 1768.35 65.7705 M1793.71 49.9314 Q1793.71 41.7081 1790.31 37.0496 Q1786.95 32.3505 1781.03 32.3505 Q1775.12 32.3505 1771.71 37.0496 Q1768.35 41.7081 1768.35 49.9314 Q1768.35 58.1548 1771.71 62.8538 Q1775.12 67.5124 1781.03 67.5124 Q1786.95 67.5124 1790.31 62.8538 Q1793.71 58.1548 1793.71 49.9314 Z" fill="#000000" fill-rule="nonzero" fill-opacity="1" /><path clip-path="url(#clip350)" d="M1831.38 32.4315 Q1825.39 32.4315 1821.91 37.1306 Q1818.42 41.7891 1818.42 49.9314 Q1818.42 58.0738 1821.86 62.7728 Q1825.35 67.4314 1831.38 67.4314 Q1837.34 67.4314 1840.82 62.7323 Q1844.31 58.0333 1844.31 49.9314 Q1844.31 41.8701 1840.82 37.1711 Q1837.34 32.4315 1831.38 32.4315 M1831.38 26.1121 Q1841.11 26.1121 1846.66 32.4315 Q1852.21 38.7509 1852.21 49.9314 Q1852.21 61.0714 1846.66 67.4314 Q1841.11 73.7508 1831.38 73.7508 Q1821.62 73.7508 1816.07 67.4314 Q1810.56 61.0714 1810.56 49.9314 Q1810.56 38.7509 1816.07 32.4315 Q1821.62 26.1121 1831.38 26.1121 Z" fill="#000000" fill-rule="nonzero" fill-opacity="1" /><path clip-path="url(#clip350)" d="M1893.48 28.5427 L1893.48 35.5912 Q1890.32 33.9709 1886.92 33.1607 Q1883.52 32.3505 1879.87 32.3505 Q1874.32 32.3505 1871.53 34.0519 Q1868.77 35.7533 1868.77 39.156 Q1868.77 41.7486 1870.76 43.2475 Q1872.74 44.7058 1878.74 46.0426 L1881.29 46.6097 Q1889.23 48.3111 1892.55 51.4303 Q1895.92 54.509 1895.92 60.0587 Q1895.92 66.3781 1890.89 70.0644 Q1885.91 73.7508 1877.16 73.7508 Q1873.51 73.7508 1869.54 73.0216 Q1865.61 72.3329 1861.24 70.9151 L1861.24 63.2184 Q1865.37 65.3654 1869.38 66.4591 Q1873.39 67.5124 1877.32 67.5124 Q1882.59 67.5124 1885.42 65.73 Q1888.26 63.9071 1888.26 60.6258 Q1888.26 57.5877 1886.19 55.9673 Q1884.17 54.3469 1877.24 52.8481 L1874.65 52.2405 Q1867.72 50.7821 1864.64 47.7845 Q1861.56 44.7463 1861.56 39.4801 Q1861.56 33.0797 1866.1 29.5959 Q1870.64 26.1121 1878.98 26.1121 Q1883.11 26.1121 1886.76 26.7198 Q1890.41 27.3274 1893.48 28.5427 Z" fill="#000000" fill-rule="nonzero" fill-opacity="1" /><path clip-path="url(#clip350)" d="M1908.84 62.2867 L1917.38 62.2867 L1917.38 72.576 L1908.84 72.576 L1908.84 62.2867 Z" fill="#000000" fill-rule="nonzero" fill-opacity="1" /><path clip-path="url(#clip350)" d="M1990.38 34.0924 L1990.38 9.54393 L1997.84 9.54393 L1997.84 72.576 L1990.38 72.576 L1990.38 65.7705 Q1988.03 69.8214 1984.43 71.8063 Q1980.86 73.7508 1975.84 73.7508 Q1967.62 73.7508 1962.43 67.1883 Q1957.29 60.6258 1957.29 49.9314 Q1957.29 39.2371 1962.43 32.6746 Q1967.62 26.1121 1975.84 26.1121 Q1980.86 26.1121 1984.43 28.0971 Q1988.03 30.0415 1990.38 34.0924 M1964.98 49.9314 Q1964.98 58.1548 1968.35 62.8538 Q1971.75 67.5124 1977.66 67.5124 Q1983.58 67.5124 1986.98 62.8538 Q1990.38 58.1548 1990.38 49.9314 Q1990.38 41.7081 1986.98 37.0496 Q1983.58 32.3505 1977.66 32.3505 Q1971.75 32.3505 1968.35 37.0496 Q1964.98 41.7081 1964.98 49.9314 Z" fill="#000000" fill-rule="nonzero" fill-opacity="1" /><path clip-path="url(#clip350)" d="M2030.77 32.4315 Q2024.77 32.4315 2021.29 37.1306 Q2017.81 41.7891 2017.81 49.9314 Q2017.81 58.0738 2021.25 62.7728 Q2024.73 67.4314 2030.77 67.4314 Q2036.72 67.4314 2040.21 62.7323 Q2043.69 58.0333 2043.69 49.9314 Q2043.69 41.8701 2040.21 37.1711 Q2036.72 32.4315 2030.77 32.4315 M2030.77 26.1121 Q2040.49 26.1121 2046.04 32.4315 Q2051.59 38.7509 2051.59 49.9314 Q2051.59 61.0714 2046.04 67.4314 Q2040.49 73.7508 2030.77 73.7508 Q2021.01 73.7508 2015.46 67.4314 Q2009.95 61.0714 2009.95 49.9314 Q2009.95 38.7509 2015.46 32.4315 Q2021.01 26.1121 2030.77 26.1121 Z" fill="#000000" fill-rule="nonzero" fill-opacity="1" /><path clip-path="url(#clip350)" d="M2099.27 35.9153 Q2102.07 30.8922 2105.95 28.5022 Q2109.84 26.1121 2115.11 26.1121 Q2122.2 26.1121 2126.05 31.0947 Q2129.9 36.0368 2129.9 45.1919 L2129.9 72.576 L2122.4 72.576 L2122.4 45.4349 Q2122.4 38.913 2120.09 35.7533 Q2117.78 32.5936 2113.04 32.5936 Q2107.25 32.5936 2103.89 36.4419 Q2100.53 40.2903 2100.53 46.9338 L2100.53 72.576 L2093.03 72.576 L2093.03 45.4349 Q2093.03 38.8725 2090.72 35.7533 Q2088.41 32.5936 2083.59 32.5936 Q2077.88 32.5936 2074.52 36.4824 Q2071.16 40.3308 2071.16 46.9338 L2071.16 72.576 L2063.66 72.576 L2063.66 27.2059 L2071.16 27.2059 L2071.16 34.2544 Q2073.71 30.082 2077.27 28.0971 Q2080.84 26.1121 2085.74 26.1121 Q2090.68 26.1121 2094.13 28.6237 Q2097.61 31.1352 2099.27 35.9153 Z" fill="#000000" fill-rule="nonzero" fill-opacity="1" /><path clip-path="url(#clip350)" d="M2165.38 49.7694 Q2156.35 49.7694 2152.86 51.8354 Q2149.38 53.9013 2149.38 58.8839 Q2149.38 62.8538 2151.97 65.2034 Q2154.61 67.5124 2159.1 67.5124 Q2165.3 67.5124 2169.03 63.1374 Q2172.79 58.7219 2172.79 51.4303 L2172.79 49.7694 L2165.38 49.7694 M2180.25 46.6907 L2180.25 72.576 L2172.79 72.576 L2172.79 65.6895 Q2170.24 69.8214 2166.43 71.8063 Q2162.63 73.7508 2157.12 73.7508 Q2150.15 73.7508 2146.02 69.8619 Q2141.93 65.9325 2141.93 59.3701 Q2141.93 51.7138 2147.03 47.825 Q2152.18 43.9361 2162.34 43.9361 L2172.79 43.9361 L2172.79 43.2069 Q2172.79 38.0623 2169.39 35.2672 Q2166.03 32.4315 2159.91 32.4315 Q2156.02 32.4315 2152.34 33.3632 Q2148.65 34.295 2145.25 36.1584 L2145.25 29.2718 Q2149.34 27.692 2153.19 26.9223 Q2157.04 26.1121 2160.68 26.1121 Q2170.53 26.1121 2175.39 31.2163 Q2180.25 36.3204 2180.25 46.6907 Z" fill="#000000" fill-rule="nonzero" fill-opacity="1" /><path clip-path="url(#clip350)" d="M2195.6 27.2059 L2203.05 27.2059 L2203.05 72.576 L2195.6 72.576 L2195.6 27.2059 M2195.6 9.54393 L2203.05 9.54393 L2203.05 18.9825 L2195.6 18.9825 L2195.6 9.54393 Z" fill="#000000" fill-rule="nonzero" fill-opacity="1" /><path clip-path="url(#clip350)" d="M2256.36 45.1919 L2256.36 72.576 L2248.91 72.576 L2248.91 45.4349 Q2248.91 38.994 2246.4 35.7938 Q2243.89 32.5936 2238.86 32.5936 Q2232.83 32.5936 2229.34 36.4419 Q2225.86 40.2903 2225.86 46.9338 L2225.86 72.576 L2218.37 72.576 L2218.37 27.2059 L2225.86 27.2059 L2225.86 34.2544 Q2228.53 30.163 2232.14 28.1376 Q2235.79 26.1121 2240.53 26.1121 Q2248.34 26.1121 2252.35 30.9732 Q2256.36 35.7938 2256.36 45.1919 Z" fill="#000000" fill-rule="nonzero" fill-opacity="1" /><polyline clip-path="url(#clip352)" style="stroke:#009af9; stroke-linecap:round; stroke-linejoin:round; stroke-width:4; stroke-opacity:1; fill:none" points="485.75,752.943 503.876,757.044 522.003,752.705 540.129,752.2 558.255,752.557 576.381,750.67 594.508,750.053 612.634,738.596 630.76,741.457 648.886,741.858 667.013,704.798 685.139,739.926 703.265,688.69 721.392,707.294 739.518,685.361 757.644,681.082 775.77,716.507 793.897,722.867 812.023,786.348 830.149,841.982 848.275,880.023 866.402,967.874 884.528,963.297 902.654,1041.46 920.781,1008.59 938.907,1045.8 957.033,1001.93 975.159,981.783 993.286,937.025 1011.41,874.585 1029.54,820.228 1047.66,751.13 1065.79,668.807 1083.92,624.674 1102.04,506.391 1120.17,516.302 1138.3,379.34 1156.42,426.282 1174.55,296.958 1192.67,350.394 1210.8,279.52 1228.93,280.754 1247.05,316.722 1265.18,229.58 1283.31,379.24 1301.43,218.852 1319.56,431.587 1337.68,268.465 1355.81,410.902 1373.94,411.853 1392.06,356.59 1410.19,574.411 1428.32,321.506 1446.44,508.843 1464.57,353.982 1482.69,286.958 1500.82,496.331 1518.95,160.256 1537.07,311.729 1555.2,329.233 1573.33,231.234 1591.45,427.308 1609.58,355.439 1627.71,443.772 1645.83,541.371 1663.96,553.236 1682.08,668.748 1700.21,744.692 1718.34,830.381 1736.46,851.5 1754.59,970.835 1772.72,1029.83 1790.84,1038.49 1808.97,1176.18 1827.09,1128.09 1845.22,1190.81 1863.35,1302.28 1881.47,1160.33 1899.6,1281.18 1917.73,1318.99 1935.85,1143.83 1953.98,1306.05 1972.1,1254.3 1990.23,1080.93 2008.36,1274.16 2026.48,1176.61 2044.61,994.127 2062.74,1211.83 2080.86,1165.96 2098.99,966.765 2117.11,1163.29 2135.24,1291.37 2153.37,1078.74 2171.49,1142.19 2189.62,1386.4 2207.75,1204.34 2225.87,1157.49 2244,1229.22 2262.12,1115.94 2280.25,1033.96 2298.38,962.99 "/>
</svg>
