<?xml version="1.0" encoding="utf-8"?>
<svg xmlns="http://www.w3.org/2000/svg" xmlns:xlink="http://www.w3.org/1999/xlink" width="600" height="400" viewBox="0 0 2400 1600">
<defs>
  <clipPath id="clip540">
    <rect x="0" y="0" width="2400" height="1600"/>
  </clipPath>
</defs>
<path clip-path="url(#clip540)" d="M0 1600 L2400 1600 L2400 0 L0 0  Z" fill="#ffffff" fill-rule="evenodd" fill-opacity="1"/>
<defs>
  <clipPath id="clip541">
    <rect x="480" y="0" width="1681" height="1600"/>
  </clipPath>
</defs>
<path clip-path="url(#clip540)" d="M256.209 1423.18 L2352.76 1423.18 L2352.76 47.2441 L256.209 47.2441  Z" fill="#ffffff" fill-rule="evenodd" fill-opacity="1"/>
<defs>
  <clipPath id="clip542">
    <rect x="256" y="47" width="2098" height="1377"/>
  </clipPath>
</defs>
<polyline clip-path="url(#clip542)" style="stroke:#000000; stroke-linecap:round; stroke-linejoin:round; stroke-width:2; stroke-opacity:0.1; fill:none" points="256.209,1423.18 256.209,47.2441 "/>
<polyline clip-path="url(#clip542)" style="stroke:#000000; stroke-linecap:round; stroke-linejoin:round; stroke-width:2; stroke-opacity:0.1; fill:none" points="675.518,1423.18 675.518,47.2441 "/>
<polyline clip-path="url(#clip542)" style="stroke:#000000; stroke-linecap:round; stroke-linejoin:round; stroke-width:2; stroke-opacity:0.1; fill:none" points="1094.83,1423.18 1094.83,47.2441 "/>
<polyline clip-path="url(#clip542)" style="stroke:#000000; stroke-linecap:round; stroke-linejoin:round; stroke-width:2; stroke-opacity:0.1; fill:none" points="1514.14,1423.18 1514.14,47.2441 "/>
<polyline clip-path="url(#clip542)" style="stroke:#000000; stroke-linecap:round; stroke-linejoin:round; stroke-width:2; stroke-opacity:0.1; fill:none" points="1933.45,1423.18 1933.45,47.2441 "/>
<polyline clip-path="url(#clip542)" style="stroke:#000000; stroke-linecap:round; stroke-linejoin:round; stroke-width:2; stroke-opacity:0.1; fill:none" points="2352.76,1423.18 2352.76,47.2441 "/>
<polyline clip-path="url(#clip540)" style="stroke:#000000; stroke-linecap:round; stroke-linejoin:round; stroke-width:4; stroke-opacity:1; fill:none" points="256.209,1423.18 2352.76,1423.18 "/>
<polyline clip-path="url(#clip540)" style="stroke:#000000; stroke-linecap:round; stroke-linejoin:round; stroke-width:4; stroke-opacity:1; fill:none" points="256.209,1423.18 256.209,1404.28 "/>
<polyline clip-path="url(#clip540)" style="stroke:#000000; stroke-linecap:round; stroke-linejoin:round; stroke-width:4; stroke-opacity:1; fill:none" points="675.518,1423.18 675.518,1404.28 "/>
<polyline clip-path="url(#clip540)" style="stroke:#000000; stroke-linecap:round; stroke-linejoin:round; stroke-width:4; stroke-opacity:1; fill:none" points="1094.83,1423.18 1094.83,1404.28 "/>
<polyline clip-path="url(#clip540)" style="stroke:#000000; stroke-linecap:round; stroke-linejoin:round; stroke-width:4; stroke-opacity:1; fill:none" points="1514.14,1423.18 1514.14,1404.28 "/>
<polyline clip-path="url(#clip540)" style="stroke:#000000; stroke-linecap:round; stroke-linejoin:round; stroke-width:4; stroke-opacity:1; fill:none" points="1933.45,1423.18 1933.45,1404.28 "/>
<polyline clip-path="url(#clip540)" style="stroke:#000000; stroke-linecap:round; stroke-linejoin:round; stroke-width:4; stroke-opacity:1; fill:none" points="2352.76,1423.18 2352.76,1404.28 "/>
<path clip-path="url(#clip540)" d="M256.209 1454.1 Q252.598 1454.1 250.769 1457.66 Q248.963 1461.2 248.963 1468.33 Q248.963 1475.44 250.769 1479.01 Q252.598 1482.55 256.209 1482.55 Q259.843 1482.55 261.648 1479.01 Q263.477 1475.44 263.477 1468.33 Q263.477 1461.2 261.648 1457.66 Q259.843 1454.1 256.209 1454.1 M256.209 1450.39 Q262.019 1450.39 265.074 1455 Q268.153 1459.58 268.153 1468.33 Q268.153 1477.06 265.074 1481.67 Q262.019 1486.25 256.209 1486.25 Q250.399 1486.25 247.32 1481.67 Q244.264 1477.06 244.264 1468.33 Q244.264 1459.58 247.32 1455 Q250.399 1450.39 256.209 1450.39 Z" fill="#000000" fill-rule="nonzero" fill-opacity="1" /><path clip-path="url(#clip540)" d="M670.171 1481.64 L686.49 1481.64 L686.49 1485.58 L664.546 1485.58 L664.546 1481.64 Q667.208 1478.89 671.791 1474.26 Q676.398 1469.61 677.578 1468.27 Q679.824 1465.74 680.703 1464.01 Q681.606 1462.25 681.606 1460.56 Q681.606 1457.8 679.662 1456.07 Q677.74 1454.33 674.638 1454.33 Q672.439 1454.33 669.986 1455.09 Q667.555 1455.86 664.777 1457.41 L664.777 1452.69 Q667.601 1451.55 670.055 1450.97 Q672.509 1450.39 674.546 1450.39 Q679.916 1450.39 683.111 1453.08 Q686.305 1455.77 686.305 1460.26 Q686.305 1462.39 685.495 1464.31 Q684.708 1466.2 682.601 1468.8 Q682.023 1469.47 678.921 1472.69 Q675.819 1475.88 670.171 1481.64 Z" fill="#000000" fill-rule="nonzero" fill-opacity="1" /><path clip-path="url(#clip540)" d="M1097.84 1455.09 L1086.03 1473.54 L1097.84 1473.54 L1097.84 1455.09 M1096.61 1451.02 L1102.49 1451.02 L1102.49 1473.54 L1107.42 1473.54 L1107.42 1477.43 L1102.49 1477.43 L1102.49 1485.58 L1097.84 1485.58 L1097.84 1477.43 L1082.24 1477.43 L1082.24 1472.92 L1096.61 1451.02 Z" fill="#000000" fill-rule="nonzero" fill-opacity="1" /><path clip-path="url(#clip540)" d="M1514.54 1466.44 Q1511.39 1466.44 1509.54 1468.59 Q1507.71 1470.74 1507.71 1474.49 Q1507.71 1478.22 1509.54 1480.39 Q1511.39 1482.55 1514.54 1482.55 Q1517.69 1482.55 1519.52 1480.39 Q1521.37 1478.22 1521.37 1474.49 Q1521.37 1470.74 1519.52 1468.59 Q1517.69 1466.44 1514.54 1466.44 M1523.82 1451.78 L1523.82 1456.04 Q1522.07 1455.21 1520.26 1454.77 Q1518.48 1454.33 1516.72 1454.33 Q1512.09 1454.33 1509.63 1457.45 Q1507.2 1460.58 1506.86 1466.9 Q1508.22 1464.89 1510.28 1463.82 Q1512.34 1462.73 1514.82 1462.73 Q1520.03 1462.73 1523.04 1465.9 Q1526.07 1469.05 1526.07 1474.49 Q1526.07 1479.82 1522.92 1483.03 Q1519.77 1486.25 1514.54 1486.25 Q1508.55 1486.25 1505.38 1481.67 Q1502.2 1477.06 1502.2 1468.33 Q1502.2 1460.14 1506.09 1455.28 Q1509.98 1450.39 1516.53 1450.39 Q1518.29 1450.39 1520.07 1450.74 Q1521.88 1451.09 1523.82 1451.78 Z" fill="#000000" fill-rule="nonzero" fill-opacity="1" /><path clip-path="url(#clip540)" d="M1933.45 1469.17 Q1930.11 1469.17 1928.19 1470.95 Q1926.29 1472.73 1926.29 1475.86 Q1926.29 1478.98 1928.19 1480.77 Q1930.11 1482.55 1933.45 1482.55 Q1936.78 1482.55 1938.7 1480.77 Q1940.62 1478.96 1940.62 1475.86 Q1940.62 1472.73 1938.7 1470.95 Q1936.8 1469.17 1933.45 1469.17 M1928.77 1467.18 Q1925.76 1466.44 1924.07 1464.38 Q1922.4 1462.32 1922.4 1459.35 Q1922.4 1455.21 1925.34 1452.8 Q1928.31 1450.39 1933.45 1450.39 Q1938.61 1450.39 1941.55 1452.8 Q1944.49 1455.21 1944.49 1459.35 Q1944.49 1462.32 1942.8 1464.38 Q1941.13 1466.44 1938.15 1467.18 Q1941.53 1467.96 1943.4 1470.26 Q1945.3 1472.55 1945.3 1475.86 Q1945.3 1480.88 1942.22 1483.57 Q1939.16 1486.25 1933.45 1486.25 Q1927.73 1486.25 1924.65 1483.57 Q1921.59 1480.88 1921.59 1475.86 Q1921.59 1472.55 1923.49 1470.26 Q1925.39 1467.96 1928.77 1467.18 M1927.06 1459.79 Q1927.06 1462.48 1928.72 1463.98 Q1930.41 1465.49 1933.45 1465.49 Q1936.46 1465.49 1938.15 1463.98 Q1939.86 1462.48 1939.86 1459.79 Q1939.86 1457.11 1938.15 1455.6 Q1936.46 1454.1 1933.45 1454.1 Q1930.41 1454.1 1928.72 1455.6 Q1927.06 1457.11 1927.06 1459.79 Z" fill="#000000" fill-rule="nonzero" fill-opacity="1" /><path clip-path="url(#clip540)" d="M2327.44 1481.64 L2335.08 1481.64 L2335.08 1455.28 L2326.77 1456.95 L2326.77 1452.69 L2335.04 1451.02 L2339.71 1451.02 L2339.71 1481.64 L2347.35 1481.64 L2347.35 1485.58 L2327.44 1485.58 L2327.44 1481.64 Z" fill="#000000" fill-rule="nonzero" fill-opacity="1" /><path clip-path="url(#clip540)" d="M2366.8 1454.1 Q2363.18 1454.1 2361.36 1457.66 Q2359.55 1461.2 2359.55 1468.33 Q2359.55 1475.44 2361.36 1479.01 Q2363.18 1482.55 2366.8 1482.55 Q2370.43 1482.55 2372.23 1479.01 Q2374.06 1475.44 2374.06 1468.33 Q2374.06 1461.2 2372.23 1457.66 Q2370.43 1454.1 2366.8 1454.1 M2366.8 1450.39 Q2372.61 1450.39 2375.66 1455 Q2378.74 1459.58 2378.74 1468.33 Q2378.74 1477.06 2375.66 1481.67 Q2372.61 1486.25 2366.8 1486.25 Q2360.99 1486.25 2357.91 1481.67 Q2354.85 1477.06 2354.85 1468.33 Q2354.85 1459.58 2357.91 1455 Q2360.99 1450.39 2366.8 1450.39 Z" fill="#000000" fill-rule="nonzero" fill-opacity="1" /><path clip-path="url(#clip540)" d="M1303.54 1522.27 L1303.54 1532.4 L1315.61 1532.4 L1315.61 1536.95 L1303.54 1536.95 L1303.54 1556.3 Q1303.54 1560.66 1304.72 1561.9 Q1305.93 1563.14 1309.59 1563.14 L1315.61 1563.14 L1315.61 1568.04 L1309.59 1568.04 Q1302.81 1568.04 1300.23 1565.53 Q1297.66 1562.98 1297.66 1556.3 L1297.66 1536.95 L1293.36 1536.95 L1293.36 1532.4 L1297.66 1532.4 L1297.66 1522.27 L1303.54 1522.27 Z" fill="#000000" fill-rule="nonzero" fill-opacity="1" /><polyline clip-path="url(#clip542)" style="stroke:#000000; stroke-linecap:round; stroke-linejoin:round; stroke-width:2; stroke-opacity:0.1; fill:none" points="256.209,1231.96 2352.76,1231.96 "/>
<polyline clip-path="url(#clip542)" style="stroke:#000000; stroke-linecap:round; stroke-linejoin:round; stroke-width:2; stroke-opacity:0.1; fill:none" points="256.209,850.035 2352.76,850.035 "/>
<polyline clip-path="url(#clip542)" style="stroke:#000000; stroke-linecap:round; stroke-linejoin:round; stroke-width:2; stroke-opacity:0.1; fill:none" points="256.209,468.11 2352.76,468.11 "/>
<polyline clip-path="url(#clip542)" style="stroke:#000000; stroke-linecap:round; stroke-linejoin:round; stroke-width:2; stroke-opacity:0.1; fill:none" points="256.209,86.1857 2352.76,86.1857 "/>
<polyline clip-path="url(#clip540)" style="stroke:#000000; stroke-linecap:round; stroke-linejoin:round; stroke-width:4; stroke-opacity:1; fill:none" points="256.209,1423.18 256.209,47.2441 "/>
<polyline clip-path="url(#clip540)" style="stroke:#000000; stroke-linecap:round; stroke-linejoin:round; stroke-width:4; stroke-opacity:1; fill:none" points="256.209,1231.96 275.106,1231.96 "/>
<polyline clip-path="url(#clip540)" style="stroke:#000000; stroke-linecap:round; stroke-linejoin:round; stroke-width:4; stroke-opacity:1; fill:none" points="256.209,850.035 275.106,850.035 "/>
<polyline clip-path="url(#clip540)" style="stroke:#000000; stroke-linecap:round; stroke-linejoin:round; stroke-width:4; stroke-opacity:1; fill:none" points="256.209,468.11 275.106,468.11 "/>
<polyline clip-path="url(#clip540)" style="stroke:#000000; stroke-linecap:round; stroke-linejoin:round; stroke-width:4; stroke-opacity:1; fill:none" points="256.209,86.1857 275.106,86.1857 "/>
<path clip-path="url(#clip540)" d="M114.26 1232.41 L143.936 1232.41 L143.936 1236.35 L114.26 1236.35 L114.26 1232.41 Z" fill="#000000" fill-rule="nonzero" fill-opacity="1" /><path clip-path="url(#clip540)" d="M164.028 1217.76 Q160.417 1217.76 158.589 1221.32 Q156.783 1224.86 156.783 1231.99 Q156.783 1239.1 158.589 1242.67 Q160.417 1246.21 164.028 1246.21 Q167.663 1246.21 169.468 1242.67 Q171.297 1239.1 171.297 1231.99 Q171.297 1224.86 169.468 1221.32 Q167.663 1217.76 164.028 1217.76 M164.028 1214.05 Q169.839 1214.05 172.894 1218.66 Q175.973 1223.24 175.973 1231.99 Q175.973 1240.72 172.894 1245.33 Q169.839 1249.91 164.028 1249.91 Q158.218 1249.91 155.14 1245.33 Q152.084 1240.72 152.084 1231.99 Q152.084 1223.24 155.14 1218.66 Q158.218 1214.05 164.028 1214.05 Z" fill="#000000" fill-rule="nonzero" fill-opacity="1" /><path clip-path="url(#clip540)" d="M184.19 1243.36 L189.075 1243.36 L189.075 1249.24 L184.19 1249.24 L184.19 1243.36 Z" fill="#000000" fill-rule="nonzero" fill-opacity="1" /><path clip-path="url(#clip540)" d="M199.306 1214.68 L217.662 1214.68 L217.662 1218.61 L203.588 1218.61 L203.588 1227.09 Q204.607 1226.74 205.625 1226.58 Q206.644 1226.39 207.662 1226.39 Q213.449 1226.39 216.829 1229.56 Q220.209 1232.73 220.209 1238.15 Q220.209 1243.73 216.736 1246.83 Q213.264 1249.91 206.945 1249.91 Q204.769 1249.91 202.5 1249.54 Q200.255 1249.17 197.848 1248.43 L197.848 1243.73 Q199.931 1244.86 202.153 1245.42 Q204.375 1245.98 206.852 1245.98 Q210.857 1245.98 213.195 1243.87 Q215.533 1241.76 215.533 1238.15 Q215.533 1234.54 213.195 1232.43 Q210.857 1230.33 206.852 1230.33 Q204.977 1230.33 203.102 1230.74 Q201.25 1231.16 199.306 1232.04 L199.306 1214.68 Z" fill="#000000" fill-rule="nonzero" fill-opacity="1" /><path clip-path="url(#clip540)" d="M163.033 835.833 Q159.422 835.833 157.593 839.398 Q155.788 842.94 155.788 850.07 Q155.788 857.176 157.593 860.741 Q159.422 864.282 163.033 864.282 Q166.667 864.282 168.473 860.741 Q170.302 857.176 170.302 850.07 Q170.302 842.94 168.473 839.398 Q166.667 835.833 163.033 835.833 M163.033 832.13 Q168.843 832.13 171.899 836.736 Q174.977 841.32 174.977 850.07 Q174.977 858.796 171.899 863.403 Q168.843 867.986 163.033 867.986 Q157.223 867.986 154.144 863.403 Q151.089 858.796 151.089 850.07 Q151.089 841.32 154.144 836.736 Q157.223 832.13 163.033 832.13 Z" fill="#000000" fill-rule="nonzero" fill-opacity="1" /><path clip-path="url(#clip540)" d="M183.195 861.435 L188.079 861.435 L188.079 867.315 L183.195 867.315 L183.195 861.435 Z" fill="#000000" fill-rule="nonzero" fill-opacity="1" /><path clip-path="url(#clip540)" d="M208.264 835.833 Q204.653 835.833 202.824 839.398 Q201.019 842.94 201.019 850.07 Q201.019 857.176 202.824 860.741 Q204.653 864.282 208.264 864.282 Q211.899 864.282 213.704 860.741 Q215.533 857.176 215.533 850.07 Q215.533 842.94 213.704 839.398 Q211.899 835.833 208.264 835.833 M208.264 832.13 Q214.074 832.13 217.13 836.736 Q220.209 841.32 220.209 850.07 Q220.209 858.796 217.13 863.403 Q214.074 867.986 208.264 867.986 Q202.454 867.986 199.375 863.403 Q196.32 858.796 196.32 850.07 Q196.32 841.32 199.375 836.736 Q202.454 832.13 208.264 832.13 Z" fill="#000000" fill-rule="nonzero" fill-opacity="1" /><path clip-path="url(#clip540)" d="M164.028 453.909 Q160.417 453.909 158.589 457.474 Q156.783 461.015 156.783 468.145 Q156.783 475.251 158.589 478.816 Q160.417 482.358 164.028 482.358 Q167.663 482.358 169.468 478.816 Q171.297 475.251 171.297 468.145 Q171.297 461.015 169.468 457.474 Q167.663 453.909 164.028 453.909 M164.028 450.205 Q169.839 450.205 172.894 454.812 Q175.973 459.395 175.973 468.145 Q175.973 476.872 172.894 481.478 Q169.839 486.062 164.028 486.062 Q158.218 486.062 155.14 481.478 Q152.084 476.872 152.084 468.145 Q152.084 459.395 155.14 454.812 Q158.218 450.205 164.028 450.205 Z" fill="#000000" fill-rule="nonzero" fill-opacity="1" /><path clip-path="url(#clip540)" d="M184.19 479.511 L189.075 479.511 L189.075 485.39 L184.19 485.39 L184.19 479.511 Z" fill="#000000" fill-rule="nonzero" fill-opacity="1" /><path clip-path="url(#clip540)" d="M199.306 450.83 L217.662 450.83 L217.662 454.765 L203.588 454.765 L203.588 463.238 Q204.607 462.89 205.625 462.728 Q206.644 462.543 207.662 462.543 Q213.449 462.543 216.829 465.714 Q220.209 468.886 220.209 474.302 Q220.209 479.881 216.736 482.983 Q213.264 486.062 206.945 486.062 Q204.769 486.062 202.5 485.691 Q200.255 485.321 197.848 484.58 L197.848 479.881 Q199.931 481.015 202.153 481.571 Q204.375 482.126 206.852 482.126 Q210.857 482.126 213.195 480.02 Q215.533 477.913 215.533 474.302 Q215.533 470.691 213.195 468.585 Q210.857 466.478 206.852 466.478 Q204.977 466.478 203.102 466.895 Q201.25 467.312 199.306 468.191 L199.306 450.83 Z" fill="#000000" fill-rule="nonzero" fill-opacity="1" /><path clip-path="url(#clip540)" d="M153.843 99.5305 L161.482 99.5305 L161.482 73.1649 L153.172 74.8316 L153.172 70.5723 L161.436 68.9057 L166.112 68.9057 L166.112 99.5305 L173.751 99.5305 L173.751 103.466 L153.843 103.466 L153.843 99.5305 Z" fill="#000000" fill-rule="nonzero" fill-opacity="1" /><path clip-path="url(#clip540)" d="M183.195 97.5861 L188.079 97.5861 L188.079 103.466 L183.195 103.466 L183.195 97.5861 Z" fill="#000000" fill-rule="nonzero" fill-opacity="1" /><path clip-path="url(#clip540)" d="M208.264 71.9844 Q204.653 71.9844 202.824 75.5492 Q201.019 79.0908 201.019 86.2204 Q201.019 93.3268 202.824 96.8916 Q204.653 100.433 208.264 100.433 Q211.899 100.433 213.704 96.8916 Q215.533 93.3268 215.533 86.2204 Q215.533 79.0908 213.704 75.5492 Q211.899 71.9844 208.264 71.9844 M208.264 68.2807 Q214.074 68.2807 217.13 72.8871 Q220.209 77.4704 220.209 86.2204 Q220.209 94.9472 217.13 99.5537 Q214.074 104.137 208.264 104.137 Q202.454 104.137 199.375 99.5537 Q196.32 94.9472 196.32 86.2204 Q196.32 77.4704 199.375 72.8871 Q202.454 68.2807 208.264 68.2807 Z" fill="#000000" fill-rule="nonzero" fill-opacity="1" /><path clip-path="url(#clip540)" d="M35.1993 1020.4 Q31.2526 1018.2 29.3747 1015.14 Q27.4968 1012.09 27.4968 1007.95 Q27.4968 1002.38 31.4117 999.357 Q35.2948 996.333 42.4881 996.333 L64.0042 996.333 L64.0042 1002.22 L42.679 1002.22 Q37.5546 1002.22 35.072 1004.04 Q32.5894 1005.85 32.5894 1009.57 Q32.5894 1014.13 35.6131 1016.77 Q38.6368 1019.41 43.8567 1019.41 L64.0042 1019.41 L64.0042 1025.3 L42.679 1025.3 Q37.5228 1025.3 35.072 1027.11 Q32.5894 1028.93 32.5894 1032.71 Q32.5894 1037.2 35.6449 1039.84 Q38.6686 1042.48 43.8567 1042.48 L64.0042 1042.48 L64.0042 1048.37 L28.3562 1048.37 L28.3562 1042.48 L33.8944 1042.48 Q30.616 1040.48 29.0564 1037.68 Q27.4968 1034.88 27.4968 1031.03 Q27.4968 1027.14 29.4702 1024.44 Q31.4436 1021.7 35.1993 1020.4 Z" fill="#000000" fill-rule="nonzero" fill-opacity="1" /><path clip-path="url(#clip540)" d="M46.0847 968.451 Q46.0847 975.549 47.7079 978.286 Q49.3312 981.024 53.2461 981.024 Q56.3653 981.024 58.2114 978.987 Q60.0256 976.918 60.0256 973.385 Q60.0256 968.515 56.5881 965.587 Q53.1188 962.627 47.3897 962.627 L46.0847 962.627 L46.0847 968.451 M43.6657 956.77 L64.0042 956.77 L64.0042 962.627 L58.5933 962.627 Q61.8398 964.632 63.3994 967.624 Q64.9272 970.616 64.9272 974.944 Q64.9272 980.419 61.8716 983.665 Q58.7843 986.88 53.6281 986.88 Q47.6125 986.88 44.5569 982.87 Q41.5014 978.828 41.5014 970.839 L41.5014 962.627 L40.9285 962.627 Q36.8862 962.627 34.6901 965.3 Q32.4621 967.942 32.4621 972.748 Q32.4621 975.804 33.1941 978.7 Q33.9262 981.597 35.3903 984.27 L29.9795 984.27 Q28.7381 981.056 28.1334 978.032 Q27.4968 975.008 27.4968 972.144 Q27.4968 964.409 31.5072 960.59 Q35.5176 956.77 43.6657 956.77 Z" fill="#000000" fill-rule="nonzero" fill-opacity="1" /><path clip-path="url(#clip540)" d="M29.4065 921.982 L34.9447 921.982 Q33.6716 924.464 33.035 927.138 Q32.3984 929.812 32.3984 932.676 Q32.3984 937.037 33.7352 939.233 Q35.072 941.397 37.7456 941.397 Q39.7826 941.397 40.9603 939.838 Q42.1061 938.278 43.1565 933.567 L43.6021 931.562 Q44.9389 925.324 47.3897 922.714 Q49.8086 920.072 54.1691 920.072 Q59.1344 920.072 62.0308 924.019 Q64.9272 927.934 64.9272 934.809 Q64.9272 937.673 64.3543 940.792 Q63.8132 943.88 62.6992 947.317 L56.6518 947.317 Q58.3387 944.071 59.198 940.92 Q60.0256 937.769 60.0256 934.681 Q60.0256 930.544 58.6251 928.316 Q57.1929 926.088 54.6147 926.088 Q52.2276 926.088 50.9545 927.711 Q49.6813 929.302 48.5037 934.745 L48.0262 936.782 Q46.8804 942.225 44.5251 944.644 Q42.138 947.063 38.0002 947.063 Q32.9713 947.063 30.2341 943.498 Q27.4968 939.933 27.4968 933.376 Q27.4968 930.13 27.9743 927.265 Q28.4517 924.401 29.4065 921.982 Z" fill="#000000" fill-rule="nonzero" fill-opacity="1" /><path clip-path="url(#clip540)" d="M29.4065 888.021 L34.9447 888.021 Q33.6716 890.503 33.035 893.177 Q32.3984 895.851 32.3984 898.715 Q32.3984 903.076 33.7352 905.272 Q35.072 907.436 37.7456 907.436 Q39.7826 907.436 40.9603 905.877 Q42.1061 904.317 43.1565 899.606 L43.6021 897.601 Q44.9389 891.363 47.3897 888.753 Q49.8086 886.111 54.1691 886.111 Q59.1344 886.111 62.0308 890.058 Q64.9272 893.973 64.9272 900.848 Q64.9272 903.712 64.3543 906.831 Q63.8132 909.919 62.6992 913.356 L56.6518 913.356 Q58.3387 910.11 59.198 906.959 Q60.0256 903.808 60.0256 900.72 Q60.0256 896.583 58.6251 894.355 Q57.1929 892.127 54.6147 892.127 Q52.2276 892.127 50.9545 893.75 Q49.6813 895.341 48.5037 900.784 L48.0262 902.821 Q46.8804 908.264 44.5251 910.683 Q42.138 913.102 38.0002 913.102 Q32.9713 913.102 30.2341 909.537 Q27.4968 905.972 27.4968 899.415 Q27.4968 896.169 27.9743 893.304 Q28.4517 890.44 29.4065 888.021 Z" fill="#000000" fill-rule="nonzero" fill-opacity="1" /><path clip-path="url(#clip540)" d="M28.3562 860.266 L28.3562 854.06 L58.275 842.92 L28.3562 831.78 L28.3562 825.573 L64.0042 838.941 L64.0042 846.898 L28.3562 860.266 Z" fill="#000000" fill-rule="nonzero" fill-opacity="1" /><path clip-path="url(#clip540)" d="M44.7161 786.997 L47.5806 786.997 L47.5806 813.924 Q53.6281 813.542 56.8109 810.295 Q59.9619 807.017 59.9619 801.193 Q59.9619 797.819 59.1344 794.668 Q58.3069 791.485 56.6518 788.366 L62.1899 788.366 Q63.5267 791.517 64.227 794.827 Q64.9272 798.137 64.9272 801.543 Q64.9272 810.073 59.9619 815.07 Q54.9967 820.035 46.5303 820.035 Q37.7774 820.035 32.6531 815.324 Q27.4968 810.582 27.4968 802.561 Q27.4968 795.368 32.1438 791.198 Q36.7589 786.997 44.7161 786.997 M42.9973 792.853 Q38.1912 792.917 35.3266 795.559 Q32.4621 798.169 32.4621 802.497 Q32.4621 807.399 35.2312 810.359 Q38.0002 813.287 43.0292 813.733 L42.9973 792.853 Z" fill="#000000" fill-rule="nonzero" fill-opacity="1" /><path clip-path="url(#clip540)" d="M14.479 777.385 L14.479 771.528 L64.0042 771.528 L64.0042 777.385 L14.479 777.385 Z" fill="#000000" fill-rule="nonzero" fill-opacity="1" /><path clip-path="url(#clip540)" d="M32.4621 745.461 Q32.4621 750.171 36.1542 752.909 Q39.8145 755.646 46.212 755.646 Q52.6095 755.646 56.3017 752.94 Q59.9619 750.203 59.9619 745.461 Q59.9619 740.782 56.2698 738.045 Q52.5777 735.307 46.212 735.307 Q39.8781 735.307 36.186 738.045 Q32.4621 740.782 32.4621 745.461 M27.4968 745.461 Q27.4968 737.822 32.4621 733.461 Q37.4273 729.101 46.212 729.101 Q54.9649 729.101 59.9619 733.461 Q64.9272 737.822 64.9272 745.461 Q64.9272 753.131 59.9619 757.492 Q54.9649 761.821 46.212 761.821 Q37.4273 761.821 32.4621 757.492 Q27.4968 753.131 27.4968 745.461 Z" fill="#000000" fill-rule="nonzero" fill-opacity="1" /><path clip-path="url(#clip540)" d="M29.7248 693.739 L35.1993 693.739 Q33.8307 696.222 33.1623 698.736 Q32.4621 701.219 32.4621 703.765 Q32.4621 709.463 36.0905 712.614 Q39.6872 715.765 46.212 715.765 Q52.7369 715.765 56.3653 712.614 Q59.9619 709.463 59.9619 703.765 Q59.9619 701.219 59.2935 698.736 Q58.5933 696.222 57.2247 693.739 L62.6355 693.739 Q63.7814 696.19 64.3543 698.832 Q64.9272 701.442 64.9272 704.402 Q64.9272 712.455 59.8664 717.197 Q54.8057 721.939 46.212 721.939 Q37.491 721.939 32.4939 717.165 Q27.4968 712.359 27.4968 704.02 Q27.4968 701.315 28.0697 698.736 Q28.6108 696.158 29.7248 693.739 Z" fill="#000000" fill-rule="nonzero" fill-opacity="1" /><path clip-path="url(#clip540)" d="M28.3562 683.554 L28.3562 677.698 L64.0042 677.698 L64.0042 683.554 L28.3562 683.554 M14.479 683.554 L14.479 677.698 L21.895 677.698 L21.895 683.554 L14.479 683.554 Z" fill="#000000" fill-rule="nonzero" fill-opacity="1" /><path clip-path="url(#clip540)" d="M18.2347 659.651 L28.3562 659.651 L28.3562 647.588 L32.9077 647.588 L32.9077 659.651 L52.2594 659.651 Q56.6199 659.651 57.8613 658.473 Q59.1026 657.264 59.1026 653.604 L59.1026 647.588 L64.0042 647.588 L64.0042 653.604 Q64.0042 660.383 61.4897 662.961 Q58.9434 665.539 52.2594 665.539 L32.9077 665.539 L32.9077 669.836 L28.3562 669.836 L28.3562 665.539 L18.2347 665.539 L18.2347 659.651 Z" fill="#000000" fill-rule="nonzero" fill-opacity="1" /><path clip-path="url(#clip540)" d="M67.3143 625.053 Q73.68 627.536 75.6216 629.891 Q77.5631 632.247 77.5631 636.193 L77.5631 640.872 L72.6615 640.872 L72.6615 637.435 Q72.6615 635.016 71.5157 633.679 Q70.3699 632.342 66.1048 630.719 L63.4312 629.669 L28.3562 644.087 L28.3562 637.88 L56.238 626.74 L28.3562 615.6 L28.3562 609.394 L67.3143 625.053 Z" fill="#000000" fill-rule="nonzero" fill-opacity="1" /><path clip-path="url(#clip540)" d="M14.479 581.13 L14.479 567.635 L19.0304 567.635 L19.0304 575.274 L68.0464 575.274 L68.0464 567.635 L72.5979 567.635 L72.5979 581.13 L14.479 581.13 Z" fill="#000000" fill-rule="nonzero" fill-opacity="1" /><path clip-path="url(#clip540)" d="M35.1993 527.403 Q31.2526 525.207 29.3747 522.152 Q27.4968 519.096 27.4968 514.959 Q27.4968 509.389 31.4117 506.365 Q35.2948 503.341 42.4881 503.341 L64.0042 503.341 L64.0042 509.229 L42.679 509.229 Q37.5546 509.229 35.072 511.044 Q32.5894 512.858 32.5894 516.582 Q32.5894 521.133 35.6131 523.775 Q38.6368 526.417 43.8567 526.417 L64.0042 526.417 L64.0042 532.305 L42.679 532.305 Q37.5228 532.305 35.072 534.119 Q32.5894 535.934 32.5894 539.721 Q32.5894 544.209 35.6449 546.851 Q38.6686 549.492 43.8567 549.492 L64.0042 549.492 L64.0042 555.381 L28.3562 555.381 L28.3562 549.492 L33.8944 549.492 Q30.616 547.487 29.0564 544.686 Q27.4968 541.885 27.4968 538.034 Q27.4968 534.151 29.4702 531.446 Q31.4436 528.708 35.1993 527.403 Z" fill="#000000" fill-rule="nonzero" fill-opacity="1" /><path clip-path="url(#clip540)" d="M16.4842 481.252 L16.4842 475.841 L70.0516 492.392 L70.0516 497.803 L16.4842 481.252 Z" fill="#000000" fill-rule="nonzero" fill-opacity="1" /><path clip-path="url(#clip540)" d="M29.4065 446.973 L34.9447 446.973 Q33.6716 449.455 33.035 452.129 Q32.3984 454.803 32.3984 457.667 Q32.3984 462.028 33.7352 464.224 Q35.072 466.388 37.7456 466.388 Q39.7826 466.388 40.9603 464.829 Q42.1061 463.269 43.1565 458.558 L43.6021 456.553 Q44.9389 450.315 47.3897 447.705 Q49.8086 445.063 54.1691 445.063 Q59.1344 445.063 62.0308 449.01 Q64.9272 452.925 64.9272 459.8 Q64.9272 462.664 64.3543 465.783 Q63.8132 468.871 62.6992 472.308 L56.6518 472.308 Q58.3387 469.062 59.198 465.911 Q60.0256 462.76 60.0256 459.672 Q60.0256 455.535 58.6251 453.307 Q57.1929 451.079 54.6147 451.079 Q52.2276 451.079 50.9545 452.702 Q49.6813 454.293 48.5037 459.736 L48.0262 461.773 Q46.8804 467.216 44.5251 469.635 Q42.138 472.054 38.0002 472.054 Q32.9713 472.054 30.2341 468.489 Q27.4968 464.924 27.4968 458.367 Q27.4968 455.121 27.9743 452.256 Q28.4517 449.392 29.4065 446.973 Z" fill="#000000" fill-rule="nonzero" fill-opacity="1" /><path clip-path="url(#clip540)" d="M14.479 422.051 L72.5979 422.051 L72.5979 435.546 L68.0464 435.546 L68.0464 427.939 L19.0304 427.939 L19.0304 435.546 L14.479 435.546 L14.479 422.051 Z" fill="#000000" fill-rule="nonzero" fill-opacity="1" /><polyline clip-path="url(#clip542)" style="stroke:#009af9; stroke-linecap:round; stroke-linejoin:round; stroke-width:4; stroke-opacity:1; fill:none" points="256.209,86.1857 258.287,101.289 260.364,116.316 262.442,131.267 264.52,146.141 266.598,160.936 268.676,175.653 270.754,190.291 272.831,204.85 274.909,219.327 276.987,233.724 279.065,248.038 281.143,262.271 283.221,276.42 285.299,290.486 287.376,304.468 289.454,318.365 291.532,332.178 293.61,345.904 295.688,359.545 297.766,373.099 299.843,386.566 301.921,399.946 303.999,413.237 306.077,426.44 308.155,439.555 310.233,452.58 312.311,465.515 314.388,478.361 316.466,491.116 318.544,503.78 320.622,516.354 322.7,528.836 324.778,541.226 326.855,553.524 328.933,565.73 331.011,577.844 333.089,589.864 335.167,601.792 337.245,613.626 339.323,625.366 341.4,637.013 343.478,648.565 345.556,660.024 347.634,671.388 349.712,682.657 351.79,693.832 353.867,704.911 355.945,715.896 358.023,726.785 360.101,737.579 362.179,748.278 364.257,758.881 366.335,769.388 368.412,779.8 370.49,790.115 372.568,800.335 374.646,810.459 376.724,820.487 378.802,830.419 380.879,840.255 382.957,849.995 385.035,859.639 387.113,869.187 389.191,878.638 391.269,887.994 393.347,897.254 395.424,906.418 397.502,915.486 399.58,924.458 401.658,933.334 403.736,942.115 405.814,950.8 407.891,959.39 409.969,967.884 412.047,976.283 414.125,984.587 416.203,992.795 418.281,1000.91 420.359,1008.93 422.436,1016.85 424.514,1024.68 426.592,1032.42 428.67,1040.06 430.748,1047.61 432.826,1055.06 434.903,1062.42 436.981,1069.69 439.059,1076.86 441.137,1083.94 443.215,1090.93 445.293,1097.83 447.371,1104.63 449.448,1111.34 451.526,1117.96 453.604,1124.49 455.682,1130.93 457.76,1137.27 459.838,1143.53 461.915,1149.7 463.993,1155.77 466.071,1161.76 468.149,1167.65 470.227,1173.46 472.305,1179.18 474.383,1184.81 476.46,1190.35 478.538,1195.8 480.616,1201.17 482.694,1206.44 484.772,1211.63 486.85,1216.74 488.927,1221.76 491.005,1226.69 493.083,1231.54 495.161,1236.3 497.239,1240.98 499.317,1245.57 501.395,1250.08 503.472,1254.51 505.55,1258.85 507.628,1263.11 509.706,1267.29 511.784,1271.38 513.862,1275.4 515.939,1279.33 518.017,1283.18 520.095,1286.95 522.173,1290.64 524.251,1294.26 526.329,1297.79 528.407,1301.24 530.484,1304.62 532.562,1307.92 534.64,1311.14 536.718,1314.28 538.796,1317.35 540.874,1320.34 542.951,1323.26 545.029,1326.1 547.107,1328.87 549.185,1331.56 551.263,1334.18 553.341,1336.73 555.419,1339.2 557.496,1341.6 559.574,1343.93 561.652,1346.19 563.73,1348.38 565.808,1350.5 567.886,1352.55 569.964,1354.52 572.041,1356.43 574.119,1358.27 576.197,1360.05 578.275,1361.75 580.353,1363.39 582.431,1364.97 584.508,1366.47 586.586,1367.91 588.664,1369.29 590.742,1370.6 592.82,1371.85 594.898,1373.04 596.976,1374.16 599.053,1375.22 601.131,1376.22 603.209,1377.16 605.287,1378.03 607.365,1378.85 609.443,1379.61 611.52,1380.3 613.598,1380.94 615.676,1381.52 617.754,1382.04 619.832,1382.51 621.91,1382.92 623.988,1383.27 626.065,1383.57 628.143,1383.81 630.221,1384 632.299,1384.13 634.377,1384.21 636.455,1384.24 638.532,1384.21 640.61,1384.14 642.688,1384.01 644.766,1383.83 646.844,1383.6 648.922,1383.32 651,1382.99 653.077,1382.61 655.155,1382.18 657.233,1381.71 659.311,1381.19 661.389,1380.62 663.467,1380 665.544,1379.34 667.622,1378.64 669.7,1377.89 671.778,1377.09 673.856,1376.25 675.934,1375.37 678.012,1374.45 680.089,1373.48 682.167,1372.47 684.245,1371.42 686.323,1370.34 688.401,1369.21 690.479,1368.04 692.556,1366.83 694.634,1365.58 696.712,1364.3 698.79,1362.97 700.868,1361.61 702.946,1360.22 705.024,1358.78 707.101,1357.32 709.179,1355.81 711.257,1354.28 713.335,1352.7 715.413,1351.1 717.491,1349.46 719.568,1347.79 721.646,1346.08 723.724,1344.35 725.802,1342.58 727.88,1340.79 729.958,1338.96 732.036,1337.1 734.113,1335.22 736.191,1333.3 738.269,1331.36 740.347,1329.39 742.425,1327.39 744.503,1325.36 746.58,1323.31 748.658,1321.23 750.736,1319.13 752.814,1317 754.892,1314.84 756.97,1312.67 759.048,1310.46 761.125,1308.24 763.203,1305.99 765.281,1303.72 767.359,1301.43 769.437,1299.12 771.515,1296.78 773.592,1294.43 775.67,1292.05 777.748,1289.66 779.826,1287.24 781.904,1284.81 783.982,1282.36 786.06,1279.89 788.137,1277.4 790.215,1274.89 792.293,1272.37 794.371,1269.83 796.449,1267.28 798.527,1264.71 800.604,1262.13 802.682,1259.53 804.76,1256.91 806.838,1254.28 808.916,1251.64 810.994,1248.99 813.072,1246.32 815.149,1243.64 817.227,1240.95 819.305,1238.24 821.383,1235.53 823.461,1232.8 825.539,1230.07 827.616,1227.32 829.694,1224.56 831.772,1221.8 833.85,1219.02 835.928,1216.24 838.006,1213.45 840.084,1210.65 842.161,1207.84 844.239,1205.02 846.317,1202.2 848.395,1199.37 850.473,1196.54 852.551,1193.7 854.628,1190.85 856.706,1188 858.784,1185.14 860.862,1182.28 862.94,1179.42 865.018,1176.55 867.096,1173.68 869.173,1170.8 871.251,1167.92 873.329,1165.04 875.407,1162.16 877.485,1159.27 879.563,1156.38 881.64,1153.49 883.718,1150.6 885.796,1147.71 887.874,1144.82 889.952,1141.93 892.03,1139.03 894.108,1136.14 896.185,1133.25 898.263,1130.36 900.341,1127.47 902.419,1124.58 904.497,1121.7 906.575,1118.81 908.653,1115.93 910.73,1113.05 912.808,1110.17 914.886,1107.3 916.964,1104.43 919.042,1101.56 921.12,1098.69 923.197,1095.83 925.275,1092.98 927.353,1090.13 929.431,1087.28 931.509,1084.44 933.587,1081.6 935.665,1078.77 937.742,1075.95 939.82,1073.13 941.898,1070.31 943.976,1067.5 946.054,1064.7 948.132,1061.91 950.209,1059.12 952.287,1056.34 954.365,1053.57 956.443,1050.8 958.521,1048.04 960.599,1045.29 962.677,1042.55 964.754,1039.81 966.832,1037.09 968.91,1034.37 970.988,1031.66 973.066,1028.96 975.144,1026.27 977.221,1023.59 979.299,1020.92 981.377,1018.26 983.455,1015.6 985.533,1012.96 987.611,1010.33 989.689,1007.71 991.766,1005.1 993.844,1002.5 995.922,999.907 998,997.327 1000.08,994.759 1002.16,992.203 1004.23,989.657 1006.31,987.123 1008.39,984.6 1010.47,982.09 1012.54,979.591 1014.62,977.104 1016.7,974.629 1018.78,972.166 1020.86,969.716 1022.93,967.278 1025.01,964.853 1027.09,962.44 1029.17,960.041 1031.25,957.654 1033.32,955.28 1035.4,952.919 1037.48,950.572 1039.56,948.238 1041.63,945.917 1043.71,943.61 1045.79,941.317 1047.87,939.037 1049.95,936.771 1052.02,934.518 1054.1,932.28 1056.18,930.056 1058.26,927.846 1060.34,925.65 1062.41,923.468 1064.49,921.301 1066.57,919.148 1068.65,917.01 1070.72,914.886 1072.8,912.776 1074.88,910.682 1076.96,908.602 1079.04,906.537 1081.11,904.487 1083.19,902.451 1085.27,900.431 1087.35,898.425 1089.43,896.435 1091.5,894.46 1093.58,892.5 1095.66,890.555 1097.74,888.625 1099.81,886.71 1101.89,884.811 1103.97,882.927 1106.05,881.059 1108.13,879.206 1110.2,877.368 1112.28,875.546 1114.36,873.739 1116.44,871.948 1118.52,870.172 1120.59,868.412 1122.67,866.668 1124.75,864.939 1126.83,863.225 1128.9,861.527 1130.98,859.845 1133.06,858.179 1135.14,856.528 1137.22,854.892 1139.29,853.273 1141.37,851.669 1143.45,850.08 1145.53,848.508 1147.6,846.951 1149.68,845.409 1151.76,843.884 1153.84,842.374 1155.92,840.879 1157.99,839.4 1160.07,837.937 1162.15,836.49 1164.23,835.058 1166.31,833.642 1168.38,832.241 1170.46,830.855 1172.54,829.486 1174.62,828.132 1176.69,826.793 1178.77,825.47 1180.85,824.162 1182.93,822.87 1185.01,821.593 1187.08,820.331 1189.16,819.085 1191.24,817.854 1193.32,816.638 1195.4,815.438 1197.47,814.253 1199.55,813.083 1201.63,811.928 1203.71,810.788 1205.78,809.664 1207.86,808.554 1209.94,807.46 1212.02,806.38 1214.1,805.315 1216.17,804.265 1218.25,803.23 1220.33,802.21 1222.41,801.205 1224.49,800.214 1226.56,799.238 1228.64,798.276 1230.72,797.329 1232.8,796.397 1234.87,795.478 1236.95,794.575 1239.03,793.685 1241.11,792.81 1243.19,791.949 1245.26,791.103 1247.34,790.27 1249.42,789.451 1251.5,788.647 1253.58,787.856 1255.65,787.08 1257.73,786.317 1259.81,785.567 1261.89,784.832 1263.96,784.11 1266.04,783.402 1268.12,782.707 1270.2,782.026 1272.28,781.357 1274.35,780.703 1276.43,780.061 1278.51,779.433 1280.59,778.818 1282.66,778.216 1284.74,777.626 1286.82,777.05 1288.9,776.486 1290.98,775.936 1293.05,775.398 1295.13,774.872 1297.21,774.359 1299.29,773.859 1301.37,773.37 1303.44,772.895 1305.52,772.431 1307.6,771.98 1309.68,771.54 1311.75,771.113 1313.83,770.697 1315.91,770.294 1317.99,769.902 1320.07,769.522 1322.14,769.153 1324.22,768.796 1326.3,768.451 1328.38,768.117 1330.46,767.794 1332.53,767.482 1334.61,767.182 1336.69,766.893 1338.77,766.614 1340.84,766.347 1342.92,766.09 1345,765.844 1347.08,765.609 1349.16,765.384 1351.23,765.17 1353.31,764.966 1355.39,764.772 1357.47,764.589 1359.55,764.416 1361.62,764.253 1363.7,764.1 1365.78,763.957 1367.86,763.824 1369.93,763.7 1372.01,763.586 1374.09,763.482 1376.17,763.387 1378.25,763.301 1380.32,763.225 1382.4,763.158 1384.48,763.101 1386.56,763.052 1388.64,763.012 1390.71,762.982 1392.79,762.96 1394.87,762.946 1396.95,762.942 1399.02,762.946 1401.1,762.958 1403.18,762.979 1405.26,763.008 1407.34,763.045 1409.41,763.091 1411.49,763.144 1413.57,763.206 1415.65,763.275 1417.72,763.352 1419.8,763.437 1421.88,763.53 1423.96,763.63 1426.04,763.737 1428.11,763.852 1430.19,763.974 1432.27,764.104 1434.35,764.24 1436.43,764.384 1438.5,764.534 1440.58,764.691 1442.66,764.856 1444.74,765.026 1446.81,765.204 1448.89,765.388 1450.97,765.578 1453.05,765.775 1455.13,765.978 1457.2,766.188 1459.28,766.403 1461.36,766.625 1463.44,766.852 1465.52,767.086 1467.59,767.325 1469.67,767.57 1471.75,767.82 1473.83,768.077 1475.9,768.338 1477.98,768.605 1480.06,768.878 1482.14,769.155 1484.22,769.438 1486.29,769.726 1488.37,770.019 1490.45,770.316 1492.53,770.619 1494.61,770.926 1496.68,771.239 1498.76,771.555 1500.84,771.877 1502.92,772.202 1504.99,772.533 1507.07,772.867 1509.15,773.206 1511.23,773.549 1513.31,773.896 1515.38,774.247 1517.46,774.602 1519.54,774.96 1521.62,775.323 1523.7,775.689 1525.77,776.059 1527.85,776.433 1529.93,776.81 1532.01,777.191 1534.08,777.574 1536.16,777.962 1538.24,778.352 1540.32,778.746 1542.4,779.142 1544.47,779.542 1546.55,779.945 1548.63,780.35 1550.71,780.758 1552.78,781.169 1554.86,781.583 1556.94,782 1559.02,782.418 1561.1,782.84 1563.17,783.264 1565.25,783.69 1567.33,784.118 1569.41,784.549 1571.49,784.982 1573.56,785.416 1575.64,785.853 1577.72,786.292 1579.8,786.733 1581.87,787.176 1583.95,787.62 1586.03,788.066 1588.11,788.514 1590.19,788.963 1592.26,789.414 1594.34,789.866 1596.42,790.32 1598.5,790.775 1600.58,791.232 1602.65,791.69 1604.73,792.148 1606.81,792.608 1608.89,793.07 1610.96,793.532 1613.04,793.995 1615.12,794.459 1617.2,794.924 1619.28,795.389 1621.35,795.856 1623.43,796.323 1625.51,796.791 1627.59,797.259 1629.67,797.728 1631.74,798.197 1633.82,798.667 1635.9,799.137 1637.98,799.608 1640.05,800.078 1642.13,800.549 1644.21,801.021 1646.29,801.492 1648.37,801.964 1650.44,802.435 1652.52,802.907 1654.6,803.378 1656.68,803.85 1658.76,804.321 1660.83,804.792 1662.91,805.263 1664.99,805.733 1667.07,806.204 1669.14,806.674 1671.22,807.143 1673.3,807.612 1675.38,808.081 1677.46,808.549 1679.53,809.016 1681.61,809.483 1683.69,809.95 1685.77,810.415 1687.84,810.88 1689.92,811.344 1692,811.808 1694.08,812.27 1696.16,812.732 1698.23,813.192 1700.31,813.652 1702.39,814.111 1704.47,814.569 1706.55,815.026 1708.62,815.481 1710.7,815.936 1712.78,816.389 1714.86,816.841 1716.93,817.292 1719.01,817.742 1721.09,818.191 1723.17,818.638 1725.25,819.084 1727.32,819.528 1729.4,819.971 1731.48,820.413 1733.56,820.853 1735.64,821.291 1737.71,821.729 1739.79,822.164 1741.87,822.598 1743.95,823.031 1746.02,823.462 1748.1,823.891 1750.18,824.318 1752.26,824.744 1754.34,825.168 1756.41,825.59 1758.49,826.011 1760.57,826.43 1762.65,826.846 1764.73,827.261 1766.8,827.675 1768.88,828.086 1770.96,828.495 1773.04,828.903 1775.11,829.308 1777.19,829.712 1779.27,830.113 1781.35,830.513 1783.43,830.91 1785.5,831.306 1787.58,831.699 1789.66,832.091 1791.74,832.48 1793.82,832.867 1795.89,833.252 1797.97,833.634 1800.05,834.015 1802.13,834.393 1804.2,834.77 1806.28,835.144 1808.36,835.515 1810.44,835.885 1812.52,836.252 1814.59,836.617 1816.67,836.98 1818.75,837.34 1820.83,837.698 1822.91,838.054 1824.98,838.407 1827.06,838.758 1829.14,839.107 1831.22,839.453 1833.29,839.797 1835.37,840.139 1837.45,840.478 1839.53,840.815 1841.61,841.149 1843.68,841.481 1845.76,841.81 1847.84,842.137 1849.92,842.462 1851.99,842.784 1854.07,843.104 1856.15,843.421 1858.23,843.736 1860.31,844.048 1862.38,844.357 1864.46,844.665 1866.54,844.969 1868.62,845.272 1870.7,845.571 1872.77,845.868 1874.85,846.163 1876.93,846.455 1879.01,846.745 1881.08,847.032 1883.16,847.316 1885.24,847.598 1887.32,847.877 1889.4,848.154 1891.47,848.429 1893.55,848.7 1895.63,848.97 1897.71,849.236 1899.79,849.5 1901.86,849.762 1903.94,850.021 1906.02,850.277 1908.1,850.531 1910.17,850.783 1912.25,851.032 1914.33,851.278 1916.41,851.521 1918.49,851.763 1920.56,852.001 1922.64,852.237 1924.72,852.471 1926.8,852.702 1928.88,852.93 1930.95,853.156 1933.03,853.38 1935.11,853.6 1937.19,853.819 1939.26,854.034 1941.34,854.248 1943.42,854.458 1945.5,854.667 1947.58,854.872 1949.65,855.076 1951.73,855.276 1953.81,855.475 1955.89,855.67 1957.97,855.864 1960.04,856.055 1962.12,856.243 1964.2,856.429 1966.28,856.612 1968.35,856.793 1970.43,856.972 1972.51,857.148 1974.59,857.321 1976.67,857.493 1978.74,857.661 1980.82,857.828 1982.9,857.992 1984.98,858.153 1987.05,858.313 1989.13,858.469 1991.21,858.624 1993.29,858.776 1995.37,858.926 1997.44,859.073 1999.52,859.218 2001.6,859.361 2003.68,859.501 2005.76,859.639 2007.83,859.775 2009.91,859.909 2011.99,860.04 2014.07,860.169 2016.14,860.296 2018.22,860.42 2020.3,860.542 2022.38,860.662 2024.46,860.78 2026.53,860.895 2028.61,861.009 2030.69,861.12 2032.77,861.229 2034.85,861.336 2036.92,861.44 2039,861.543 2041.08,861.643 2043.16,861.741 2045.23,861.837 2047.31,861.931 2049.39,862.023 2051.47,862.113 2053.55,862.201 2055.62,862.287 2057.7,862.37 2059.78,862.452 2061.86,862.532 2063.94,862.609 2066.01,862.685 2068.09,862.759 2070.17,862.83 2072.25,862.9 2074.32,862.968 2076.4,863.034 2078.48,863.098 2080.56,863.16 2082.64,863.22 2084.71,863.278 2086.79,863.334 2088.87,863.389 2090.95,863.442 2093.03,863.492 2095.1,863.541 2097.18,863.589 2099.26,863.634 2101.34,863.678 2103.41,863.72 2105.49,863.76 2107.57,863.798 2109.65,863.835 2111.73,863.87 2113.8,863.903 2115.88,863.935 2117.96,863.965 2120.04,863.993 2122.11,864.019 2124.19,864.044 2126.27,864.068 2128.35,864.09 2130.43,864.11 2132.5,864.128 2134.58,864.145 2136.66,864.161 2138.74,864.175 2140.82,864.187 2142.89,864.198 2144.97,864.208 2147.05,864.216 2149.13,864.222 2151.2,864.227 2153.28,864.231 2155.36,864.233 2157.44,864.234 2159.52,864.233 2161.59,864.231 2163.67,864.228 2165.75,864.223 2167.83,864.217 2169.91,864.21 2171.98,864.201 2174.06,864.191 2176.14,864.18 2178.22,864.167 2180.29,864.153 2182.37,864.138 2184.45,864.122 2186.53,864.105 2188.61,864.086 2190.68,864.066 2192.76,864.045 2194.84,864.023 2196.92,863.999 2199,863.975 2201.07,863.949 2203.15,863.923 2205.23,863.895 2207.31,863.866 2209.38,863.836 2211.46,863.805 2213.54,863.773 2215.62,863.74 2217.7,863.706 2219.77,863.67 2221.85,863.634 2223.93,863.597 2226.01,863.559 2228.09,863.52 2230.16,863.48 2232.24,863.44 2234.32,863.398 2236.4,863.355 2238.47,863.312 2240.55,863.267 2242.63,863.222 2244.71,863.176 2246.79,863.129 2248.86,863.081 2250.94,863.033 2253.02,862.983 2255.1,862.933 2257.17,862.883 2259.25,862.831 2261.33,862.779 2263.41,862.725 2265.49,862.672 2267.56,862.617 2269.64,862.562 2271.72,862.506 2273.8,862.449 2275.88,862.392 2277.95,862.334 2280.03,862.276 2282.11,862.217 2284.19,862.157 2286.26,862.097 2288.34,862.036 2290.42,861.974 2292.5,861.912 2294.58,861.85 2296.65,861.787 2298.73,861.723 2300.81,861.659 2302.89,861.594 2304.97,861.529 2307.04,861.463 2309.12,861.397 2311.2,861.331 2313.28,861.264 2315.35,861.196 2317.43,861.129 2319.51,861.06 2321.59,860.992 2323.67,860.922 2325.74,860.853 2327.82,860.783 2329.9,860.713 2331.98,860.642 2334.06,860.572 2336.13,860.5 2338.21,860.429 2340.29,860.357 2342.37,860.285 2344.44,860.212 2346.52,860.14 2348.6,860.067 2350.68,859.993 2352.76,859.92 "/>
<polyline clip-path="url(#clip542)" style="stroke:#e26f46; stroke-linecap:round; stroke-linejoin:round; stroke-width:4; stroke-opacity:1; fill:none" points="256.209,86.1857 258.287,101.289 260.364,116.316 262.442,131.267 264.52,146.141 266.598,160.936 268.676,175.653 270.754,190.291 272.831,204.85 274.909,219.327 276.987,233.724 279.065,248.038 281.143,262.271 283.221,276.42 285.299,290.486 287.376,304.468 289.454,318.365 291.532,332.178 293.61,345.904 295.688,359.545 297.766,373.099 299.843,386.566 301.921,399.946 303.999,413.237 306.077,426.44 308.155,439.555 310.233,452.58 312.311,465.515 314.388,478.361 316.466,491.116 318.544,503.78 320.622,516.354 322.7,528.836 324.778,541.226 326.855,553.524 328.933,565.73 331.011,577.844 333.089,589.864 335.167,601.792 337.245,613.626 339.323,625.366 341.4,637.013 343.478,648.565 345.556,660.024 347.634,671.388 349.712,682.657 351.79,693.832 353.867,704.911 355.945,715.896 358.023,726.785 360.101,737.579 362.179,748.278 364.257,758.881 366.335,769.388 368.412,779.8 370.49,790.115 372.568,800.335 374.646,810.459 376.724,820.487 378.802,830.419 380.879,840.255 382.957,849.995 385.035,859.639 387.113,869.187 389.191,878.638 391.269,887.994 393.347,897.254 395.424,906.418 397.502,915.486 399.58,924.458 401.658,933.334 403.736,942.115 405.814,950.8 407.891,959.39 409.969,967.884 412.047,976.283 414.125,984.587 416.203,992.795 418.281,1000.91 420.359,1008.93 422.436,1016.85 424.514,1024.68 426.592,1032.42 428.67,1040.06 430.748,1047.61 432.826,1055.06 434.903,1062.42 436.981,1069.69 439.059,1076.86 441.137,1083.94 443.215,1090.93 445.293,1097.83 447.371,1104.63 449.448,1111.34 451.526,1117.96 453.604,1124.49 455.682,1130.93 457.76,1137.27 459.838,1143.53 461.915,1149.7 463.993,1155.77 466.071,1161.76 468.149,1167.65 470.227,1173.46 472.305,1179.18 474.383,1184.81 476.46,1190.35 478.538,1195.8 480.616,1201.17 482.694,1206.44 484.772,1211.63 486.85,1216.74 488.927,1221.76 491.005,1226.69 493.083,1231.54 495.161,1236.3 497.239,1240.98 499.317,1245.57 501.395,1250.08 503.472,1254.51 505.55,1258.85 507.628,1263.11 509.706,1267.29 511.784,1271.38 513.862,1275.4 515.939,1279.33 518.017,1283.18 520.095,1286.95 522.173,1290.64 524.251,1294.26 526.329,1297.79 528.407,1301.24 530.484,1304.62 532.562,1307.92 534.64,1311.14 536.718,1314.28 538.796,1317.35 540.874,1320.34 542.951,1323.26 545.029,1326.1 547.107,1328.87 549.185,1331.56 551.263,1334.18 553.341,1336.73 555.419,1339.2 557.496,1341.6 559.574,1343.93 561.652,1346.19 563.73,1348.38 565.808,1350.5 567.886,1352.55 569.964,1354.52 572.041,1356.43 574.119,1358.27 576.197,1360.05 578.275,1361.75 580.353,1363.39 582.431,1364.97 584.508,1366.47 586.586,1367.91 588.664,1369.29 590.742,1370.6 592.82,1371.85 594.898,1373.04 596.976,1374.16 599.053,1375.22 601.131,1376.22 603.209,1377.16 605.287,1378.03 607.365,1378.85 609.443,1379.61 611.52,1380.3 613.598,1380.94 615.676,1381.52 617.754,1382.04 619.832,1382.51 621.91,1382.92 623.988,1383.27 626.065,1383.57 628.143,1383.81 630.221,1384 632.299,1384.13 634.377,1384.21 636.455,1384.24 638.532,1384.21 640.61,1384.14 642.688,1384.01 644.766,1383.83 646.844,1383.6 648.922,1383.32 651,1382.99 653.077,1382.61 655.155,1382.18 657.233,1381.71 659.311,1381.19 661.389,1380.62 663.467,1380 665.544,1379.34 667.622,1378.64 669.7,1377.89 671.778,1377.09 673.856,1376.25 675.934,1375.37 678.012,1374.45 680.089,1373.48 682.167,1372.47 684.245,1371.42 686.323,1370.34 688.401,1369.21 690.479,1368.04 692.556,1366.83 694.634,1365.58 696.712,1364.3 698.79,1362.97 700.868,1361.61 702.946,1360.22 705.024,1358.78 707.101,1357.32 709.179,1355.81 711.257,1354.28 713.335,1352.7 715.413,1351.1 717.491,1349.46 719.568,1347.79 721.646,1346.08 723.724,1344.35 725.802,1342.58 727.88,1340.79 729.958,1338.96 732.036,1337.1 734.113,1335.22 736.191,1333.3 738.269,1331.36 740.347,1329.39 742.425,1327.39 744.503,1325.36 746.58,1323.31 748.658,1321.23 750.736,1319.13 752.814,1317 754.892,1314.84 756.97,1312.67 759.048,1310.46 761.125,1308.24 763.203,1305.99 765.281,1303.72 767.359,1301.43 769.437,1299.12 771.515,1296.78 773.592,1294.43 775.67,1292.05 777.748,1289.66 779.826,1287.24 781.904,1284.81 783.982,1282.36 786.06,1279.89 788.137,1277.4 790.215,1274.89 792.293,1272.37 794.371,1269.83 796.449,1267.28 798.527,1264.71 800.604,1262.13 802.682,1259.53 804.76,1256.91 806.838,1254.28 808.916,1251.64 810.994,1248.99 813.072,1246.32 815.149,1243.64 817.227,1240.95 819.305,1238.24 821.383,1235.53 823.461,1232.8 825.539,1230.07 827.616,1227.32 829.694,1224.56 831.772,1221.8 833.85,1219.02 835.928,1216.24 838.006,1213.45 840.084,1210.65 842.161,1207.84 844.239,1205.02 846.317,1202.2 848.395,1199.37 850.473,1196.54 852.551,1193.7 854.628,1190.85 856.706,1188 858.784,1185.14 860.862,1182.28 862.94,1179.42 865.018,1176.55 867.096,1173.68 869.173,1170.8 871.251,1167.92 873.329,1165.04 875.407,1162.16 877.485,1159.27 879.563,1156.38 881.64,1153.49 883.718,1150.6 885.796,1147.71 887.874,1144.82 889.952,1141.93 892.03,1139.03 894.108,1136.14 896.185,1133.25 898.263,1130.36 900.341,1127.47 902.419,1124.58 904.497,1121.7 906.575,1118.81 908.653,1115.93 910.73,1113.05 912.808,1110.17 914.886,1107.3 916.964,1104.43 919.042,1101.56 921.12,1098.69 923.197,1095.83 925.275,1092.98 927.353,1090.13 929.431,1087.28 931.509,1084.44 933.587,1081.6 935.665,1078.77 937.742,1075.95 939.82,1073.13 941.898,1070.31 943.976,1067.5 946.054,1064.7 948.132,1061.91 950.209,1059.12 952.287,1056.34 954.365,1053.57 956.443,1050.8 958.521,1048.04 960.599,1045.29 962.677,1042.55 964.754,1039.81 966.832,1037.09 968.91,1034.37 970.988,1031.66 973.066,1028.96 975.144,1026.27 977.221,1023.59 979.299,1020.92 981.377,1018.26 983.455,1015.6 985.533,1012.96 987.611,1010.33 989.689,1007.71 991.766,1005.1 993.844,1002.5 995.922,999.907 998,997.327 1000.08,994.759 1002.16,992.203 1004.23,989.657 1006.31,987.123 1008.39,984.6 1010.47,982.09 1012.54,979.591 1014.62,977.104 1016.7,974.629 1018.78,972.166 1020.86,969.716 1022.93,967.278 1025.01,964.853 1027.09,962.44 1029.17,960.041 1031.25,957.654 1033.32,955.28 1035.4,952.919 1037.48,950.572 1039.56,948.238 1041.63,945.917 1043.71,943.61 1045.79,941.317 1047.87,939.037 1049.95,936.771 1052.02,934.518 1054.1,932.28 1056.18,930.056 1058.26,927.846 1060.34,925.65 1062.41,923.468 1064.49,921.301 1066.57,919.148 1068.65,917.01 1070.72,914.886 1072.8,912.776 1074.88,910.682 1076.96,908.602 1079.04,906.537 1081.11,904.487 1083.19,902.451 1085.27,900.431 1087.35,898.425 1089.43,896.435 1091.5,894.46 1093.58,892.5 1095.66,890.555 1097.74,888.625 1099.81,886.71 1101.89,884.811 1103.97,882.927 1106.05,881.059 1108.13,879.206 1110.2,877.368 1112.28,875.546 1114.36,873.739 1116.44,871.948 1118.52,870.172 1120.59,868.412 1122.67,866.668 1124.75,864.939 1126.83,863.225 1128.9,861.527 1130.98,859.845 1133.06,858.179 1135.14,856.528 1137.22,854.892 1139.29,853.273 1141.37,851.669 1143.45,850.08 1145.53,848.508 1147.6,846.951 1149.68,845.409 1151.76,843.884 1153.84,842.374 1155.92,840.879 1157.99,839.4 1160.07,837.937 1162.15,836.49 1164.23,835.058 1166.31,833.642 1168.38,832.241 1170.46,830.855 1172.54,829.486 1174.62,828.132 1176.69,826.793 1178.77,825.47 1180.85,824.162 1182.93,822.87 1185.01,821.593 1187.08,820.331 1189.16,819.085 1191.24,817.854 1193.32,816.638 1195.4,815.438 1197.47,814.253 1199.55,813.083 1201.63,811.928 1203.71,810.788 1205.78,809.664 1207.86,808.554 1209.94,807.46 1212.02,806.38 1214.1,805.315 1216.17,804.265 1218.25,803.23 1220.33,802.21 1222.41,801.205 1224.49,800.214 1226.56,799.238 1228.64,798.276 1230.72,797.329 1232.8,796.397 1234.87,795.478 1236.95,794.575 1239.03,793.685 1241.11,792.81 1243.19,791.949 1245.26,791.103 1247.34,790.27 1249.42,789.451 1251.5,788.647 1253.58,787.856 1255.65,787.08 1257.73,786.317 1259.81,785.567 1261.89,784.832 1263.96,784.11 1266.04,783.402 1268.12,782.707 1270.2,782.026 1272.28,781.357 1274.35,780.703 1276.43,780.061 1278.51,779.433 1280.59,778.818 1282.66,778.216 1284.74,777.626 1286.82,777.05 1288.9,776.486 1290.98,775.936 1293.05,775.398 1295.13,774.872 1297.21,774.359 1299.29,773.859 1301.37,773.37 1303.44,772.895 1305.52,772.431 1307.6,771.98 1309.68,771.54 1311.75,771.113 1313.83,770.697 1315.91,770.294 1317.99,769.902 1320.07,769.522 1322.14,769.153 1324.22,768.796 1326.3,768.451 1328.38,768.117 1330.46,767.794 1332.53,767.482 1334.61,767.182 1336.69,766.893 1338.77,766.614 1340.84,766.347 1342.92,766.09 1345,765.844 1347.08,765.609 1349.16,765.384 1351.23,765.17 1353.31,764.966 1355.39,764.772 1357.47,764.589 1359.55,764.416 1361.62,764.253 1363.7,764.1 1365.78,763.957 1367.86,763.824 1369.93,763.7 1372.01,763.586 1374.09,763.482 1376.17,763.387 1378.25,763.301 1380.32,763.225 1382.4,763.158 1384.48,763.101 1386.56,763.052 1388.64,763.012 1390.71,762.982 1392.79,762.96 1394.87,762.946 1396.95,762.942 1399.02,762.946 1401.1,762.958 1403.18,762.979 1405.26,763.008 1407.34,763.045 1409.41,763.091 1411.49,763.144 1413.57,763.206 1415.65,763.275 1417.72,763.352 1419.8,763.437 1421.88,763.53 1423.96,763.63 1426.04,763.737 1428.11,763.852 1430.19,763.974 1432.27,764.104 1434.35,764.24 1436.43,764.384 1438.5,764.534 1440.58,764.691 1442.66,764.856 1444.74,765.026 1446.81,765.204 1448.89,765.388 1450.97,765.578 1453.05,765.775 1455.13,765.978 1457.2,766.188 1459.28,766.403 1461.36,766.625 1463.44,766.852 1465.52,767.086 1467.59,767.325 1469.67,767.57 1471.75,767.82 1473.83,768.077 1475.9,768.338 1477.98,768.605 1480.06,768.878 1482.14,769.155 1484.22,769.438 1486.29,769.726 1488.37,770.019 1490.45,770.316 1492.53,770.619 1494.61,770.926 1496.68,771.239 1498.76,771.555 1500.84,771.877 1502.92,772.202 1504.99,772.533 1507.07,772.867 1509.15,773.206 1511.23,773.549 1513.31,773.896 1515.38,774.247 1517.46,774.602 1519.54,774.96 1521.62,775.323 1523.7,775.689 1525.77,776.059 1527.85,776.433 1529.93,776.81 1532.01,777.191 1534.08,777.574 1536.16,777.962 1538.24,778.352 1540.32,778.746 1542.4,779.142 1544.47,779.542 1546.55,779.945 1548.63,780.35 1550.71,780.758 1552.78,781.169 1554.86,781.583 1556.94,782 1559.02,782.418 1561.1,782.84 1563.17,783.264 1565.25,783.69 1567.33,784.118 1569.41,784.549 1571.49,784.982 1573.56,785.416 1575.64,785.853 1577.72,786.292 1579.8,786.733 1581.87,787.176 1583.95,787.62 1586.03,788.066 1588.11,788.514 1590.19,788.963 1592.26,789.414 1594.34,789.866 1596.42,790.32 1598.5,790.775 1600.58,791.232 1602.65,791.69 1604.73,792.148 1606.81,792.608 1608.89,793.07 1610.96,793.532 1613.04,793.995 1615.12,794.459 1617.2,794.924 1619.28,795.389 1621.35,795.856 1623.43,796.323 1625.51,796.791 1627.59,797.259 1629.67,797.728 1631.74,798.197 1633.82,798.667 1635.9,799.137 1637.98,799.608 1640.05,800.078 1642.13,800.549 1644.21,801.021 1646.29,801.492 1648.37,801.964 1650.44,802.435 1652.52,802.907 1654.6,803.378 1656.68,803.85 1658.76,804.321 1660.83,804.792 1662.91,805.263 1664.99,805.733 1667.07,806.204 1669.14,806.674 1671.22,807.143 1673.3,807.612 1675.38,808.081 1677.46,808.549 1679.53,809.016 1681.61,809.483 1683.69,809.95 1685.77,810.415 1687.84,810.88 1689.92,811.344 1692,811.808 1694.08,812.27 1696.16,812.732 1698.23,813.192 1700.31,813.652 1702.39,814.111 1704.47,814.569 1706.55,815.026 1708.62,815.481 1710.7,815.936 1712.78,816.389 1714.86,816.841 1716.93,817.292 1719.01,817.742 1721.09,818.191 1723.17,818.638 1725.25,819.084 1727.32,819.528 1729.4,819.971 1731.48,820.413 1733.56,820.853 1735.64,821.291 1737.71,821.729 1739.79,822.164 1741.87,822.598 1743.95,823.031 1746.02,823.462 1748.1,823.891 1750.18,824.318 1752.26,824.744 1754.34,825.168 1756.41,825.59 1758.49,826.011 1760.57,826.43 1762.65,826.846 1764.73,827.261 1766.8,827.675 1768.88,828.086 1770.96,828.495 1773.04,828.903 1775.11,829.308 1777.19,829.712 1779.27,830.113 1781.35,830.513 1783.43,830.91 1785.5,831.306 1787.58,831.699 1789.66,832.091 1791.74,832.48 1793.82,832.867 1795.89,833.252 1797.97,833.634 1800.05,834.015 1802.13,834.393 1804.2,834.77 1806.28,835.144 1808.36,835.515 1810.44,835.885 1812.52,836.252 1814.59,836.617 1816.67,836.98 1818.75,837.34 1820.83,837.698 1822.91,838.054 1824.98,838.407 1827.06,838.758 1829.14,839.107 1831.22,839.453 1833.29,839.797 1835.37,840.139 1837.45,840.478 1839.53,840.815 1841.61,841.149 1843.68,841.481 1845.76,841.81 1847.84,842.137 1849.92,842.462 1851.99,842.784 1854.07,843.104 1856.15,843.421 1858.23,843.736 1860.31,844.048 1862.38,844.357 1864.46,844.665 1866.54,844.969 1868.62,845.272 1870.7,845.571 1872.77,845.868 1874.85,846.163 1876.93,846.455 1879.01,846.745 1881.08,847.032 1883.16,847.316 1885.24,847.598 1887.32,847.877 1889.4,848.154 1891.47,848.429 1893.55,848.7 1895.63,848.97 1897.71,849.236 1899.79,849.5 1901.86,849.762 1903.94,850.021 1906.02,850.277 1908.1,850.531 1910.17,850.783 1912.25,851.032 1914.33,851.278 1916.41,851.521 1918.49,851.763 1920.56,852.001 1922.64,852.237 1924.72,852.471 1926.8,852.702 1928.88,852.93 1930.95,853.156 1933.03,853.38 1935.11,853.6 1937.19,853.819 1939.26,854.034 1941.34,854.248 1943.42,854.458 1945.5,854.667 1947.58,854.872 1949.65,855.076 1951.73,855.276 1953.81,855.475 1955.89,855.67 1957.97,855.864 1960.04,856.055 1962.12,856.243 1964.2,856.429 1966.28,856.612 1968.35,856.793 1970.43,856.972 1972.51,857.148 1974.59,857.321 1976.67,857.493 1978.74,857.661 1980.82,857.828 1982.9,857.992 1984.98,858.153 1987.05,858.313 1989.13,858.469 1991.21,858.624 1993.29,858.776 1995.37,858.926 1997.44,859.073 1999.52,859.218 2001.6,859.361 2003.68,859.501 2005.76,859.639 2007.83,859.775 2009.91,859.909 2011.99,860.04 2014.07,860.169 2016.14,860.296 2018.22,860.42 2020.3,860.542 2022.38,860.662 2024.46,860.78 2026.53,860.895 2028.61,861.009 2030.69,861.12 2032.77,861.229 2034.85,861.336 2036.92,861.44 2039,861.543 2041.08,861.643 2043.16,861.741 2045.23,861.837 2047.31,861.931 2049.39,862.023 2051.47,862.113 2053.55,862.201 2055.62,862.287 2057.7,862.37 2059.78,862.452 2061.86,862.532 2063.94,862.609 2066.01,862.685 2068.09,862.759 2070.17,862.83 2072.25,862.9 2074.32,862.968 2076.4,863.034 2078.48,863.098 2080.56,863.16 2082.64,863.22 2084.71,863.278 2086.79,863.334 2088.87,863.389 2090.95,863.442 2093.03,863.492 2095.1,863.541 2097.18,863.589 2099.26,863.634 2101.34,863.678 2103.41,863.72 2105.49,863.76 2107.57,863.798 2109.65,863.835 2111.73,863.87 2113.8,863.903 2115.88,863.935 2117.96,863.965 2120.04,863.993 2122.11,864.019 2124.19,864.044 2126.27,864.068 2128.35,864.09 2130.43,864.11 2132.5,864.128 2134.58,864.145 2136.66,864.161 2138.74,864.175 2140.82,864.187 2142.89,864.198 2144.97,864.208 2147.05,864.216 2149.13,864.222 2151.2,864.227 2153.28,864.231 2155.36,864.233 2157.44,864.234 2159.52,864.233 2161.59,864.231 2163.67,864.228 2165.75,864.223 2167.83,864.217 2169.91,864.21 2171.98,864.201 2174.06,864.191 2176.14,864.18 2178.22,864.167 2180.29,864.153 2182.37,864.138 2184.45,864.122 2186.53,864.105 2188.61,864.086 2190.68,864.066 2192.76,864.045 2194.84,864.023 2196.92,863.999 2199,863.975 2201.07,863.949 2203.15,863.923 2205.23,863.895 2207.31,863.866 2209.38,863.836 2211.46,863.805 2213.54,863.773 2215.62,863.74 2217.7,863.706 2219.77,863.67 2221.85,863.634 2223.93,863.597 2226.01,863.559 2228.09,863.52 2230.16,863.48 2232.24,863.44 2234.32,863.398 2236.4,863.355 2238.47,863.312 2240.55,863.267 2242.63,863.222 2244.71,863.176 2246.79,863.129 2248.86,863.081 2250.94,863.033 2253.02,862.983 2255.1,862.933 2257.17,862.883 2259.25,862.831 2261.33,862.779 2263.41,862.725 2265.49,862.672 2267.56,862.617 2269.64,862.562 2271.72,862.506 2273.8,862.449 2275.88,862.392 2277.95,862.334 2280.03,862.276 2282.11,862.217 2284.19,862.157 2286.26,862.097 2288.34,862.036 2290.42,861.974 2292.5,861.912 2294.58,861.85 2296.65,861.787 2298.73,861.723 2300.81,861.659 2302.89,861.594 2304.97,861.529 2307.04,861.463 2309.12,861.397 2311.2,861.331 2313.28,861.264 2315.35,861.196 2317.43,861.129 2319.51,861.06 2321.59,860.992 2323.67,860.922 2325.74,860.853 2327.82,860.783 2329.9,860.713 2331.98,860.642 2334.06,860.572 2336.13,860.5 2338.21,860.429 2340.29,860.357 2342.37,860.285 2344.44,860.212 2346.52,860.14 2348.6,860.067 2350.68,859.993 2352.76,859.92 "/>
<path clip-path="url(#clip540)" d="M1965.67 248.629 L2282.87 248.629 L2282.87 93.1086 L1965.67 93.1086  Z" fill="#ffffff" fill-rule="evenodd" fill-opacity="1"/>
<polyline clip-path="url(#clip540)" style="stroke:#000000; stroke-linecap:round; stroke-linejoin:round; stroke-width:4; stroke-opacity:1; fill:none" points="1965.67,248.629 2282.87,248.629 2282.87,93.1086 1965.67,93.1086 1965.67,248.629 "/>
<polyline clip-path="url(#clip540)" style="stroke:#009af9; stroke-linecap:round; stroke-linejoin:round; stroke-width:4; stroke-opacity:1; fill:none" points="1988.97,144.949 2128.74,144.949 "/>
<path clip-path="url(#clip540)" d="M2170.8 149.289 Q2170.8 144.59 2168.86 141.928 Q2166.94 139.243 2163.56 139.243 Q2160.18 139.243 2158.23 141.928 Q2156.31 144.59 2156.31 149.289 Q2156.31 153.988 2158.23 156.673 Q2160.18 159.335 2163.56 159.335 Q2166.94 159.335 2168.86 156.673 Q2170.8 153.988 2170.8 149.289 M2156.31 140.238 Q2157.66 137.923 2159.69 136.812 Q2161.75 135.678 2164.6 135.678 Q2169.32 135.678 2172.26 139.428 Q2175.22 143.178 2175.22 149.289 Q2175.22 155.4 2172.26 159.15 Q2169.32 162.9 2164.6 162.9 Q2161.75 162.9 2159.69 161.789 Q2157.66 160.655 2156.31 158.34 L2156.31 162.229 L2152.03 162.229 L2152.03 126.21 L2156.31 126.21 L2156.31 140.238 Z" fill="#000000" fill-rule="nonzero" fill-opacity="1" /><path clip-path="url(#clip540)" d="M2179.23 136.303 L2183.74 136.303 L2191.84 158.062 L2199.95 136.303 L2204.46 136.303 L2194.74 162.229 L2188.95 162.229 L2179.23 136.303 Z" fill="#000000" fill-rule="nonzero" fill-opacity="1" /><path clip-path="url(#clip540)" d="M2219.6 145.585 L2219.6 152.807 L2227.72 152.807 L2227.72 155.006 L2219.6 155.006 L2219.6 162.229 L2217.17 162.229 L2217.17 155.006 L2209.04 155.006 L2209.04 152.807 L2217.17 152.807 L2217.17 145.585 L2219.6 145.585 Z" fill="#000000" fill-rule="nonzero" fill-opacity="1" /><path clip-path="url(#clip540)" d="M2232.31 136.303 L2236.82 136.303 L2244.92 158.062 L2253.03 136.303 L2257.54 136.303 L2247.82 162.229 L2242.03 162.229 L2232.31 136.303 Z" fill="#000000" fill-rule="nonzero" fill-opacity="1" /><polyline clip-path="url(#clip540)" style="stroke:#e26f46; stroke-linecap:round; stroke-linejoin:round; stroke-width:4; stroke-opacity:1; fill:none" points="1988.97,196.789 2128.74,196.789 "/>
<path clip-path="url(#clip540)" d="M2170.8 201.129 Q2170.8 196.43 2168.86 193.768 Q2166.94 191.083 2163.56 191.083 Q2160.18 191.083 2158.23 193.768 Q2156.31 196.43 2156.31 201.129 Q2156.31 205.828 2158.23 208.513 Q2160.18 211.175 2163.56 211.175 Q2166.94 211.175 2168.86 208.513 Q2170.8 205.828 2170.8 201.129 M2156.31 192.078 Q2157.66 189.763 2159.69 188.652 Q2161.75 187.518 2164.6 187.518 Q2169.32 187.518 2172.26 191.268 Q2175.22 195.018 2175.22 201.129 Q2175.22 207.24 2172.26 210.99 Q2169.32 214.74 2164.6 214.74 Q2161.75 214.74 2159.69 213.629 Q2157.66 212.495 2156.31 210.18 L2156.31 214.069 L2152.03 214.069 L2152.03 178.05 L2156.31 178.05 L2156.31 192.078 Z" fill="#000000" fill-rule="nonzero" fill-opacity="1" /><path clip-path="url(#clip540)" d="M2186.41 210.18 L2186.41 223.93 L2182.12 223.93 L2182.12 188.143 L2186.41 188.143 L2186.41 192.078 Q2187.75 189.763 2189.78 188.652 Q2191.84 187.518 2194.69 187.518 Q2199.41 187.518 2202.35 191.268 Q2205.32 195.018 2205.32 201.129 Q2205.32 207.24 2202.35 210.99 Q2199.41 214.74 2194.69 214.74 Q2191.84 214.74 2189.78 213.629 Q2187.75 212.495 2186.41 210.18 M2200.9 201.129 Q2200.9 196.43 2198.95 193.768 Q2197.03 191.083 2193.65 191.083 Q2190.27 191.083 2188.33 193.768 Q2186.41 196.43 2186.41 201.129 Q2186.41 205.828 2188.33 208.513 Q2190.27 211.175 2193.65 211.175 Q2197.03 211.175 2198.95 208.513 Q2200.9 205.828 2200.9 201.129 Z" fill="#000000" fill-rule="nonzero" fill-opacity="1" /><path clip-path="url(#clip540)" d="M2221.64 197.425 L2221.64 204.647 L2229.76 204.647 L2229.76 206.846 L2221.64 206.846 L2221.64 214.069 L2219.21 214.069 L2219.21 206.846 L2211.08 206.846 L2211.08 204.647 L2219.21 204.647 L2219.21 197.425 L2221.64 197.425 Z" fill="#000000" fill-rule="nonzero" fill-opacity="1" /><path clip-path="url(#clip540)" d="M2234.34 188.143 L2238.86 188.143 L2246.96 209.902 L2255.06 188.143 L2259.58 188.143 L2249.85 214.069 L2244.07 214.069 L2234.34 188.143 Z" fill="#000000" fill-rule="nonzero" fill-opacity="1" /></svg>
