<?xml version="1.0" encoding="utf-8"?>
<svg xmlns="http://www.w3.org/2000/svg" xmlns:xlink="http://www.w3.org/1999/xlink" width="600" height="400" viewBox="0 0 2400 1600">
<defs>
  <clipPath id="clip300">
    <rect x="0" y="0" width="2400" height="1600"/>
  </clipPath>
</defs>
<path clip-path="url(#clip300)" d="M0 1600 L2400 1600 L2400 0 L0 0  Z" fill="#ffffff" fill-rule="evenodd" fill-opacity="1"/>
<defs>
  <clipPath id="clip301">
    <rect x="256" y="47" width="2098" height="1377"/>
  </clipPath>
</defs>
<path clip-path="url(#clip300)" d="M256.209 1423.18 L2352.76 1423.18 L2352.76 47.2441 L256.209 47.2441  Z" fill="#ffffff" fill-rule="evenodd" fill-opacity="1"/>
<polyline clip-path="url(#clip301)" style="stroke:#000000; stroke-linecap:round; stroke-linejoin:round; stroke-width:2; stroke-opacity:0.1; fill:none" points="256.209,1423.18 256.209,47.2441 "/>
<polyline clip-path="url(#clip301)" style="stroke:#000000; stroke-linecap:round; stroke-linejoin:round; stroke-width:2; stroke-opacity:0.1; fill:none" points="675.518,1423.18 675.518,47.2441 "/>
<polyline clip-path="url(#clip301)" style="stroke:#000000; stroke-linecap:round; stroke-linejoin:round; stroke-width:2; stroke-opacity:0.1; fill:none" points="1094.83,1423.18 1094.83,47.2441 "/>
<polyline clip-path="url(#clip301)" style="stroke:#000000; stroke-linecap:round; stroke-linejoin:round; stroke-width:2; stroke-opacity:0.1; fill:none" points="1514.14,1423.18 1514.14,47.2441 "/>
<polyline clip-path="url(#clip301)" style="stroke:#000000; stroke-linecap:round; stroke-linejoin:round; stroke-width:2; stroke-opacity:0.1; fill:none" points="1933.45,1423.18 1933.45,47.2441 "/>
<polyline clip-path="url(#clip301)" style="stroke:#000000; stroke-linecap:round; stroke-linejoin:round; stroke-width:2; stroke-opacity:0.1; fill:none" points="2352.76,1423.18 2352.76,47.2441 "/>
<polyline clip-path="url(#clip301)" style="stroke:#000000; stroke-linecap:round; stroke-linejoin:round; stroke-width:2; stroke-opacity:0.1; fill:none" points="256.209,1231.96 2352.76,1231.96 "/>
<polyline clip-path="url(#clip301)" style="stroke:#000000; stroke-linecap:round; stroke-linejoin:round; stroke-width:2; stroke-opacity:0.1; fill:none" points="256.209,850.035 2352.76,850.035 "/>
<polyline clip-path="url(#clip301)" style="stroke:#000000; stroke-linecap:round; stroke-linejoin:round; stroke-width:2; stroke-opacity:0.1; fill:none" points="256.209,468.111 2352.76,468.111 "/>
<polyline clip-path="url(#clip301)" style="stroke:#000000; stroke-linecap:round; stroke-linejoin:round; stroke-width:2; stroke-opacity:0.1; fill:none" points="256.209,86.1857 2352.76,86.1857 "/>
<polyline clip-path="url(#clip300)" style="stroke:#000000; stroke-linecap:round; stroke-linejoin:round; stroke-width:4; stroke-opacity:1; fill:none" points="256.209,1423.18 2352.76,1423.18 "/>
<polyline clip-path="url(#clip300)" style="stroke:#000000; stroke-linecap:round; stroke-linejoin:round; stroke-width:4; stroke-opacity:1; fill:none" points="256.209,1423.18 256.209,1404.28 "/>
<polyline clip-path="url(#clip300)" style="stroke:#000000; stroke-linecap:round; stroke-linejoin:round; stroke-width:4; stroke-opacity:1; fill:none" points="675.518,1423.18 675.518,1404.28 "/>
<polyline clip-path="url(#clip300)" style="stroke:#000000; stroke-linecap:round; stroke-linejoin:round; stroke-width:4; stroke-opacity:1; fill:none" points="1094.83,1423.18 1094.83,1404.28 "/>
<polyline clip-path="url(#clip300)" style="stroke:#000000; stroke-linecap:round; stroke-linejoin:round; stroke-width:4; stroke-opacity:1; fill:none" points="1514.14,1423.18 1514.14,1404.28 "/>
<polyline clip-path="url(#clip300)" style="stroke:#000000; stroke-linecap:round; stroke-linejoin:round; stroke-width:4; stroke-opacity:1; fill:none" points="1933.45,1423.18 1933.45,1404.28 "/>
<polyline clip-path="url(#clip300)" style="stroke:#000000; stroke-linecap:round; stroke-linejoin:round; stroke-width:4; stroke-opacity:1; fill:none" points="2352.76,1423.18 2352.76,1404.28 "/>
<path clip-path="url(#clip300)" d="M256.209 1454.1 Q252.598 1454.1 250.769 1457.66 Q248.963 1461.2 248.963 1468.33 Q248.963 1475.44 250.769 1479.01 Q252.598 1482.55 256.209 1482.55 Q259.843 1482.55 261.648 1479.01 Q263.477 1475.44 263.477 1468.33 Q263.477 1461.2 261.648 1457.66 Q259.843 1454.1 256.209 1454.1 M256.209 1450.39 Q262.019 1450.39 265.074 1455 Q268.153 1459.58 268.153 1468.33 Q268.153 1477.06 265.074 1481.67 Q262.019 1486.25 256.209 1486.25 Q250.399 1486.25 247.32 1481.67 Q244.264 1477.06 244.264 1468.33 Q244.264 1459.58 247.32 1455 Q250.399 1450.39 256.209 1450.39 Z" fill="#000000" fill-rule="nonzero" fill-opacity="1" /><path clip-path="url(#clip300)" d="M670.171 1481.64 L686.49 1481.64 L686.49 1485.58 L664.546 1485.58 L664.546 1481.64 Q667.208 1478.89 671.791 1474.26 Q676.398 1469.61 677.578 1468.27 Q679.824 1465.74 680.703 1464.01 Q681.606 1462.25 681.606 1460.56 Q681.606 1457.8 679.662 1456.07 Q677.74 1454.33 674.638 1454.33 Q672.439 1454.33 669.986 1455.09 Q667.555 1455.86 664.777 1457.41 L664.777 1452.69 Q667.601 1451.55 670.055 1450.97 Q672.509 1450.39 674.546 1450.39 Q679.916 1450.39 683.111 1453.08 Q686.305 1455.77 686.305 1460.26 Q686.305 1462.39 685.495 1464.31 Q684.708 1466.2 682.601 1468.8 Q682.023 1469.47 678.921 1472.69 Q675.819 1475.88 670.171 1481.64 Z" fill="#000000" fill-rule="nonzero" fill-opacity="1" /><path clip-path="url(#clip300)" d="M1097.84 1455.09 L1086.03 1473.54 L1097.84 1473.54 L1097.84 1455.09 M1096.61 1451.02 L1102.49 1451.02 L1102.49 1473.54 L1107.42 1473.54 L1107.42 1477.43 L1102.49 1477.43 L1102.49 1485.58 L1097.84 1485.58 L1097.84 1477.43 L1082.24 1477.43 L1082.24 1472.92 L1096.61 1451.02 Z" fill="#000000" fill-rule="nonzero" fill-opacity="1" /><path clip-path="url(#clip300)" d="M1514.54 1466.44 Q1511.39 1466.44 1509.54 1468.59 Q1507.71 1470.74 1507.71 1474.49 Q1507.71 1478.22 1509.54 1480.39 Q1511.39 1482.55 1514.54 1482.55 Q1517.69 1482.55 1519.52 1480.39 Q1521.37 1478.22 1521.37 1474.49 Q1521.37 1470.74 1519.52 1468.59 Q1517.69 1466.44 1514.54 1466.44 M1523.82 1451.78 L1523.82 1456.04 Q1522.07 1455.21 1520.26 1454.77 Q1518.48 1454.33 1516.72 1454.33 Q1512.09 1454.33 1509.63 1457.45 Q1507.2 1460.58 1506.86 1466.9 Q1508.22 1464.89 1510.28 1463.82 Q1512.34 1462.73 1514.82 1462.73 Q1520.03 1462.73 1523.04 1465.9 Q1526.07 1469.05 1526.07 1474.49 Q1526.07 1479.82 1522.92 1483.03 Q1519.77 1486.25 1514.54 1486.25 Q1508.55 1486.25 1505.38 1481.67 Q1502.2 1477.06 1502.2 1468.33 Q1502.2 1460.14 1506.09 1455.28 Q1509.98 1450.39 1516.53 1450.39 Q1518.29 1450.39 1520.07 1450.74 Q1521.88 1451.09 1523.82 1451.78 Z" fill="#000000" fill-rule="nonzero" fill-opacity="1" /><path clip-path="url(#clip300)" d="M1933.45 1469.17 Q1930.11 1469.17 1928.19 1470.95 Q1926.29 1472.73 1926.29 1475.86 Q1926.29 1478.98 1928.19 1480.77 Q1930.11 1482.55 1933.45 1482.55 Q1936.78 1482.55 1938.7 1480.77 Q1940.62 1478.96 1940.62 1475.86 Q1940.62 1472.73 1938.7 1470.95 Q1936.8 1469.17 1933.45 1469.17 M1928.77 1467.18 Q1925.76 1466.44 1924.07 1464.38 Q1922.4 1462.32 1922.4 1459.35 Q1922.4 1455.21 1925.34 1452.8 Q1928.31 1450.39 1933.45 1450.39 Q1938.61 1450.39 1941.55 1452.8 Q1944.49 1455.21 1944.49 1459.35 Q1944.49 1462.32 1942.8 1464.38 Q1941.13 1466.44 1938.15 1467.18 Q1941.53 1467.96 1943.4 1470.26 Q1945.3 1472.55 1945.3 1475.86 Q1945.3 1480.88 1942.22 1483.57 Q1939.16 1486.25 1933.45 1486.25 Q1927.73 1486.25 1924.65 1483.57 Q1921.59 1480.88 1921.59 1475.86 Q1921.59 1472.55 1923.49 1470.26 Q1925.39 1467.96 1928.77 1467.18 M1927.06 1459.79 Q1927.06 1462.48 1928.72 1463.98 Q1930.41 1465.49 1933.45 1465.49 Q1936.46 1465.49 1938.15 1463.98 Q1939.86 1462.48 1939.86 1459.79 Q1939.86 1457.11 1938.15 1455.6 Q1936.46 1454.1 1933.45 1454.1 Q1930.41 1454.1 1928.72 1455.6 Q1927.06 1457.11 1927.06 1459.79 Z" fill="#000000" fill-rule="nonzero" fill-opacity="1" /><path clip-path="url(#clip300)" d="M2327.44 1481.64 L2335.08 1481.64 L2335.08 1455.28 L2326.77 1456.95 L2326.77 1452.69 L2335.04 1451.02 L2339.71 1451.02 L2339.71 1481.64 L2347.35 1481.64 L2347.35 1485.58 L2327.44 1485.58 L2327.44 1481.64 Z" fill="#000000" fill-rule="nonzero" fill-opacity="1" /><path clip-path="url(#clip300)" d="M2366.8 1454.1 Q2363.18 1454.1 2361.36 1457.66 Q2359.55 1461.2 2359.55 1468.33 Q2359.55 1475.44 2361.36 1479.01 Q2363.18 1482.55 2366.8 1482.55 Q2370.43 1482.55 2372.23 1479.01 Q2374.06 1475.44 2374.06 1468.33 Q2374.06 1461.2 2372.23 1457.66 Q2370.43 1454.1 2366.8 1454.1 M2366.8 1450.39 Q2372.61 1450.39 2375.66 1455 Q2378.74 1459.58 2378.74 1468.33 Q2378.74 1477.06 2375.66 1481.67 Q2372.61 1486.25 2366.8 1486.25 Q2360.99 1486.25 2357.91 1481.67 Q2354.85 1477.06 2354.85 1468.33 Q2354.85 1459.58 2357.91 1455 Q2360.99 1450.39 2366.8 1450.39 Z" fill="#000000" fill-rule="nonzero" fill-opacity="1" /><path clip-path="url(#clip300)" d="M1303.54 1522.27 L1303.54 1532.4 L1315.61 1532.4 L1315.61 1536.95 L1303.54 1536.95 L1303.54 1556.3 Q1303.54 1560.66 1304.72 1561.9 Q1305.93 1563.14 1309.59 1563.14 L1315.61 1563.14 L1315.61 1568.04 L1309.59 1568.04 Q1302.81 1568.04 1300.23 1565.53 Q1297.66 1562.98 1297.66 1556.3 L1297.66 1536.95 L1293.36 1536.95 L1293.36 1532.4 L1297.66 1532.4 L1297.66 1522.27 L1303.54 1522.27 Z" fill="#000000" fill-rule="nonzero" fill-opacity="1" /><polyline clip-path="url(#clip300)" style="stroke:#000000; stroke-linecap:round; stroke-linejoin:round; stroke-width:4; stroke-opacity:1; fill:none" points="256.209,1423.18 256.209,47.2441 "/>
<polyline clip-path="url(#clip300)" style="stroke:#000000; stroke-linecap:round; stroke-linejoin:round; stroke-width:4; stroke-opacity:1; fill:none" points="256.209,1231.96 275.106,1231.96 "/>
<polyline clip-path="url(#clip300)" style="stroke:#000000; stroke-linecap:round; stroke-linejoin:round; stroke-width:4; stroke-opacity:1; fill:none" points="256.209,850.035 275.106,850.035 "/>
<polyline clip-path="url(#clip300)" style="stroke:#000000; stroke-linecap:round; stroke-linejoin:round; stroke-width:4; stroke-opacity:1; fill:none" points="256.209,468.111 275.106,468.111 "/>
<polyline clip-path="url(#clip300)" style="stroke:#000000; stroke-linecap:round; stroke-linejoin:round; stroke-width:4; stroke-opacity:1; fill:none" points="256.209,86.1857 275.106,86.1857 "/>
<path clip-path="url(#clip300)" d="M114.26 1232.41 L143.936 1232.41 L143.936 1236.35 L114.26 1236.35 L114.26 1232.41 Z" fill="#000000" fill-rule="nonzero" fill-opacity="1" /><path clip-path="url(#clip300)" d="M164.028 1217.76 Q160.417 1217.76 158.589 1221.32 Q156.783 1224.87 156.783 1232 Q156.783 1239.1 158.589 1242.67 Q160.417 1246.21 164.028 1246.21 Q167.663 1246.21 169.468 1242.67 Q171.297 1239.1 171.297 1232 Q171.297 1224.87 169.468 1221.32 Q167.663 1217.76 164.028 1217.76 M164.028 1214.06 Q169.839 1214.06 172.894 1218.66 Q175.973 1223.25 175.973 1232 Q175.973 1240.72 172.894 1245.33 Q169.839 1249.91 164.028 1249.91 Q158.218 1249.91 155.14 1245.33 Q152.084 1240.72 152.084 1232 Q152.084 1223.25 155.14 1218.66 Q158.218 1214.06 164.028 1214.06 Z" fill="#000000" fill-rule="nonzero" fill-opacity="1" /><path clip-path="url(#clip300)" d="M184.19 1243.36 L189.075 1243.36 L189.075 1249.24 L184.19 1249.24 L184.19 1243.36 Z" fill="#000000" fill-rule="nonzero" fill-opacity="1" /><path clip-path="url(#clip300)" d="M199.306 1214.68 L217.662 1214.68 L217.662 1218.62 L203.588 1218.62 L203.588 1227.09 Q204.607 1226.74 205.625 1226.58 Q206.644 1226.39 207.662 1226.39 Q213.449 1226.39 216.829 1229.56 Q220.209 1232.74 220.209 1238.15 Q220.209 1243.73 216.736 1246.83 Q213.264 1249.91 206.945 1249.91 Q204.769 1249.91 202.5 1249.54 Q200.255 1249.17 197.848 1248.43 L197.848 1243.73 Q199.931 1244.87 202.153 1245.42 Q204.375 1245.98 206.852 1245.98 Q210.857 1245.98 213.195 1243.87 Q215.533 1241.76 215.533 1238.15 Q215.533 1234.54 213.195 1232.43 Q210.857 1230.33 206.852 1230.33 Q204.977 1230.33 203.102 1230.75 Q201.25 1231.16 199.306 1232.04 L199.306 1214.68 Z" fill="#000000" fill-rule="nonzero" fill-opacity="1" /><path clip-path="url(#clip300)" d="M163.033 835.834 Q159.422 835.834 157.593 839.399 Q155.788 842.941 155.788 850.07 Q155.788 857.177 157.593 860.741 Q159.422 864.283 163.033 864.283 Q166.667 864.283 168.473 860.741 Q170.302 857.177 170.302 850.07 Q170.302 842.941 168.473 839.399 Q166.667 835.834 163.033 835.834 M163.033 832.13 Q168.843 832.13 171.899 836.737 Q174.977 841.32 174.977 850.07 Q174.977 858.797 171.899 863.403 Q168.843 867.987 163.033 867.987 Q157.223 867.987 154.144 863.403 Q151.089 858.797 151.089 850.07 Q151.089 841.32 154.144 836.737 Q157.223 832.13 163.033 832.13 Z" fill="#000000" fill-rule="nonzero" fill-opacity="1" /><path clip-path="url(#clip300)" d="M183.195 861.436 L188.079 861.436 L188.079 867.315 L183.195 867.315 L183.195 861.436 Z" fill="#000000" fill-rule="nonzero" fill-opacity="1" /><path clip-path="url(#clip300)" d="M208.264 835.834 Q204.653 835.834 202.824 839.399 Q201.019 842.941 201.019 850.07 Q201.019 857.177 202.824 860.741 Q204.653 864.283 208.264 864.283 Q211.899 864.283 213.704 860.741 Q215.533 857.177 215.533 850.07 Q215.533 842.941 213.704 839.399 Q211.899 835.834 208.264 835.834 M208.264 832.13 Q214.074 832.13 217.13 836.737 Q220.209 841.32 220.209 850.07 Q220.209 858.797 217.13 863.403 Q214.074 867.987 208.264 867.987 Q202.454 867.987 199.375 863.403 Q196.32 858.797 196.32 850.07 Q196.32 841.32 199.375 836.737 Q202.454 832.13 208.264 832.13 Z" fill="#000000" fill-rule="nonzero" fill-opacity="1" /><path clip-path="url(#clip300)" d="M164.028 453.909 Q160.417 453.909 158.589 457.474 Q156.783 461.016 156.783 468.145 Q156.783 475.252 158.589 478.817 Q160.417 482.358 164.028 482.358 Q167.663 482.358 169.468 478.817 Q171.297 475.252 171.297 468.145 Q171.297 461.016 169.468 457.474 Q167.663 453.909 164.028 453.909 M164.028 450.206 Q169.839 450.206 172.894 454.812 Q175.973 459.395 175.973 468.145 Q175.973 476.872 172.894 481.479 Q169.839 486.062 164.028 486.062 Q158.218 486.062 155.14 481.479 Q152.084 476.872 152.084 468.145 Q152.084 459.395 155.14 454.812 Q158.218 450.206 164.028 450.206 Z" fill="#000000" fill-rule="nonzero" fill-opacity="1" /><path clip-path="url(#clip300)" d="M184.19 479.511 L189.075 479.511 L189.075 485.391 L184.19 485.391 L184.19 479.511 Z" fill="#000000" fill-rule="nonzero" fill-opacity="1" /><path clip-path="url(#clip300)" d="M199.306 450.831 L217.662 450.831 L217.662 454.766 L203.588 454.766 L203.588 463.238 Q204.607 462.891 205.625 462.729 Q206.644 462.543 207.662 462.543 Q213.449 462.543 216.829 465.715 Q220.209 468.886 220.209 474.303 Q220.209 479.881 216.736 482.983 Q213.264 486.062 206.945 486.062 Q204.769 486.062 202.5 485.691 Q200.255 485.321 197.848 484.58 L197.848 479.881 Q199.931 481.016 202.153 481.571 Q204.375 482.127 206.852 482.127 Q210.857 482.127 213.195 480.02 Q215.533 477.914 215.533 474.303 Q215.533 470.692 213.195 468.585 Q210.857 466.479 206.852 466.479 Q204.977 466.479 203.102 466.895 Q201.25 467.312 199.306 468.192 L199.306 450.831 Z" fill="#000000" fill-rule="nonzero" fill-opacity="1" /><path clip-path="url(#clip300)" d="M153.843 99.5305 L161.482 99.5305 L161.482 73.1649 L153.172 74.8316 L153.172 70.5723 L161.436 68.9057 L166.112 68.9057 L166.112 99.5305 L173.751 99.5305 L173.751 103.466 L153.843 103.466 L153.843 99.5305 Z" fill="#000000" fill-rule="nonzero" fill-opacity="1" /><path clip-path="url(#clip300)" d="M183.195 97.5861 L188.079 97.5861 L188.079 103.466 L183.195 103.466 L183.195 97.5861 Z" fill="#000000" fill-rule="nonzero" fill-opacity="1" /><path clip-path="url(#clip300)" d="M208.264 71.9844 Q204.653 71.9844 202.824 75.5492 Q201.019 79.0908 201.019 86.2204 Q201.019 93.3268 202.824 96.8916 Q204.653 100.433 208.264 100.433 Q211.899 100.433 213.704 96.8916 Q215.533 93.3268 215.533 86.2204 Q215.533 79.0908 213.704 75.5492 Q211.899 71.9844 208.264 71.9844 M208.264 68.2807 Q214.074 68.2807 217.13 72.8871 Q220.209 77.4704 220.209 86.2204 Q220.209 94.9472 217.13 99.5537 Q214.074 104.137 208.264 104.137 Q202.454 104.137 199.375 99.5537 Q196.32 94.9472 196.32 86.2204 Q196.32 77.4704 199.375 72.8871 Q202.454 68.2807 208.264 68.2807 Z" fill="#000000" fill-rule="nonzero" fill-opacity="1" /><path clip-path="url(#clip300)" d="M35.1993 1020.4 Q31.2526 1018.2 29.3747 1015.14 Q27.4968 1012.09 27.4968 1007.95 Q27.4968 1002.38 31.4117 999.357 Q35.2948 996.333 42.4881 996.333 L64.0042 996.333 L64.0042 1002.22 L42.679 1002.22 Q37.5546 1002.22 35.072 1004.04 Q32.5894 1005.85 32.5894 1009.57 Q32.5894 1014.13 35.6131 1016.77 Q38.6368 1019.41 43.8567 1019.41 L64.0042 1019.41 L64.0042 1025.3 L42.679 1025.3 Q37.5228 1025.3 35.072 1027.11 Q32.5894 1028.93 32.5894 1032.71 Q32.5894 1037.2 35.6449 1039.84 Q38.6686 1042.48 43.8567 1042.48 L64.0042 1042.48 L64.0042 1048.37 L28.3562 1048.37 L28.3562 1042.48 L33.8944 1042.48 Q30.616 1040.48 29.0564 1037.68 Q27.4968 1034.88 27.4968 1031.03 Q27.4968 1027.14 29.4702 1024.44 Q31.4436 1021.7 35.1993 1020.4 Z" fill="#000000" fill-rule="nonzero" fill-opacity="1" /><path clip-path="url(#clip300)" d="M46.0847 968.451 Q46.0847 975.549 47.7079 978.286 Q49.3312 981.024 53.2461 981.024 Q56.3653 981.024 58.2114 978.987 Q60.0256 976.918 60.0256 973.385 Q60.0256 968.515 56.5881 965.587 Q53.1188 962.627 47.3897 962.627 L46.0847 962.627 L46.0847 968.451 M43.6657 956.77 L64.0042 956.77 L64.0042 962.627 L58.5933 962.627 Q61.8398 964.632 63.3994 967.624 Q64.9272 970.616 64.9272 974.944 Q64.9272 980.419 61.8716 983.665 Q58.7843 986.88 53.6281 986.88 Q47.6125 986.88 44.5569 982.87 Q41.5014 978.828 41.5014 970.839 L41.5014 962.627 L40.9285 962.627 Q36.8862 962.627 34.6901 965.3 Q32.4621 967.942 32.4621 972.748 Q32.4621 975.804 33.1941 978.7 Q33.9262 981.597 35.3903 984.27 L29.9795 984.27 Q28.7381 981.056 28.1334 978.032 Q27.4968 975.008 27.4968 972.144 Q27.4968 964.409 31.5072 960.59 Q35.5176 956.77 43.6657 956.77 Z" fill="#000000" fill-rule="nonzero" fill-opacity="1" /><path clip-path="url(#clip300)" d="M29.4065 921.982 L34.9447 921.982 Q33.6716 924.464 33.035 927.138 Q32.3984 929.812 32.3984 932.676 Q32.3984 937.037 33.7352 939.233 Q35.072 941.397 37.7456 941.397 Q39.7826 941.397 40.9603 939.838 Q42.1061 938.278 43.1565 933.567 L43.6021 931.562 Q44.9389 925.324 47.3897 922.714 Q49.8086 920.072 54.1691 920.072 Q59.1344 920.072 62.0308 924.019 Q64.9272 927.934 64.9272 934.809 Q64.9272 937.673 64.3543 940.792 Q63.8132 943.88 62.6992 947.317 L56.6518 947.317 Q58.3387 944.071 59.198 940.92 Q60.0256 937.769 60.0256 934.681 Q60.0256 930.544 58.6251 928.316 Q57.1929 926.088 54.6147 926.088 Q52.2276 926.088 50.9545 927.711 Q49.6813 929.302 48.5037 934.745 L48.0262 936.782 Q46.8804 942.225 44.5251 944.644 Q42.138 947.063 38.0002 947.063 Q32.9713 947.063 30.2341 943.498 Q27.4968 939.933 27.4968 933.376 Q27.4968 930.13 27.9743 927.265 Q28.4517 924.401 29.4065 921.982 Z" fill="#000000" fill-rule="nonzero" fill-opacity="1" /><path clip-path="url(#clip300)" d="M29.4065 888.021 L34.9447 888.021 Q33.6716 890.503 33.035 893.177 Q32.3984 895.851 32.3984 898.715 Q32.3984 903.076 33.7352 905.272 Q35.072 907.436 37.7456 907.436 Q39.7826 907.436 40.9603 905.877 Q42.1061 904.317 43.1565 899.606 L43.6021 897.601 Q44.9389 891.363 47.3897 888.753 Q49.8086 886.111 54.1691 886.111 Q59.1344 886.111 62.0308 890.058 Q64.9272 893.973 64.9272 900.848 Q64.9272 903.712 64.3543 906.831 Q63.8132 909.919 62.6992 913.356 L56.6518 913.356 Q58.3387 910.11 59.198 906.959 Q60.0256 903.808 60.0256 900.72 Q60.0256 896.583 58.6251 894.355 Q57.1929 892.127 54.6147 892.127 Q52.2276 892.127 50.9545 893.75 Q49.6813 895.341 48.5037 900.784 L48.0262 902.821 Q46.8804 908.264 44.5251 910.683 Q42.138 913.102 38.0002 913.102 Q32.9713 913.102 30.2341 909.537 Q27.4968 905.972 27.4968 899.415 Q27.4968 896.169 27.9743 893.304 Q28.4517 890.44 29.4065 888.021 Z" fill="#000000" fill-rule="nonzero" fill-opacity="1" /><path clip-path="url(#clip300)" d="M28.3562 860.266 L28.3562 854.06 L58.275 842.92 L28.3562 831.78 L28.3562 825.573 L64.0042 838.941 L64.0042 846.898 L28.3562 860.266 Z" fill="#000000" fill-rule="nonzero" fill-opacity="1" /><path clip-path="url(#clip300)" d="M44.7161 786.997 L47.5806 786.997 L47.5806 813.924 Q53.6281 813.542 56.8109 810.295 Q59.9619 807.017 59.9619 801.193 Q59.9619 797.819 59.1344 794.668 Q58.3069 791.485 56.6518 788.366 L62.1899 788.366 Q63.5267 791.517 64.227 794.827 Q64.9272 798.137 64.9272 801.543 Q64.9272 810.073 59.9619 815.07 Q54.9967 820.035 46.5303 820.035 Q37.7774 820.035 32.6531 815.324 Q27.4968 810.582 27.4968 802.561 Q27.4968 795.368 32.1438 791.198 Q36.7589 786.997 44.7161 786.997 M42.9973 792.853 Q38.1912 792.917 35.3266 795.559 Q32.4621 798.169 32.4621 802.497 Q32.4621 807.399 35.2312 810.359 Q38.0002 813.287 43.0292 813.733 L42.9973 792.853 Z" fill="#000000" fill-rule="nonzero" fill-opacity="1" /><path clip-path="url(#clip300)" d="M14.479 777.385 L14.479 771.528 L64.0042 771.528 L64.0042 777.385 L14.479 777.385 Z" fill="#000000" fill-rule="nonzero" fill-opacity="1" /><path clip-path="url(#clip300)" d="M32.4621 745.461 Q32.4621 750.171 36.1542 752.909 Q39.8145 755.646 46.212 755.646 Q52.6095 755.646 56.3017 752.94 Q59.9619 750.203 59.9619 745.461 Q59.9619 740.782 56.2698 738.045 Q52.5777 735.307 46.212 735.307 Q39.8781 735.307 36.186 738.045 Q32.4621 740.782 32.4621 745.461 M27.4968 745.461 Q27.4968 737.822 32.4621 733.461 Q37.4273 729.101 46.212 729.101 Q54.9649 729.101 59.9619 733.461 Q64.9272 737.822 64.9272 745.461 Q64.9272 753.131 59.9619 757.492 Q54.9649 761.821 46.212 761.821 Q37.4273 761.821 32.4621 757.492 Q27.4968 753.131 27.4968 745.461 Z" fill="#000000" fill-rule="nonzero" fill-opacity="1" /><path clip-path="url(#clip300)" d="M29.7248 693.739 L35.1993 693.739 Q33.8307 696.222 33.1623 698.736 Q32.4621 701.219 32.4621 703.765 Q32.4621 709.463 36.0905 712.614 Q39.6872 715.765 46.212 715.765 Q52.7369 715.765 56.3653 712.614 Q59.9619 709.463 59.9619 703.765 Q59.9619 701.219 59.2935 698.736 Q58.5933 696.222 57.2247 693.739 L62.6355 693.739 Q63.7814 696.19 64.3543 698.832 Q64.9272 701.442 64.9272 704.402 Q64.9272 712.455 59.8664 717.197 Q54.8057 721.939 46.212 721.939 Q37.491 721.939 32.4939 717.165 Q27.4968 712.359 27.4968 704.02 Q27.4968 701.315 28.0697 698.736 Q28.6108 696.158 29.7248 693.739 Z" fill="#000000" fill-rule="nonzero" fill-opacity="1" /><path clip-path="url(#clip300)" d="M28.3562 683.554 L28.3562 677.698 L64.0042 677.698 L64.0042 683.554 L28.3562 683.554 M14.479 683.554 L14.479 677.698 L21.895 677.698 L21.895 683.554 L14.479 683.554 Z" fill="#000000" fill-rule="nonzero" fill-opacity="1" /><path clip-path="url(#clip300)" d="M18.2347 659.651 L28.3562 659.651 L28.3562 647.588 L32.9077 647.588 L32.9077 659.651 L52.2594 659.651 Q56.6199 659.651 57.8613 658.473 Q59.1026 657.264 59.1026 653.604 L59.1026 647.588 L64.0042 647.588 L64.0042 653.604 Q64.0042 660.383 61.4897 662.961 Q58.9434 665.539 52.2594 665.539 L32.9077 665.539 L32.9077 669.836 L28.3562 669.836 L28.3562 665.539 L18.2347 665.539 L18.2347 659.651 Z" fill="#000000" fill-rule="nonzero" fill-opacity="1" /><path clip-path="url(#clip300)" d="M67.3143 625.053 Q73.68 627.536 75.6216 629.891 Q77.5631 632.247 77.5631 636.193 L77.5631 640.872 L72.6615 640.872 L72.6615 637.435 Q72.6615 635.016 71.5157 633.679 Q70.3699 632.342 66.1048 630.719 L63.4312 629.669 L28.3562 644.087 L28.3562 637.88 L56.238 626.74 L28.3562 615.6 L28.3562 609.394 L67.3143 625.053 Z" fill="#000000" fill-rule="nonzero" fill-opacity="1" /><path clip-path="url(#clip300)" d="M14.479 581.13 L14.479 567.635 L19.0304 567.635 L19.0304 575.274 L68.0464 575.274 L68.0464 567.635 L72.5979 567.635 L72.5979 581.13 L14.479 581.13 Z" fill="#000000" fill-rule="nonzero" fill-opacity="1" /><path clip-path="url(#clip300)" d="M35.1993 527.403 Q31.2526 525.207 29.3747 522.152 Q27.4968 519.096 27.4968 514.959 Q27.4968 509.389 31.4117 506.365 Q35.2948 503.341 42.4881 503.341 L64.0042 503.341 L64.0042 509.229 L42.679 509.229 Q37.5546 509.229 35.072 511.044 Q32.5894 512.858 32.5894 516.582 Q32.5894 521.133 35.6131 523.775 Q38.6368 526.417 43.8567 526.417 L64.0042 526.417 L64.0042 532.305 L42.679 532.305 Q37.5228 532.305 35.072 534.119 Q32.5894 535.934 32.5894 539.721 Q32.5894 544.209 35.6449 546.851 Q38.6686 549.492 43.8567 549.492 L64.0042 549.492 L64.0042 555.381 L28.3562 555.381 L28.3562 549.492 L33.8944 549.492 Q30.616 547.487 29.0564 544.686 Q27.4968 541.885 27.4968 538.034 Q27.4968 534.151 29.4702 531.446 Q31.4436 528.708 35.1993 527.403 Z" fill="#000000" fill-rule="nonzero" fill-opacity="1" /><path clip-path="url(#clip300)" d="M16.4842 481.252 L16.4842 475.841 L70.0516 492.392 L70.0516 497.803 L16.4842 481.252 Z" fill="#000000" fill-rule="nonzero" fill-opacity="1" /><path clip-path="url(#clip300)" d="M29.4065 446.973 L34.9447 446.973 Q33.6716 449.455 33.035 452.129 Q32.3984 454.803 32.3984 457.667 Q32.3984 462.028 33.7352 464.224 Q35.072 466.388 37.7456 466.388 Q39.7826 466.388 40.9603 464.829 Q42.1061 463.269 43.1565 458.558 L43.6021 456.553 Q44.9389 450.315 47.3897 447.705 Q49.8086 445.063 54.1691 445.063 Q59.1344 445.063 62.0308 449.01 Q64.9272 452.925 64.9272 459.8 Q64.9272 462.664 64.3543 465.783 Q63.8132 468.871 62.6992 472.308 L56.6518 472.308 Q58.3387 469.062 59.198 465.911 Q60.0256 462.76 60.0256 459.672 Q60.0256 455.535 58.6251 453.307 Q57.1929 451.079 54.6147 451.079 Q52.2276 451.079 50.9545 452.702 Q49.6813 454.293 48.5037 459.736 L48.0262 461.773 Q46.8804 467.216 44.5251 469.635 Q42.138 472.054 38.0002 472.054 Q32.9713 472.054 30.2341 468.489 Q27.4968 464.924 27.4968 458.367 Q27.4968 455.121 27.9743 452.256 Q28.4517 449.392 29.4065 446.973 Z" fill="#000000" fill-rule="nonzero" fill-opacity="1" /><path clip-path="url(#clip300)" d="M14.479 422.051 L72.5979 422.051 L72.5979 435.546 L68.0464 435.546 L68.0464 427.939 L19.0304 427.939 L19.0304 435.546 L14.479 435.546 L14.479 422.051 Z" fill="#000000" fill-rule="nonzero" fill-opacity="1" /><polyline clip-path="url(#clip301)" style="stroke:#009af9; stroke-linecap:round; stroke-linejoin:round; stroke-width:4; stroke-opacity:1; fill:none" points="256.209,86.1857 258.307,101.44 260.406,116.616 262.505,131.715 264.603,146.735 266.702,161.675 268.801,176.535 270.899,191.314 272.998,206.012 275.096,220.628 277.195,235.16 279.294,249.61 281.392,263.975 283.491,278.255 285.59,292.451 287.688,306.56 289.787,320.584 291.886,334.52 293.984,348.369 296.083,362.13 298.182,375.802 300.28,389.386 302.379,402.88 304.478,416.285 306.576,429.599 308.675,442.823 310.773,455.955 312.872,468.996 314.971,481.945 317.069,494.802 319.168,507.566 321.267,520.237 323.365,532.815 325.464,545.299 327.563,557.689 329.661,569.985 331.76,582.187 333.859,594.293 335.957,606.305 338.056,618.221 340.154,630.041 342.253,641.766 344.352,653.395 346.45,664.927 348.549,676.363 350.648,687.703 352.746,698.946 354.845,710.092 356.944,721.14 359.042,732.092 361.141,742.946 363.24,753.703 365.338,764.362 367.437,774.924 369.536,785.388 371.634,795.754 373.733,806.023 375.831,816.193 377.93,826.266 380.029,836.24 382.127,846.117 384.226,855.896 386.325,865.576 388.423,875.159 390.522,884.644 392.621,894.031 394.719,903.319 396.818,912.511 398.917,921.604 401.015,930.6 403.114,939.498 405.213,948.298 407.311,957.001 409.41,965.607 411.508,974.115 413.607,982.527 415.706,990.841 417.804,999.058 419.903,1007.18 422.002,1015.2 424.1,1023.13 426.199,1030.96 428.298,1038.7 430.396,1046.34 432.495,1053.88 434.594,1061.33 436.692,1068.68 438.791,1075.94 440.89,1083.11 442.988,1090.17 445.087,1097.15 447.185,1104.03 449.284,1110.82 451.383,1117.51 453.481,1124.11 455.58,1130.62 457.679,1137.03 459.777,1143.35 461.876,1149.58 463.975,1155.72 466.073,1161.76 468.172,1167.72 470.271,1173.58 472.369,1179.35 474.468,1185.04 476.566,1190.63 478.665,1196.13 480.764,1201.54 482.862,1206.87 484.961,1212.1 487.06,1217.25 489.158,1222.31 491.257,1227.28 493.356,1232.17 495.454,1236.97 497.553,1241.68 499.652,1246.3 501.75,1250.85 503.849,1255.3 505.948,1259.67 508.046,1263.96 510.145,1268.16 512.243,1272.28 514.342,1276.31 516.441,1280.27 518.539,1284.14 520.638,1287.92 522.737,1291.63 524.835,1295.26 526.934,1298.8 529.033,1302.27 531.131,1305.66 533.23,1308.96 535.329,1312.19 537.427,1315.34 539.526,1318.41 541.625,1321.41 543.723,1324.33 545.822,1327.17 547.92,1329.93 550.019,1332.62 552.118,1335.24 554.216,1337.78 556.315,1340.25 558.414,1342.64 560.512,1344.96 562.611,1347.21 564.71,1349.39 566.808,1351.49 568.907,1353.53 571.006,1355.49 573.104,1357.38 575.203,1359.21 577.301,1360.96 579.4,1362.65 581.499,1364.27 583.597,1365.82 585.696,1367.31 587.795,1368.72 589.893,1370.08 591.992,1371.36 594.091,1372.59 596.189,1373.74 598.288,1374.84 600.387,1375.87 602.485,1376.84 604.584,1377.74 606.683,1378.59 608.781,1379.37 610.88,1380.09 612.978,1380.76 615.077,1381.36 617.176,1381.91 619.274,1382.39 621.373,1382.82 623.472,1383.19 625.57,1383.5 627.669,1383.76 629.768,1383.96 631.866,1384.11 633.965,1384.2 636.064,1384.24 638.162,1384.22 640.261,1384.15 642.36,1384.03 644.458,1383.86 646.557,1383.63 648.655,1383.36 650.754,1383.03 652.853,1382.65 654.951,1382.23 657.05,1381.75 659.149,1381.23 661.247,1380.66 663.346,1380.04 665.445,1379.38 667.543,1378.67 669.642,1377.91 671.741,1377.11 673.839,1376.26 675.938,1375.37 678.036,1374.44 680.135,1373.46 682.234,1372.44 684.332,1371.38 686.431,1370.28 688.53,1369.13 690.628,1367.95 692.727,1366.73 694.826,1365.46 696.924,1364.16 699.023,1362.82 701.122,1361.45 703.22,1360.03 705.319,1358.58 707.418,1357.09 709.516,1355.57 711.615,1354.01 713.713,1352.41 715.812,1350.79 717.911,1349.13 720.009,1347.43 722.108,1345.7 724.207,1343.94 726.305,1342.15 728.404,1340.33 730.503,1338.48 732.601,1336.59 734.7,1334.68 736.799,1332.74 738.897,1330.76 740.996,1328.76 743.095,1326.74 745.193,1324.68 747.292,1322.6 749.39,1320.49 751.489,1318.36 753.588,1316.2 755.686,1314.02 757.785,1311.81 759.884,1309.57 761.982,1307.32 764.081,1305.04 766.18,1302.73 768.278,1300.41 770.377,1298.06 772.476,1295.7 774.574,1293.31 776.673,1290.9 778.771,1288.47 780.87,1286.02 782.969,1283.55 785.067,1281.07 787.166,1278.56 789.265,1276.04 791.363,1273.5 793.462,1270.95 795.561,1268.37 797.659,1265.79 799.758,1263.18 801.857,1260.56 803.955,1257.93 806.054,1255.28 808.153,1252.61 810.251,1249.94 812.35,1247.25 814.448,1244.55 816.547,1241.83 818.646,1239.1 820.744,1236.36 822.843,1233.61 824.942,1230.85 827.04,1228.08 829.139,1225.3 831.238,1222.51 833.336,1219.71 835.435,1216.9 837.534,1214.08 839.632,1211.26 841.731,1208.42 843.83,1205.58 845.928,1202.73 848.027,1199.88 850.125,1197.01 852.224,1194.15 854.323,1191.27 856.421,1188.39 858.52,1185.51 860.619,1182.62 862.717,1179.73 864.816,1176.83 866.915,1173.93 869.013,1171.02 871.112,1168.12 873.211,1165.2 875.309,1162.29 877.408,1159.38 879.506,1156.46 881.605,1153.54 883.704,1150.62 885.802,1147.7 887.901,1144.78 890,1141.86 892.098,1138.94 894.197,1136.02 896.296,1133.1 898.394,1130.18 900.493,1127.26 902.592,1124.34 904.69,1121.43 906.789,1118.51 908.888,1115.6 910.986,1112.7 913.085,1109.79 915.183,1106.89 917.282,1103.99 919.381,1101.09 921.479,1098.2 923.578,1095.31 925.677,1092.43 927.775,1089.55 929.874,1086.68 931.973,1083.81 934.071,1080.94 936.17,1078.08 938.269,1075.23 940.367,1072.38 942.466,1069.54 944.565,1066.71 946.663,1063.88 948.762,1061.06 950.86,1058.25 952.959,1055.44 955.058,1052.64 957.156,1049.85 959.255,1047.07 961.354,1044.29 963.452,1041.53 965.551,1038.77 967.65,1036.02 969.748,1033.28 971.847,1030.55 973.946,1027.82 976.044,1025.11 978.143,1022.41 980.241,1019.71 982.34,1017.03 984.439,1014.35 986.537,1011.69 988.636,1009.04 990.735,1006.39 992.833,1003.76 994.932,1001.14 997.031,998.53 999.129,995.931 1001.23,993.343 1003.33,990.767 1005.43,988.203 1007.52,985.65 1009.62,983.109 1011.72,980.58 1013.82,978.064 1015.92,975.56 1018.02,973.068 1020.12,970.588 1022.21,968.122 1024.31,965.668 1026.41,963.227 1028.51,960.799 1030.61,958.384 1032.71,955.983 1034.81,953.595 1036.9,951.22 1039,948.859 1041.1,946.511 1043.2,944.178 1045.3,941.858 1047.4,939.552 1049.5,937.26 1051.6,934.982 1053.69,932.719 1055.79,930.47 1057.89,928.235 1059.99,926.014 1062.09,923.809 1064.19,921.617 1066.29,919.441 1068.38,917.279 1070.48,915.132 1072.58,913 1074.68,910.883 1076.78,908.781 1078.88,906.694 1080.98,904.622 1083.08,902.566 1085.17,900.524 1087.27,898.498 1089.37,896.487 1091.47,894.492 1093.57,892.512 1095.67,890.548 1097.77,888.599 1099.86,886.665 1101.96,884.748 1104.06,882.845 1106.16,880.959 1108.26,879.088 1110.36,877.233 1112.46,875.394 1114.55,873.571 1116.65,871.763 1118.75,869.971 1120.85,868.195 1122.95,866.435 1125.05,864.691 1127.15,862.963 1129.25,861.251 1131.34,859.554 1133.44,857.874 1135.54,856.209 1137.64,854.561 1139.74,852.928 1141.84,851.312 1143.94,849.711 1146.03,848.127 1148.13,846.558 1150.23,845.005 1152.33,843.469 1154.43,841.948 1156.53,840.443 1158.63,838.954 1160.73,837.481 1162.82,836.024 1164.92,834.583 1167.02,833.158 1169.12,831.749 1171.22,830.355 1173.32,828.978 1175.42,827.616 1177.51,826.27 1179.61,824.94 1181.71,823.625 1183.81,822.326 1185.91,821.043 1188.01,819.776 1190.11,818.524 1192.2,817.288 1194.3,816.068 1196.4,814.863 1198.5,813.673 1200.6,812.499 1202.7,811.34 1204.8,810.197 1206.9,809.069 1208.99,807.957 1211.09,806.86 1213.19,805.778 1215.29,804.711 1217.39,803.659 1219.49,802.623 1221.59,801.601 1223.68,800.595 1225.78,799.603 1227.88,798.626 1229.98,797.665 1232.08,796.718 1234.18,795.785 1236.28,794.868 1238.37,793.965 1240.47,793.076 1242.57,792.203 1244.67,791.343 1246.77,790.498 1248.87,789.668 1250.97,788.852 1253.07,788.049 1255.16,787.262 1257.26,786.488 1259.36,785.728 1261.46,784.982 1263.56,784.25 1265.66,783.532 1267.76,782.828 1269.85,782.138 1271.95,781.461 1274.05,780.798 1276.15,780.148 1278.25,779.511 1280.35,778.888 1282.45,778.279 1284.55,777.682 1286.64,777.099 1288.74,776.529 1290.84,775.972 1292.94,775.427 1295.04,774.896 1297.14,774.377 1299.24,773.871 1301.33,773.378 1303.43,772.898 1305.53,772.429 1307.63,771.973 1309.73,771.53 1311.83,771.099 1313.93,770.68 1316.02,770.272 1318.12,769.877 1320.22,769.494 1322.32,769.123 1324.42,768.764 1326.52,768.416 1328.62,768.08 1330.72,767.755 1332.81,767.442 1334.91,767.14 1337.01,766.849 1339.11,766.57 1341.21,766.302 1343.31,766.044 1345.41,765.798 1347.5,765.562 1349.6,765.338 1351.7,765.124 1353.8,764.92 1355.9,764.727 1358,764.545 1360.1,764.372 1362.2,764.21 1364.29,764.059 1366.39,763.917 1368.49,763.785 1370.59,763.664 1372.69,763.552 1374.79,763.449 1376.89,763.357 1378.98,763.274 1381.08,763.2 1383.18,763.136 1385.28,763.081 1387.38,763.036 1389.48,762.999 1391.58,762.972 1393.67,762.953 1395.77,762.944 1397.87,762.943 1399.97,762.951 1402.07,762.967 1404.17,762.992 1406.27,763.026 1408.37,763.067 1410.46,763.117 1412.56,763.176 1414.66,763.242 1416.76,763.316 1418.86,763.398 1420.96,763.488 1423.06,763.586 1425.15,763.691 1427.25,763.804 1429.35,763.925 1431.45,764.052 1433.55,764.187 1435.65,764.33 1437.75,764.479 1439.84,764.635 1441.94,764.799 1444.04,764.969 1446.14,765.146 1448.24,765.33 1450.34,765.52 1452.44,765.717 1454.54,765.921 1456.63,766.13 1458.73,766.346 1460.83,766.568 1462.93,766.797 1465.03,767.031 1467.13,767.271 1469.23,767.517 1471.32,767.769 1473.42,768.027 1475.52,768.29 1477.62,768.559 1479.72,768.833 1481.82,769.113 1483.92,769.397 1486.02,769.687 1488.11,769.983 1490.21,770.283 1492.31,770.588 1494.41,770.898 1496.51,771.213 1498.61,771.532 1500.71,771.856 1502.8,772.185 1504.9,772.518 1507,772.856 1509.1,773.198 1511.2,773.544 1513.3,773.895 1515.4,774.249 1517.49,774.608 1519.59,774.97 1521.69,775.337 1523.79,775.707 1525.89,776.081 1527.99,776.458 1530.09,776.839 1532.19,777.224 1534.28,777.612 1536.38,778.003 1538.48,778.398 1540.58,778.796 1542.68,779.197 1544.78,779.601 1546.88,780.008 1548.97,780.418 1551.07,780.831 1553.17,781.247 1555.27,781.665 1557.37,782.086 1559.47,782.51 1561.57,782.936 1563.67,783.365 1565.76,783.796 1567.86,784.229 1569.96,784.664 1572.06,785.102 1574.16,785.542 1576.26,785.984 1578.36,786.428 1580.45,786.873 1582.55,787.321 1584.65,787.77 1586.75,788.222 1588.85,788.674 1590.95,789.129 1593.05,789.585 1595.14,790.042 1597.24,790.501 1599.34,790.961 1601.44,791.423 1603.54,791.886 1605.64,792.35 1607.74,792.815 1609.84,793.281 1611.93,793.748 1614.03,794.216 1616.13,794.685 1618.23,795.155 1620.33,795.626 1622.43,796.097 1624.53,796.57 1626.62,797.042 1628.72,797.516 1630.82,797.989 1632.92,798.464 1635.02,798.939 1637.12,799.414 1639.22,799.889 1641.31,800.365 1643.41,800.841 1645.51,801.317 1647.61,801.793 1649.71,802.269 1651.81,802.745 1653.91,803.222 1656.01,803.698 1658.1,804.174 1660.2,804.65 1662.3,805.125 1664.4,805.601 1666.5,806.076 1668.6,806.55 1670.7,807.025 1672.79,807.499 1674.89,807.972 1676.99,808.445 1679.09,808.917 1681.19,809.389 1683.29,809.86 1685.39,810.331 1687.49,810.8 1689.58,811.269 1691.68,811.737 1693.78,812.205 1695.88,812.671 1697.98,813.136 1700.08,813.601 1702.18,814.064 1704.27,814.527 1706.37,814.988 1708.47,815.449 1710.57,815.908 1712.67,816.366 1714.77,816.823 1716.87,817.278 1718.96,817.732 1721.06,818.185 1723.16,818.637 1725.26,819.087 1727.36,819.536 1729.46,819.984 1731.56,820.43 1733.66,820.874 1735.75,821.317 1737.85,821.758 1739.95,822.198 1742.05,822.637 1744.15,823.073 1746.25,823.508 1748.35,823.941 1750.44,824.373 1752.54,824.803 1754.64,825.231 1756.74,825.657 1758.84,826.082 1760.94,826.504 1763.04,826.925 1765.14,827.344 1767.23,827.761 1769.33,828.176 1771.43,828.589 1773.53,829 1775.63,829.409 1777.73,829.816 1779.83,830.221 1781.92,830.624 1784.02,831.025 1786.12,831.424 1788.22,831.82 1790.32,832.215 1792.42,832.607 1794.52,832.997 1796.61,833.385 1798.71,833.771 1800.81,834.155 1802.91,834.536 1805.01,834.915 1807.11,835.292 1809.21,835.667 1811.31,836.039 1813.4,836.409 1815.5,836.777 1817.6,837.142 1819.7,837.505 1821.8,837.865 1823.9,838.224 1826,838.579 1828.09,838.933 1830.19,839.284 1832.29,839.632 1834.39,839.978 1836.49,840.322 1838.59,840.663 1840.69,841.002 1842.78,841.338 1844.88,841.672 1846.98,842.004 1849.08,842.332 1851.18,842.659 1853.28,842.982 1855.38,843.304 1857.48,843.622 1859.57,843.939 1861.67,844.252 1863.77,844.563 1865.87,844.872 1867.97,845.178 1870.07,845.481 1872.17,845.782 1874.26,846.081 1876.36,846.376 1878.46,846.67 1880.56,846.96 1882.66,847.248 1884.76,847.533 1886.86,847.816 1888.96,848.096 1891.05,848.374 1893.15,848.649 1895.25,848.921 1897.35,849.191 1899.45,849.458 1901.55,849.723 1903.65,849.985 1905.74,850.244 1907.84,850.501 1909.94,850.755 1912.04,851.007 1914.14,851.256 1916.24,851.502 1918.34,851.746 1920.43,851.987 1922.53,852.226 1924.63,852.462 1926.73,852.695 1928.83,852.926 1930.93,853.154 1933.03,853.38 1935.13,853.603 1937.22,853.823 1939.32,854.041 1941.42,854.256 1943.52,854.469 1945.62,854.679 1947.72,854.887 1949.82,855.092 1951.91,855.295 1954.01,855.495 1956.11,855.692 1958.21,855.887 1960.31,856.079 1962.41,856.269 1964.51,856.457 1966.61,856.642 1968.7,856.824 1970.8,857.004 1972.9,857.181 1975,857.356 1977.1,857.529 1979.2,857.698 1981.3,857.866 1983.39,858.031 1985.49,858.194 1987.59,858.354 1989.69,858.512 1991.79,858.667 1993.89,858.82 1995.99,858.97 1998.08,859.119 2000.18,859.264 2002.28,859.408 2004.38,859.549 2006.48,859.688 2008.58,859.824 2010.68,859.958 2012.78,860.09 2014.87,860.219 2016.97,860.346 2019.07,860.471 2021.17,860.593 2023.27,860.713 2025.37,860.831 2027.47,860.947 2029.56,861.061 2031.66,861.172 2033.76,861.281 2035.86,861.388 2037.96,861.492 2040.06,861.595 2042.16,861.695 2044.25,861.793 2046.35,861.889 2048.45,861.983 2050.55,862.074 2052.65,862.164 2054.75,862.252 2056.85,862.337 2058.95,862.42 2061.04,862.501 2063.14,862.581 2065.24,862.658 2067.34,862.733 2069.44,862.806 2071.54,862.877 2073.64,862.946 2075.73,863.013 2077.83,863.079 2079.93,863.142 2082.03,863.203 2084.13,863.262 2086.23,863.32 2088.33,863.375 2090.43,863.429 2092.52,863.481 2094.62,863.531 2096.72,863.579 2098.82,863.625 2100.92,863.67 2103.02,863.712 2105.12,863.753 2107.21,863.792 2109.31,863.83 2111.41,863.865 2113.51,863.899 2115.61,863.931 2117.71,863.962 2119.81,863.99 2121.9,864.017 2124,864.043 2126.1,864.067 2128.2,864.089 2130.3,864.109 2132.4,864.128 2134.5,864.145 2136.6,864.161 2138.69,864.175 2140.79,864.188 2142.89,864.199 2144.99,864.208 2147.09,864.217 2149.19,864.223 2151.29,864.228 2153.38,864.232 2155.48,864.234 2157.58,864.235 2159.68,864.234 2161.78,864.232 2163.88,864.228 2165.98,864.223 2168.08,864.217 2170.17,864.209 2172.27,864.2 2174.37,864.19 2176.47,864.179 2178.57,864.166 2180.67,864.152 2182.77,864.136 2184.86,864.119 2186.96,864.101 2189.06,864.082 2191.16,864.062 2193.26,864.04 2195.36,864.018 2197.46,863.994 2199.55,863.969 2201.65,863.943 2203.75,863.915 2205.85,863.887 2207.95,863.857 2210.05,863.827 2212.15,863.795 2214.25,863.762 2216.34,863.728 2218.44,863.694 2220.54,863.658 2222.64,863.621 2224.74,863.583 2226.84,863.544 2228.94,863.505 2231.03,863.464 2233.13,863.422 2235.23,863.38 2237.33,863.336 2239.43,863.292 2241.53,863.247 2243.63,863.201 2245.72,863.154 2247.82,863.106 2249.92,863.057 2252.02,863.008 2254.12,862.958 2256.22,862.907 2258.32,862.855 2260.42,862.802 2262.51,862.749 2264.61,862.695 2266.71,862.64 2268.81,862.585 2270.91,862.529 2273.01,862.472 2275.11,862.414 2277.2,862.356 2279.3,862.297 2281.4,862.238 2283.5,862.178 2285.6,862.117 2287.7,862.055 2289.8,861.994 2291.9,861.931 2293.99,861.868 2296.09,861.804 2298.19,861.74 2300.29,861.676 2302.39,861.61 2304.49,861.545 2306.59,861.479 2308.68,861.412 2310.78,861.345 2312.88,861.277 2314.98,861.209 2317.08,861.141 2319.18,861.072 2321.28,861.003 2323.37,860.933 2325.47,860.863 2327.57,860.792 2329.67,860.721 2331.77,860.65 2333.87,860.579 2335.97,860.507 2338.07,860.434 2340.16,860.362 2342.26,860.289 2344.36,860.216 2346.46,860.142 2348.56,860.069 2350.66,859.995 2352.76,859.92 "/>
<polyline clip-path="url(#clip301)" style="stroke:#e26f46; stroke-linecap:round; stroke-linejoin:round; stroke-width:4; stroke-opacity:1; fill:none" points="256.209,86.1857 258.307,101.44 260.406,116.616 262.505,131.715 264.603,146.735 266.702,161.675 268.801,176.535 270.899,191.314 272.998,206.012 275.096,220.628 277.195,235.16 279.294,249.61 281.392,263.975 283.491,278.255 285.59,292.451 287.688,306.56 289.787,320.584 291.886,334.52 293.984,348.369 296.083,362.13 298.182,375.802 300.28,389.386 302.379,402.88 304.478,416.285 306.576,429.599 308.675,442.823 310.773,455.955 312.872,468.996 314.971,481.945 317.069,494.802 319.168,507.566 321.267,520.237 323.365,532.815 325.464,545.299 327.563,557.689 329.661,569.985 331.76,582.187 333.859,594.293 335.957,606.305 338.056,618.221 340.154,630.041 342.253,641.766 344.352,653.395 346.45,664.927 348.549,676.363 350.648,687.703 352.746,698.946 354.845,710.092 356.944,721.14 359.042,732.092 361.141,742.946 363.24,753.703 365.338,764.362 367.437,774.924 369.536,785.388 371.634,795.754 373.733,806.023 375.831,816.193 377.93,826.266 380.029,836.24 382.127,846.117 384.226,855.896 386.325,865.576 388.423,875.159 390.522,884.644 392.621,894.031 394.719,903.319 396.818,912.511 398.917,921.604 401.015,930.6 403.114,939.498 405.213,948.298 407.311,957.001 409.41,965.607 411.508,974.115 413.607,982.527 415.706,990.841 417.804,999.058 419.903,1007.18 422.002,1015.2 424.1,1023.13 426.199,1030.96 428.298,1038.7 430.396,1046.34 432.495,1053.88 434.594,1061.33 436.692,1068.68 438.791,1075.94 440.89,1083.11 442.988,1090.17 445.087,1097.15 447.185,1104.03 449.284,1110.82 451.383,1117.51 453.481,1124.11 455.58,1130.62 457.679,1137.03 459.777,1143.35 461.876,1149.58 463.975,1155.72 466.073,1161.76 468.172,1167.72 470.271,1173.58 472.369,1179.35 474.468,1185.04 476.566,1190.63 478.665,1196.13 480.764,1201.54 482.862,1206.87 484.961,1212.1 487.06,1217.25 489.158,1222.31 491.257,1227.28 493.356,1232.17 495.454,1236.97 497.553,1241.68 499.652,1246.3 501.75,1250.85 503.849,1255.3 505.948,1259.67 508.046,1263.96 510.145,1268.16 512.243,1272.28 514.342,1276.31 516.441,1280.27 518.539,1284.14 520.638,1287.92 522.737,1291.63 524.835,1295.26 526.934,1298.8 529.033,1302.27 531.131,1305.66 533.23,1308.96 535.329,1312.19 537.427,1315.34 539.526,1318.41 541.625,1321.41 543.723,1324.33 545.822,1327.17 547.92,1329.93 550.019,1332.62 552.118,1335.24 554.216,1337.78 556.315,1340.25 558.414,1342.64 560.512,1344.96 562.611,1347.21 564.71,1349.39 566.808,1351.49 568.907,1353.53 571.006,1355.49 573.104,1357.38 575.203,1359.21 577.301,1360.96 579.4,1362.65 581.499,1364.27 583.597,1365.82 585.696,1367.31 587.795,1368.72 589.893,1370.08 591.992,1371.36 594.091,1372.59 596.189,1373.74 598.288,1374.84 600.387,1375.87 602.485,1376.84 604.584,1377.74 606.683,1378.59 608.781,1379.37 610.88,1380.09 612.978,1380.76 615.077,1381.36 617.176,1381.91 619.274,1382.39 621.373,1382.82 623.472,1383.19 625.57,1383.5 627.669,1383.76 629.768,1383.96 631.866,1384.11 633.965,1384.2 636.064,1384.24 638.162,1384.22 640.261,1384.15 642.36,1384.03 644.458,1383.86 646.557,1383.63 648.655,1383.36 650.754,1383.03 652.853,1382.65 654.951,1382.23 657.05,1381.75 659.149,1381.23 661.247,1380.66 663.346,1380.04 665.445,1379.38 667.543,1378.67 669.642,1377.91 671.741,1377.11 673.839,1376.26 675.938,1375.37 678.036,1374.44 680.135,1373.46 682.234,1372.44 684.332,1371.38 686.431,1370.28 688.53,1369.13 690.628,1367.95 692.727,1366.73 694.826,1365.46 696.924,1364.16 699.023,1362.82 701.122,1361.45 703.22,1360.03 705.319,1358.58 707.418,1357.09 709.516,1355.57 711.615,1354.01 713.713,1352.41 715.812,1350.79 717.911,1349.13 720.009,1347.43 722.108,1345.7 724.207,1343.94 726.305,1342.15 728.404,1340.33 730.503,1338.48 732.601,1336.59 734.7,1334.68 736.799,1332.74 738.897,1330.76 740.996,1328.76 743.095,1326.74 745.193,1324.68 747.292,1322.6 749.39,1320.49 751.489,1318.36 753.588,1316.2 755.686,1314.02 757.785,1311.81 759.884,1309.57 761.982,1307.32 764.081,1305.04 766.18,1302.73 768.278,1300.41 770.377,1298.06 772.476,1295.7 774.574,1293.31 776.673,1290.9 778.771,1288.47 780.87,1286.02 782.969,1283.55 785.067,1281.07 787.166,1278.56 789.265,1276.04 791.363,1273.5 793.462,1270.95 795.561,1268.37 797.659,1265.79 799.758,1263.18 801.857,1260.56 803.955,1257.93 806.054,1255.28 808.153,1252.61 810.251,1249.94 812.35,1247.25 814.448,1244.55 816.547,1241.83 818.646,1239.1 820.744,1236.36 822.843,1233.61 824.942,1230.85 827.04,1228.08 829.139,1225.3 831.238,1222.51 833.336,1219.71 835.435,1216.9 837.534,1214.08 839.632,1211.26 841.731,1208.42 843.83,1205.58 845.928,1202.73 848.027,1199.88 850.125,1197.01 852.224,1194.15 854.323,1191.27 856.421,1188.39 858.52,1185.51 860.619,1182.62 862.717,1179.73 864.816,1176.83 866.915,1173.93 869.013,1171.02 871.112,1168.12 873.211,1165.2 875.309,1162.29 877.408,1159.38 879.506,1156.46 881.605,1153.54 883.704,1150.62 885.802,1147.7 887.901,1144.78 890,1141.86 892.098,1138.94 894.197,1136.02 896.296,1133.1 898.394,1130.18 900.493,1127.26 902.592,1124.34 904.69,1121.43 906.789,1118.51 908.888,1115.6 910.986,1112.7 913.085,1109.79 915.183,1106.89 917.282,1103.99 919.381,1101.09 921.479,1098.2 923.578,1095.31 925.677,1092.43 927.775,1089.55 929.874,1086.68 931.973,1083.81 934.071,1080.94 936.17,1078.08 938.269,1075.23 940.367,1072.38 942.466,1069.54 944.565,1066.71 946.663,1063.88 948.762,1061.06 950.86,1058.25 952.959,1055.44 955.058,1052.64 957.156,1049.85 959.255,1047.07 961.354,1044.29 963.452,1041.53 965.551,1038.77 967.65,1036.02 969.748,1033.28 971.847,1030.55 973.946,1027.82 976.044,1025.11 978.143,1022.41 980.241,1019.71 982.34,1017.03 984.439,1014.35 986.537,1011.69 988.636,1009.04 990.735,1006.39 992.833,1003.76 994.932,1001.14 997.031,998.53 999.129,995.931 1001.23,993.343 1003.33,990.767 1005.43,988.203 1007.52,985.65 1009.62,983.109 1011.72,980.58 1013.82,978.064 1015.92,975.56 1018.02,973.068 1020.12,970.588 1022.21,968.122 1024.31,965.668 1026.41,963.227 1028.51,960.799 1030.61,958.384 1032.71,955.983 1034.81,953.595 1036.9,951.22 1039,948.859 1041.1,946.511 1043.2,944.178 1045.3,941.858 1047.4,939.552 1049.5,937.26 1051.6,934.982 1053.69,932.719 1055.79,930.47 1057.89,928.235 1059.99,926.014 1062.09,923.809 1064.19,921.617 1066.29,919.441 1068.38,917.279 1070.48,915.132 1072.58,913 1074.68,910.883 1076.78,908.781 1078.88,906.694 1080.98,904.622 1083.08,902.566 1085.17,900.524 1087.27,898.498 1089.37,896.487 1091.47,894.492 1093.57,892.512 1095.67,890.548 1097.77,888.599 1099.86,886.665 1101.96,884.748 1104.06,882.845 1106.16,880.959 1108.26,879.088 1110.36,877.233 1112.46,875.394 1114.55,873.571 1116.65,871.763 1118.75,869.971 1120.85,868.195 1122.95,866.435 1125.05,864.691 1127.15,862.963 1129.25,861.251 1131.34,859.554 1133.44,857.874 1135.54,856.209 1137.64,854.561 1139.74,852.928 1141.84,851.312 1143.94,849.711 1146.03,848.127 1148.13,846.558 1150.23,845.005 1152.33,843.469 1154.43,841.948 1156.53,840.443 1158.63,838.954 1160.73,837.481 1162.82,836.024 1164.92,834.583 1167.02,833.158 1169.12,831.749 1171.22,830.355 1173.32,828.978 1175.42,827.616 1177.51,826.27 1179.61,824.94 1181.71,823.625 1183.81,822.326 1185.91,821.043 1188.01,819.776 1190.11,818.524 1192.2,817.288 1194.3,816.068 1196.4,814.863 1198.5,813.673 1200.6,812.499 1202.7,811.34 1204.8,810.197 1206.9,809.069 1208.99,807.957 1211.09,806.86 1213.19,805.778 1215.29,804.711 1217.39,803.659 1219.49,802.623 1221.59,801.601 1223.68,800.595 1225.78,799.603 1227.88,798.626 1229.98,797.665 1232.08,796.718 1234.18,795.785 1236.28,794.868 1238.37,793.965 1240.47,793.076 1242.57,792.203 1244.67,791.343 1246.77,790.498 1248.87,789.668 1250.97,788.852 1253.07,788.049 1255.16,787.262 1257.26,786.488 1259.36,785.728 1261.46,784.982 1263.56,784.25 1265.66,783.532 1267.76,782.828 1269.85,782.138 1271.95,781.461 1274.05,780.798 1276.15,780.148 1278.25,779.511 1280.35,778.888 1282.45,778.279 1284.55,777.682 1286.64,777.099 1288.74,776.529 1290.84,775.972 1292.94,775.427 1295.04,774.896 1297.14,774.377 1299.24,773.871 1301.33,773.378 1303.43,772.898 1305.53,772.429 1307.63,771.973 1309.73,771.53 1311.83,771.099 1313.93,770.68 1316.02,770.272 1318.12,769.877 1320.22,769.494 1322.32,769.123 1324.42,768.764 1326.52,768.416 1328.62,768.08 1330.72,767.755 1332.81,767.442 1334.91,767.14 1337.01,766.849 1339.11,766.57 1341.21,766.302 1343.31,766.044 1345.41,765.798 1347.5,765.562 1349.6,765.338 1351.7,765.124 1353.8,764.92 1355.9,764.727 1358,764.545 1360.1,764.372 1362.2,764.21 1364.29,764.059 1366.39,763.917 1368.49,763.785 1370.59,763.664 1372.69,763.552 1374.79,763.449 1376.89,763.357 1378.98,763.274 1381.08,763.2 1383.18,763.136 1385.28,763.081 1387.38,763.036 1389.48,762.999 1391.58,762.972 1393.67,762.953 1395.77,762.944 1397.87,762.943 1399.97,762.951 1402.07,762.967 1404.17,762.992 1406.27,763.026 1408.37,763.067 1410.46,763.117 1412.56,763.176 1414.66,763.242 1416.76,763.316 1418.86,763.398 1420.96,763.488 1423.06,763.586 1425.15,763.691 1427.25,763.804 1429.35,763.925 1431.45,764.052 1433.55,764.187 1435.65,764.33 1437.75,764.479 1439.84,764.635 1441.94,764.799 1444.04,764.969 1446.14,765.146 1448.24,765.33 1450.34,765.52 1452.44,765.717 1454.54,765.921 1456.63,766.13 1458.73,766.346 1460.83,766.568 1462.93,766.797 1465.03,767.031 1467.13,767.271 1469.23,767.517 1471.32,767.769 1473.42,768.027 1475.52,768.29 1477.62,768.559 1479.72,768.833 1481.82,769.113 1483.92,769.397 1486.02,769.687 1488.11,769.983 1490.21,770.283 1492.31,770.588 1494.41,770.898 1496.51,771.213 1498.61,771.532 1500.71,771.856 1502.8,772.185 1504.9,772.518 1507,772.856 1509.1,773.198 1511.2,773.544 1513.3,773.895 1515.4,774.249 1517.49,774.608 1519.59,774.97 1521.69,775.337 1523.79,775.707 1525.89,776.081 1527.99,776.458 1530.09,776.839 1532.19,777.224 1534.28,777.612 1536.38,778.003 1538.48,778.398 1540.58,778.796 1542.68,779.197 1544.78,779.601 1546.88,780.008 1548.97,780.418 1551.07,780.831 1553.17,781.247 1555.27,781.665 1557.37,782.086 1559.47,782.51 1561.57,782.936 1563.67,783.365 1565.76,783.796 1567.86,784.229 1569.96,784.664 1572.06,785.102 1574.16,785.542 1576.26,785.984 1578.36,786.428 1580.45,786.873 1582.55,787.321 1584.65,787.77 1586.75,788.222 1588.85,788.674 1590.95,789.129 1593.05,789.585 1595.14,790.042 1597.24,790.501 1599.34,790.961 1601.44,791.423 1603.54,791.886 1605.64,792.35 1607.74,792.815 1609.84,793.281 1611.93,793.748 1614.03,794.216 1616.13,794.685 1618.23,795.155 1620.33,795.626 1622.43,796.097 1624.53,796.57 1626.62,797.042 1628.72,797.516 1630.82,797.989 1632.92,798.464 1635.02,798.939 1637.12,799.414 1639.22,799.889 1641.31,800.365 1643.41,800.841 1645.51,801.317 1647.61,801.793 1649.71,802.269 1651.81,802.745 1653.91,803.222 1656.01,803.698 1658.1,804.174 1660.2,804.65 1662.3,805.125 1664.4,805.601 1666.5,806.076 1668.6,806.55 1670.7,807.025 1672.79,807.499 1674.89,807.972 1676.99,808.445 1679.09,808.917 1681.19,809.389 1683.29,809.86 1685.39,810.331 1687.49,810.8 1689.58,811.269 1691.68,811.737 1693.78,812.205 1695.88,812.671 1697.98,813.136 1700.08,813.601 1702.18,814.064 1704.27,814.527 1706.37,814.988 1708.47,815.449 1710.57,815.908 1712.67,816.366 1714.77,816.823 1716.87,817.278 1718.96,817.732 1721.06,818.185 1723.16,818.637 1725.26,819.087 1727.36,819.536 1729.46,819.984 1731.56,820.43 1733.66,820.874 1735.75,821.317 1737.85,821.758 1739.95,822.198 1742.05,822.637 1744.15,823.073 1746.25,823.508 1748.35,823.941 1750.44,824.373 1752.54,824.803 1754.64,825.231 1756.74,825.657 1758.84,826.082 1760.94,826.504 1763.04,826.925 1765.14,827.344 1767.23,827.761 1769.33,828.176 1771.43,828.589 1773.53,829 1775.63,829.409 1777.73,829.816 1779.83,830.221 1781.92,830.624 1784.02,831.025 1786.12,831.424 1788.22,831.82 1790.32,832.215 1792.42,832.607 1794.52,832.997 1796.61,833.385 1798.71,833.771 1800.81,834.155 1802.91,834.536 1805.01,834.915 1807.11,835.292 1809.21,835.667 1811.31,836.039 1813.4,836.409 1815.5,836.777 1817.6,837.142 1819.7,837.505 1821.8,837.865 1823.9,838.224 1826,838.579 1828.09,838.933 1830.19,839.284 1832.29,839.632 1834.39,839.978 1836.49,840.322 1838.59,840.663 1840.69,841.002 1842.78,841.338 1844.88,841.672 1846.98,842.004 1849.08,842.332 1851.18,842.659 1853.28,842.982 1855.38,843.304 1857.48,843.622 1859.57,843.939 1861.67,844.252 1863.77,844.563 1865.87,844.872 1867.97,845.178 1870.07,845.481 1872.17,845.782 1874.26,846.081 1876.36,846.376 1878.46,846.67 1880.56,846.96 1882.66,847.248 1884.76,847.533 1886.86,847.816 1888.96,848.096 1891.05,848.374 1893.15,848.649 1895.25,848.921 1897.35,849.191 1899.45,849.458 1901.55,849.723 1903.65,849.985 1905.74,850.244 1907.84,850.501 1909.94,850.755 1912.04,851.007 1914.14,851.256 1916.24,851.502 1918.34,851.746 1920.43,851.987 1922.53,852.226 1924.63,852.462 1926.73,852.695 1928.83,852.926 1930.93,853.154 1933.03,853.38 1935.13,853.603 1937.22,853.823 1939.32,854.041 1941.42,854.256 1943.52,854.469 1945.62,854.679 1947.72,854.887 1949.82,855.092 1951.91,855.295 1954.01,855.495 1956.11,855.692 1958.21,855.887 1960.31,856.079 1962.41,856.269 1964.51,856.457 1966.61,856.642 1968.7,856.824 1970.8,857.004 1972.9,857.181 1975,857.356 1977.1,857.529 1979.2,857.698 1981.3,857.866 1983.39,858.031 1985.49,858.194 1987.59,858.354 1989.69,858.512 1991.79,858.667 1993.89,858.82 1995.99,858.97 1998.08,859.119 2000.18,859.264 2002.28,859.408 2004.38,859.549 2006.48,859.688 2008.58,859.824 2010.68,859.958 2012.78,860.09 2014.87,860.219 2016.97,860.346 2019.07,860.471 2021.17,860.593 2023.27,860.713 2025.37,860.831 2027.47,860.947 2029.56,861.061 2031.66,861.172 2033.76,861.281 2035.86,861.388 2037.96,861.492 2040.06,861.595 2042.16,861.695 2044.25,861.793 2046.35,861.889 2048.45,861.983 2050.55,862.074 2052.65,862.164 2054.75,862.252 2056.85,862.337 2058.95,862.42 2061.04,862.501 2063.14,862.581 2065.24,862.658 2067.34,862.733 2069.44,862.806 2071.54,862.877 2073.64,862.946 2075.73,863.013 2077.83,863.079 2079.93,863.142 2082.03,863.203 2084.13,863.262 2086.23,863.32 2088.33,863.375 2090.43,863.429 2092.52,863.481 2094.62,863.531 2096.72,863.579 2098.82,863.625 2100.92,863.67 2103.02,863.712 2105.12,863.753 2107.21,863.792 2109.31,863.83 2111.41,863.865 2113.51,863.899 2115.61,863.931 2117.71,863.962 2119.81,863.99 2121.9,864.017 2124,864.043 2126.1,864.067 2128.2,864.089 2130.3,864.109 2132.4,864.128 2134.5,864.145 2136.6,864.161 2138.69,864.175 2140.79,864.188 2142.89,864.199 2144.99,864.208 2147.09,864.217 2149.19,864.223 2151.29,864.228 2153.38,864.232 2155.48,864.234 2157.58,864.235 2159.68,864.234 2161.78,864.232 2163.88,864.228 2165.98,864.223 2168.08,864.217 2170.17,864.209 2172.27,864.2 2174.37,864.19 2176.47,864.179 2178.57,864.166 2180.67,864.152 2182.77,864.136 2184.86,864.119 2186.96,864.101 2189.06,864.082 2191.16,864.062 2193.26,864.04 2195.36,864.018 2197.46,863.994 2199.55,863.969 2201.65,863.943 2203.75,863.915 2205.85,863.887 2207.95,863.857 2210.05,863.827 2212.15,863.795 2214.25,863.762 2216.34,863.728 2218.44,863.694 2220.54,863.658 2222.64,863.621 2224.74,863.583 2226.84,863.544 2228.94,863.505 2231.03,863.464 2233.13,863.422 2235.23,863.38 2237.33,863.336 2239.43,863.292 2241.53,863.247 2243.63,863.201 2245.72,863.154 2247.82,863.106 2249.92,863.057 2252.02,863.008 2254.12,862.958 2256.22,862.907 2258.32,862.855 2260.42,862.802 2262.51,862.749 2264.61,862.695 2266.71,862.64 2268.81,862.585 2270.91,862.529 2273.01,862.472 2275.11,862.414 2277.2,862.356 2279.3,862.297 2281.4,862.238 2283.5,862.178 2285.6,862.117 2287.7,862.055 2289.8,861.994 2291.9,861.931 2293.99,861.868 2296.09,861.804 2298.19,861.74 2300.29,861.676 2302.39,861.61 2304.49,861.545 2306.59,861.479 2308.68,861.412 2310.78,861.345 2312.88,861.277 2314.98,861.209 2317.08,861.141 2319.18,861.072 2321.28,861.003 2323.37,860.933 2325.47,860.863 2327.57,860.792 2329.67,860.721 2331.77,860.65 2333.87,860.579 2335.97,860.507 2338.07,860.434 2340.16,860.362 2342.26,860.289 2344.36,860.216 2346.46,860.142 2348.56,860.069 2350.66,859.995 2352.76,859.92 "/>
<path clip-path="url(#clip300)" d="M1965.67 248.629 L2282.87 248.629 L2282.87 93.1086 L1965.67 93.1086  Z" fill="#ffffff" fill-rule="evenodd" fill-opacity="1"/>
<polyline clip-path="url(#clip300)" style="stroke:#000000; stroke-linecap:round; stroke-linejoin:round; stroke-width:4; stroke-opacity:1; fill:none" points="1965.67,248.629 2282.87,248.629 2282.87,93.1086 1965.67,93.1086 1965.67,248.629 "/>
<polyline clip-path="url(#clip300)" style="stroke:#009af9; stroke-linecap:round; stroke-linejoin:round; stroke-width:4; stroke-opacity:1; fill:none" points="1988.97,144.949 2128.74,144.949 "/>
<path clip-path="url(#clip300)" d="M2170.8 149.289 Q2170.8 144.59 2168.86 141.928 Q2166.94 139.243 2163.56 139.243 Q2160.18 139.243 2158.23 141.928 Q2156.31 144.59 2156.31 149.289 Q2156.31 153.988 2158.23 156.673 Q2160.18 159.335 2163.56 159.335 Q2166.94 159.335 2168.86 156.673 Q2170.8 153.988 2170.8 149.289 M2156.31 140.238 Q2157.66 137.923 2159.69 136.812 Q2161.75 135.678 2164.6 135.678 Q2169.32 135.678 2172.26 139.428 Q2175.22 143.178 2175.22 149.289 Q2175.22 155.4 2172.26 159.15 Q2169.32 162.9 2164.6 162.9 Q2161.75 162.9 2159.69 161.789 Q2157.66 160.655 2156.31 158.34 L2156.31 162.229 L2152.03 162.229 L2152.03 126.21 L2156.31 126.21 L2156.31 140.238 Z" fill="#000000" fill-rule="nonzero" fill-opacity="1" /><path clip-path="url(#clip300)" d="M2179.23 136.303 L2183.74 136.303 L2191.84 158.062 L2199.95 136.303 L2204.46 136.303 L2194.74 162.229 L2188.95 162.229 L2179.23 136.303 Z" fill="#000000" fill-rule="nonzero" fill-opacity="1" /><path clip-path="url(#clip300)" d="M2219.6 145.585 L2219.6 152.807 L2227.72 152.807 L2227.72 155.006 L2219.6 155.006 L2219.6 162.229 L2217.17 162.229 L2217.17 155.006 L2209.04 155.006 L2209.04 152.807 L2217.17 152.807 L2217.17 145.585 L2219.6 145.585 Z" fill="#000000" fill-rule="nonzero" fill-opacity="1" /><path clip-path="url(#clip300)" d="M2232.31 136.303 L2236.82 136.303 L2244.92 158.062 L2253.03 136.303 L2257.54 136.303 L2247.82 162.229 L2242.03 162.229 L2232.31 136.303 Z" fill="#000000" fill-rule="nonzero" fill-opacity="1" /><polyline clip-path="url(#clip300)" style="stroke:#e26f46; stroke-linecap:round; stroke-linejoin:round; stroke-width:4; stroke-opacity:1; fill:none" points="1988.97,196.789 2128.74,196.789 "/>
<path clip-path="url(#clip300)" d="M2170.8 201.129 Q2170.8 196.43 2168.86 193.768 Q2166.94 191.083 2163.56 191.083 Q2160.18 191.083 2158.23 193.768 Q2156.31 196.43 2156.31 201.129 Q2156.31 205.828 2158.23 208.513 Q2160.18 211.175 2163.56 211.175 Q2166.94 211.175 2168.86 208.513 Q2170.8 205.828 2170.8 201.129 M2156.31 192.078 Q2157.66 189.763 2159.69 188.652 Q2161.75 187.518 2164.6 187.518 Q2169.32 187.518 2172.26 191.268 Q2175.22 195.018 2175.22 201.129 Q2175.22 207.24 2172.26 210.99 Q2169.32 214.74 2164.6 214.74 Q2161.75 214.74 2159.69 213.629 Q2157.66 212.495 2156.31 210.18 L2156.31 214.069 L2152.03 214.069 L2152.03 178.05 L2156.31 178.05 L2156.31 192.078 Z" fill="#000000" fill-rule="nonzero" fill-opacity="1" /><path clip-path="url(#clip300)" d="M2186.41 210.18 L2186.41 223.93 L2182.12 223.93 L2182.12 188.143 L2186.41 188.143 L2186.41 192.078 Q2187.75 189.763 2189.78 188.652 Q2191.84 187.518 2194.69 187.518 Q2199.41 187.518 2202.35 191.268 Q2205.32 195.018 2205.32 201.129 Q2205.32 207.24 2202.35 210.99 Q2199.41 214.74 2194.69 214.74 Q2191.84 214.74 2189.78 213.629 Q2187.75 212.495 2186.41 210.18 M2200.9 201.129 Q2200.9 196.43 2198.95 193.768 Q2197.03 191.083 2193.65 191.083 Q2190.27 191.083 2188.33 193.768 Q2186.41 196.43 2186.41 201.129 Q2186.41 205.828 2188.33 208.513 Q2190.27 211.175 2193.65 211.175 Q2197.03 211.175 2198.95 208.513 Q2200.9 205.828 2200.9 201.129 Z" fill="#000000" fill-rule="nonzero" fill-opacity="1" /><path clip-path="url(#clip300)" d="M2221.64 197.425 L2221.64 204.647 L2229.76 204.647 L2229.76 206.846 L2221.64 206.846 L2221.64 214.069 L2219.21 214.069 L2219.21 206.846 L2211.08 206.846 L2211.08 204.647 L2219.21 204.647 L2219.21 197.425 L2221.64 197.425 Z" fill="#000000" fill-rule="nonzero" fill-opacity="1" /><path clip-path="url(#clip300)" d="M2234.34 188.143 L2238.86 188.143 L2246.96 209.902 L2255.06 188.143 L2259.58 188.143 L2249.85 214.069 L2244.07 214.069 L2234.34 188.143 Z" fill="#000000" fill-rule="nonzero" fill-opacity="1" /></svg>
